<?xml version="1.0" standalone="no"?>
<!DOCTYPE svg PUBLIC "-//W3C//DTD SVG 1.1//EN" "http://www.w3.org/Graphics/SVG/1.1/DTD/svg11.dtd" >
<svg xmlns="http://www.w3.org/2000/svg">
<metadata>Generated by IcoMoon</metadata>
<defs>
<font id="icomoon" horiz-adv-x="1024">
<font-face units-per-em="1024" ascent="960" descent="-64" />
<missing-glyph horiz-adv-x="1024" />
<glyph unicode="&#x20;" horiz-adv-x="512" d="" />
<glyph unicode="&#xe900;" glyph-name="alarm-bell-2" d="M895.985 213.329c-16.974 0-33.252 6.745-45.252 18.746-12.005 12.001-18.746 28.282-18.746 45.252v207.437c2.464 81.020-24.142 160.243-75.005 223.353s-122.626 105.937-202.317 120.742v88.445c0 11.316-4.496 22.167-12.496 30.169s-18.854 12.496-30.169 12.496c-11.314 0-22.168-4.494-30.169-12.496s-12.496-18.854-12.496-30.169v-88.445c-79.692-14.805-151.454-57.631-202.317-120.742s-77.469-142.334-75.005-223.353v-207.437c0-16.97-6.741-33.252-18.746-45.252-12.001-12.001-28.279-18.746-45.252-18.746-11.316 0-22.167-4.496-30.168-12.496s-12.497-18.851-12.497-30.169c0-11.314 4.496-22.166 12.497-30.165 8.001-8.004 18.853-12.5 30.168-12.5h767.97c11.314 0 22.168 4.496 30.169 12.5 8.001 8.001 12.496 18.851 12.496 30.165 0 11.318-4.496 22.168-12.496 30.169s-18.854 12.496-30.169 12.496zM607.399 64.002h-190.798c-2.619-0.004-5.144-0.973-7.096-2.717-1.952-1.748-3.192-4.151-3.485-6.754-0.464-3.936-0.693-7.894-0.683-11.861 0-28.288 11.237-55.417 31.241-75.421 20.005-20.002 47.133-31.241 75.421-31.241s55.421 11.24 75.421 31.241c20.005 20.005 31.241 47.133 31.241 75.421 0.011 3.967-0.219 7.925-0.683 11.861-0.273 2.611-1.509 5.024-3.464 6.776s-4.492 2.713-7.117 2.696z" />
<glyph unicode="&#xe901;" glyph-name="alarm-bell-3" d="M512.096-63.993c-20.053 0-40.061 5.12-57.854 14.847-28.371 15.489-49.021 41.129-58.11 72.148-4.99 16.937 4.737 34.729 21.674 39.72 2.945 0.853 5.973 1.28 9.004 1.28 14.079 0 26.708-9.428 30.719-22.954 4.308-14.633 14.035-26.708 27.391-34.047 8.404-4.564 17.79-6.997 27.22-6.997 5.417 0 10.878 0.812 16.169 2.348 18.687 5.502 33.152 19.967 38.654 38.654 3.969 13.523 16.598 22.995 30.719 22.995 3.031 0 6.017-0.427 8.96-1.28 16.939-4.99 26.708-22.783 21.718-39.72-11.649-39.722-42.324-70.397-82.046-82.046-11.178-3.284-22.698-4.949-34.217-4.949zM128.152 127.999c-12.16 0-23.423 7.041-28.756 17.963-5.418 11.093-4.011 24.019 3.541 33.747 0.256 0.385 57.214 82.729 57.214 332.275 0 183.162 139.343 334.282 319.986 350.537v65.448c0 17.663 14.335 31.999 31.999 31.999s31.999-14.335 31.999-31.999v-65.448c180.644-16.255 319.988-167.373 319.988-350.537 0-268.916 53.161-327.923 53.673-328.477 9.301-8.492 12.673-22.698 7.98-34.9-4.864-12.502-16.513-20.609-29.654-20.609h-767.969zM841.083 191.997c-20.565 52.563-41 148.048-41 319.988 0 158.799-129.19 287.99-287.989 287.99s-287.989-129.191-287.989-287.99c0-168.824-24.746-267.807-44.628-319.988h661.605z" />
<glyph unicode="&#xe902;" glyph-name="alert-circle-1-1" d="M511.297 959.853c-136.784-2.24-267.195-58.219-363.037-155.838-47.955-47.746-85.793-104.668-111.249-167.368-25.456-62.698-38.009-129.886-36.911-197.546-0.079-66.117 12.89-131.596 38.164-192.689s62.355-116.598 109.118-163.335c46.762-46.734 102.292-83.783 163.398-109.021s126.595-38.167 192.71-38.047h9.13c136.825 1.407 267.506 57.035 363.37 154.679 95.86 97.644 149.072 229.326 147.956 366.158v0c0.157 66.916-13.066 133.187-38.897 194.918-25.828 61.731-63.738 117.677-111.502 164.542s-104.417 83.707-166.626 108.36-128.722 36.616-195.624 35.188v0zM448.033 254.168c-0.307 8.366 1.055 16.707 4.011 24.538 2.952 7.833 7.441 14.998 13.195 21.073 5.754 6.078 12.666 10.946 20.326 14.322s15.915 5.192 24.282 5.338h1.153c16.834-0.035 33.003-6.581 45.116-18.271 12.11-11.69 19.226-27.616 19.855-44.44 0.315-8.366-1.044-16.711-3.997-24.544s-7.437-15.001-13.195-21.081c-5.758-6.078-12.67-10.946-20.329-14.318-7.662-3.376-15.922-5.185-24.292-5.328h-1.153c-16.827 0.055-32.981 6.608-45.092 18.295-12.106 11.686-19.23 27.603-19.878 44.416v0zM469.362 426.599v255.963c0 11.314 4.496 22.166 12.496 30.165s18.851 12.496 30.165 12.496c11.314 0 22.166-4.496 30.165-12.496s12.493-18.851 12.493-30.165v-255.963c0-11.312-4.492-22.162-12.493-30.163s-18.851-12.496-30.165-12.496c-11.314 0-22.166 4.496-30.165 12.496s-12.496 18.851-12.496 30.163z" />
<glyph unicode="&#xe903;" glyph-name="alert-circle-1" d="M512.009 191.998c26.511 0 47.997 21.49 47.997 47.999 0 26.507-21.486 47.997-47.997 47.997s-47.997-21.49-47.997-47.997c0-26.511 21.486-47.999 47.997-47.999zM512.009 351.992c-8.485 0-16.626 3.372-22.626 9.373s-9.373 14.141-9.373 22.626v351.986c0 8.489 3.372 16.626 9.373 22.626 6 6.004 14.141 9.373 22.626 9.373s16.626-3.369 22.626-9.373c6-6 9.373-14.138 9.373-22.626v-351.986c0-8.485-3.372-16.626-9.373-22.626s-14.141-9.373-22.626-9.373zM512.009-63.992c-282.316 0-511.98 229.667-511.98 511.98 0 282.316 229.664 511.981 511.98 511.981 282.313 0 511.98-229.664 511.98-511.981 0-282.313-229.667-511.98-511.98-511.98zM512.009 895.972c-247.030 0-447.983-200.954-447.983-447.984s200.952-447.983 447.983-447.983c247.030 0 447.983 200.952 447.983 447.983s-200.952 447.984-447.983 447.984z" />
<glyph unicode="&#xe904;" glyph-name="arrow-button-down-1" d="M10.772 652.464l468.571-532.009c4.246-4.426 9.342-7.949 14.983-10.355 5.638-2.407 11.71-3.649 17.844-3.649s12.202 1.243 17.844 3.649c5.642 2.407 10.738 5.929 14.983 10.355l468.357 532.009c3.744 4.218 6.605 9.15 8.406 14.495 1.805 5.349 2.516 11.003 2.089 16.632-0.427 5.625-1.98 11.11-4.566 16.123-2.587 5.017-6.154 9.461-10.491 13.069l-78.922 66.42c-8.799 7.42-20.164 11.082-31.639 10.195-11.478-0.885-22.148-6.248-29.705-14.93l-348.314-403.262c-1.004-1.164-2.243-2.096-3.638-2.737-1.396-0.639-2.912-0.969-4.448-0.969-1.532 0-3.052 0.331-4.448 0.969-1.392 0.641-2.635 1.573-3.634 2.737l-348.444 403.303c-7.564 8.642-18.235 13.95-29.692 14.762-5.68 0.507-11.403-0.133-16.834-1.873-5.429-1.744-10.454-4.56-14.776-8.281l-78.963-66.335c-4.364-3.604-7.957-8.045-10.566-13.066s-4.181-10.515-4.621-16.158c-0.427-5.632 0.295-11.294 2.12-16.639s4.718-10.263 8.502-14.458z" />
<glyph unicode="&#xe905;" glyph-name="arrow-button-up-1" d="M1013.242 243.508l-468.587 532.026c-4.247 4.427-9.342 7.949-14.984 10.356s-11.71 3.648-17.845 3.648c-6.133 0-12.202-1.241-17.845-3.648s-10.738-5.929-14.981-10.356l-468.375-532.026c-3.747-4.219-6.605-9.15-8.409-14.496-1.803-5.349-2.512-11.004-2.087-16.633 0.425-5.625 1.979-11.11 4.565-16.124s6.156-9.458 10.494-13.069l78.922-66.423c8.801-7.42 20.166-11.082 31.642-10.196s22.146 6.249 29.703 14.929l348.325 403.273c1 1.164 2.243 2.099 3.639 2.737 1.392 0.641 2.912 0.973 4.448 0.973 1.532 0 3.052-0.331 4.448-0.973 1.392-0.639 2.635-1.573 3.635-2.737l348.453-403.144c3.755-4.325 8.325-7.864 13.448-10.417 5.127-2.556 10.704-4.076 16.414-4.472 5.68-0.505 11.404 0.129 16.834 1.873s10.454 4.56 14.78 8.281l78.962 66.463c4.332 3.619 7.888 8.063 10.469 13.080 2.58 5.015 4.131 10.496 4.557 16.117 0.423 5.625-0.28 11.277-2.079 16.622-1.796 5.345-4.645 10.277-8.38 14.502l-0.171-0.171z" />
<glyph unicode="&#xe906;" glyph-name="arrow-left-1-1" d="M745.354-63.993c-8.533 0-16.595 3.328-22.612 9.386l-457.369 457.369c-12.073 12.076-18.729 28.118-18.729 45.184s6.612 33.149 18.687 45.225l457.41 457.41c6.017 6.058 14.079 9.386 22.612 9.386s16.598-3.328 22.612-9.386c6.058-6.016 9.386-14.079 9.386-22.612s-3.328-16.597-9.386-22.612l-457.369-457.37 457.369-457.369c6.058-6.058 9.386-14.079 9.386-22.612s-3.328-16.595-9.386-22.612c-6.058-6.014-14.079-9.386-22.612-9.386z" />
<glyph unicode="&#xe907;" glyph-name="arrow-right-1-1" d="M278.649-63.993c-8.533 0-16.595 3.328-22.612 9.386-12.458 12.458-12.458 32.767 0 45.269l457.369 457.325-457.369 457.37c-6.058 6.016-9.386 14.079-9.386 22.612s3.328 16.597 9.386 22.612c6.017 6.058 14.079 9.386 22.612 9.386s16.598-3.328 22.612-9.386l457.369-457.37c24.916-24.916 24.96-65.489 0.044-90.406l-457.413-457.413c-6.014-6.058-14.079-9.386-22.612-9.386z" />
<glyph unicode="&#xe90f;" glyph-name="chat-translate-1" d="M320.007 575.982c-17.663 0-31.999 14.335-31.999 31.999v31.999h-63.998v-31.999c0-17.663-14.335-31.999-31.999-31.999s-31.999 14.335-31.999 31.999v127.995c0 52.949 43.048 95.998 95.996 95.998 52.946 0 95.996-43.048 95.996-95.998v-127.995c0-17.663-14.335-31.999-31.999-31.999zM288.009 703.977v31.999c0 17.663-14.335 31.999-31.999 31.999s-31.999-14.335-31.999-31.999v-31.999h63.998zM829.557 224.081c-47.146 3.201-92.371 23.722-126.292 56.915-38.654-37.843-81.401-57-127.268-57-17.663 0-31.999 14.335-31.999 31.999s14.335 31.999 31.999 31.999c69.971 0 119.121 77.48 143.737 127.995h-143.737c-17.663 0-31.999 14.335-31.999 31.999s14.335 31.999 31.999 31.999h95.996v31.999c0 17.663 14.335 31.999 31.999 31.999s31.999-14.335 31.999-31.999v-31.999h95.996c17.663 0 31.999-14.335 31.999-31.999s-14.335-31.999-31.999-31.999h-41.938c-8.748-21.247-23.766-53.246-45.61-85.245 23.507-25.043 55.594-40.488 89.726-42.836 8.533-0.553 16.339-4.437 21.93-10.878 5.632-6.444 8.404-14.677 7.806-23.21-1.109-16.725-15.103-29.824-31.913-29.824-0.768 0-1.577 0.044-2.431 0.085zM863.986-63.993c-8.533 0-16.598 3.328-22.612 9.386l-182.606 182.606h-178.766c-52.949 0-95.996 43.050-95.996 95.996v319.988c0 52.949 43.048 95.996 95.996 95.996h447.983c52.949 0 95.996-43.048 95.996-95.996v-319.988c0-52.946-43.048-95.996-95.996-95.996h-31.999v-159.994c0-12.97-7.765-24.575-19.753-29.566-3.884-1.621-8.025-2.433-12.246-2.433zM480.001 575.982c-17.663 0-31.999-14.335-31.999-31.999v-319.988c0-17.663 14.335-31.999 31.999-31.999h191.993c8.448 0 16.683-3.413 22.612-9.386l137.381-137.381v114.769c0 17.663 14.335 31.999 31.999 31.999h63.998c17.663 0 31.999 14.335 31.999 31.999v319.988c0 17.663-14.335 31.999-31.999 31.999h-447.983zM160.014 255.994c-4.224 0-8.362 0.812-12.245 2.433-11.989 4.99-19.754 16.595-19.754 29.566v159.994h-31.999c-52.947 0-95.996 43.050-95.996 95.996v319.989c0 52.947 43.049 95.996 95.996 95.996h447.983c52.949 0 95.996-43.049 95.996-95.996v-127.996c0-17.663-14.335-31.999-31.999-31.999s-31.999 14.335-31.999 31.999v127.996c0 17.663-14.335 31.999-31.999 31.999h-447.983c-17.663 0-31.999-14.335-31.999-31.999v-319.989c0-17.663 14.335-31.999 31.999-31.999h63.998c17.663 0 31.999-14.335 31.999-31.999v-114.725l73.384 73.384c6.014 6.014 14.079 9.342 22.612 9.342s16.595-3.328 22.612-9.386c12.458-12.458 12.458-32.767 0-45.266l-127.995-127.995c-6.014-6.017-14.079-9.345-22.612-9.345z" />
<glyph unicode="&#xe910;" glyph-name="check-circle-1-1-1" d="M512 959.968c-101.26 0-200.246-30.027-284.44-86.285-84.197-56.256-149.818-136.217-188.569-229.77s-48.889-196.495-29.135-295.809c19.755-99.313 68.516-190.542 140.117-262.144 71.603-71.599 162.827-120.363 262.144-140.116 99.313-19.755 202.256-9.618 295.809 29.132 93.548 38.753 173.511 104.372 229.767 188.569 56.259 84.194 86.286 183.18 86.286 284.44-0.157 135.74-54.15 265.871-150.13 361.851-95.983 95.98-226.114 149.972-361.85 150.13v0zM807.542 610.114l-292.043-396.314c-3.448-4.573-7.772-8.417-12.721-11.301-4.949-2.888-10.424-4.758-16.103-5.502-5.68-0.748-11.452-0.355-16.977 1.153-5.526 1.505-10.697 4.1-15.209 7.629l-208.547 166.735c-4.376 3.503-8.017 7.83-10.721 12.741-2.704 4.908-4.413 10.305-5.030 15.875-1.249 11.246 2.024 22.534 9.096 31.371s17.366 14.502 28.616 15.751c11.25 1.245 22.534-2.024 31.371-9.096l173.903-139.132 265.676 360.563c3.199 4.798 7.334 8.901 12.165 12.056 4.826 3.153 10.244 5.297 15.922 6.301 5.682 1 11.506 0.843 17.121-0.471 5.618-1.311 10.909-3.748 15.557-7.164 4.649-3.413 8.553-7.738 11.485-12.704 2.928-4.969 4.822-10.478 5.564-16.199s0.315-11.53-1.256-17.079c-1.567-5.55-4.247-10.725-7.868-15.213z" />
<glyph unicode="&#xe911;" glyph-name="check-circle-1-1" d="M397.87 195.539c-12.642-0.051-25.098 3.035-36.255 8.986-11.154 5.949-20.657 14.574-27.658 25.104l-104.103 147.706c-2.42 3.437-4.14 7.314-5.058 11.417-0.921 4.103-1.028 8.345-0.307 12.489 0.72 4.14 2.245 8.1 4.496 11.653s5.178 6.625 8.614 9.045c3.437 2.42 7.318 4.14 11.421 5.061s8.345 1.024 12.485 0.307c4.144-0.72 8.102-2.249 11.656-4.498 3.549-2.249 6.625-5.174 9.045-8.612l104.529-148.348c1.157-1.921 2.789-3.509 4.741-4.614 1.949-1.105 4.151-1.693 6.393-1.7 1.959 0.004 3.891 0.461 5.638 1.345 1.748 0.88 3.267 2.16 4.43 3.735l335.006 423.876c2.529 3.505 5.741 6.461 9.445 8.693 3.704 2.229 7.82 3.687 12.1 4.28 4.284 0.593 8.638 0.317 12.81-0.819 4.171-1.133 8.069-3.103 11.458-5.785 3.389-2.68 6.198-6.021 8.26-9.82 2.065-3.799 3.335-7.977 3.741-12.281 0.403-4.304-0.068-8.642-1.389-12.758s-3.461-7.922-6.29-11.189l-334.623-423.364c-5.052-6.581-11.148-12.288-18.046-16.895-12.564-8.489-27.378-13.021-42.538-13.014zM512-63.993c-282.316 0-511.98 229.667-511.98 511.98 0 282.316 229.664 511.981 511.98 511.981 282.313 0 511.98-229.664 511.98-511.981 0-282.313-229.667-511.98-511.98-511.98zM512 895.971c-247.030 0-447.983-200.954-447.983-447.984s200.952-447.983 447.983-447.983c247.030 0 447.983 200.952 447.983 447.983s-200.952 447.984-447.983 447.984z" />
<glyph unicode="&#xe912;" glyph-name="close-1" d="M991.869-63.912c-4.201-0.013-8.362 0.809-12.246 2.42-3.881 1.611-7.404 3.976-10.36 6.962l-457.28 457.236-457.28-457.236c-2.953-2.997-6.473-5.38-10.354-7.004s-8.046-2.461-12.254-2.461c-4.208 0-8.373 0.836-12.254 2.461s-7.401 4.007-10.354 7.004c-5.984 6.010-9.342 14.147-9.342 22.63s3.36 16.619 9.342 22.63l457.281 457.28-457.281 457.236c-6.057 6.014-9.385 14.077-9.385 22.608s3.327 16.593 9.385 22.608c6.014 6.057 14.077 9.385 22.608 9.385s16.593-3.327 22.608-9.385l457.28-457.237 457.28 457.28c2.952 2.997 6.472 5.377 10.352 7.002s8.048 2.461 12.253 2.461c4.208 0 8.376-0.836 12.257-2.461s7.4-4.005 10.352-7.002c2.991-2.963 5.362-6.488 6.98-10.372s2.451-8.050 2.451-12.258c0-4.208-0.833-8.374-2.451-12.258s-3.991-7.409-6.98-10.372l-457.28-457.28 457.28-457.28c5.984-6.010 9.342-14.147 9.342-22.63s-3.359-16.615-9.342-22.63c-2.967-2.969-6.489-5.325-10.369-6.929s-8.041-2.424-12.24-2.409z" />
<glyph unicode="&#xe913;" glyph-name="delete-1" d="M512-63.993c-135.419 0-263.072 52.522-359.666 147.962-0.768 0.512-1.621 1.195-2.475 2.092-0.512 0.553-1.152 1.321-1.749 2.133-95.484 96.594-148.090 224.289-148.090 359.793 0 282.316 229.664 511.981 511.98 511.981 135.419 0 263.114-52.521 359.666-147.962 0.727-0.512 1.492-1.109 2.263-1.877 0.639-0.597 1.321-1.451 1.959-2.347 95.528-96.592 148.092-224.291 148.092-359.795 0-282.313-229.667-511.98-511.98-511.98zM218.891 109.612c81.575-70.824 184.995-109.608 293.109-109.608 247.030 0 447.983 200.952 447.983 447.983 0 108.113-38.781 211.533-109.608 293.109l-631.483-631.483zM512 895.971c-247.030 0-447.983-200.954-447.983-447.984 0-108.113 38.825-211.533 109.605-293.109l631.486 631.486c-81.575 70.78-184.995 109.605-293.109 109.605z" />
<glyph unicode="&#xe914;" glyph-name="developer-community-github-1-1" d="M512.871 948.495c-122.057 0.036-240.123-43.473-332.964-122.705-92.844-79.232-154.377-188.986-173.532-309.529s5.322-243.965 69.033-348.074c63.71-104.109 162.472-182.074 278.528-219.875h12.39c6.045-0.376 12.1 0.539 17.766 2.683 5.662 2.144 10.806 5.465 15.090 9.748s7.605 9.428 9.748 15.093c2.144 5.662 3.059 11.717 2.683 17.762v55.543c-0.42 2.799-1.389 5.488-2.857 7.909s-3.4 4.526-5.686 6.192c-2.481 2.007-5.382 3.433-8.489 4.171-3.107 0.741-6.334 0.775-9.458 0.103-114.5-24.78-138.852 46.997-140.563 51.697-14.339 37.976-39.989 70.636-73.486 93.566-2.008 1.737-4.151 3.308-6.409 4.7 4.965 2.672 10.645 3.72 16.235 2.991 10.738-1.492 20.906-5.741 29.518-12.329 8.608-6.588 15.366-15.294 19.615-25.268 16.527-28.78 43.573-50.023 75.449-59.267 31.872-9.246 66.089-5.765 95.45 9.708 3.151 1.376 5.922 3.492 8.080 6.17s3.635 5.837 4.31 9.209c1.635 19.762 10.093 38.34 23.927 52.55 3.068 2.727 5.29 6.284 6.393 10.24s1.041 8.144-0.177 12.066c-1.215 3.921-3.536 7.41-6.686 10.049-3.147 2.635-6.99 4.308-11.066 4.82-101.256 11.533-204.652 46.997-204.652 221.738-0.853 43.884 15.209 86.415 44.864 118.775 2.731 3.017 4.542 6.748 5.222 10.762 0.683 4.011 0.205 8.133-1.379 11.881-11.874 33.176-11.721 69.465 0.427 102.54 39.47-6.997 76.517-23.903 107.669-49.133 2.571-1.816 5.522-3.028 8.629-3.547s6.29-0.328 9.314 0.556c38.167 10.352 77.521 15.666 117.066 15.806 39.692-0.035 79.204-5.349 117.493-15.806 2.96-0.819 6.065-0.973 9.089-0.457 3.028 0.519 5.905 1.693 8.428 3.448 31.196 25.152 68.223 42.048 107.666 49.133 11.632-32.896 11.632-68.787 0-101.683-1.58-3.751-2.061-7.874-1.379-11.885 0.679-4.011 2.495-7.745 5.225-10.762 29.343-32.036 45.385-74.049 44.86-117.493 0-174.743-103.82-209.779-205.505-221.311-4.171-0.437-8.12-2.089-11.36-4.752-3.239-2.665-5.621-6.222-6.85-10.233-1.232-4.007-1.253-8.29-0.068-12.312 1.188-4.021 3.533-7.605 6.741-10.305 9.465-9.769 16.698-21.472 21.197-34.307 4.498-12.837 6.161-26.494 4.868-40.033v-135.865c-0.212-6.68 1.059-13.322 3.717-19.451 2.659-6.133 6.642-11.598 11.664-16.007 6.396-4.789 13.819-8.014 21.684-9.424 7.861-1.409 15.946-0.963 23.606 1.304 115.274 38.565 213.1 116.834 276.016 220.841 62.915 104.004 86.835 226.982 67.483 346.987-19.35 120.009-80.709 229.234-173.128 308.191-92.423 78.958-209.888 122.51-331.442 122.886z" />
<glyph unicode="&#xe915;" glyph-name="email-action-unread-1" d="M102.409 72.534c-27.15 0.024-53.182 10.82-72.38 30.019s-29.994 45.23-30.018 72.379v546.123c-0.104 23.385 7.907 46.079 22.664 64.213l1.047 1.229c9.577 11.585 21.598 20.906 35.203 27.295s28.454 9.688 43.484 9.66h819.183c15.364 0.013 30.529-3.437 44.372-10.094s26.009-16.352 35.59-28.363l0.819-1.181c14.152-18.158 21.616-39.823 21.616-62.76v-546.123c-0.024-27.149-10.82-53.179-30.019-72.379-19.196-19.2-45.23-29.995-72.379-30.019h-819.183zM68.277 174.932c0-18.841 15.292-34.133 34.133-34.133h819.183c9.052 0 17.736 3.597 24.136 9.997 6.4 6.404 9.997 15.084 9.997 24.136v531.923l-331.131-254.674c-32.317-24.766-71.88-38.215-112.594-38.273-40.55 0-80.553 13.605-112.59 38.273l-331.134 254.674v-531.923zM441.004 506.292c20.206-15.565 45.42-24.118 70.996-24.118s50.746 8.553 70.952 24.118l323.622 248.939h-789.193l323.623-248.939z" />
<glyph unicode="&#xe916;" glyph-name="expand-8-1" d="M32.019 575.982c-17.663 0-31.999 14.335-31.999 31.999v255.991c0 52.947 43.049 95.996 95.996 95.996h255.99c17.663 0 31.999-14.335 31.999-31.999s-14.335-31.999-31.999-31.999h-255.99c-17.663 0-31.999-14.335-31.999-31.999v-255.991c0-17.663-14.335-31.999-31.999-31.999zM991.981 575.982c-17.663 0-31.999 14.335-31.999 31.999v255.991c0 17.663-14.335 31.999-31.999 31.999h-255.99c-17.663 0-31.999 14.335-31.999 31.999s14.335 31.999 31.999 31.999h255.99c52.946 0 95.996-43.049 95.996-95.996v-255.991c0-17.663-14.335-31.999-31.999-31.999zM671.994-63.993c-17.663 0-31.999 14.335-31.999 31.999s14.335 31.999 31.999 31.999h255.99c17.663 0 31.999 14.335 31.999 31.999v255.99c0 17.663 14.335 31.999 31.999 31.999s31.999-14.335 31.999-31.999v-255.99c0-52.946-43.050-95.996-95.996-95.996h-255.99zM96.016-63.993c-52.947 0-95.996 43.050-95.996 95.996v383.985c0 52.949 43.049 95.996 95.996 95.996h383.985c52.949 0 95.996-43.048 95.996-95.996v-383.985c0-52.946-43.048-95.996-95.996-95.996h-383.985zM96.016 447.987c-17.663 0-31.999-14.335-31.999-31.999v-383.985c0-17.663 14.335-31.999 31.999-31.999h383.985c17.663 0 31.999 14.335 31.999 31.999v383.985c0 17.663-14.335 31.999-31.999 31.999h-383.985z" />
<glyph unicode="&#xe917;" glyph-name="expand-full-1" d="M32.019 575.982c-17.663 0-31.999 14.335-31.999 31.999v255.991c0 52.947 43.049 95.996 95.996 95.996h255.99c17.663 0 31.999-14.335 31.999-31.999s-14.335-31.999-31.999-31.999h-255.99c-17.663 0-31.999-14.335-31.999-31.999v-255.991c0-17.663-14.335-31.999-31.999-31.999zM991.981 575.982c-17.663 0-31.999 14.335-31.999 31.999v255.991c0 17.663-14.335 31.999-31.999 31.999h-255.99c-17.663 0-31.999 14.335-31.999 31.999s14.335 31.999 31.999 31.999h255.99c52.949 0 95.996-43.049 95.996-95.996v-255.991c0-17.663-14.335-31.999-31.999-31.999zM96.016-63.993c-52.947 0-95.996 43.050-95.996 95.996v255.99c0 17.663 14.335 31.999 31.999 31.999s31.999-14.335 31.999-31.999v-255.99c0-17.663 14.335-31.999 31.999-31.999h255.99c17.663 0 31.999-14.335 31.999-31.999s-14.335-31.999-31.999-31.999h-255.99zM671.994-63.993c-17.663 0-31.999 14.335-31.999 31.999s14.335 31.999 31.999 31.999h255.99c17.663 0 31.999 14.335 31.999 31.999v255.99c0 17.663 14.335 31.999 31.999 31.999s31.999-14.335 31.999-31.999v-255.99c0-52.946-43.048-95.996-95.996-95.996h-255.99zM288.009 127.999c-52.949 0-95.996 43.050-95.996 95.996v447.983c0 52.949 43.048 95.996 95.996 95.996h447.983c52.949 0 95.996-43.048 95.996-95.996v-447.983c0-52.946-43.048-95.996-95.996-95.996h-447.983zM288.009 703.977c-17.663 0-31.999-14.335-31.999-31.999v-447.983c0-17.663 14.335-31.999 31.999-31.999h447.983c17.663 0 31.999 14.335 31.999 31.999v447.983c0 17.663-14.335 31.999-31.999 31.999h-447.983z" />
<glyph unicode="&#xe918;" glyph-name="gauge-dashboard-1" d="M512 810.641c-135.74-0.147-265.878-54.134-361.862-150.117-95.983-95.983-149.972-226.121-150.118-361.865v-106.663c0-28.288 11.238-55.417 31.24-75.421 20.003-20.002 47.133-31.241 75.422-31.241h810.635c14.007 0 27.876 2.761 40.818 8.12 12.939 5.362 24.698 13.215 34.603 23.12s17.762 21.663 23.12 34.603c5.362 12.943 8.12 26.814 8.12 40.818v106.663c-0.147 135.743-54.134 265.882-150.115 361.865-95.986 95.983-226.125 149.97-361.865 150.117zM917.318 245.328h-85.33c-8.485 0-16.626 3.372-22.626 9.373s-9.373 14.141-9.373 22.626c0 8.489 3.372 16.626 9.373 22.626 6 6.004 14.141 9.373 22.626 9.373h85.33c8.485 0 16.626-3.369 22.626-9.373 6-6 9.373-14.138 9.373-22.626 0-8.485-3.372-16.626-9.373-22.626s-14.141-9.373-22.626-9.373zM799.818 408.138c-7.038 0.020-13.871 2.352-19.449 6.642-5.581 4.287-9.592 10.294-11.417 17.090-1.823 6.796-1.361 14.005 1.317 20.51s7.424 11.95 13.506 15.489l73.896 42.665c3.643 2.103 7.662 3.464 11.83 4.015 4.168 0.547 8.404 0.267 12.465-0.823s7.868-2.967 11.202-5.529c3.335-2.56 6.133-5.752 8.236-9.393 2.099-3.643 3.461-7.662 4.011-11.83 0.547-4.171 0.269-8.406-0.823-12.465-1.089-4.061-2.967-7.868-5.529-11.202-2.56-3.335-5.752-6.133-9.393-8.236l-73.896-42.665c-4.846-2.812-10.352-4.287-15.957-4.267zM629.329 298.659c-0.035-24.656-7.85-48.675-22.33-68.636-14.482-19.957-34.889-34.839-58.322-42.521s-48.689-7.778-72.179-0.273c-23.486 7.509-44.006 22.236-58.639 42.085-14.629 19.851-22.623 43.809-22.844 68.469-0.219 24.656 7.349 48.754 21.623 68.861s34.528 35.2 57.878 43.126c23.35 7.925 48.607 8.281 72.172 1.013l159.608 245.665c2.291 3.525 5.256 6.564 8.721 8.942s7.365 4.052 11.478 4.925c4.113 0.871 8.356 0.921 12.489 0.153s8.072-2.341 11.598-4.634c3.525-2.291 6.564-5.253 8.942-8.721 2.379-3.464 4.052-7.365 4.922-11.478 0.873-4.109 0.925-8.356 0.157-12.489-0.768-4.131-2.345-8.072-4.634-11.598l-159.694-245.75c18.749-21.319 29.078-48.743 29.054-77.138zM349.532 537.583c-7.345-4.185-16.042-5.325-24.22-3.171-8.174 2.153-15.182 7.43-19.514 14.69l-42.665 73.896c-4.243 7.356-5.389 16.097-3.188 24.299 2.199 8.198 7.568 15.193 14.922 19.435s16.093 5.389 24.295 3.192c8.202-2.201 15.193-7.57 19.435-14.926l42.665-73.896c4.195-7.332 5.314-16.025 3.113-24.179-2.199-8.154-7.533-15.107-14.843-19.339zM208.225 412.489l-73.896 42.665c-7.356 4.247-12.724 11.237-14.923 19.438-2.2 8.198-1.053 16.939 3.191 24.295s11.234 12.721 19.435 14.922c8.201 2.201 16.941 1.055 24.296-3.192l73.896-42.665c3.635-2.113 6.82-4.922 9.366-8.266s4.41-7.161 5.481-11.229c1.068-4.065 1.324-8.304 0.755-12.469-0.571-4.168-1.959-8.178-4.083-11.81-4.325-7.209-11.277-12.458-19.397-14.639s-16.766-1.123-24.122 2.949zM224.011 277.327c0-8.485-3.372-16.626-9.373-22.626s-14.141-9.373-22.626-9.373h-85.33c-8.486 0-16.626 3.372-22.626 9.373s-9.373 14.141-9.373 22.626c0 8.489 3.372 16.626 9.373 22.626 6.001 6.004 14.139 9.373 22.626 9.373h85.33c8.485 0 16.626-3.369 22.626-9.373 6-6 9.373-14.138 9.373-22.626zM512 735.975c8.485 0 16.626-3.369 22.626-9.373 6-6 9.373-14.138 9.373-22.626v-85.33c0-8.485-3.372-16.626-9.373-22.626s-14.141-9.373-22.626-9.373c-8.485 0-16.626 3.372-22.626 9.373s-9.373 14.141-9.373 22.626v85.33c0 8.489 3.372 16.626 9.373 22.626 6 6.004 14.141 9.373 22.626 9.373zM512 245.328c29.452 0 53.331 23.879 53.331 53.331 0 29.456-23.879 53.331-53.331 53.331s-53.331-23.875-53.331-53.331c0-29.452 23.879-53.331 53.331-53.331z" />
<glyph unicode="&#xe919;" glyph-name="gauge-dashboard-2" d="M96.028 96.014c-52.946 0-95.994 43.048-95.994 95.992v88.614c-1.024 137.377 51.666 267.203 148.428 365.414 96.763 98.211 225.778 152.907 363.282 153.931 284.781-2.133 514.356-235.163 512.223-519.43v-88.529c0-52.946-43.048-95.992-95.996-95.992h-831.942zM927.97 160.007c17.663 0 31.999 14.335 31.999 31.999v88.739c1.836 249.116-199.154 453.26-448.099 455.222-248.726-1.963-449.717-206.065-447.84-455.052v-88.91c0-17.663 14.334-31.999 31.997-31.999h255.982c0 79.101 59.090 146.553 136.353 158.113l89.297 267.844c4.352 13.097 16.51 21.886 30.333 21.886 3.457 0 6.912-0.553 10.198-1.663 8.062-2.689 14.633-8.362 18.427-16.042 3.799-7.638 4.437-16.298 1.751-24.404l-83.875-251.676c68.175-18.899 117.537-82.083 117.537-154.058h255.939zM607.992 160.007c0 52.307-42.28 95.099-94.416 95.952-0.553-0.044-1.065-0.085-1.577-0.085-0.471 0-1.024 0.041-1.577 0.085-52.181-0.853-94.416-43.645-94.416-95.952h191.986zM208.020 256.001c26.507 0 47.997 21.49 47.997 47.997 0 26.511-21.49 47.999-47.997 47.999s-47.995-21.49-47.995-47.999c0-26.507 21.49-47.997 47.995-47.997zM272.017 415.865c-26.452 0-47.997 21.544-47.997 47.997s21.544 47.997 47.997 47.997c26.452 0 47.997-21.544 47.997-47.997s-21.544-47.997-47.997-47.997zM815.983 256.001c26.507 0 47.997 21.49 47.997 47.997 0 26.511-21.49 47.999-47.997 47.999s-47.997-21.49-47.997-47.999c0-26.507 21.49-47.997 47.997-47.997zM751.983 415.865c-26.452 0-47.997 21.544-47.997 47.997 0 24.446 18.261 44.754 42.58 47.529 0.468 0.085 1.621 0.171 1.663 0.171 1.324 0.171 2.519 0.297 3.755 0.297 0.512 0 1.153-0.041 1.707-0.085 0.641-0.041 1.239-0.085 1.792-0.171 24.575-1.365 44.457-22.356 44.457-47.741 0.041-26.452-21.503-47.997-47.955-47.997zM400.006 543.852c26.511 0 47.997 21.49 47.997 47.997s-21.486 47.997-47.997 47.997c-26.507 0-47.997-21.49-47.997-47.997s21.49-47.997 47.997-47.997z" />
<glyph unicode="&#xe91a;" glyph-name="graph-stats-1" d="M643.463 80.193c-27.395 0-51.758 17.411-60.632 43.352l-202.164 628.808-110.769-261.471c-14.891-35.716-49.666-58.84-88.538-58.84h-149.338c-17.665 0-32.001 14.335-32.001 32.003 0 17.663 14.337 31.999 32.001 31.999h149.338c12.974 0 24.579 7.724 29.572 19.715l111.021 261.13c10.028 23.639 33.197 38.914 58.97 38.914 8.618 0 17.025-1.707 24.96-5.12 16.725-7.126 29.654-21.037 35.541-38.232l202.164-628.848 110.041 292.321c15.278 36.74 50.137 60.12 89.010 60.12h149.338c17.667 0 32.003-14.335 32.003-31.999 0-17.667-14.335-32.003-32.003-32.003h-149.338c-12.974 0-24.579-7.724-29.572-19.715l-110.338-291.979c-7.468-17.707-21.507-30.852-38.702-36.74-6.656-2.26-13.567-3.413-20.565-3.413z" />
<glyph unicode="&#xe91b;" glyph-name="graph-stats-ascend-2" d="M32.019 159.998c-8.533 0-16.597 3.328-22.612 9.386-6.058 6.017-9.386 14.079-9.386 22.612s3.328 16.598 9.386 22.612l306.717 306.72c18.134 18.131 42.242 28.074 67.927 28.074s49.789-9.984 67.879-28.074l133.456-133.456c6.058-6.058 14.123-9.386 22.656-9.386s16.595 3.328 22.654 9.386l284.108 284.105h-210.809c-17.663 0-31.999 14.335-31.999 31.999s14.335 31.999 31.999 31.999h287.989c3.796 0 7.509-0.683 11.137-2.048 0.468-0.171 0.935-0.341 1.361-0.512 7.509-3.072 13.867-9.428 17.11-17.278 0.129-0.341 0.3-0.727 0.427-1.109 1.28-3.457 1.963-7.253 1.963-11.052v-287.989c0-17.663-14.335-31.999-31.999-31.999s-31.999 14.335-31.999 31.999v210.724l-284.105-284.108c-18.134-18.131-42.242-28.074-67.927-28.074-25.64 0-49.743 9.942-67.833 28.074l-133.5 133.5c-6.017 6.014-14.035 9.342-22.612 9.342-8.533 0-16.595-3.328-22.612-9.342l-306.761-306.72c-6.016-6.058-14.079-9.386-22.612-9.386z" />
<glyph unicode="&#xe91c;" glyph-name="headphones-customer-support-1" d="M512-63.993c-52.949 0-95.996 43.050-95.996 95.996 0 52.949 43.048 95.996 95.996 95.996h63.998c40.958 0 77.138-26.238 90.494-63.998h69.5c52.949 0 95.996 43.050 95.996 95.996-35.285 0-63.998 28.715-63.998 63.998v319.988c0 34.729 27.859 63.103 62.376 63.998-16.083 162.768-152.826 287.99-318.366 287.99s-302.28-125.22-318.366-287.99c34.517-0.895 62.376-29.268 62.376-63.998v-319.988c0-35.283-28.712-63.998-63.998-63.998h-31.999c-88.231 0-159.994 71.763-159.994 159.994v127.995c0 77.224 54.654 142.46 129.147 156.966 14.89 200.14 180.557 355.014 382.833 355.014s367.984-154.874 382.832-355.014c74.497-14.506 129.148-79.742 129.148-156.966v-127.995c0-76.753-54.099-141.774-127.995-156.707v-3.287c0-88.231-71.763-159.994-159.994-159.994h-69.5c-13.355-37.757-49.535-63.998-90.494-63.998h-63.998zM512 64.002c-17.663 0-31.999-14.335-31.999-31.999s14.335-31.999 31.999-31.999h63.998c17.663 0 31.999 14.335 31.999 31.999s-14.335 31.999-31.999 31.999h-63.998zM831.988 223.995h31.999c52.949 0 95.996 43.050 95.996 95.996v127.995c0 52.949-43.048 95.996-95.996 95.996h-31.999v-319.988zM160.014 543.983c-52.947 0-95.996-43.048-95.996-95.996v-127.995c0-52.946 43.049-95.996 95.996-95.996h31.999v319.988h-31.999z" />
<glyph unicode="&#xe91d;" glyph-name="headphones-customer-support-2" d="M1023.985 351.941c0.011 39.679-12.294 78.384-35.215 110.777-22.924 32.388-55.336 56.868-92.762 70.053v32.463c0 101.824-40.451 199.477-112.448 271.476-72.002 72-169.655 112.45-271.479 112.45s-199.477-40.449-271.479-112.45c-71.999-72-112.448-169.652-112.448-271.476v-32.463c-37.467-13.209-69.913-37.716-92.864-70.142s-35.276-71.177-35.276-110.903c0-39.727 12.325-78.473 35.276-110.899 22.952-32.43 55.397-56.936 92.864-70.142 9.671-3.42 20.022-4.464 30.182-3.045 10.159 1.416 19.829 5.26 28.191 11.195 8.366 5.938 15.178 13.803 19.869 22.928s7.117 19.241 7.076 29.498v333.975c0 39.211 7.724 78.043 22.733 114.271 15.004 36.228 36.999 69.149 64.729 96.877s60.646 49.722 96.877 64.729c36.228 15.006 75.056 22.73 114.271 22.73s78.043-7.724 114.271-22.73c36.231-15.006 69.149-37.002 96.877-64.729 27.729-27.729 49.723-60.65 64.732-96.877 15.004-36.228 22.729-75.060 22.729-114.271v-333.975c0.092-8.878 2.037-17.637 5.71-25.716s8.994-15.304 15.619-21.21v-24.23c0-62.878-55.073-85.317-106.646-85.317h-75.846c-9.393 16.263-23.886 28.978-41.239 36.163-17.353 7.188-36.59 8.452-54.732 3.588-18.141-4.86-34.174-15.571-45.604-30.47-11.434-14.902-17.633-33.156-17.633-51.94 0-18.78 6.198-37.038 17.633-51.936 11.43-14.902 27.463-25.613 45.604-30.474s37.379-3.601 54.732 3.588c17.353 7.188 31.846 19.9 41.239 36.163h75.846c113.002 0 191.964 70.173 191.964 170.635v20.39c31.948 15.851 58.848 40.287 77.685 70.569s28.866 65.213 28.962 100.878z" />
<glyph unicode="&#xe91e;" glyph-name="hierarchy-3-2" d="M64.017-63.993c-35.284 0-63.998 28.715-63.998 63.998v127.995c0 35.285 28.714 63.998 63.998 63.998h511.98c35.285 0 63.998-28.712 63.998-63.998v-63.998h95.996c17.663 0 31.999 14.335 31.999 31.999v159.994h-319.988c-35.283 0-63.998 28.715-63.998 63.998v127.995c0 35.285 28.715 63.998 63.998 63.998h127.995v31.999c0 17.663-14.335 31.999-31.999 31.999h-191.993c-52.949 0-95.996 43.050-95.996 95.996v31.999h-191.993c-35.284 0-63.998 28.715-63.998 63.998v127.996c0 35.284 28.714 63.998 63.998 63.998h511.98c35.285 0 63.998-28.714 63.998-63.998v-127.996c0-35.283-28.712-63.998-63.998-63.998h-255.99v-31.999c0-17.663 14.335-31.999 31.999-31.999h191.993c52.949 0 95.996-43.048 95.996-95.996v-31.999h319.988c35.285 0 63.998-28.712 63.998-63.998v-127.995c0-35.283-28.712-63.998-63.998-63.998h-127.995v-159.994c0-52.946-43.048-95.996-95.996-95.996h-95.996c0-35.283-28.712-63.998-63.998-63.998h-511.98zM64.017 0.004h511.98v127.995h-511.98v-127.995zM448.002 319.992h511.98v127.995h-511.98v-127.995zM64.017 767.974h511.98v127.996h-511.98v-127.996z" />
<glyph unicode="&#xe91f;" glyph-name="hierarchy-3-3" d="M896 431.99c0 12.731-5.056 24.94-14.060 33.943-9.001 9.001-21.21 14.057-33.94 14.057h-232c-2.122 0-4.157 0.845-5.658 2.345s-2.342 3.535-2.342 5.655v56c0 21.217-8.428 41.567-23.432 56.568-15.002 15.004-35.351 23.432-56.568 23.432h-128c-4.244 0-8.312 1.687-11.313 4.687-3.003 3-4.687 7.071-4.687 11.313v56.033c0.008 2.115 0.855 4.142 2.355 5.635 1.498 1.495 3.528 2.332 5.645 2.332h120c12.731 0 24.94 5.058 33.94 14.060 9.004 9.002 14.060 21.211 14.060 33.941v32c0 12.73-5.056 24.94-14.060 33.941-9.001 9.002-21.21 14.059-33.94 14.059h-336c-12.73 0-24.939-5.057-33.941-14.059s-14.059-21.211-14.059-33.941v-32c0-12.73 5.057-24.939 14.059-33.941s21.211-14.060 33.941-14.060h136c2.122 0 4.157-0.842 5.658-2.342s2.342-3.535 2.342-5.658v-56c0-21.217 8.428-41.564 23.432-56.568 15.002-15.002 35.351-23.432 56.568-23.432h128c4.244 0 8.312-1.684 11.313-4.685 3.003-3 4.687-7.071 4.687-11.315v-56c0-2.12-0.842-4.155-2.342-5.655s-3.535-2.345-5.658-2.345h-24c-12.731 0-24.94-5.056-33.94-14.057-9.004-9.004-14.060-21.212-14.060-33.943v-32c0-12.728 5.056-24.94 14.060-33.94 9.001-9.001 21.21-14.060 33.94-14.060h168c2.122 0 4.157-0.842 5.658-2.342s2.342-3.535 2.342-5.658v-168c0-4.242-1.684-8.312-4.687-11.313-3-3-7.068-4.687-11.313-4.687h-110.239c-1.344-0.003-2.66 0.379-3.794 1.098s-2.040 1.748-2.609 2.967c-3.817 8.3-9.928 15.337-17.608 20.285-7.68 4.951-16.614 7.603-25.751 7.649h-336c-12.73 0-24.939-5.056-33.941-14.057-9.002-9.004-14.059-21.212-14.059-33.943v-32c0-12.728 5.057-24.94 14.059-33.94s21.211-14.060 33.941-14.060h336c9.142 0.041 18.084 2.693 25.769 7.642 7.688 4.948 13.801 11.991 17.623 20.296 0.561 1.221 1.464 2.255 2.601 2.977 1.134 0.719 2.455 1.098 3.799 1.085h110.208c21.217 0 41.567 8.43 56.568 23.432 15.004 15.004 23.432 35.351 23.432 56.568v168c0 2.122 0.842 4.157 2.342 5.658s3.535 2.342 5.658 2.342h88c12.731 0 24.94 5.059 33.94 14.060 9.004 9.001 14.060 21.212 14.060 33.94v32z" />
<glyph unicode="&#xe920;" glyph-name="house-1-1" d="M607.977-18.711c-17.663 0-32.002 14.335-32.002 32.002v255.996c0 17.663-14.335 31.998-31.998 31.998h-64c-17.663 0-31.998-14.335-31.998-31.998v-255.996c0-17.667-14.335-32.002-31.998-32.002h-255.997c-17.664 0-31.999 14.335-31.999 32.002v351.993c0 17.663 14.336 31.998 31.999 31.998 17.666 0 32.001-14.335 32.001-31.998v-319.995h191.995v223.998c0 52.948 43.049 95.998 95.998 95.998h64c52.948 0 95.998-43.049 95.998-95.998v-223.998h191.999v319.995c0 17.663 14.335 31.998 31.998 31.998s31.998-14.335 31.998-31.998v-351.993c0-17.667-14.335-32.002-31.998-32.002h-255.996zM31.987 397.28c-8.533 0-16.598 3.328-22.613 9.386-12.458 12.458-12.458 32.766 0 45.268l434.723 434.68c18.094 18.134 42.196 28.074 67.884 28.074 25.643 0 49.746-9.983 67.88-28.074l434.765-434.765c12.462-12.458 12.462-32.77 0-45.268-6.058-6.058-14.079-9.386-22.612-9.386s-16.598 3.328-22.612 9.386l-434.765 434.808c-6.062 6.016-14.083 9.343-22.656 9.343-8.577 0-16.598-3.328-22.616-9.343l-434.764-434.723c-6.016-6.058-14.081-9.386-22.613-9.386z" />
<glyph unicode="&#xe921;" glyph-name="house-2-2" d="M1011.487 478.156l-469.319 469.32c-8.001 7.998-18.851 12.492-30.165 12.492-11.312 0-22.162-4.493-30.163-12.492l-469.32-469.32c-5.965-5.966-10.028-13.567-11.673-21.84-1.645-8.277-0.801-16.854 2.428-24.65 3.229-7.792 8.696-14.455 15.71-19.145 7.014-4.686 15.262-7.192 23.699-7.192h53.331c2.829 0 5.542-1.127 7.542-3.127s3.124-4.713 3.124-7.54v-415.99c0-11.314 4.494-22.166 12.497-30.165 8.001-8.004 18.853-12.5 30.169-12.5h245.326c2.829 0 5.54 1.127 7.544 3.127 2 2 3.123 4.713 3.123 7.54v202.663c0 28.288 11.237 55.421 31.241 75.421 20.002 20.005 47.133 31.241 75.421 31.241s55.421-11.237 75.421-31.241c20.005-20.002 31.241-47.133 31.241-75.421v-202.663c0-2.827 1.127-5.54 3.127-7.54s4.713-3.127 7.54-3.127h245.328c11.314 0 22.168 4.496 30.169 12.5 8.001 8.001 12.496 18.851 12.496 30.165v415.99c0 2.827 1.123 5.54 3.123 7.54 2.004 2 4.713 3.127 7.544 3.127h53.331c8.437 0 16.683 2.505 23.702 7.192 7.014 4.689 12.482 11.353 15.707 19.145 3.229 7.796 4.076 16.373 2.431 24.65-1.645 8.273-5.706 15.875-11.673 21.84z" />
<glyph unicode="&#xe922;" glyph-name="information-circle-4" d="M512 959.968c-101.26 0-200.246-30.027-284.44-86.285-84.197-56.256-149.818-136.217-188.569-229.77s-48.889-196.495-29.135-295.809c19.755-99.313 68.516-190.542 140.117-262.144s162.827-120.363 262.144-140.116c99.313-19.755 202.256-9.618 295.809 29.132 93.548 38.753 173.511 104.372 229.767 188.569 56.259 84.194 86.286 183.18 86.286 284.44-0.147 135.743-54.134 265.882-150.115 361.863-95.986 95.983-226.125 149.97-361.865 150.117v0zM522.666 746.642c12.656 0 25.032-3.751 35.556-10.786 10.522-7.032 18.729-17.025 23.571-28.719s6.109-24.562 3.643-36.979c-2.471-12.414-8.564-23.818-17.517-32.767-8.949-8.949-20.353-15.045-32.767-17.513-12.414-2.471-25.282-1.205-36.975 3.643-11.694 4.844-21.691 13.045-28.722 23.568-7.032 10.526-10.786 22.899-10.786 35.556 0 16.974 6.741 33.252 18.746 45.256 12.001 12.001 28.279 18.742 45.252 18.742zM618.663 170.664h-170.66c-11.314 0-22.168 4.496-30.169 12.5-8.001 8.001-12.496 18.851-12.496 30.165 0 11.318 4.496 22.168 12.496 30.169s18.854 12.496 30.169 12.496h31.999c2.829 0 5.542 1.127 7.544 3.127s3.123 4.713 3.123 7.54v191.993c0 2.829-1.123 5.542-3.123 7.544s-4.713 3.123-7.544 3.123h-31.999c-11.314 0-22.168 4.496-30.169 12.5-8.001 8.001-12.496 18.851-12.496 30.165 0 11.318 4.496 22.168 12.496 30.169s18.854 12.496 30.169 12.496h42.665c22.63 0 44.334-8.99 60.339-24.991 16.001-16.001 24.991-37.705 24.991-60.339v-202.659c0-2.827 1.123-5.54 3.123-7.54s4.713-3.127 7.544-3.127h31.999c11.314 0 22.168-4.496 30.169-12.496s12.496-18.851 12.496-30.169c0-11.314-4.496-22.166-12.496-30.165-8.001-8.004-18.854-12.5-30.169-12.5z" />
<glyph unicode="&#xe923;" glyph-name="loading-circle-1" d="M324.011 642.846c-5.048 0.013-10.025 1.212-14.523 3.503s-8.393 5.608-11.373 9.684l-75.261 103.547c-3.437 4.782-5.496 10.414-5.942 16.285-0.451 5.87 0.724 11.749 3.396 16.997 2.669 5.246 6.73 9.658 11.738 12.75 5.010 3.093 10.776 4.748 16.663 4.782 5.048 0.003 10.028-1.191 14.53-3.483s8.397-5.616 11.366-9.701l75.261-103.547c3.455-4.778 5.522-10.414 5.98-16.287 0.457-5.877-0.717-11.765-3.389-17.015-2.672-5.253-6.741-9.666-11.758-12.758-5.021-3.089-10.793-4.734-16.687-4.754zM207.748 482.849c-3.348-0.007-6.676 0.525-9.854 1.58l-121.723 39.549c-8.061 2.639-14.75 8.358-18.603 15.915s-4.558 16.329-1.961 24.404c1.287 3.997 3.351 7.704 6.074 10.902s6.053 5.826 9.796 7.734c3.744 1.908 7.826 3.055 12.014 3.379s8.4-0.184 12.392-1.495l121.723-39.549c4.601-0.031 9.141-1.051 13.311-2.997 4.168-1.949 7.868-4.772 10.844-8.277 2.98-3.509 5.164-7.618 6.406-12.045 1.245-4.43 1.519-9.076 0.799-13.622-0.717-4.542-2.407-8.881-4.956-12.71-2.547-3.833-5.892-7.069-9.806-9.485-3.912-2.42-8.301-3.967-12.867-4.533s-9.202-0.14-13.587 1.249zM85.982 245.549c-5.486-0.024-10.886 1.369-15.678 4.037-4.792 2.672-8.814 6.533-11.68 11.213s-4.474 10.018-4.674 15.499c-0.2 5.481 1.016 10.922 3.532 15.799 1.897 3.755 4.524 7.096 7.724 9.83 3.201 2.731 6.913 4.798 10.921 6.082l121.723 39.552c8.072 2.619 16.858 1.925 24.418-1.932s13.281-10.561 15.902-18.633c2.619-8.076 1.921-16.858-1.932-24.418-3.857-7.564-10.561-13.281-18.633-15.902l-121.725-39.549c-3.193-1.059-6.536-1.591-9.898-1.58zM248.706 21.558c-6.765-0.013-13.359 2.14-18.814 6.144-3.4 2.461-6.28 5.573-8.468 9.154-2.192 3.58-3.649 7.56-4.29 11.71-0.665 4.147-0.505 8.389 0.475 12.476 0.983 4.085 2.765 7.936 5.242 11.332l75.261 103.547c2.471 3.403 5.588 6.284 9.172 8.478 3.588 2.199 7.568 3.665 11.721 4.325 4.151 0.656 8.389 0.492 12.478-0.492 4.089-0.98 7.942-2.757 11.342-5.229 3.403-2.471 6.284-5.588 8.478-9.172 2.199-3.584 3.665-7.568 4.325-11.717 0.659-4.155 0.492-8.393-0.492-12.482-0.98-4.085-2.757-7.94-5.229-11.342l-75.302-103.547c-2.976-4.083-6.87-7.404-11.373-9.693-4.498-2.291-9.476-3.488-14.526-3.492zM512.035-63.984c-8.485 0-16.626 3.369-22.626 9.373-6 6-9.373 14.138-9.373 22.626v127.995c0 8.485 3.372 16.626 9.373 22.626s14.141 9.373 22.626 9.373c8.489 0 16.626-3.372 22.63-9.373 6-6 9.369-14.141 9.369-22.626v-127.995c0-8.489-3.369-16.626-9.369-22.626-6.004-6.004-14.141-9.373-22.63-9.373zM775.403 21.558c-5.052-0.004-10.032 1.191-14.53 3.481-4.502 2.293-8.397 5.618-11.366 9.704l-75.261 103.547c-3.44 4.782-5.496 10.421-5.942 16.294s0.731 11.756 3.407 17.005c2.672 5.249 6.741 9.66 11.758 12.749 5.014 3.089 10.782 4.737 16.674 4.768 10.24 0 19.882-4.949 25.899-13.185l75.261-103.547c3.437-4.785 5.496-10.421 5.942-16.294s-0.733-11.758-3.407-17.005c-2.676-5.249-6.745-9.66-11.758-12.749-5.017-3.092-10.786-4.741-16.677-4.768zM938.087 245.553c-3.345-0.004-6.669 0.516-9.857 1.536l-121.766 39.549c-8.072 2.621-14.775 8.338-18.633 15.902-3.857 7.56-4.549 16.342-1.932 24.418 2.621 8.072 8.338 14.775 15.902 18.633 7.56 3.853 16.342 4.549 24.418 1.932l121.766-39.552c7.236-2.363 13.393-7.226 17.366-13.721 3.973-6.492 5.502-14.191 4.31-21.711-1.195-7.52-5.028-14.366-10.817-19.311-5.785-4.945-13.147-7.666-20.759-7.673zM816.366 482.856c-7.614 0.004-14.977 2.727-20.762 7.673-5.789 4.945-9.622 11.793-10.813 19.311-1.195 7.52 0.335 15.219 4.308 21.711 3.973 6.496 10.13 11.36 17.37 13.721l121.722 39.552c3.993 1.307 8.209 1.816 12.4 1.495 4.192-0.324 8.277-1.471 12.025-3.379s7.078-4.536 9.806-7.734c2.727-3.199 4.796-6.905 6.089-10.905 2.621-8.069 1.932-16.847-1.915-24.408-3.851-7.56-10.544-13.285-18.609-15.909l-121.722-39.552c-3.195-1.051-6.536-1.584-9.898-1.577zM700.102 642.843c-5.894 0.020-11.666 1.665-16.687 4.754-5.017 3.089-9.086 7.502-11.758 12.756s-3.847 11.141-3.389 17.018c0.457 5.874 2.525 11.509 5.98 16.285l75.261 103.549c5.004 6.852 12.517 11.445 20.895 12.772s16.943-0.719 23.818-5.689c6.861-4.994 11.461-12.509 12.789-20.893s-0.724-16.95-5.706-23.82l-75.305-103.549c-2.969-4.085-6.864-7.406-11.366-9.701-4.498-2.291-9.478-3.485-14.53-3.481zM512.035 639.989c-8.485 0-16.626 3.369-22.626 9.373-6 6-9.373 14.138-9.373 22.626v255.989c0 8.486 3.372 16.626 9.373 22.626s14.141 9.373 22.626 9.373c8.489 0 16.626-3.372 22.63-9.373 6-6.001 9.369-14.139 9.369-22.626v-255.989c0-8.489-3.369-16.626-9.369-22.626-6.004-6.004-14.141-9.373-22.63-9.373z" />
<glyph unicode="&#xe924;" glyph-name="lock-2-1" d="M224.011-63.993c-25.452 0.024-49.857 10.144-67.855 28.142s-28.119 42.402-28.142 67.855v447.983c0.023 25.455 10.144 49.857 28.142 67.855s42.402 28.122 67.855 28.142h31.999v127.995c0 141.137 114.854 255.991 255.99 255.991s255.99-114.854 255.99-255.991v-127.995h31.999c25.452-0.020 49.857-10.144 67.855-28.142s28.118-42.398 28.142-67.855v-447.983c-0.024-25.452-10.144-49.857-28.142-67.855s-42.402-28.118-67.855-28.142h-575.978zM224.011 511.984c-8.485 0-16.626-3.369-22.626-9.373-6-6-9.373-14.138-9.373-22.626v-447.983c0-17.663 14.335-31.999 31.999-31.999h575.978c8.485 0 16.626 3.372 22.626 9.373s9.373 14.141 9.373 22.626v447.983c0 8.489-3.372 16.626-9.373 22.626-6 6.004-14.141 9.373-22.626 9.373h-575.978zM703.993 575.982v127.995c0 105.853-86.142 191.994-191.993 191.994-50.901-0.056-99.703-20.302-135.695-56.295-35.996-35.993-56.239-84.794-56.298-135.697v-127.995h383.985zM512 223.995c-26.452 0-47.997 21.547-47.997 47.999 0.031 9.492 2.871 18.762 8.161 26.64 5.29 7.881 12.796 14.018 21.571 17.639 8.772 3.625 18.421 4.57 27.728 2.717 9.312-1.851 17.861-6.417 24.582-13.121 6.676-6.73 11.213-15.285 13.038-24.588 1.823-9.305 0.853-18.937-2.785-27.691-3.643-8.754-9.789-16.233-17.674-21.499-7.881-5.266-17.147-8.082-26.627-8.096z" />
<glyph unicode="&#xe925;" glyph-name="logout-1-1" d="M832.036 255.837c-8.533 0-16.595 3.328-22.612 9.386-12.458 12.454-12.458 32.763 0 45.262l105.379 105.379h-594.72c-17.663 0-31.995 14.331-31.995 31.995s14.331 31.999 31.995 31.999h594.676l-105.376 105.376c-6.058 6.014-9.386 14.079-9.386 22.612 0 8.529 3.328 16.595 9.386 22.608 6.058 6.017 14.075 9.386 22.608 9.386s16.598-3.328 22.612-9.386l159.983-159.983c1.495-1.495 2.816-3.116 4.011-4.864 0.3-0.427 0.641-1.068 0.939-1.621 0.727-1.195 1.365-2.433 1.921-3.713 0.297-0.683 0.683-1.919 0.895-2.601 0.341-0.853 0.727-2.177 0.983-3.584 0.383-1.833 0.639-4.011 0.639-6.229 0-2.133-0.212-4.267-0.639-6.314-0.256-1.28-0.641-2.516-1.068-3.755-0.171-0.683-0.512-1.621-0.895-2.475-0.385-0.98-1.068-2.26-1.836-3.54-0.041-0.129-0.427-0.897-0.895-1.58-0.939-1.365-1.792-2.431-2.731-3.455-0.044-0.129-0.641-0.853-1.324-1.495l-159.983-159.983c-6.014-6.1-14.035-9.428-22.568-9.428zM89.454-31.968c-51.537 2.601-91.639 46.29-89.293 97.44l-0.043 766.478c-2.347 50.001 37.372 93.388 88.567 95.948l525.177 0.043c52.389-2.56 92.45-46.289 90.146-97.442l0.044-190.531c0-17.663-14.335-31.995-31.999-31.995s-31.995 14.331-31.995 31.995v191.982c0.768 17.193-11.734 31.229-27.818 32.040l-521.977-0.043c-14.547-0.768-26.92-14.761-26.195-30.547l0.043-769.379c-0.768-17.193 11.732-31.227 27.774-32.040l521.977 0.044c14.547 0.768 26.964 14.762 26.238 30.544l-0.041 193.432c0 17.663 14.331 31.999 31.995 31.999s31.999-14.335 31.999-31.999v-191.982c2.304-50.041-37.46-93.388-88.61-95.948l-525.18-0.041c-0.256 0-0.555 0-0.811 0z" />
<glyph unicode="&#xe926;" glyph-name="messages-bubble-1" d="M32.012-63.58c-8.569 0-16.583 3.328-22.636 9.38-9.549 9.55-12.065 24.128-6.266 36.324l124.097 260.598c-41.522 72.557-63.35 154.833-63.264 238.559 0.427 263.714 215.284 478.272 478.995 478.272h1.451c89.566 0 177.128-25.024 253.225-72.301 108.621-67.527 184.503-173.505 213.622-298.414 29.115-124.906 7.97-253.478-59.556-362.103-67.612-108.792-173.592-184.715-298.327-213.833-36.149-8.441-73.11-12.704-109.816-12.704-82.873 0-164.68 21.912-237.152 63.394l-260.558-124.097c-4.348-2.004-9.080-3.072-13.813-3.072zM542.937 895.605c-228.496 0-414.665-185.911-415.007-414.412-0.128-77.801 21.571-153.854 62.668-219.885 5.796-9.338 6.437-20.762 1.703-30.653l-92.678-194.692 194.651 92.723c4.263 2.044 8.994 3.109 13.727 3.109 5.966 0 11.806-1.663 16.882-4.857 66.117-41.098 141.702-62.796 218.65-62.796 31.845 0 63.862 3.711 95.194 11.042 108.109 25.238 199.939 91.016 258.598 185.313 121.025 194.651 61.131 451.457-133.521 572.443-65.947 41.010-141.829 62.667-219.462 62.667-0.212 0-1.407 0-1.407 0z" />
<glyph unicode="&#xe927;" glyph-name="messaging-we-chat-2" d="M376.352 413.687c9.041 46.201 33.084 88.122 68.391 119.257 30.732 27.24 66.745 47.866 105.792 60.588 39.050 12.725 80.3 17.271 121.182 13.359 3.291-0.291 6.601 0.221 9.653 1.485 3.052 1.267 5.752 3.249 7.87 5.782 2.147 2.495 3.687 5.45 4.502 8.638s0.884 6.522 0.201 9.741c-9.748 42.389-28.446 82.207-54.837 116.779-26.391 34.576-59.871 63.11-98.188 83.69-49.511 27.528-104.315 44.205-160.766 48.922-56.454 4.717-113.264-2.635-166.656-21.566-71.631-24.692-132.796-72.901-173.541-136.783-18.561-29.456-31.001-62.35-36.583-96.716s-4.188-69.507 4.097-103.324c17.81-68.376 59.507-128.118 117.546-168.415-9.404-26.927-18.381-53.857-26.928-80.784-1.243-4.035-1.263-8.345-0.059-12.39s3.579-7.642 6.824-10.338c3.245-2.696 7.217-4.372 11.414-4.816s8.43 0.365 12.169 2.324l70.101 37.187 31.631 17.097c43.928-13.134 89.665-19.193 135.5-17.95 3.269 0.219 6.444 1.184 9.281 2.827s5.256 3.915 7.076 6.642c1.819 2.727 2.983 5.837 3.409 9.086 0.423 3.249 0.096 6.553-0.959 9.656-10.608 32.224-13.393 66.509-8.124 100.020zM419.1 688.961c1.232 7.529 4.457 14.595 9.345 20.459 4.884 5.861 11.25 10.308 18.438 12.881 6.608 2.339 13.69 3.013 20.623 1.973 6.932-1.044 13.502-3.779 19.127-7.96 5.929-4.464 10.592-10.393 13.53-17.21 2.939-6.813 4.052-14.274 3.232-21.65s-3.543-14.41-7.909-20.411c-4.362-6.004-10.213-10.765-16.974-13.819-5.636-2.567-11.762-3.881-17.954-3.847-9.942-0.072-19.551 3.591-26.93 10.257-5.806 4.584-10.236 10.68-12.8 17.619-2.567 6.936-3.164 14.447-1.731 21.708zM277.189 671.009c-1.895-6.752-5.417-12.935-10.264-18.005-4.844-5.069-10.861-8.868-17.523-11.062-4.522-1.641-9.29-2.509-14.103-2.564-9.734-0.041-19.151 3.451-26.503 9.83-5.741 4.748-10.141 10.912-12.765 17.885s-3.379 14.513-2.195 21.868c0.819 5.816 2.827 11.404 5.898 16.41s7.144 9.328 11.96 12.69c4.816 3.365 10.274 5.7 16.035 6.861 5.758 1.157 11.694 1.12 17.438-0.12 5.741-1.236 11.168-3.643 15.939-7.072 4.772-3.427 8.785-7.802 11.789-12.85s4.936-10.66 5.676-16.489c0.737-5.829 0.267-11.745-1.383-17.383zM1006.406 385.477c-25.93 55.902-70.301 101.177-125.671 128.231-47.283 23.759-99.464 36.136-152.382 36.136-52.915 0-105.1-12.377-152.382-36.136-34.163-16.537-64.234-40.453-88.034-70.019-23.8-29.568-40.744-64.048-49.603-100.956-12.485-56.243-2.519-115.141 27.783-164.138 22.35-34.617 51.69-64.175 86.142-86.774 34.449-22.599 73.25-37.743 113.902-44.453 54.942-9.953 111.454-6.881 164.994 8.977 14.646-6.925 28.916-14.633 42.744-23.080 12.393-6.84 24.79-14.106 37.613-20.090 3.099-0.687 6.308-0.687 9.404 0 3.317 0 6.59 0.772 9.561 2.256 2.967 1.485 5.546 3.639 7.54 6.29 1.989 2.656 3.335 5.737 3.929 9.001 0.593 3.267 0.42 6.621-0.512 9.809-6.553 21.656-13.393 43.17-20.517 64.544 32.333 23.94 58.792 54.929 77.368 90.616 15.379 29.039 24.090 61.144 25.494 93.975 1.407 32.828-4.529 65.56-17.37 95.808zM687.535 359.403c-1.895-6.754-5.417-12.935-10.264-18.005-4.844-5.069-10.861-8.868-17.519-11.062-4.526-1.641-9.294-2.509-14.106-2.564-9.734-0.041-19.151 3.451-26.503 9.83-5.741 4.748-10.141 10.912-12.765 17.885s-3.379 14.513-2.195 21.864c0.819 5.82 2.827 11.408 5.898 16.414s7.144 9.328 11.96 12.69c4.816 3.365 10.274 5.7 16.035 6.857 5.758 1.16 11.694 1.123 17.438-0.116 5.741-1.236 11.168-3.645 15.939-7.072s8.785-7.802 11.789-12.85c3.004-5.048 4.936-10.662 5.676-16.489 0.737-5.829 0.267-11.745-1.383-17.383zM867.485 359.403c-1.891-6.754-5.413-12.935-10.26-18.005s-10.864-8.868-17.523-11.062c-4.522-1.641-9.29-2.509-14.103-2.564-9.734-0.041-19.151 3.451-26.503 9.83-5.741 4.748-10.144 10.912-12.765 17.885-2.625 6.973-3.383 14.513-2.195 21.864 0.816 5.82 2.823 11.408 5.894 16.414 3.076 5.008 7.144 9.328 11.964 12.69 4.816 3.365 10.274 5.7 16.031 6.857 5.761 1.16 11.697 1.123 17.438-0.116 5.744-1.236 11.172-3.645 15.943-7.072s8.782-7.802 11.789-12.85c3.004-5.048 4.936-10.662 5.676-16.489 0.737-5.829 0.267-11.745-1.385-17.383z" />
<glyph unicode="&#xe928;" glyph-name="messaging-we-chat-3" d="M411.326 645.924c7.693-6.785 17.567-10.585 27.824-10.703 6.058 0.031 12.042 1.341 17.551 3.853 7.13 3.184 13.25 8.26 17.7 14.672 4.454 6.413 7.065 13.922 7.557 21.715 1.249 11.353-2.061 22.739-9.209 31.65-7.144 8.909-17.536 14.618-28.889 15.867-11.355 1.245-22.739-2.065-31.65-9.209-8.911-7.148-14.618-17.536-15.867-28.892-1.304-7.242-0.593-14.703 2.048-21.571s7.113-12.881 12.935-17.383zM234.532 645.494c7.704-6.38 17.396-9.863 27.397-9.843 4.652-0.037 9.281 0.687 13.701 2.14 6.59 2.256 12.53 6.085 17.304 11.161 4.774 5.072 8.24 11.233 10.093 17.946 2.061 7.588 1.993 15.598-0.197 23.148-2.188 7.553-6.417 14.355-12.215 19.66-5.676 5.185-12.642 8.741-20.168 10.305s-15.332 1.068-22.601-1.427c-7.266-2.495-13.731-6.905-18.707-12.758-4.98-5.853-8.29-12.943-9.583-20.52-1.191-7.365-0.433-14.912 2.195-21.895s7.038-13.161 12.786-17.915zM118.095 353.548c-8.133-23.973-16.267-47.517-23.544-71.488-1.888-6.045-1.947-12.517-0.167-18.595 1.78-6.076 5.317-11.493 10.167-15.567 4.85-4.072 10.797-6.618 17.091-7.318 6.294-0.703 12.655 0.475 18.283 3.378l68.919 36.818 26.97 14.554c33.93-10.39 69.011-16.574 104.453-18.407 4.632-0.157 9.242 0.689 13.517 2.485 4.273 1.792 8.106 4.492 11.239 7.909s5.488 7.472 6.905 11.885c1.416 4.413 1.86 9.079 1.3 13.679-0.184 34.895 6.57 69.481 19.871 101.742 13.301 32.265 32.886 61.559 57.61 86.186 27.097 30.517 60.603 54.669 98.124 70.727s78.126 23.629 118.91 22.165c4.86-0.337 9.731 0.495 14.202 2.433 4.468 1.936 8.406 4.918 11.485 8.697 3.153 3.741 5.41 8.157 6.597 12.905s1.273 9.703 0.249 14.492c-9.898 43.071-28.885 83.526-55.682 118.668-26.8 35.142-60.795 64.154-99.708 85.096-49.978 27.785-105.302 44.6-162.284 49.324-56.986 4.724-114.323-2.751-168.193-21.927-71.845-25.439-133.056-74.286-173.801-138.696-18.882-30.097-31.529-63.679-37.191-98.756-5.662-35.074-4.224-70.928 4.229-105.439 16.59-66.665 55.581-125.607 110.444-166.95zM93.266 690.871c33.614 52.47 84.011 92.004 142.977 112.157 36.93 13.323 75.894 20.131 115.152 20.119 56.717-0.167 112.436-14.907 161.813-42.81 50.193-27.036 89.844-70.153 112.585-122.429-85.652-8.096-165.124-48.136-222.602-112.156-51.849-55.098-84.834-125.262-94.176-200.34-22.531 2.96-44.739 7.977-66.351 14.983-4.072 1.315-8.369 1.805-12.633 1.437s-8.41-1.584-12.198-3.577l-36.814-19.694 5.993 17.124c2.341 6.706 2.396 14.001 0.147 20.741-2.245 6.737-6.662 12.543-12.561 16.503-52.016 31.827-90.087 82.134-106.592 140.836-6.52 26.544-7.644 54.129-3.305 81.113 4.338 26.988 14.051 52.829 28.561 75.99zM877.505 522.642c-47.856 24.155-100.714 36.742-154.322 36.742-53.61 0-106.466-12.587-154.322-36.742-34.702-16.926-65.263-41.262-89.523-71.293s-41.634-65.024-50.886-102.506c-13.427-58.625-3.116-120.18 28.681-171.23 22.671-35.245 52.481-65.338 87.503-88.346 35.026-23.004 74.485-38.408 115.835-45.213 54.262-9.911 110.087-7.126 163.097 8.133 12.841-5.566 25.684-12.843 38.954-20.551 13.27-7.704 24.827-14.123 37.671-20.117 5.526-2.177 11.546-2.781 17.394-1.744 5.846 1.041 11.29 3.68 15.727 7.629 4.433 3.949 7.69 9.049 9.399 14.738 1.711 5.686 1.809 11.734 0.287 17.475-5.706 18.838-11.557 37.527-17.551 56.078 30.108 22.997 54.925 52.197 72.772 85.615 15.84 30.384 24.609 63.952 25.647 98.2s-5.68 68.287-19.652 99.574c-25.564 57.802-70.331 104.989-126.709 133.559zM942.574 222.985c-17.092-31.797-41.8-58.859-71.918-78.765-5.656-4.054-9.843-9.837-11.926-16.479-2.085-6.638-1.956-13.775 0.368-20.335l-21.833 9.417c-6.652 2.317-13.895 2.317-20.547 0-46.563-15.007-96.093-18.39-144.264-9.847-32.722 5.264-63.966 17.359-91.701 35.503-27.732 18.144-51.33 41.931-69.256 69.805-22.667 36.363-30.196 80.158-20.973 122.002 7.216 28.145 20.496 54.374 38.906 76.854 18.411 22.476 41.511 40.66 67.683 53.282 38.794 19.468 81.598 29.605 124.999 29.605 43.405 0 86.206-10.137 124.999-29.605 43.305-20.947 78.071-56.17 98.458-99.742 9.946-22.312 14.834-46.548 14.315-70.969-0.516-24.421-6.43-48.429-17.311-70.297v-0.431zM804.3 415.19c-9.327-0.772-18.148-4.581-25.107-10.843s-11.673-14.632-13.417-23.831c-0.608-6.113 0.273-12.281 2.567-17.978 1.928-7.645 5.925-14.608 11.557-20.12 7.936-7.649 18.516-11.942 29.537-11.987h7.706c6.218 0.943 12.134 3.332 17.263 6.977 5.13 3.642 9.331 8.437 12.274 14.001 3.99 6.929 5.96 14.836 5.682 22.827-0.273 7.99-2.781 15.744-7.236 22.387-4.457 6.638-10.683 11.895-17.974 15.178s-15.355 4.457-23.281 3.389h0.427zM639.918 412.626c-6.71-2.475-12.697-6.594-17.407-11.977-4.713-5.386-8.001-11.865-9.561-18.844-1.617-6.84-1.525-13.97 0.267-20.761 1.792-6.796 5.229-13.042 10.007-18.195 3.98-4.174 8.762-7.498 14.055-9.778 5.297-2.284 11.001-3.468 16.766-3.492h9.421c6.601 1.477 12.758 4.498 17.967 8.813 5.209 4.317 9.318 9.806 11.997 16.018 3.56 7.676 4.761 16.232 3.461 24.595-1.304 8.358-5.054 16.147-10.782 22.376-5.724 6.229-13.167 10.622-21.391 12.622-8.218 2.004-16.851 1.523-24.8-1.376z" />
<glyph unicode="&#xe929;" glyph-name="read-email-at-1" d="M511.98-63.97c-67.255-0.184-133.879 12.974-196.014 38.71s-118.55 63.541-165.978 111.225c-47.692 47.424-85.504 103.838-111.247 165.974s-38.907 128.759-38.729 196.018c0 136.749 53.25 265.307 149.933 362.033 96.727 96.685 225.285 149.976 362.034 149.976s265.307-53.25 362.032-149.933c47.696-47.431 85.513-103.849 111.255-165.994 25.746-62.141 38.905-128.776 38.721-196.042v-96.002c-0.044-42.421-16.916-83.093-46.912-113.088s-70.668-46.867-113.088-46.912c-31.979 0.153-63.183 9.837-89.629 27.811-26.449 17.974-46.939 43.423-58.855 73.095-23.889-31.323-54.68-56.726-89.977-74.225s-74.149-26.63-113.546-26.682c-141.145 0-256.006 114.86-256.006 256.002 0 141.145 114.86 256.006 256.006 256.006 141.143 0 256.006-114.86 256.006-256.006v-96.002c0-52.95 43.051-96.002 96.002-96.002s96.002 43.051 96.002 96.002v96.002c0 119.642-46.595 232.157-131.203 316.765-41.513 41.727-90.885 74.809-145.265 97.33-54.376 22.521-112.682 34.034-171.541 33.873-58.852 0.16-117.15-11.354-171.523-33.874s-103.739-55.602-145.241-97.327c-41.726-41.502-74.807-90.868-97.327-145.241-22.521-54.37-34.034-112.672-33.874-171.523-0.163-58.852 11.35-117.15 33.871-171.523 22.521-54.37 55.603-103.737 97.33-145.239 41.498-41.721 90.858-74.792 145.221-97.305 54.367-22.514 112.658-34.021 171.499-33.853 96.302 0 191.747 31.829 268.764 89.598 3.359 2.523 7.181 4.359 11.25 5.403s8.301 1.276 12.458 0.683c4.161-0.591 8.161-1.997 11.776-4.137 3.615-2.137 6.772-4.967 9.294-8.325s4.356-7.181 5.4-11.25c1.044-4.069 1.276-8.304 0.687-12.462-0.593-4.157-2-8.157-4.137-11.772-2.14-3.619-4.969-6.776-8.328-9.297-88.664-66.347-196.379-102.293-307.119-102.487zM511.98 640.003c-105.859 0-192.003-86.148-192.003-192.007 0-105.855 86.144-192.003 192.003-192.003 105.855 0 192.003 86.148 192.003 192.003 0 105.859-86.148 192.007-192.003 192.007z" />
<glyph unicode="&#xe92a;" glyph-name="science-fiction-robot-1" d="M671.994 714.643c2.829 0 5.542 1.127 7.544 3.127s3.123 4.713 3.123 7.54v63.998c0 45.264-17.981 88.671-49.986 120.677-32.003 32.005-75.412 49.985-120.674 49.985s-88.669-17.981-120.674-49.985c-32.005-32.005-49.986-75.413-49.986-120.677v-63.998c-0.007-1.4 0.267-2.792 0.803-4.085 0.532-1.297 1.317-2.479 2.311-3.468 0.989-0.993 2.168-1.779 3.464-2.311 1.297-0.536 2.687-0.805 4.089-0.803h319.988zM309.341 223.995c-1.403 0.007-2.792-0.267-4.089-0.799-1.297-0.536-2.475-1.321-3.464-2.311-0.993-0.993-1.779-2.171-2.311-3.468-0.536-1.297-0.809-2.687-0.803-4.089v-191.993h-42.665c-11.314 0-22.168-4.496-30.169-12.496s-12.496-18.851-12.496-30.169c0-11.314 4.496-22.166 12.496-30.169 8.001-8.001 18.854-12.496 30.169-12.496h191.993c9.393 0 18.521 3.099 25.971 8.82 7.45 5.717 12.806 13.731 15.239 22.803 2.431 9.072 1.799 18.691-1.796 27.371-3.595 8.677-9.949 15.922-18.083 20.619v197.71c0 2.829-1.123 5.542-3.123 7.544s-4.713 3.123-7.544 3.123h-149.328zM565.327 223.995c-1.4 0.007-2.789-0.267-4.085-0.799-1.297-0.536-2.475-1.321-3.468-2.311-0.989-0.993-1.779-2.171-2.311-3.468s-0.805-2.687-0.803-4.089v-197.71c-8.13-4.697-14.489-11.942-18.083-20.619-3.595-8.68-4.223-18.298-1.792-27.371s7.785-17.086 15.237-22.803c7.45-5.721 16.581-8.82 25.971-8.82h191.993c11.318 0 22.168 4.496 30.169 12.496 8.001 8.004 12.496 18.854 12.496 30.169 0 11.318-4.496 22.168-12.496 30.169s-18.851 12.496-30.169 12.496h-42.665v191.993c0 2.829-1.123 5.542-3.123 7.544s-4.713 3.123-7.544 3.123h-149.328zM959.979 372.51v92.542c0.396 44.197-14.519 87.17-42.214 121.615-27.698 34.447-66.461 58.243-109.714 67.345-1.827 0.457-3.741 0.423-5.546-0.103s-3.44-1.519-4.737-2.884c-1.3-1.365-2.215-3.055-2.659-4.888-0.44-1.836-0.392-3.755 0.144-5.564 7.312-23.995 13.137-48.417 17.449-73.128 0.269-1.611 0.904-3.137 1.86-4.461s2.201-2.413 3.645-3.177c17.418-8.826 31.968-22.418 41.962-39.193s15.014-36.044 14.482-55.563v-92.542c-16.267-9.39-28.982-23.888-36.169-41.241-7.188-17.357-8.448-36.596-3.588-54.741s15.574-34.176 30.476-45.61c14.902-11.434 33.163-17.633 51.946-17.633s37.044 6.198 51.946 17.633c14.902 11.434 25.616 27.466 30.476 45.61 4.864 18.145 3.601 37.385-3.588 54.741-7.188 17.353-19.902 31.852-36.169 41.241zM64.017 465.053v-92.542c-16.267-9.393-28.982-23.888-36.169-41.245-7.188-17.353-8.449-36.593-3.588-54.738s15.574-34.176 30.476-45.61c14.902-11.438 33.161-17.637 51.946-17.637s37.043 6.198 51.946 17.637c14.902 11.434 25.616 27.466 30.476 45.61 4.864 18.145 3.601 37.385-3.588 54.738-7.188 17.357-19.902 31.852-36.169 41.245v92.542c-0.509 19.497 4.518 38.74 14.501 55.499 9.982 16.755 24.512 30.34 41.902 39.173 1.444 0.772 2.693 1.857 3.652 3.181 0.963 1.321 1.608 2.847 1.895 4.457 4.297 24.735 10.11 49.187 17.407 73.213 0.547 1.805 0.604 3.724 0.171 5.557-0.437 1.836-1.355 3.525-2.656 4.89s-2.943 2.363-4.754 2.888c-1.812 0.525-3.731 0.56-5.56 0.103-43.245-9.113-82.001-32.913-109.688-67.36s-42.598-77.412-42.2-121.602zM727.117 643.436c-0.727 2.103-2.092 3.929-3.905 5.218-1.809 1.293-3.98 1.989-6.205 1.989h-410.055c-2.225 0-4.396-0.696-6.209-1.989-1.812-1.291-3.175-3.116-3.901-5.218-39.914-112.662-39.914-235.614 0-348.276 0.731-2.089 2.092-3.899 3.895-5.181s3.96-1.976 6.174-1.987h410.137c2.215 0.011 4.369 0.703 6.174 1.987 1.803 1.284 3.164 3.092 3.895 5.181 39.914 112.662 39.914 235.614 0 348.276zM618.663 469.319c-8.437 0-16.687 2.501-23.702 7.192-7.017 4.686-12.485 11.353-15.714 19.149s-4.076 16.373-2.431 24.65c1.648 8.277 5.71 15.878 11.677 21.844 5.969 5.966 13.571 10.032 21.848 11.677 8.273 1.645 16.854 0.803 24.65-2.427s14.458-8.697 19.149-15.714c4.686-7.017 7.188-15.263 7.188-23.704 0-11.314-4.496-22.166-12.496-30.165-8.001-8.004-18.854-12.5-30.169-12.5z" />
<glyph unicode="&#xe92b;" glyph-name="science-fiction-robot-2" d="M607.996-63.993c-35.285 0-63.998 28.715-63.998 63.998v255.99h-63.998v-255.99c0-35.283-28.715-63.998-63.998-63.998h-191.993c-17.663 0-31.999 14.335-31.999 31.999s14.335 31.999 31.999 31.999h63.998v267.936c-23.38 12.758-40.702 34.859-47.187 60.84-11.734 49.833-17.366 100.775-16.81 151.59-2.519 53.458 3.969 107.26 19.285 159.608h-19.285c-52.946 0-95.996-43.048-95.996-95.996v-197.495c37.759-13.355 63.998-49.535 63.998-90.494 0-17.663-14.335-31.999-31.999-31.999s-31.999 14.335-31.999 31.999c0 17.663-14.335 31.999-31.999 31.999s-31.999-14.335-31.999-31.999c0-17.663-14.335-31.999-31.999-31.999s-31.999 14.335-31.999 31.999c0 40.958 26.239 77.138 63.998 90.494v197.495c0 88.231 71.763 159.994 159.994 159.994h127.995v95.998c0 88.231 71.763 159.994 159.994 159.994s159.994-71.763 159.994-159.994v-95.998h127.995c88.231 0 159.994-71.763 159.994-159.994v-197.495c37.76-13.355 63.998-49.535 63.998-90.494 0-17.663-14.335-31.999-31.999-31.999s-31.999 14.335-31.999 31.999c0 17.663-14.335 31.999-31.999 31.999s-31.999-14.335-31.999-31.999c0-17.663-14.335-31.999-31.999-31.999s-31.999 14.335-31.999 31.999c0 40.958 26.238 77.138 63.998 90.494v197.495c0 52.949-43.048 95.996-95.996 95.996h-19.285c15.318-52.393 21.759-106.619 19.243-161.444 0.597-49.321-5.038-99.877-16.683-149.328-6.526-26.238-23.848-48.423-47.273-61.223v-267.936h63.998c17.663 0 31.999-14.335 31.999-31.999s-14.335-32.043-31.999-32.043h-191.993zM607.996 0.004h63.998v255.99h-63.998v-255.99zM416.004 0.004v255.99h-63.998v-255.99h63.998zM310.321 639.979c-17.322-51.069-24.872-104.359-22.356-158.543-0.468-47.187 4.608-93.222 15.062-137.637 3.499-13.909 16.213-23.807 30.975-23.807h356.041c14.718 0 27.518 9.984 31.056 24.234 10.369 44.074 15.403 89.726 14.933 135.419 2.519 55.635-4.99 109.266-22.312 160.335h-403.399zM607.996 703.977v95.998c0 52.947-43.048 95.996-95.996 95.996s-95.996-43.049-95.996-95.996v-95.998h191.993zM623.994 479.985c-1.877 0-3.755 0.171-5.588 0.471-21.888 2.56-39.337 20.053-41.897 41.938-0.341 1.792-0.471 3.669-0.471 5.546s0.171 3.755 0.471 5.546c2.56 21.888 20.053 39.381 41.897 41.941 1.833 0.383 3.711 0.553 5.588 0.553s3.755-0.171 5.59-0.468c21.886-2.56 39.337-20.053 41.938-41.941 0.3-1.792 0.471-3.669 0.471-5.546s-0.171-3.755-0.471-5.546c-2.601-21.886-20.053-39.378-41.938-41.938-1.836-0.385-3.713-0.556-5.59-0.556zM384.005 479.985c-17.663 0-31.999 14.335-31.999 31.999s14.335 31.999 31.999 31.999h95.996c17.663 0 31.999-14.335 31.999-31.999s-14.335-31.999-31.999-31.999h-95.996z" />
<glyph unicode="&#xe92c;" glyph-name="search-1" d="M991.947-63.993c-8.529 0-16.591 3.328-22.606 9.386l-277.893 277.933c-32.46-27.767-69.015-50.417-108.898-67.349-52.419-22.267-107.489-33.569-163.663-33.569-53.618 0-106.295 10.277-156.67 30.623-103.693 41.846-184.865 121.523-228.586 224.449-43.721 102.881-44.788 216.684-2.943 320.336 41.844 103.648 121.522 184.862 224.405 228.583 52.419 22.308 107.444 33.569 163.663 33.569 53.618 0 106.297-10.322 156.67-30.625 103.693-41.844 184.866-121.522 228.586-224.447s44.788-216.684 2.943-320.336c-17.145-42.481-40.777-81.425-70.336-115.933l277.979-278.023c12.454-12.454 12.454-32.756 0-45.256-6.054-6.014-14.117-9.342-22.65-9.342zM418.758 895.987c-47.559 0-94.222-9.554-138.624-28.451-87.187-37.067-154.709-105.825-190.155-193.65s-34.549-184.184 2.475-271.367c37.067-87.187 105.825-154.71 193.65-190.153 42.696-17.233 87.358-25.936 132.739-25.936 47.559 0 94.224 9.557 138.627 28.452 41.545 17.659 78.784 42.569 110.646 74.046 0.427 0.597 0.897 1.109 1.365 1.58 0.683 0.683 1.321 1.236 1.919 1.663 32.545 32.887 58.396 72.213 76.182 116.363 35.447 87.825 34.548 184.18-2.519 271.367-37.023 87.183-105.823 154.707-193.648 190.153-42.614 17.19-87.273 25.934-132.658 25.934z" />
<glyph unicode="&#xe92d;" glyph-name="single-neutral-2" d="M512.004 459.366c138.239 0 250.3 112.062 250.3 250.3s-112.062 250.301-250.3 250.301c-138.239 0-250.3-112.064-250.3-250.301s112.062-250.3 250.3-250.3zM512 391.098c-114.622-0.129-224.514-45.724-305.563-126.774s-126.642-190.942-126.775-305.563c0-6.034 2.397-11.824 6.665-16.090s10.056-6.666 16.090-6.666h819.168c6.034 0 11.824 2.4 16.090 6.666s6.666 10.056 6.666 16.090c-0.133 114.622-45.726 224.514-126.776 305.563s-190.942 126.643-305.563 126.774z" />
<glyph unicode="&#xe92e;" glyph-name="single-neutral-actions-1" d="M512 447.987c-141.136 0-255.99 114.854-255.99 255.99s114.854 255.991 255.99 255.991c141.136 0 255.99-114.854 255.99-255.991s-114.854-255.99-255.99-255.99zM512 895.971c-105.851 0-191.993-86.141-191.993-191.994 0-105.851 86.142-191.993 191.993-191.993s191.993 86.142 191.993 191.993c0 105.853-86.142 191.994-191.993 191.994zM927.984-63.993c-8.485 0-16.626 3.372-22.626 9.373s-9.373 14.141-9.373 22.626c0 211.748-172.237 383.985-383.985 383.985-211.745 0-383.985-172.237-383.985-383.985 0-8.485-3.372-16.626-9.373-22.626s-14.139-9.373-22.626-9.373c-8.486 0-16.626 3.372-22.626 9.373s-9.373 14.141-9.373 22.626c0 247.030 200.952 447.983 447.983 447.983s447.983-200.952 447.983-447.983c0-8.485-3.372-16.626-9.373-22.626s-14.141-9.373-22.626-9.373z" />
<glyph unicode="&#xe933;" glyph-name="task-list-clock-1" d="M735.991-63.993c-158.799 0-287.989 129.19-287.989 287.989s129.19 287.989 287.989 287.989c158.799 0 287.989-129.19 287.989-287.989s-129.19-287.989-287.989-287.989zM735.991 447.987c-123.517 0-223.991-100.475-223.991-223.991 0-123.514 100.475-223.991 223.991-223.991 123.514 0 223.991 100.477 223.991 223.991 0 123.517-100.477 223.991-223.991 223.991zM735.991 191.997c-17.663 0-31.999 14.335-31.999 31.999v113.148c0 17.663 14.335 31.999 31.999 31.999s31.999-14.335 31.999-31.999v-81.149h81.149c17.663 0 31.999-14.335 31.999-31.999s-14.335-31.999-31.999-31.999h-113.148zM224.011 479.985c-17.663 0-31.999 14.335-31.999 31.999s14.335 31.999 31.999 31.999h223.991c17.663 0 31.999-14.335 31.999-31.999s-14.335-31.999-31.999-31.999h-223.991zM224.011 319.992c-17.663 0-31.999 14.335-31.999 31.999s14.335 31.999 31.999 31.999h127.995c17.663 0 31.999-14.335 31.999-31.999s-14.335-31.999-31.999-31.999h-127.995zM224.011 159.998c-17.663 0-31.999 14.335-31.999 31.999s14.335 31.999 31.999 31.999h127.995c17.663 0 31.999-14.335 31.999-31.999s-14.335-31.999-31.999-31.999h-127.995zM96.016-63.993c-52.947 0-95.996 43.050-95.996 95.996v671.974c0 52.949 43.049 95.998 95.996 95.998h130.684c15.445 90.834 95.911 159.994 189.303 159.994 93.436 0 173.903-69.16 189.303-159.994h130.684c52.949 0 95.996-43.048 95.996-95.998v-95.996c0-17.663-14.335-31.999-31.999-31.999s-31.999 14.335-31.999 31.999v95.996c0 17.663-14.335 31.999-31.999 31.999h-159.994c-17.663 0-31.999 14.335-31.999 31.999 0 70.569-57.427 127.996-127.995 127.996s-127.995-57.427-127.995-127.996c0-17.663-14.335-31.999-31.999-31.999h-159.994c-17.663 0-31.999-14.335-31.999-31.999v-671.974c0-17.663 14.335-31.999 31.999-31.999h319.988c17.663 0 31.999-14.335 31.999-31.999s-14.335-31.999-31.999-31.999h-319.988zM416.004 735.975c26.511 0 47.999 21.49 47.999 47.999s-21.49 47.997-47.999 47.997-47.999-21.49-47.999-47.997c0-26.511 21.49-47.999 47.999-47.999z" />
<glyph unicode="&#xe934;" glyph-name="team-meeting-1" d="M192.036 64.019c-79.396 0-143.986 64.591-143.986 143.986s64.591 143.986 143.986 143.986c79.394 0 143.986-64.591 143.986-143.986s-64.591-143.986-143.986-143.986zM192.036 287.996c-44.114 0-79.993-35.876-79.993-79.992 0-44.112 35.879-79.992 79.993-79.992 44.112 0 79.992 35.88 79.992 79.992 0 44.116-35.88 79.992-79.992 79.992zM32.011-63.96c-5.205 0-10.41 1.321-15.059 3.755-15.571 8.277-21.459 27.688-13.182 43.258 20.009 37.501 50.385 67.875 87.842 87.842 30.76 16.383 65.359 25.043 100.044 25.043 79.138 0 151.41-43.258 188.569-112.885 8.318-15.571 2.385-34.981-13.185-43.304-4.608-2.389-9.813-3.711-15.014-3.711-11.861 0-22.656 6.485-28.244 16.937-25.982 48.765-76.578 79.053-132.040 79.053-24.275 0-48.465-6.058-70.011-17.534-26.238-13.994-47.483-35.237-61.476-61.479-5.546-10.492-16.382-16.977-28.243-16.977zM991.961-63.969c-11.861 0-22.698 6.485-28.244 16.937-18.773 35.156-50.13 60.967-88.269 72.572-14.25 4.352-28.968 6.526-43.645 6.526-24.19 0-48.419-6.1-70.093-17.663-26.238-13.99-47.485-35.237-61.475-61.475-5.59-10.41-16.427-16.895-28.244-16.895-5.205 0-10.41 1.324-15.059 3.755-15.571 8.318-21.459 27.732-13.185 43.304 20.011 37.501 50.345 67.875 87.842 87.842 9.13 4.905 18.646 9.086 28.33 12.585-42.962 25.002-71.929 71.544-71.929 124.531 0 79.398 64.591 143.989 143.986 143.989s143.986-64.591 143.986-143.989c0-52.986-28.968-99.529-71.927-124.531 49.999-17.875 90.996-53.198 116.169-100.385 4.011-7.55 4.864-16.209 2.389-24.4-2.475-8.15-8.021-14.889-15.571-18.899-4.608-2.475-9.813-3.799-15.059-3.799zM831.974 287.996c-44.112 0-79.992-35.88-79.992-79.992s35.88-79.992 79.992-79.992c44.116 0 79.992 35.88 79.992 79.992s-35.876 79.992-79.992 79.992zM512.007 671.961c-79.398 0-143.989 64.591-143.989 143.988s64.591 143.986 143.989 143.986c79.394 0 143.986-64.591 143.986-143.986s-64.591-143.988-143.986-143.988zM512.007 895.941c-44.116 0-79.996-35.879-79.996-79.993s35.88-79.993 79.996-79.993c44.112 0 79.992 35.88 79.992 79.993s-35.88 79.993-79.992 79.993zM650.624 575.971c-9.386 0-18.261 4.096-24.36 11.264-28.542 33.487-70.223 52.73-114.421 52.73-35.624 0-70.137-12.714-97.228-35.753-6.058-5.205-11.776-10.922-16.939-16.977-6.1-7.168-14.974-11.264-24.36-11.264-7.59 0-14.974 2.731-20.777 7.636-6.485 5.546-10.452 13.267-11.134 21.8s2.004 16.81 7.55 23.295c7.382 8.704 15.53 16.81 24.19 24.19 38.696 32.979 87.927 51.109 138.528 51.109 5.758 0 11.561-0.212 17.363-0.683 57.038-4.564 108.874-31.056 145.904-74.616 5.546-6.529 8.236-14.762 7.553-23.295s-4.652-16.254-11.137-21.8c-5.758-4.905-13.137-7.636-20.731-7.636zM511.963 63.98c-46.973 0-93.132 8.489-137.16 25.299-7.98 3.031-14.294 9.001-17.793 16.81-3.499 7.806-3.755 16.51-0.683 24.486 4.693 12.332 16.683 20.609 29.866 20.609 3.925 0 7.765-0.727 11.434-2.133 36.688-13.994 75.169-21.077 114.336-21.077 39.845 0 78.968 7.338 116.213 21.8 3.711 1.451 7.594 2.177 11.561 2.177 13.097 0 25.087-8.192 29.822-20.438 6.4-16.465-1.792-35.027-18.261-41.422-44.624-17.322-91.552-26.111-139.333-26.111zM161.574 383.985c-16.638 0-30.333 12.5-31.827 29.098-1.195 13.011-1.749 24.104-1.749 34.896-0.043 105.42 44.070 207.253 121.035 279.312 5.969 5.588 13.734 8.66 21.886 8.66 8.83 0 17.318-3.711 23.336-10.11 5.844-6.229 8.916-14.379 8.618-22.91-0.3-8.533-3.884-16.469-10.113-22.315-64.079-60.024-100.809-144.84-100.768-232.636 0-8.789 0.471-18.046 1.495-29.098 1.617-17.534-11.349-33.149-28.927-34.767-1.109-0.085-2.048-0.129-2.987-0.129zM862.348 383.985c-0.939 0-1.833 0.044-2.772 0.129-8.577 0.768-16.298 4.778-21.759 11.349-5.502 6.566-8.106 14.843-7.338 23.376 1.024 11.564 1.495 20.821 1.495 29.139 0.041 87.842-36.692 172.612-100.812 232.596-12.885 12.076-13.523 32.381-1.495 45.221 6.017 6.444 14.506 10.113 23.339 10.113 8.148 0 15.913-3.072 21.84-8.618 77.049-72.056 121.162-173.852 121.121-279.312 0-10.325-0.556-21.374-1.751-34.811-1.492-16.639-15.189-29.183-31.869-29.183z" />
<glyph unicode="&#xe94f;" glyph-name="view-1-1" d="M505.228 128.074c-184.849 0-368.419 129.691-478.612 251.017-17.102 18.885-26.58 43.446-26.596 68.927-0.016 25.476 9.432 50.051 26.511 68.953 110.236 121.37 294.019 250.976 479.253 250.976l6.441-0.044 6.526 0.044c184.637 0 368.335-129.606 478.612-250.89 35.453-39.374 35.493-98.631 0.085-137.92-110.321-121.414-294.231-251.102-479.721-251.102l-6.356 0.041h-6.144zM505.699 703.997c-164.287 0-330.752-118.769-431.73-229.94-6.433-7.148-9.986-16.425-9.97-26.039 0.016-9.618 3.6-18.885 10.056-26.008 100.936-111.13 267.356-229.94 431.73-229.94l5.588 0.041 5.802-0.041c164.97 0 331.732 118.81 432.794 230.026 6.434 7.148 9.988 16.425 9.97 26.039-0.013 9.616-3.597 18.882-10.056 26.008-101.020 111.086-267.568 229.814-431.855 229.814l-6.656-0.044-5.673 0.085zM511.88 256.099c-25.223-0.061-50.209 4.881-73.51 14.537-23.299 9.66-44.453 23.844-62.236 41.733-17.885 17.783-32.060 38.937-41.706 62.24s-14.565 48.29-14.479 73.506c0.068 50.891 20.319 99.676 56.307 135.657s84.777 56.219 135.668 56.274c51.277 0 99.484-19.963 135.747-56.182 17.882-17.779 32.060-38.924 41.713-62.219 9.649-23.295 14.585-48.273 14.513-73.486 0.081-25.244-4.853-50.255-14.51-73.578-9.66-23.326-23.855-44.501-41.757-62.298-17.786-17.869-38.934-32.033-62.23-41.678-23.291-9.642-48.266-14.574-73.476-14.506h-0.044zM511.965 576.056c-70.561 0-127.982-57.379-127.982-127.94 0-34.169 13.311-66.336 37.456-90.484 11.854-11.922 25.954-21.374 41.484-27.811 15.534-6.437 32.187-9.732 48.999-9.686 34.213 0 66.336 13.311 90.484 37.456 24.144 24.144 37.497 56.311 37.497 90.484 0 34.299-13.307 66.424-37.497 90.57-11.857 11.898-25.958 21.329-41.481 27.752-15.519 6.42-32.163 9.704-48.962 9.66z" />
<glyph unicode="&#xe950;" glyph-name="view-off-1" d="M118.728 32.024c-4.306 0.013-8.569 0.888-12.533 2.573-3.964 1.683-7.55 4.146-10.546 7.24-2.922 3.024-5.216 6.601-6.746 10.519-1.531 3.914-2.268 8.1-2.171 12.305 0.076 4.205 0.985 8.356 2.677 12.206 1.692 3.853 4.132 7.332 7.177 10.233l799.856 767.863c3.021 2.932 6.588 5.236 10.502 6.777s8.1 2.291 12.305 2.203c4.205-0.088 8.356-1.009 12.202-2.712s7.318-4.152 10.213-7.206c2.925-3.024 5.222-6.597 6.761-10.513s2.291-8.098 2.205-12.305c-0.081-4.206-0.997-8.356-2.689-12.207s-4.13-7.33-7.174-10.237l-799.857-767.865c-5.978-5.7-13.922-8.878-22.183-8.874zM511.407 96.014l-4.693-0.041c-44.708 0-89.715 6.953-133.822 20.601-7.249 2.328-13.431 7.161-17.442 13.635-4.006 6.472-5.581 14.161-4.433 21.687 1.144 7.526 4.932 14.4 10.683 19.387s13.093 7.761 20.704 7.83c3.212 0.011 6.406-0.481 9.471-1.451 37.882-11.771 76.785-17.744 115.561-17.744l10.622-0.044c164.366 0 330.866 118.849 431.925 230.063 6.434 7.144 9.987 16.424 9.97 26.038s-3.597 18.882-10.055 26.005c-38.172 41.866-80.461 79.782-126.227 113.176-3.406 2.464-6.288 5.581-8.474 9.171-2.192 3.588-3.645 7.574-4.28 11.731-0.939 6.24-0.013 12.618 2.656 18.339 2.672 5.717 6.97 10.519 12.355 13.806 5.386 3.29 11.625 4.914 17.93 4.676 6.308-0.239 12.403-2.335 17.523-6.021 49.289-35.985 94.837-76.83 135.955-121.921 35.493-39.374 35.493-98.629 0.129-137.917-110.316-121.405-294.138-251.091-479.361-251.091l-6.697 0.085zM161.174 234.187c-7.108 0.007-14.011 2.379-19.623 6.741-41.226 32.035-79.658 67.512-114.881 106.050-17.122 18.888-26.617 43.463-26.64 68.956s9.425 50.084 26.512 69.004c110.316 121.364 294.176 251.005 479.317 251.005l10.11-0.041c36.090 0 71.966-4.352 106.647-13.011 4.078-1.017 7.918-2.827 11.298-5.328 3.378-2.499 6.233-5.642 8.397-9.242 2.164-3.604 3.597-7.598 4.218-11.755s0.42-8.397-0.597-12.475c-1.017-4.076-2.827-7.916-5.328-11.294-2.499-3.378-5.642-6.233-9.242-8.397-3.604-2.164-7.598-3.597-11.755-4.218-4.157-0.624-8.397-0.42-12.475 0.597-29.708 7.382-60.207 11.11-90.82 11.093h-9.769c-164.793 0-331.505-118.808-432.564-229.977-6.433-7.144-9.986-16.424-9.97-26.038s3.6-18.882 10.055-26.005c32.746-35.803 68.467-68.768 106.776-98.544 3.334-2.564 6.126-5.761 8.216-9.413 2.089-3.649 3.437-7.676 3.96-11.85 0.523-4.17 0.215-8.406-0.908-12.462-1.123-4.052-3.037-7.844-5.636-11.151-3.013-3.826-6.853-6.918-11.237-9.038-4.386-2.123-9.193-3.218-14.062-3.205zM351.944 383.962c-8.485 0-16.622 3.369-22.623 9.369s-9.373 14.138-9.373 22.623c0 51.193 19.967 99.353 56.225 135.659 17.755 17.892 38.886 32.079 62.163 41.746s48.245 14.618 73.45 14.564c8.83 0 15.956-7.126 15.998-15.956l0.085-31.994c0-4.262-1.663-8.318-4.649-11.345-2.986-3.030-7.041-4.693-11.305-4.693-16.816 0.037-33.473-3.26-49.002-9.703s-29.629-15.906-41.48-27.837c-11.919-11.847-21.369-25.94-27.806-41.463s-9.731-32.169-9.69-48.974c0.011-4.201-0.809-8.369-2.413-12.257-1.604-3.884-3.96-7.417-6.932-10.39s-6.505-5.332-10.393-6.936c-3.884-1.604-8.052-2.424-12.257-2.409zM511.959 223.993c-2.103-0.007-4.185 0.403-6.126 1.205-1.945 0.803-3.71 1.98-5.198 3.468-1.485 1.485-2.663 3.253-3.464 5.194s-1.212 4.028-1.208 6.126l-0.041 31.994c0 4.225 1.663 8.321 4.693 11.305 1.477 1.492 3.238 2.676 5.181 3.481 1.939 0.805 4.021 1.219 6.124 1.212 16.816-0.048 33.479 3.242 49.020 9.677 15.536 6.437 29.644 15.895 41.5 27.821 11.911 11.871 21.352 25.981 27.782 41.518 6.426 15.536 9.717 32.193 9.673 49.005 0 8.485 3.372 16.626 9.373 22.625s14.138 9.369 22.623 9.369c8.485 0 16.622-3.369 22.623-9.369s9.373-14.141 9.373-22.625c0.075-25.216-4.85-50.197-14.495-73.498-9.642-23.299-23.813-44.456-41.688-62.242-17.779-17.888-38.934-32.073-62.231-41.73-23.301-9.659-48.285-14.602-73.509-14.536z" />
<glyph unicode="&#xe951;" glyph-name="vip-crown-queen-2" d="M153.229 224.129c-23.61-4.485-44.704-17.595-59.18-36.777s-21.298-43.065-19.139-67.001c2.16-23.934 13.146-46.208 30.823-62.488s40.777-25.404 64.808-25.595h682.18c13.447-0.315 26.804 2.277 39.16 7.594 12.353 5.321 23.415 13.246 32.425 23.234 15.622 18.070 24.111 41.218 23.875 65.103 1.133 22.79-6.202 45.19-20.589 62.902-14.386 17.707-34.811 29.474-57.348 33.029h-717.015zM861.252 266.77c4.922-0.011 9.697 1.683 13.513 4.789 3.813 3.109 6.437 7.444 7.42 12.264l51.163 260.509c22.278 1.297 43.413 10.301 59.786 25.463 16.373 15.165 26.968 35.545 29.971 57.659 3 22.114-1.775 44.584-13.517 63.564-11.738 18.978-29.708 33.289-50.833 40.477-21.127 7.192-44.096 6.816-64.973-1.061-20.882-7.877-38.375-22.766-49.485-42.118-11.113-19.353-15.154-41.965-11.43-63.971 3.724-22.002 14.977-42.026 31.839-56.648l-103.393-117.974c-1.973-2.249-4.396-4.061-7.117-5.31-2.717-1.253-5.666-1.919-8.66-1.956-2.993-0.035-5.96 0.56-8.708 1.744-2.748 1.188-5.212 2.939-7.24 5.14l-173.060 188.835c25.056 10.386 45.737 29.139 58.519 53.062 12.78 23.923 16.871 51.539 11.578 78.138-5.294 26.603-19.65 50.547-40.617 67.753s-47.253 26.61-74.377 26.61c-27.124 0-53.41-9.404-74.377-26.61s-35.323-41.149-40.617-67.753c-5.294-26.599-1.201-54.215 11.581-78.138 12.78-23.923 33.46-42.676 58.516-53.062l-172.548-188.238c-2.037-2.225-4.526-3.991-7.294-5.181-2.772-1.188-5.765-1.779-8.778-1.727-3.011 0.048-5.977 0.737-8.704 2.013-2.727 1.28-5.15 3.12-7.117 5.406l-102.069 118.698c16.413 14.963 27.112 35.169 30.263 57.158s-1.444 44.385-12.997 63.356c-11.55 18.97-29.339 33.333-50.318 40.628-20.979 7.297-43.842 7.069-64.671-0.645-20.829-7.71-38.328-22.428-49.498-41.624-11.17-19.199-15.315-41.685-11.728-63.602 3.588-21.919 14.687-41.91 31.397-56.543 16.709-14.635 37.987-23.002 60.188-23.671l49.074-260.079c0.923-4.877 3.52-9.281 7.341-12.448s8.629-4.901 13.593-4.905h698.381z" />
</font>
</defs>
</svg>
