<svg width="330" height="790" viewBox="0 0 330 790" fill="none" xmlns="http://www.w3.org/2000/svg">
<g clip-path="url(#clip0_74_4029)">
<rect width="330" height="790" fill="#00A49F"/>
<path d="M220.243 273.91H-64.7142C-72.4702 273.91 -78.7614 280.193 -78.7614 287.939V380.129C-78.7614 387.875 -72.4702 394.158 -64.7142 394.158H-59.6973V412.195C-59.6973 412.285 -59.6973 412.375 -59.6873 412.465C-59.6371 416.574 -57.51 420.301 -53.9681 422.416V422.406C-50.4363 424.53 -46.1118 424.66 -42.4495 422.777C-41.9478 422.516 -41.4962 422.235 -41.0548 421.945L-40.9845 421.875C-39.8707 421.093 -38.9577 420.231 -38.1851 419.45C-31.292 412.616 -20.1847 401.292 -13.3216 394.428C-13.2213 394.328 -13.1309 394.238 -13.0406 394.158H220.243C227.999 394.158 234.29 387.875 234.29 380.129V287.939C234.29 280.193 227.999 273.91 220.243 273.91ZM199.313 347.271L197.898 348.684C197.557 349.135 197.205 349.496 196.924 349.776L193.152 353.544C190.473 356.209 187.794 358.875 185.115 361.53C183.82 362.833 182.576 364.066 181.503 365.128C180.6 366.01 179.647 366.581 178.663 366.871C178.553 366.901 178.452 366.942 178.342 366.972C178.182 367.012 178.021 367.032 177.871 367.052C177.82 367.062 177.77 367.062 177.73 367.072H177.69C177.6 367.082 177.509 367.092 177.409 367.092C175.713 367.142 174.038 366.41 172.462 364.867C169.703 362.142 166.954 359.386 164.205 356.64L160.221 352.652C159.98 352.402 159.73 352.151 159.469 351.921C159.278 351.74 159.128 351.63 159.027 351.56C158.997 351.54 158.967 351.51 158.937 351.5C158.877 351.55 158.796 351.62 158.706 351.68L156.83 353.544C154.151 356.209 151.472 358.875 148.793 361.53C147.489 362.833 146.254 364.066 145.181 365.128C144.278 366.01 143.324 366.581 142.341 366.871C142.231 366.901 142.131 366.942 142.02 366.972C141.86 367.012 141.699 367.032 141.548 367.052C141.498 367.062 141.448 367.062 141.408 367.072H141.368C141.278 367.082 141.177 367.092 141.087 367.092C141.017 367.102 140.947 367.072 140.876 367.072C140.846 367.072 140.806 367.082 140.776 367.082C140.756 367.082 140.746 367.082 140.726 367.082C140.525 367.082 140.324 367.032 140.114 367.002C140.003 366.982 139.883 366.982 139.773 366.962C138.528 366.721 137.294 366.02 136.06 364.827C133.863 362.693 131.705 360.528 129.538 358.374L127.451 356.29C126.819 355.668 126.197 355.037 125.575 354.406C124.812 353.634 124.04 352.853 123.267 352.091C122.946 351.77 122.725 351.61 122.585 351.52C122.424 351.64 122.204 351.82 121.893 352.131L114.929 359.055C112.862 361.14 110.835 363.194 109.24 364.767C108.849 365.158 108.397 365.589 107.845 365.98L107.815 366.01C107.594 366.15 107.364 366.3 107.123 366.43C106.29 366.861 105.397 367.072 104.494 367.082C104.484 367.082 104.474 367.082 104.464 367.082C104.454 367.082 104.444 367.082 104.434 367.082C103.38 367.092 102.317 366.811 101.374 366.24C100.772 365.879 100.25 365.408 99.8284 364.897C99.7983 364.867 99.7682 364.847 99.7482 364.827C97.5508 362.693 95.3936 360.528 93.2263 358.374L91.1392 356.29C90.5071 355.668 89.885 355.037 89.2629 354.406C88.5003 353.634 87.7278 352.853 86.9552 352.091C86.6843 351.83 86.4837 351.67 86.3532 351.57L84.3765 353.534C81.6975 356.199 79.0185 358.865 76.3395 361.52C75.0451 362.823 73.801 364.056 72.7274 365.118C71.8244 366 70.8712 366.571 69.8879 366.861C69.7775 366.891 69.6771 366.932 69.5667 366.962C69.4062 367.002 69.2457 367.022 69.0952 367.042C69.045 367.052 68.9948 367.052 68.9547 367.062H68.9147C68.8244 367.072 68.734 367.082 68.6337 367.082C68.4731 367.082 68.3227 367.082 68.1621 367.072C67.0885 367.082 66.0249 366.811 65.0616 366.23C64.2088 365.719 63.5265 365.018 63.0448 364.206C60.5063 361.691 57.9678 359.156 55.4393 356.63L51.456 352.642C51.2152 352.392 50.9643 352.141 50.7035 351.911C50.5128 351.73 50.3623 351.62 50.2619 351.55C50.2318 351.53 50.2018 351.5 50.1716 351.49C50.1115 351.54 50.0312 351.61 49.9409 351.67L48.0646 353.534C45.3856 356.199 42.7066 358.865 40.0276 361.52C38.7232 362.823 37.4891 364.056 36.4155 365.118C35.5125 366 34.5592 366.571 33.5759 366.861C33.4655 366.891 33.3652 366.932 33.2549 366.962C33.0943 367.002 32.9338 367.022 32.7833 367.042C32.7331 367.052 32.6829 367.052 32.6428 367.062H32.6026C32.5123 367.072 32.422 367.082 32.3217 367.082C32.2514 367.092 32.1812 367.062 32.111 367.062C32.0809 367.062 32.0408 367.072 32.0107 367.072C31.9906 367.072 31.9805 367.072 31.9605 367.072C31.7598 367.072 31.5591 367.022 31.3484 366.992C31.2381 366.972 31.1177 366.972 31.0073 366.952C29.7631 366.711 28.5289 366.01 27.2948 364.817C25.0974 362.683 22.9401 360.518 20.7729 358.364L18.6859 356.28C18.0538 355.658 17.4317 355.027 16.8096 354.396C16.0471 353.624 15.2744 352.843 14.5018 352.081C14.1807 351.76 13.9601 351.6 13.8196 351.51C13.659 351.63 13.4382 351.81 13.1272 352.121L6.16387 359.045C4.09693 361.13 2.07008 363.184 0.474724 364.757C0.0834045 365.148 -0.368126 365.579 -0.919975 365.97L-0.949982 366C-1.17072 366.14 -1.40157 366.29 -1.64237 366.42C-2.47517 366.851 -3.36816 367.062 -4.27119 367.072C-4.28123 367.072 -4.29129 367.072 -4.30133 367.072C-4.31136 367.072 -4.3213 367.072 -4.33134 367.072C-5.38487 367.082 -6.44849 366.801 -7.39166 366.23C-7.99368 365.869 -8.51547 365.398 -8.93689 364.887C-8.96699 364.857 -8.99705 364.837 -9.01711 364.817C-11.2145 362.683 -13.3717 360.518 -15.539 358.364L-17.626 356.28C-18.2581 355.658 -18.8802 355.027 -19.5023 354.396C-20.2648 353.624 -21.0375 352.843 -21.8101 352.081C-22.1613 351.73 -22.392 351.57 -22.5325 351.48C-22.5525 351.5 -22.5928 351.53 -22.6229 351.55C-22.7934 351.68 -23.0442 351.901 -23.3954 352.251C-26.8269 355.678 -32.3755 361.34 -35.8171 364.757C-36.2084 365.148 -36.6599 365.579 -37.2118 365.97L-37.2419 366C-37.4627 366.14 -37.6935 366.29 -37.9343 366.42C-39.7705 367.362 -41.9277 367.302 -43.6936 366.24C-45.4596 365.178 -46.5231 363.324 -46.5432 361.27C-46.6134 359.717 -45.9813 358.194 -44.6367 356.861L-43.222 355.448C-42.8808 354.997 -42.5297 354.636 -42.2487 354.356L-38.476 350.588C-35.8071 347.922 -33.1281 345.267 -30.4491 342.611C-29.1547 341.309 -27.9106 340.066 -26.8269 339.004C-25.9239 338.122 -24.9707 337.551 -23.9874 337.26C-23.8771 337.23 -23.7767 337.18 -23.6663 337.16C-23.5057 337.12 -23.3452 337.1 -23.1947 337.08C-23.1446 337.07 -23.0944 337.07 -23.0542 337.06H-23.0141C-22.9238 337.05 -22.8336 337.04 -22.7332 337.04C-21.0375 336.99 -19.3618 337.721 -17.7866 339.265C-15.0273 341.99 -12.2781 344.746 -9.52885 347.492L-5.54549 351.48C-5.30469 351.73 -5.05385 351.981 -4.79297 352.211C-4.60233 352.392 -4.45175 352.502 -4.34138 352.572C-4.31128 352.592 -4.28121 352.622 -4.25111 352.632C-4.19091 352.582 -4.11066 352.512 -4.02036 352.452L-2.14406 350.588C0.524902 347.922 3.2039 345.267 5.8829 342.611C7.18728 341.309 8.42141 340.066 9.50505 339.004C10.4081 338.122 11.3614 337.551 12.3447 337.26C12.455 337.23 12.5553 337.18 12.6657 337.16C12.8262 337.12 12.9867 337.1 13.1372 337.08C13.1874 337.07 13.2376 337.07 13.2878 337.06H13.3279C13.4183 337.05 13.5086 337.04 13.6089 337.04C13.6892 337.03 13.7594 337.06 13.8196 337.06C13.8497 337.06 13.8898 337.05 13.9199 337.05C13.94 337.05 13.9501 337.05 13.9701 337.05C14.1708 337.05 14.3715 337.1 14.5822 337.13C14.6925 337.15 14.8129 337.15 14.9233 337.17C16.1674 337.411 17.4015 338.112 18.6357 339.305C20.8331 341.439 22.9903 343.604 25.1576 345.758L27.2447 347.842C27.8768 348.464 28.4989 349.095 29.121 349.726C29.8835 350.498 30.6561 351.279 31.4286 352.041C31.7497 352.362 31.9705 352.522 32.111 352.612C32.2715 352.492 32.4922 352.311 32.8033 352.001L39.7667 345.087C41.8337 343.002 43.8705 340.948 45.4559 339.375C45.8472 338.984 46.2986 338.553 46.8504 338.162L46.8806 338.132C47.1013 337.992 47.3322 337.842 47.573 337.711C48.4058 337.28 49.3088 337.07 50.2118 337.06C50.2219 337.06 50.2318 337.06 50.2418 337.06C50.2519 337.06 50.2619 337.06 50.272 337.06C51.3355 337.05 52.3992 337.331 53.3423 337.902C53.9444 338.262 54.466 338.723 54.8874 339.245C54.9075 339.275 54.9377 339.295 54.9577 339.315C57.1551 341.449 59.3124 343.614 61.4796 345.768L63.5666 347.852C64.1987 348.474 64.8208 349.105 65.4429 349.736C66.2055 350.508 66.9781 351.289 67.7507 352.051C68.0216 352.321 68.2223 352.472 68.3627 352.572L70.3394 350.598C73.0083 347.932 75.6873 345.277 78.3663 342.621C79.6707 341.319 80.9048 340.076 81.9885 339.014C82.8915 338.132 83.8448 337.561 84.8281 337.27C84.9384 337.24 85.0387 337.19 85.1491 337.17C85.3096 337.13 85.4702 337.11 85.6207 337.09C85.6708 337.08 85.721 337.08 85.7611 337.07H85.8013C85.8916 337.06 85.992 337.05 86.0823 337.05C86.2428 337.05 86.3933 337.05 86.5538 337.06C87.6275 337.05 88.691 337.321 89.6542 337.902V337.892C90.5171 338.403 91.1994 339.114 91.6911 339.936C94.2296 342.451 96.7581 344.976 99.2865 347.502L103.27 351.49C103.511 351.74 103.762 351.991 104.023 352.221C104.213 352.402 104.364 352.512 104.474 352.582C104.504 352.602 104.534 352.632 104.564 352.642C104.624 352.592 104.705 352.522 104.795 352.462L106.671 350.598C109.34 347.932 112.019 345.277 114.698 342.621C116.003 341.319 117.237 340.076 118.321 339.014C119.224 338.132 120.177 337.561 121.16 337.27C121.27 337.24 121.371 337.19 121.481 337.17C121.642 337.13 121.802 337.11 121.953 337.09C122.003 337.08 122.053 337.08 122.103 337.07H122.143C122.234 337.06 122.324 337.05 122.424 337.05C122.505 337.04 122.575 337.07 122.635 337.07C122.675 337.07 122.705 337.06 122.735 337.06C122.755 337.06 122.765 337.06 122.786 337.06C122.986 337.06 123.187 337.11 123.398 337.14C123.508 337.16 123.628 337.16 123.739 337.18C124.983 337.421 126.217 338.122 127.451 339.315C129.649 341.449 131.806 343.614 133.973 345.768L136.06 347.852C136.692 348.474 137.314 349.105 137.936 349.736C138.699 350.508 139.472 351.289 140.244 352.051C140.565 352.372 140.786 352.532 140.926 352.622C141.087 352.502 141.308 352.321 141.619 352.011L148.582 345.097C150.649 343.012 152.686 340.958 154.271 339.385C154.663 338.994 155.114 338.563 155.666 338.172L155.696 338.142C155.917 338.002 156.148 337.852 156.388 337.721C157.221 337.29 158.124 337.08 159.027 337.07C159.037 337.07 159.047 337.07 159.057 337.07C159.067 337.07 159.077 337.07 159.087 337.07C160.151 337.06 161.215 337.341 162.158 337.912C162.76 338.273 163.282 338.733 163.703 339.255C163.723 339.285 163.753 339.305 163.773 339.325C165.971 341.459 168.128 343.624 170.295 345.778L172.382 347.862C173.014 348.484 173.636 349.115 174.258 349.746C175.021 350.518 175.794 351.299 176.566 352.061C176.917 352.412 177.148 352.572 177.289 352.662C177.309 352.642 177.349 352.612 177.379 352.592C177.549 352.462 177.8 352.241 178.162 351.891C181.593 348.464 187.142 342.802 190.583 339.385C190.974 338.994 191.426 338.563 191.978 338.172L192.008 338.142C192.229 338.002 192.46 337.852 192.7 337.721C194.537 336.779 196.694 336.84 198.46 337.902V337.892C200.226 338.954 201.289 340.808 201.309 342.862C201.289 344.415 200.647 345.938 199.313 347.271ZM199.313 302.178L197.898 303.591C197.557 304.042 197.205 304.403 196.924 304.683L193.152 308.451C190.473 311.117 187.794 313.782 185.115 316.438C183.82 317.74 182.576 318.973 181.503 320.035C180.6 320.917 179.647 321.488 178.663 321.779C178.553 321.809 178.452 321.849 178.342 321.879C178.182 321.919 178.021 321.939 177.871 321.959C177.82 321.969 177.77 321.969 177.73 321.979H177.69C177.6 321.989 177.509 321.999 177.409 321.999C175.713 322.049 174.038 321.318 172.462 319.774C169.703 317.049 166.954 314.293 164.205 311.547L160.221 307.559C159.98 307.309 159.73 307.058 159.469 306.828C159.278 306.647 159.128 306.537 159.027 306.467C158.997 306.447 158.967 306.417 158.937 306.407C158.877 306.457 158.796 306.527 158.706 306.587L156.83 308.451C154.151 311.117 151.472 313.782 148.793 316.438C147.489 317.74 146.254 318.973 145.181 320.035C144.278 320.917 143.324 321.488 142.341 321.779C142.231 321.809 142.131 321.849 142.02 321.879C141.86 321.919 141.699 321.939 141.548 321.959C141.498 321.969 141.448 321.969 141.408 321.979H141.368C141.278 321.989 141.177 321.999 141.087 321.999C141.017 322.009 140.947 321.979 140.876 321.979C140.846 321.979 140.806 321.989 140.776 321.989C140.756 321.989 140.746 321.989 140.726 321.989C140.525 321.989 140.324 321.939 140.114 321.909C140.003 321.889 139.883 321.889 139.773 321.869C138.528 321.628 137.294 320.927 136.06 319.734C133.863 317.6 131.705 315.435 129.538 313.281L127.451 311.197C126.819 310.576 126.197 309.944 125.575 309.313C124.812 308.541 124.04 307.76 123.267 306.998C122.946 306.677 122.725 306.517 122.585 306.427C122.424 306.547 122.204 306.728 121.893 307.038L114.929 313.962C112.862 316.047 110.835 318.101 109.24 319.674C108.849 320.065 108.397 320.496 107.845 320.887L107.815 320.917C107.594 321.057 107.364 321.207 107.123 321.338C106.29 321.769 105.397 321.979 104.494 321.989C104.484 321.989 104.474 321.989 104.464 321.989C104.454 321.989 104.444 321.989 104.434 321.989C103.38 321.999 102.317 321.718 101.374 321.147C100.772 320.787 100.25 320.316 99.8284 319.805C99.7983 319.774 99.7682 319.754 99.7482 319.734C97.5508 317.6 95.3936 315.435 93.2263 313.281L91.1392 311.197C90.5071 310.576 89.885 309.944 89.2629 309.313C88.5003 308.541 87.7278 307.76 86.9552 306.998C86.6843 306.738 86.4837 306.577 86.3532 306.477L84.3765 308.441C81.6975 311.107 79.0185 313.772 76.3395 316.428C75.0451 317.73 73.801 318.963 72.7274 320.025C71.8244 320.907 70.8712 321.478 69.8879 321.769C69.7775 321.799 69.6771 321.839 69.5667 321.869C69.4062 321.909 69.2457 321.929 69.0952 321.949C69.045 321.959 68.9948 321.959 68.9547 321.969H68.9147C68.8244 321.979 68.734 321.989 68.6337 321.989C68.4731 321.989 68.3227 321.989 68.1621 321.979C67.0885 321.989 66.0249 321.718 65.0616 321.137C64.2088 320.626 63.5265 319.925 63.0448 319.113C60.5063 316.598 57.9678 314.063 55.4393 311.537L51.456 307.549C51.2152 307.299 50.9643 307.048 50.7035 306.818C50.5128 306.637 50.3623 306.527 50.2619 306.457C50.2318 306.437 50.2018 306.407 50.1716 306.397C50.1115 306.447 50.0312 306.517 49.9409 306.577L48.0646 308.441C45.3856 311.107 42.7066 313.772 40.0276 316.428C38.7232 317.73 37.4891 318.963 36.4155 320.025C35.5125 320.907 34.5592 321.478 33.5759 321.769C33.4655 321.799 33.3652 321.839 33.2549 321.869C33.0943 321.909 32.9338 321.929 32.7833 321.949C32.7331 321.959 32.6829 321.959 32.6428 321.969H32.6026C32.5123 321.979 32.422 321.989 32.3217 321.989C32.2514 321.999 32.1812 321.969 32.111 321.969C32.0809 321.969 32.0408 321.979 32.0107 321.979C31.9906 321.979 31.9805 321.979 31.9605 321.979C31.7598 321.979 31.5591 321.929 31.3484 321.899C31.2381 321.879 31.1177 321.879 31.0073 321.859C29.7631 321.618 28.5289 320.917 27.2948 319.724C25.0974 317.59 22.9401 315.425 20.7729 313.271L18.6859 311.187C18.0538 310.565 17.4317 309.934 16.8096 309.303C16.0471 308.531 15.2744 307.75 14.5018 306.988C14.1807 306.667 13.9601 306.507 13.8196 306.417C13.659 306.537 13.4382 306.718 13.1272 307.028L6.16387 313.952C4.09693 316.037 2.07008 318.091 0.474724 319.664C0.0834045 320.055 -0.368126 320.486 -0.919975 320.877L-0.949982 320.907C-1.17072 321.047 -1.40157 321.197 -1.64237 321.328C-2.47517 321.759 -3.36816 321.969 -4.27119 321.979C-4.28123 321.979 -4.29129 321.979 -4.30133 321.979C-4.31136 321.979 -4.3213 321.979 -4.33134 321.979C-5.38487 321.989 -6.44849 321.708 -7.39166 321.137C-7.99368 320.777 -8.51547 320.306 -8.93689 319.794C-8.96699 319.764 -8.99705 319.744 -9.01711 319.724C-11.2145 317.59 -13.3717 315.425 -15.539 313.271L-17.626 311.187C-18.2581 310.565 -18.8802 309.934 -19.5023 309.303C-20.2648 308.531 -21.0375 307.75 -21.8101 306.988C-22.1613 306.637 -22.392 306.477 -22.5325 306.387C-22.5525 306.407 -22.5928 306.437 -22.6229 306.457C-22.7934 306.587 -23.0442 306.808 -23.3954 307.158C-26.8269 310.586 -32.3755 316.247 -35.8171 319.664C-36.2084 320.055 -36.6599 320.486 -37.2118 320.877L-37.2419 320.907C-37.4627 321.047 -37.6935 321.197 -37.9343 321.328C-39.7705 322.27 -41.9277 322.209 -43.6936 321.147C-45.4596 320.085 -46.5231 318.231 -46.5432 316.177C-46.6134 314.624 -45.9813 313.101 -44.6367 311.768L-43.222 310.355C-42.8808 309.904 -42.5297 309.543 -42.2487 309.263L-38.476 305.495C-35.8071 302.83 -33.1281 300.174 -30.4491 297.519C-29.1547 296.216 -27.9106 294.973 -26.8269 293.911C-25.9239 293.029 -24.9707 292.458 -23.9874 292.168C-23.8771 292.138 -23.7767 292.087 -23.6663 292.067C-23.5057 292.027 -23.3452 292.007 -23.1947 291.987C-23.1446 291.977 -23.0944 291.977 -23.0542 291.967H-23.0141C-22.9238 291.957 -22.8336 291.947 -22.7332 291.947C-21.0375 291.897 -19.3618 292.629 -17.7866 294.172C-15.0273 296.897 -12.2781 299.653 -9.52885 302.399L-5.54549 306.387C-5.30469 306.637 -5.05385 306.888 -4.79297 307.118C-4.60233 307.299 -4.45175 307.409 -4.34138 307.479C-4.31128 307.499 -4.28121 307.529 -4.25111 307.539C-4.19091 307.489 -4.11066 307.419 -4.02036 307.359L-2.14406 305.495C0.524902 302.83 3.2039 300.174 5.8829 297.519C7.18728 296.216 8.42141 294.973 9.50505 293.911C10.4081 293.029 11.3614 292.458 12.3447 292.168C12.455 292.138 12.5553 292.087 12.6657 292.067C12.8262 292.027 12.9867 292.007 13.1372 291.987C13.1874 291.977 13.2376 291.977 13.2878 291.967H13.3279C13.4183 291.957 13.5086 291.947 13.6089 291.947C13.6892 291.937 13.7594 291.967 13.8196 291.967C13.8497 291.967 13.8898 291.957 13.9199 291.957C13.94 291.957 13.9501 291.957 13.9701 291.957C14.1708 291.957 14.3715 292.007 14.5822 292.037C14.6925 292.057 14.8129 292.057 14.9233 292.077C16.1674 292.318 17.4015 293.019 18.6357 294.212C20.8331 296.346 22.9903 298.511 25.1576 300.665L27.2447 302.749C27.8768 303.371 28.4989 304.002 29.121 304.633C29.8835 305.405 30.6561 306.186 31.4286 306.948C31.7497 307.269 31.9705 307.429 32.111 307.519C32.2715 307.399 32.4922 307.219 32.8033 306.908L39.7667 299.994C41.8337 297.909 43.8705 295.855 45.4559 294.282C45.8472 293.891 46.2986 293.46 46.8504 293.069L46.8806 293.039C47.1013 292.899 47.3322 292.749 47.573 292.619C48.4058 292.188 49.3088 291.977 50.2118 291.967C50.2219 291.967 50.2318 291.967 50.2418 291.967C50.2519 291.967 50.2619 291.967 50.272 291.967C51.3355 291.957 52.3992 292.238 53.3423 292.809C53.9444 293.17 54.466 293.631 54.8874 294.152C54.9075 294.182 54.9377 294.202 54.9577 294.222C57.1551 296.356 59.3124 298.521 61.4796 300.675L63.5666 302.759C64.1987 303.381 64.8208 304.012 65.4429 304.643C66.2055 305.415 66.9781 306.196 67.7507 306.958C68.0216 307.229 68.2223 307.379 68.3627 307.479L70.3394 305.505C73.0083 302.84 75.6873 300.184 78.3663 297.529C79.6707 296.226 80.9048 294.983 81.9885 293.921C82.8915 293.039 83.8448 292.468 84.8281 292.178C84.9384 292.148 85.0387 292.097 85.1491 292.077C85.3096 292.037 85.4702 292.017 85.6207 291.997C85.6708 291.987 85.721 291.987 85.7611 291.977H85.8013C85.8916 291.967 85.992 291.957 86.0823 291.957C86.2428 291.957 86.3933 291.957 86.5538 291.967C87.6275 291.957 88.691 292.228 89.6542 292.809V292.799C90.5171 293.31 91.1994 294.021 91.6911 294.843C94.2296 297.358 96.7581 299.883 99.2865 302.409L103.27 306.397C103.511 306.647 103.762 306.898 104.023 307.128C104.213 307.309 104.364 307.419 104.474 307.489C104.504 307.509 104.534 307.539 104.564 307.549C104.624 307.499 104.705 307.429 104.795 307.369L106.671 305.505C109.34 302.84 112.019 300.184 114.698 297.529C116.003 296.226 117.237 294.983 118.321 293.921C119.224 293.039 120.177 292.468 121.16 292.178C121.27 292.148 121.371 292.097 121.481 292.077C121.642 292.037 121.802 292.017 121.953 291.997C122.003 291.987 122.053 291.987 122.103 291.977H122.143C122.234 291.967 122.324 291.957 122.424 291.957C122.505 291.947 122.575 291.977 122.635 291.977C122.675 291.977 122.705 291.967 122.735 291.967C122.755 291.967 122.765 291.967 122.786 291.967C122.986 291.967 123.187 292.017 123.398 292.047C123.508 292.067 123.628 292.067 123.739 292.087C124.983 292.328 126.217 293.029 127.451 294.222C129.649 296.356 131.806 298.521 133.973 300.675L136.06 302.759C136.692 303.381 137.314 304.012 137.936 304.643C138.699 305.415 139.472 306.196 140.244 306.958C140.565 307.279 140.786 307.439 140.926 307.529C141.087 307.409 141.308 307.229 141.619 306.918L148.582 300.004C150.649 297.919 152.686 295.865 154.271 294.292C154.663 293.901 155.114 293.47 155.666 293.079L155.696 293.049C155.917 292.909 156.148 292.759 156.388 292.629C157.221 292.198 158.124 291.987 159.027 291.977C159.037 291.977 159.047 291.977 159.057 291.977C159.067 291.977 159.077 291.977 159.087 291.977C160.151 291.967 161.215 292.248 162.158 292.819C162.76 293.18 163.282 293.641 163.703 294.162C163.723 294.192 163.753 294.212 163.773 294.232C165.971 296.366 168.128 298.531 170.295 300.685L172.382 302.769C173.014 303.391 173.636 304.022 174.258 304.653C175.021 305.425 175.794 306.207 176.566 306.968C176.917 307.319 177.148 307.479 177.289 307.569C177.309 307.549 177.349 307.519 177.379 307.499C177.549 307.369 177.8 307.148 178.162 306.798C181.593 303.371 187.142 297.709 190.583 294.292C190.974 293.901 191.426 293.47 191.978 293.079L192.008 293.049C192.229 292.909 192.46 292.759 192.7 292.629C194.537 291.687 196.694 291.747 198.46 292.809V292.799C200.226 293.861 201.289 295.715 201.309 297.769C201.289 299.322 200.647 300.845 199.313 302.178Z" fill="#00DED2" fill-opacity="0.12"/>
<path d="M264.065 690.437H-21.7993C-29.5801 690.437 -35.8912 696.72 -35.8912 704.466V796.656C-35.8912 804.402 -29.5801 810.685 -21.7993 810.685H-16.7665V828.722C-16.7665 828.812 -16.7665 828.902 -16.7564 828.993C-16.7061 833.101 -14.5722 836.829 -11.019 838.943V838.933C-7.47594 841.057 -3.13766 841.188 0.536301 839.304C1.03959 839.043 1.49255 838.763 1.93544 838.472L2.00597 838.402C3.12326 837.62 4.03915 836.759 4.8142 835.977C11.7293 829.143 22.872 817.82 29.7569 810.955C29.8576 810.855 29.9482 810.765 30.0388 810.685H264.065C271.846 810.685 278.157 804.402 278.157 796.656V704.466C278.157 696.72 271.846 690.437 264.065 690.437ZM243.068 763.798L241.649 765.211C241.307 765.662 240.954 766.023 240.673 766.303L236.888 770.071C234.2 772.737 231.513 775.402 228.825 778.058C227.527 779.36 226.279 780.593 225.202 781.655C224.296 782.537 223.34 783.108 222.353 783.399C222.242 783.429 222.142 783.469 222.031 783.499C221.87 783.539 221.709 783.559 221.558 783.579C221.508 783.589 221.457 783.589 221.417 783.599H221.377C221.286 783.609 221.196 783.619 221.095 783.619C219.394 783.669 217.713 782.938 216.133 781.395C213.365 778.669 210.607 775.913 207.849 773.168L203.853 769.179C203.611 768.929 203.359 768.678 203.098 768.448C202.906 768.268 202.755 768.157 202.655 768.087C202.624 768.067 202.594 768.037 202.564 768.027C202.504 768.077 202.423 768.147 202.333 768.207L200.45 770.071C197.763 772.737 195.075 775.402 192.388 778.058C191.079 779.36 189.841 780.593 188.764 781.655C187.858 782.537 186.902 783.108 185.915 783.399C185.805 783.429 185.704 783.469 185.593 783.499C185.432 783.539 185.271 783.559 185.12 783.579C185.07 783.589 185.02 783.589 184.979 783.599H184.939C184.849 783.609 184.748 783.619 184.657 783.619C184.587 783.629 184.516 783.599 184.446 783.599C184.416 783.599 184.375 783.609 184.345 783.609C184.325 783.609 184.315 783.609 184.295 783.609C184.094 783.609 183.892 783.559 183.681 783.529C183.57 783.509 183.449 783.509 183.339 783.489C182.091 783.248 180.852 782.547 179.614 781.354C177.41 779.22 175.246 777.056 173.072 774.901L170.978 772.817C170.344 772.196 169.72 771.564 169.096 770.933C168.331 770.161 167.556 769.38 166.781 768.618C166.459 768.298 166.237 768.137 166.096 768.047C165.935 768.167 165.714 768.348 165.402 768.658L158.416 775.583C156.343 777.667 154.309 779.721 152.709 781.294C152.316 781.685 151.863 782.116 151.31 782.507L151.28 782.537C151.058 782.677 150.827 782.827 150.585 782.958C149.75 783.389 148.854 783.599 147.948 783.609C147.938 783.609 147.928 783.609 147.918 783.609C147.908 783.609 147.897 783.609 147.887 783.609C146.831 783.619 145.764 783.339 144.817 782.767C144.214 782.407 143.69 781.936 143.267 781.425C143.237 781.395 143.207 781.375 143.187 781.354C140.982 779.22 138.818 777.056 136.644 774.901L134.55 772.817C133.916 772.196 133.292 771.564 132.668 770.933C131.903 770.161 131.128 769.38 130.353 768.618C130.081 768.358 129.88 768.197 129.749 768.097L127.766 770.061C125.079 772.727 122.391 775.392 119.704 778.048C118.405 779.35 117.157 780.583 116.08 781.645C115.174 782.527 114.218 783.098 113.231 783.389C113.121 783.419 113.02 783.459 112.909 783.489C112.748 783.529 112.587 783.549 112.436 783.569C112.386 783.579 112.336 783.579 112.295 783.589H112.255C112.164 783.599 112.074 783.609 111.973 783.609C111.812 783.609 111.661 783.609 111.5 783.599C110.423 783.609 109.356 783.339 108.39 782.757C107.534 782.246 106.85 781.545 106.367 780.733C103.82 778.218 101.273 775.683 98.7369 773.158L94.7408 769.169C94.4993 768.919 94.2476 768.668 93.9859 768.438C93.7947 768.257 93.6436 768.147 93.543 768.077C93.5128 768.057 93.4826 768.027 93.4524 768.017C93.392 768.067 93.3115 768.137 93.2209 768.197L91.3386 770.061C88.6511 772.727 85.9636 775.392 83.276 778.048C81.9675 779.35 80.7294 780.583 79.6524 781.645C78.7465 782.527 77.7902 783.098 76.8038 783.389C76.693 783.419 76.5924 783.459 76.4817 783.489C76.3207 783.529 76.1596 783.549 76.0087 783.569C75.9583 783.579 75.908 783.579 75.8677 783.589H75.8274C75.7368 783.599 75.6462 783.609 75.5456 783.609C75.4751 783.619 75.4047 783.589 75.3342 783.589C75.304 783.589 75.2638 783.599 75.2336 783.599C75.2135 783.599 75.2033 783.599 75.1832 783.599C74.9819 783.599 74.7806 783.549 74.5692 783.519C74.4585 783.499 74.3377 783.499 74.227 783.479C72.9789 783.238 71.7407 782.537 70.5027 781.344C68.2983 779.21 66.1342 777.046 63.96 774.891L61.8664 772.807C61.2322 772.186 60.6082 771.554 59.9841 770.923C59.2191 770.151 58.444 769.37 57.669 768.608C57.3468 768.288 57.1255 768.127 56.9846 768.037C56.8235 768.157 56.602 768.338 56.29 768.648L49.3045 775.573C47.2309 777.657 45.1976 779.711 43.5972 781.284C43.2046 781.675 42.7517 782.106 42.1981 782.497L42.1679 782.527C41.9465 782.667 41.7149 782.817 41.4734 782.948C40.6379 783.379 39.7421 783.589 38.8362 783.599C38.8261 783.599 38.816 783.599 38.8059 783.599C38.7959 783.599 38.7859 783.599 38.7758 783.599C37.7189 783.609 36.6519 783.329 35.7057 782.757C35.1018 782.397 34.5784 781.926 34.1556 781.415C34.1254 781.385 34.0953 781.364 34.0751 781.344C31.8707 779.21 29.7066 777.046 27.5324 774.891L25.4388 772.807C24.8047 772.186 24.1806 771.554 23.5566 770.923C22.7916 770.151 22.0165 769.37 21.2414 768.608C20.8891 768.257 20.6576 768.097 20.5167 768.007C20.4966 768.027 20.4562 768.057 20.426 768.077C20.2549 768.207 20.0034 768.428 19.6511 768.779C16.2086 772.206 10.6423 777.867 7.1898 781.284C6.79725 781.675 6.34428 782.106 5.79066 782.497L5.76044 782.527C5.53899 782.667 5.30742 782.817 5.06585 782.948C3.22383 783.89 1.05972 783.83 -0.71183 782.767C-2.48338 781.705 -3.55031 779.851 -3.57044 777.797C-3.6409 776.244 -3.00674 774.721 -1.65794 773.388L-0.238651 771.975C0.10358 771.524 0.455849 771.163 0.737686 770.883L4.52238 767.115C7.19984 764.45 9.88737 761.794 12.5749 759.139C13.8734 757.836 15.1215 756.593 16.2086 755.531C17.1145 754.649 18.0707 754.078 19.0571 753.788C19.1678 753.758 19.2686 753.708 19.3793 753.687C19.5403 753.647 19.7014 753.627 19.8524 753.607C19.9027 753.597 19.953 753.597 19.9933 753.587H20.0336C20.1242 753.577 20.2147 753.567 20.3153 753.567C22.0164 753.517 23.6974 754.249 25.2778 755.792C28.0458 758.517 30.8038 761.273 33.5618 764.019L37.5578 768.007C37.7994 768.257 38.051 768.508 38.3127 768.738C38.504 768.919 38.655 769.029 38.7657 769.099C38.7959 769.119 38.8261 769.149 38.8563 769.159C38.9167 769.109 38.9972 769.039 39.0878 768.979L40.9701 767.115C43.6475 764.45 46.3351 761.794 49.0226 759.139C50.3311 757.836 51.5692 756.593 52.6563 755.531C53.5622 754.649 54.5185 754.078 55.5049 753.788C55.6157 753.758 55.7163 753.708 55.827 753.687C55.988 753.647 56.1491 753.627 56.3 753.607C56.3504 753.597 56.4007 753.597 56.451 753.587H56.4913C56.5819 753.577 56.6726 753.567 56.7732 753.567C56.8537 753.557 56.9242 753.587 56.9846 753.587C57.0148 753.587 57.055 753.577 57.0852 753.577C57.1053 753.577 57.1154 753.577 57.1356 753.577C57.3369 753.577 57.5382 753.627 57.7496 753.657C57.8603 753.677 57.981 753.677 58.0918 753.698C59.3399 753.938 60.5779 754.639 61.816 755.832C64.0204 757.966 66.1845 760.131 68.3587 762.285L70.4524 764.369C71.0865 764.991 71.7106 765.622 72.3347 766.253C73.0997 767.025 73.8746 767.807 74.6497 768.568C74.9718 768.889 75.1933 769.049 75.3342 769.139C75.4953 769.019 75.7167 768.839 76.0287 768.528L83.0143 761.614C85.0878 759.53 87.1312 757.475 88.7216 755.902C89.1142 755.511 89.567 755.08 90.1206 754.69L90.1508 754.659C90.3723 754.519 90.6039 754.369 90.8454 754.239C91.6809 753.808 92.5868 753.597 93.4927 753.587C93.5028 753.587 93.5127 753.587 93.5228 753.587C93.5329 753.587 93.543 753.587 93.553 753.587C94.62 753.577 95.687 753.858 96.6332 754.429C97.2371 754.79 97.7604 755.251 98.1832 755.772C98.2033 755.802 98.2336 755.822 98.2537 755.842C100.458 757.976 102.622 760.141 104.796 762.295L106.89 764.38C107.524 765.001 108.148 765.632 108.772 766.263C109.537 767.035 110.312 767.817 111.087 768.578C111.359 768.849 111.561 768.999 111.701 769.099L113.684 767.125C116.362 764.46 119.049 761.804 121.737 759.149C123.045 757.846 124.283 756.603 125.371 755.541C126.276 754.659 127.233 754.088 128.219 753.798C128.33 753.768 128.431 753.718 128.541 753.698C128.702 753.657 128.863 753.637 129.014 753.617C129.065 753.607 129.115 753.607 129.155 753.597H129.196C129.286 753.587 129.387 753.577 129.477 753.577C129.638 753.577 129.789 753.577 129.95 753.587C131.027 753.577 132.094 753.848 133.061 754.429V754.419C133.926 754.93 134.611 755.642 135.104 756.463C137.651 758.978 140.187 761.504 142.724 764.029L146.72 768.017C146.961 768.268 147.213 768.518 147.475 768.748C147.666 768.929 147.817 769.039 147.928 769.109C147.958 769.129 147.988 769.159 148.018 769.169C148.079 769.119 148.159 769.049 148.25 768.989L150.132 767.125C152.81 764.46 155.497 761.804 158.185 759.149C159.493 757.846 160.731 756.603 161.818 755.541C162.724 754.659 163.68 754.088 164.667 753.798C164.778 753.768 164.878 753.718 164.989 753.698C165.15 753.657 165.311 753.637 165.462 753.617C165.512 753.607 165.563 753.607 165.613 753.597H165.653C165.744 753.587 165.835 753.577 165.935 753.577C166.016 753.567 166.086 753.597 166.146 753.597C166.187 753.597 166.217 753.587 166.247 753.587C166.267 753.587 166.277 753.587 166.298 753.587C166.499 753.587 166.7 753.637 166.911 753.667C167.022 753.687 167.143 753.688 167.254 753.708C168.502 753.948 169.74 754.649 170.978 755.842C173.182 757.976 175.347 760.141 177.521 762.295L179.614 764.38C180.248 765.001 180.873 765.632 181.497 766.263C182.262 767.035 183.037 767.817 183.812 768.578C184.134 768.899 184.355 769.059 184.496 769.149C184.657 769.029 184.879 768.849 185.191 768.538L192.176 761.624C194.25 759.54 196.293 757.485 197.884 755.912C198.276 755.521 198.729 755.09 199.283 754.7L199.313 754.67C199.534 754.529 199.766 754.379 200.007 754.249C200.843 753.818 201.749 753.607 202.655 753.597C202.665 753.597 202.675 753.597 202.685 753.597C202.695 753.597 202.705 753.597 202.715 753.597C203.782 753.587 204.849 753.868 205.795 754.439C206.399 754.8 206.923 755.261 207.345 755.782C207.365 755.812 207.396 755.832 207.416 755.852C209.62 757.986 211.784 760.151 213.958 762.305L216.052 764.39C216.686 765.011 217.31 765.642 217.934 766.273C218.699 767.045 219.474 767.827 220.249 768.588C220.602 768.939 220.833 769.099 220.974 769.189C220.994 769.169 221.035 769.139 221.065 769.119C221.236 768.989 221.488 768.769 221.85 768.418C225.292 764.991 230.859 759.329 234.311 755.912C234.704 755.521 235.157 755.09 235.71 754.7L235.74 754.67C235.962 754.529 236.193 754.379 236.435 754.249C238.277 753.307 240.441 753.367 242.213 754.429V754.419C243.984 755.481 245.051 757.335 245.071 759.389C245.051 760.942 244.407 762.466 243.068 763.798ZM243.068 718.705L241.649 720.118C241.307 720.569 240.954 720.93 240.673 721.211L236.888 724.978C234.2 727.644 231.513 730.309 228.825 732.965C227.527 734.268 226.279 735.5 225.202 736.562C224.296 737.444 223.34 738.015 222.353 738.306C222.242 738.336 222.142 738.376 222.031 738.406C221.87 738.446 221.709 738.466 221.558 738.486C221.508 738.496 221.457 738.496 221.417 738.506H221.377C221.286 738.516 221.196 738.526 221.095 738.526C219.394 738.576 217.713 737.845 216.133 736.302C213.365 733.576 210.607 730.82 207.849 728.075L203.853 724.087C203.611 723.836 203.359 723.586 203.098 723.355C202.906 723.175 202.755 723.064 202.655 722.994C202.624 722.974 202.594 722.944 202.564 722.934C202.504 722.984 202.423 723.054 202.333 723.115L200.45 724.978C197.763 727.644 195.075 730.309 192.388 732.965C191.079 734.268 189.841 735.5 188.764 736.562C187.858 737.444 186.902 738.015 185.915 738.306C185.805 738.336 185.704 738.376 185.593 738.406C185.432 738.446 185.271 738.466 185.12 738.486C185.07 738.496 185.02 738.496 184.979 738.506H184.939C184.849 738.516 184.748 738.526 184.657 738.526C184.587 738.536 184.516 738.506 184.446 738.506C184.416 738.506 184.375 738.516 184.345 738.516C184.325 738.516 184.315 738.516 184.295 738.516C184.094 738.516 183.892 738.466 183.681 738.436C183.57 738.416 183.449 738.416 183.339 738.396C182.091 738.156 180.852 737.454 179.614 736.262C177.41 734.127 175.246 731.963 173.072 729.808L170.978 727.724C170.344 727.103 169.72 726.471 169.096 725.84C168.331 725.069 167.556 724.287 166.781 723.525C166.459 723.205 166.237 723.044 166.096 722.954C165.935 723.074 165.714 723.255 165.402 723.565L158.416 730.49C156.343 732.574 154.309 734.628 152.709 736.201C152.316 736.592 151.863 737.023 151.31 737.414L151.28 737.444C151.058 737.584 150.827 737.735 150.585 737.865C149.75 738.296 148.854 738.506 147.948 738.516C147.938 738.516 147.928 738.516 147.918 738.516C147.908 738.516 147.897 738.516 147.887 738.516C146.831 738.526 145.764 738.246 144.817 737.675C144.214 737.314 143.69 736.843 143.267 736.332C143.237 736.302 143.207 736.282 143.187 736.262C140.982 734.127 138.818 731.963 136.644 729.808L134.55 727.724C133.916 727.103 133.292 726.471 132.668 725.84C131.903 725.069 131.128 724.287 130.353 723.525C130.081 723.265 129.88 723.105 129.749 723.004L127.766 724.968C125.079 727.634 122.391 730.299 119.704 732.955C118.405 734.257 117.157 735.49 116.08 736.552C115.174 737.434 114.218 738.005 113.231 738.296C113.121 738.326 113.02 738.366 112.909 738.396C112.748 738.436 112.587 738.456 112.436 738.476C112.386 738.486 112.336 738.486 112.295 738.496H112.255C112.164 738.506 112.074 738.516 111.973 738.516C111.812 738.516 111.661 738.516 111.5 738.506C110.423 738.516 109.356 738.246 108.39 737.665C107.534 737.153 106.85 736.452 106.367 735.64C103.82 733.125 101.273 730.59 98.7369 728.065L94.7408 724.077C94.4993 723.826 94.2476 723.575 93.9859 723.345C93.7947 723.165 93.6436 723.054 93.543 722.984C93.5128 722.964 93.4826 722.934 93.4524 722.924C93.392 722.974 93.3115 723.044 93.2209 723.105L91.3386 724.968C88.6511 727.634 85.9636 730.299 83.276 732.955C81.9675 734.257 80.7294 735.49 79.6524 736.552C78.7465 737.434 77.7902 738.005 76.8038 738.296C76.693 738.326 76.5924 738.366 76.4817 738.396C76.3207 738.436 76.1596 738.456 76.0087 738.476C75.9583 738.486 75.908 738.486 75.8677 738.496H75.8274C75.7368 738.506 75.6462 738.516 75.5456 738.516C75.4751 738.526 75.4047 738.496 75.3342 738.496C75.304 738.496 75.2638 738.506 75.2336 738.506C75.2135 738.506 75.2033 738.506 75.1832 738.506C74.9819 738.506 74.7806 738.456 74.5692 738.426C74.4585 738.406 74.3377 738.406 74.227 738.386C72.9789 738.145 71.7407 737.444 70.5027 736.252C68.2983 734.117 66.1342 731.953 63.96 729.798L61.8664 727.714C61.2322 727.093 60.6082 726.461 59.9841 725.83C59.2191 725.059 58.444 724.277 57.669 723.515C57.3468 723.195 57.1255 723.034 56.9846 722.944C56.8235 723.064 56.602 723.245 56.29 723.555L49.3045 730.48C47.2309 732.564 45.1976 734.618 43.5972 736.191C43.2046 736.582 42.7517 737.013 42.1981 737.404L42.1679 737.434C41.9465 737.574 41.7149 737.725 41.4734 737.855C40.6379 738.286 39.7421 738.496 38.8362 738.506C38.8261 738.506 38.816 738.506 38.8059 738.506C38.7959 738.506 38.7859 738.506 38.7758 738.506C37.7189 738.516 36.6519 738.236 35.7057 737.665C35.1018 737.304 34.5784 736.833 34.1556 736.322C34.1254 736.292 34.0953 736.272 34.0751 736.252C31.8707 734.117 29.7066 731.953 27.5324 729.798L25.4388 727.714C24.8047 727.093 24.1806 726.461 23.5566 725.83C22.7916 725.059 22.0165 724.277 21.2414 723.515C20.8891 723.165 20.6576 723.004 20.5167 722.914C20.4966 722.934 20.4562 722.964 20.426 722.984C20.2549 723.115 20.0034 723.335 19.6511 723.686C16.2086 727.113 10.6423 732.774 7.1898 736.191C6.79725 736.582 6.34428 737.013 5.79066 737.404L5.76044 737.434C5.53899 737.574 5.30742 737.725 5.06585 737.855C3.22383 738.797 1.05972 738.737 -0.71183 737.675C-2.48338 736.612 -3.55031 734.759 -3.57044 732.704C-3.6409 731.151 -3.00674 729.628 -1.65794 728.295L-0.238651 726.882C0.10358 726.431 0.455849 726.071 0.737686 725.79L4.52238 722.022C7.19984 719.357 9.88737 716.701 12.5749 714.046C13.8734 712.743 15.1215 711.501 16.2086 710.438C17.1145 709.557 18.0707 708.985 19.0571 708.695C19.1678 708.665 19.2686 708.615 19.3793 708.595C19.5403 708.555 19.7014 708.535 19.8524 708.514C19.9027 708.504 19.953 708.504 19.9933 708.494H20.0336C20.1242 708.484 20.2147 708.474 20.3153 708.474C22.0164 708.424 23.6974 709.156 25.2778 710.699C28.0458 713.425 30.8038 716.18 33.5618 718.926L37.5578 722.914C37.7994 723.165 38.051 723.415 38.3127 723.646C38.504 723.826 38.655 723.936 38.7657 724.006C38.7959 724.026 38.8261 724.056 38.8563 724.066C38.9167 724.016 38.9972 723.946 39.0878 723.886L40.9701 722.022C43.6475 719.357 46.3351 716.701 49.0226 714.046C50.3311 712.743 51.5692 711.501 52.6563 710.438C53.5622 709.557 54.5185 708.985 55.5049 708.695C55.6157 708.665 55.7163 708.615 55.827 708.595C55.988 708.555 56.1491 708.535 56.3 708.514C56.3504 708.504 56.4007 708.504 56.451 708.494H56.4913C56.5819 708.484 56.6726 708.474 56.7732 708.474C56.8537 708.464 56.9242 708.494 56.9846 708.494C57.0148 708.494 57.055 708.484 57.0852 708.484C57.1053 708.484 57.1154 708.484 57.1356 708.484C57.3369 708.484 57.5382 708.535 57.7496 708.565C57.8603 708.585 57.981 708.585 58.0918 708.605C59.3399 708.845 60.5779 709.547 61.816 710.739C64.0204 712.873 66.1845 715.038 68.3587 717.192L70.4524 719.277C71.0865 719.898 71.7106 720.529 72.3347 721.161C73.0997 721.932 73.8746 722.714 74.6497 723.475C74.9718 723.796 75.1933 723.956 75.3342 724.046C75.4953 723.926 75.7167 723.746 76.0287 723.435L83.0143 716.521C85.0878 714.437 87.1312 712.382 88.7216 710.809C89.1142 710.418 89.567 709.988 90.1206 709.597L90.1508 709.567C90.3723 709.426 90.6039 709.276 90.8454 709.146C91.6809 708.715 92.5868 708.504 93.4927 708.494C93.5028 708.494 93.5127 708.494 93.5228 708.494C93.5329 708.494 93.543 708.494 93.553 708.494C94.62 708.484 95.687 708.765 96.6332 709.336C97.2371 709.697 97.7604 710.158 98.1832 710.679C98.2033 710.709 98.2336 710.729 98.2537 710.749C100.458 712.883 102.622 715.048 104.796 717.202L106.89 719.287C107.524 719.908 108.148 720.539 108.772 721.171C109.537 721.942 110.312 722.724 111.087 723.485C111.359 723.756 111.561 723.906 111.701 724.006L113.684 722.032C116.362 719.367 119.049 716.711 121.737 714.056C123.045 712.753 124.283 711.511 125.371 710.448C126.276 709.567 127.233 708.995 128.219 708.705C128.33 708.675 128.431 708.625 128.541 708.605C128.702 708.565 128.863 708.545 129.014 708.525C129.065 708.514 129.115 708.514 129.155 708.504H129.196C129.286 708.494 129.387 708.484 129.477 708.484C129.638 708.484 129.789 708.484 129.95 708.494C131.027 708.484 132.094 708.755 133.061 709.336V709.326C133.926 709.837 134.611 710.549 135.104 711.37C137.651 713.886 140.187 716.411 142.724 718.936L146.72 722.924C146.961 723.175 147.213 723.425 147.475 723.656C147.666 723.836 147.817 723.946 147.928 724.016C147.958 724.036 147.988 724.067 148.018 724.077C148.079 724.026 148.159 723.956 148.25 723.896L150.132 722.032C152.81 719.367 155.497 716.711 158.185 714.056C159.493 712.753 160.731 711.511 161.818 710.448C162.724 709.567 163.68 708.995 164.667 708.705C164.778 708.675 164.878 708.625 164.989 708.605C165.15 708.565 165.311 708.545 165.462 708.525C165.512 708.514 165.563 708.514 165.613 708.504H165.653C165.744 708.494 165.835 708.484 165.935 708.484C166.016 708.474 166.086 708.504 166.146 708.504C166.187 708.504 166.217 708.494 166.247 708.494C166.267 708.494 166.277 708.494 166.298 708.494C166.499 708.494 166.7 708.545 166.911 708.575C167.022 708.595 167.143 708.595 167.254 708.615C168.502 708.855 169.74 709.557 170.978 710.749C173.182 712.883 175.347 715.048 177.521 717.202L179.614 719.287C180.248 719.908 180.873 720.539 181.497 721.171C182.262 721.942 183.037 722.724 183.812 723.485C184.134 723.806 184.355 723.966 184.496 724.056C184.657 723.936 184.879 723.756 185.191 723.445L192.176 716.531C194.25 714.447 196.293 712.392 197.884 710.819C198.276 710.428 198.729 709.998 199.283 709.607L199.313 709.577C199.534 709.436 199.766 709.286 200.007 709.156C200.843 708.725 201.749 708.514 202.655 708.504C202.665 708.504 202.675 708.504 202.685 708.504C202.695 708.504 202.705 708.504 202.715 708.504C203.782 708.494 204.849 708.775 205.795 709.346C206.399 709.707 206.923 710.168 207.345 710.689C207.365 710.719 207.396 710.739 207.416 710.759C209.62 712.893 211.784 715.058 213.958 717.212L216.052 719.297C216.686 719.918 217.31 720.549 217.934 721.181C218.699 721.952 219.474 722.734 220.249 723.495C220.602 723.846 220.833 724.006 220.974 724.097C220.994 724.077 221.035 724.046 221.065 724.026C221.236 723.896 221.488 723.676 221.85 723.325C225.292 719.898 230.859 714.236 234.311 710.819C234.704 710.428 235.157 709.998 235.71 709.607L235.74 709.577C235.962 709.436 236.193 709.286 236.435 709.156C238.277 708.214 240.441 708.274 242.213 709.336V709.326C243.984 710.388 245.051 712.242 245.071 714.296C245.051 715.85 244.407 717.373 243.068 718.705Z" fill="#00DED2" fill-opacity="0.12"/>
<path d="M385.594 63.6439H117.88C110.593 63.6439 104.683 69.5917 104.683 76.9245V164.198C104.683 171.53 110.593 177.478 117.88 177.478H122.593V194.553C122.593 194.639 122.593 194.724 122.603 194.81C122.65 198.699 124.648 202.228 127.976 204.229V204.22C131.294 206.231 135.357 206.354 138.797 204.571C139.269 204.324 139.693 204.059 140.108 203.783L140.174 203.717C141.22 202.977 142.078 202.161 142.804 201.421C149.28 194.952 159.715 184.232 166.163 177.734C166.257 177.64 166.342 177.554 166.427 177.478H385.594C392.881 177.478 398.792 171.53 398.792 164.198V76.9245C398.792 69.5917 392.881 63.6439 385.594 63.6439ZM148.771 131.594C142.606 131.594 137.61 126.575 137.61 120.39C137.61 114.205 142.606 109.187 148.771 109.187C154.936 109.187 159.932 114.205 159.932 120.39C159.932 126.575 154.936 131.594 148.771 131.594ZM217.358 131.594C211.194 131.594 206.197 126.575 206.197 120.39C206.197 114.205 211.194 109.187 217.358 109.187C223.523 109.187 228.51 114.205 228.51 120.39C228.51 126.575 223.523 131.594 217.358 131.594ZM285.852 131.594C279.687 131.594 274.7 126.575 274.7 120.39C274.7 114.205 279.696 109.187 285.852 109.187C292.017 109.187 297.013 114.205 297.013 120.39C297.013 126.575 292.007 131.594 285.852 131.594ZM354.326 131.594C348.161 131.594 343.165 126.575 343.165 120.381C343.165 114.186 348.161 109.168 354.326 109.168C360.491 109.168 365.478 114.186 365.478 120.381C365.478 126.575 360.491 131.594 354.326 131.594Z" fill="#00DED2" fill-opacity="0.12"/>
<path d="M463.359 471.16H195.644C188.358 471.16 182.447 477.108 182.447 484.44V571.713C182.447 579.046 188.358 584.994 195.644 584.994H200.358V602.069C200.358 602.155 200.358 602.24 200.367 602.325C200.414 606.215 202.413 609.744 205.74 611.745V611.736C209.058 613.747 213.121 613.87 216.562 612.087C217.033 611.84 217.457 611.574 217.872 611.299L217.938 611.233C218.985 610.493 219.842 609.677 220.568 608.937C227.044 602.468 237.479 591.748 243.927 585.25C244.021 585.155 244.106 585.07 244.191 584.994H463.359C470.645 584.994 476.556 579.046 476.556 571.713V484.44C476.556 477.108 470.645 471.16 463.359 471.16ZM226.535 539.109C220.37 539.109 215.374 534.091 215.374 527.906C215.374 521.721 220.37 516.703 226.535 516.703C232.7 516.703 237.696 521.721 237.696 527.906C237.696 534.091 232.7 539.109 226.535 539.109ZM295.123 539.109C288.958 539.109 283.962 534.091 283.962 527.906C283.962 521.721 288.958 516.703 295.123 516.703C301.288 516.703 306.274 521.721 306.274 527.906C306.274 534.091 301.288 539.109 295.123 539.109ZM363.616 539.109C357.451 539.109 352.465 534.091 352.465 527.906C352.465 521.721 357.461 516.703 363.616 516.703C369.781 516.703 374.777 521.721 374.777 527.906C374.777 534.091 369.772 539.109 363.616 539.109ZM432.091 539.109C425.926 539.109 420.93 534.091 420.93 527.897C420.93 521.702 425.926 516.684 432.091 516.684C438.256 516.684 443.242 521.702 443.242 527.897C443.242 534.091 438.256 539.109 432.091 539.109Z" fill="#00DED2" fill-opacity="0.12"/>
</g>
<defs>
<clipPath id="clip0_74_4029">
<rect width="330" height="790" fill="white"/>
</clipPath>
</defs>
</svg>

