<svg width="330" height="790" viewBox="0 0 330 790" fill="none" xmlns="http://www.w3.org/2000/svg">
<g clip-path="url(#clip0_224_1389)">
<rect width="330" height="790" fill="#00A49F"/>
<path d="M196.346 330H-60.3462C-67.3329 330 -73 335.647 -73 342.61V425.476C-73 432.438 -67.3329 438.086 -60.3462 438.086H-55.8269V454.299C-55.8269 454.38 -55.8269 454.461 -55.8179 454.542C-55.7727 458.235 -53.8566 461.586 -50.666 463.486V463.477C-47.4845 465.387 -43.5889 465.504 -40.2899 463.81C-39.8379 463.576 -39.4312 463.324 -39.0335 463.063L-38.9702 463C-37.9669 462.297 -37.1445 461.522 -36.4485 460.82C-30.2391 454.677 -20.2335 444.499 -14.0512 438.329C-13.9608 438.239 -13.8794 438.158 -13.7981 438.086H196.346C203.333 438.086 209 432.438 209 425.476V342.61C209 335.647 203.333 330 196.346 330ZM177.492 395.941L176.217 397.211C175.91 397.617 175.594 397.941 175.341 398.193L171.942 401.58C169.529 403.976 167.116 406.372 164.702 408.759C163.537 409.929 162.416 411.037 161.449 411.992C160.635 412.785 159.777 413.298 158.891 413.559C158.791 413.586 158.701 413.622 158.602 413.649C158.457 413.685 158.312 413.703 158.177 413.722C158.132 413.731 158.086 413.731 158.05 413.74H158.014C157.933 413.749 157.851 413.758 157.761 413.758C156.234 413.803 154.724 413.145 153.305 411.758C150.819 409.308 148.343 406.831 145.866 404.363L142.278 400.778C142.061 400.553 141.835 400.328 141.6 400.121C141.429 399.959 141.293 399.859 141.202 399.796C141.175 399.778 141.148 399.751 141.121 399.742C141.067 399.787 140.995 399.85 140.913 399.905L139.223 401.58C136.81 403.976 134.397 406.372 131.983 408.759C130.808 409.929 129.696 411.037 128.729 411.992C127.916 412.785 127.057 413.298 126.172 413.559C126.072 413.586 125.982 413.622 125.882 413.649C125.738 413.685 125.593 413.703 125.457 413.722C125.412 413.731 125.367 413.731 125.331 413.74H125.295C125.213 413.749 125.123 413.758 125.042 413.758C124.978 413.767 124.915 413.74 124.852 413.74C124.825 413.74 124.789 413.749 124.762 413.749C124.743 413.749 124.734 413.749 124.716 413.749C124.536 413.749 124.355 413.703 124.165 413.676C124.066 413.658 123.957 413.658 123.858 413.64C122.737 413.424 121.625 412.794 120.513 411.722C118.534 409.803 116.591 407.858 114.638 405.921L112.758 404.048C112.189 403.489 111.629 402.922 111.068 402.354C110.381 401.661 109.685 400.958 108.989 400.274C108.7 399.986 108.501 399.841 108.375 399.76C108.23 399.869 108.031 400.031 107.751 400.31L101.479 406.534C99.6166 408.407 97.7908 410.254 96.3537 411.668C96.0011 412.019 95.5944 412.406 95.0973 412.758L95.0701 412.785C94.8713 412.911 94.6635 413.046 94.4465 413.163C93.6964 413.55 92.8919 413.74 92.0785 413.749C92.0694 413.749 92.0604 413.749 92.0513 413.749C92.0423 413.749 92.0332 413.749 92.0242 413.749C91.0751 413.758 90.1171 413.505 89.2675 412.992C88.7252 412.668 88.2552 412.244 87.8756 411.785C87.8484 411.758 87.8214 411.74 87.8033 411.722C85.8239 409.803 83.8806 407.858 81.9283 405.921L80.0482 404.048C79.4788 403.489 78.9184 402.922 78.358 402.354C77.6711 401.661 76.9752 400.958 76.2793 400.274C76.0352 400.04 75.8545 399.896 75.737 399.805L73.9563 401.571C71.543 403.967 69.1298 406.363 66.7165 408.75C65.5505 409.92 64.4298 411.028 63.4627 411.983C62.6492 412.776 61.7906 413.289 60.9048 413.55C60.8054 413.577 60.715 413.613 60.6155 413.64C60.4709 413.676 60.3263 413.694 60.1908 413.712C60.1456 413.721 60.1004 413.721 60.0642 413.73H60.0281C59.9468 413.74 59.8654 413.749 59.775 413.749C59.6304 413.749 59.4949 413.749 59.3502 413.74C58.3831 413.749 57.425 413.505 56.5573 412.983C55.789 412.524 55.1744 411.893 54.7405 411.163C52.4538 408.903 50.1671 406.624 47.8894 404.354L44.3012 400.769C44.0843 400.544 43.8583 400.319 43.6233 400.112C43.4516 399.95 43.3159 399.85 43.2255 399.787C43.1984 399.769 43.1713 399.742 43.1442 399.733C43.09 399.778 43.0177 399.841 42.9364 399.896L41.2462 401.571C38.8329 403.967 36.4196 406.363 34.0064 408.75C32.8314 409.92 31.7197 411.028 30.7525 411.983C29.9391 412.776 29.0803 413.289 28.1946 413.55C28.0952 413.577 28.0048 413.613 27.9054 413.64C27.7608 413.676 27.6162 413.694 27.4806 413.712C27.4354 413.721 27.3902 413.721 27.3541 413.73H27.3179C27.2365 413.74 27.1552 413.749 27.0648 413.749C27.0015 413.758 26.9383 413.73 26.875 413.73C26.8479 413.73 26.8118 413.74 26.7846 413.74C26.7666 413.74 26.7575 413.74 26.7394 413.74C26.5586 413.74 26.3779 413.694 26.1881 413.667C26.0886 413.649 25.9802 413.649 25.8808 413.631C24.76 413.415 23.6482 412.785 22.5365 411.713C20.5571 409.794 18.6138 407.849 16.6615 405.912L14.7815 404.039C14.2121 403.48 13.6517 402.913 13.0913 402.345C12.4044 401.652 11.7084 400.949 11.0125 400.265C10.7232 399.977 10.5244 399.832 10.3979 399.751C10.2533 399.859 10.0544 400.022 9.77419 400.301L3.50155 406.525C1.63963 408.398 -0.18618 410.245 -1.6233 411.659C-1.9758 412.01 -2.38254 412.397 -2.87965 412.749L-2.90668 412.776C-3.10553 412.902 -3.31348 413.037 -3.5304 413.154C-4.28059 413.541 -5.08501 413.731 -5.89847 413.74C-5.90751 413.74 -5.91657 413.74 -5.92561 413.74C-5.93465 413.74 -5.9436 413.74 -5.95264 413.74C-6.90168 413.749 -7.8598 413.496 -8.70942 412.983C-9.25173 412.659 -9.72176 412.235 -10.1014 411.776C-10.1285 411.749 -10.1556 411.731 -10.1736 411.713C-12.1531 409.794 -14.0963 407.849 -16.0486 405.912L-17.9286 404.039C-18.498 403.48 -19.0584 402.913 -19.6188 402.345C-20.3057 401.652 -21.0017 400.949 -21.6977 400.265C-22.014 399.95 -22.2219 399.805 -22.3484 399.724C-22.3665 399.742 -22.4027 399.769 -22.4299 399.787C-22.5835 399.905 -22.8094 400.103 -23.1257 400.418C-26.2169 403.498 -31.2151 408.587 -34.3153 411.659C-34.6678 412.01 -35.0746 412.397 -35.5717 412.749L-35.5988 412.776C-35.7977 412.902 -36.0056 413.037 -36.2226 413.154C-37.8766 414.001 -39.8199 413.947 -41.4106 412.992C-43.0014 412.037 -43.9594 410.371 -43.9775 408.524C-44.0408 407.128 -43.4713 405.759 -42.2602 404.561L-40.9857 403.291C-40.6784 402.886 -40.3621 402.562 -40.109 402.309L-36.7106 398.923C-34.3063 396.527 -31.8931 394.14 -29.4798 391.753C-28.3138 390.582 -27.1931 389.465 -26.2169 388.51C-25.4035 387.718 -24.5448 387.204 -23.6591 386.943C-23.5596 386.916 -23.4692 386.871 -23.3698 386.853C-23.2252 386.817 -23.0806 386.799 -22.945 386.781C-22.8998 386.772 -22.8546 386.772 -22.8184 386.763H-22.7823C-22.7009 386.754 -22.6196 386.745 -22.5293 386.745C-21.0018 386.7 -19.4923 387.358 -18.0733 388.745C-15.5877 391.195 -13.1112 393.672 -10.6346 396.14L-7.04637 399.724C-6.82945 399.95 -6.60349 400.175 -6.36849 400.382C-6.19675 400.544 -6.06111 400.643 -5.96169 400.706C-5.93458 400.724 -5.90749 400.751 -5.88038 400.76C-5.82615 400.715 -5.75385 400.652 -5.67251 400.598L-3.98232 398.923C-1.57809 396.527 0.835175 394.14 3.24845 391.753C4.42345 390.582 5.53516 389.465 6.51132 388.51C7.32478 387.718 8.1835 387.204 9.06927 386.943C9.16869 386.916 9.25903 386.871 9.35846 386.853C9.50307 386.817 9.64766 386.799 9.78324 386.781C9.82843 386.772 9.87364 386.772 9.91884 386.763H9.95502C10.0364 386.754 10.1177 386.745 10.2081 386.745C10.2804 386.736 10.3437 386.763 10.3979 386.763C10.425 386.763 10.4612 386.754 10.4883 386.754C10.5063 386.754 10.5154 386.754 10.5335 386.754C10.7143 386.754 10.895 386.799 11.0848 386.826C11.1843 386.844 11.2927 386.844 11.3921 386.862C12.5129 387.078 13.6246 387.709 14.7363 388.781C16.7157 390.699 18.659 392.645 20.6113 394.581L22.4914 396.455C23.0608 397.013 23.6212 397.581 24.1816 398.148C24.8685 398.842 25.5644 399.544 26.2603 400.229C26.5496 400.517 26.7485 400.661 26.875 400.742C27.0196 400.634 27.2184 400.472 27.4986 400.193L33.7713 393.978C35.6333 392.104 37.4681 390.258 38.8962 388.844C39.2487 388.492 39.6553 388.105 40.1524 387.754L40.1796 387.727C40.3784 387.601 40.5864 387.466 40.8033 387.349C41.5535 386.961 42.367 386.772 43.1804 386.763C43.1895 386.763 43.1984 386.763 43.2075 386.763C43.2165 386.763 43.2256 386.763 43.2346 386.763C44.1927 386.754 45.1508 387.006 46.0004 387.52C46.5427 387.844 47.0126 388.258 47.3923 388.727C47.4103 388.754 47.4375 388.772 47.4556 388.79C49.435 390.708 51.3783 392.654 53.3306 394.59L55.2106 396.464C55.78 397.022 56.3404 397.59 56.9007 398.157C57.5877 398.851 58.2837 399.553 58.9796 400.238C59.2237 400.481 59.4044 400.616 59.531 400.706L61.3115 398.932C63.7157 396.536 66.129 394.149 68.5423 391.762C69.7173 390.591 70.829 389.474 71.8052 388.519C72.6186 387.727 73.4773 387.213 74.3631 386.952C74.4625 386.925 74.5529 386.88 74.6523 386.862C74.7969 386.826 74.9415 386.808 75.0771 386.79C75.1223 386.781 75.1675 386.781 75.2036 386.772H75.2398C75.3212 386.763 75.4116 386.754 75.4929 386.754C75.6375 386.754 75.7731 386.754 75.9177 386.763C76.8848 386.754 77.8429 386.997 78.7106 387.52V387.511C79.4879 387.97 80.1025 388.61 80.5454 389.348C82.8321 391.609 85.1098 393.879 87.3875 396.149L90.9758 399.733C91.1927 399.959 91.4187 400.184 91.6537 400.391C91.8254 400.553 91.961 400.652 92.0604 400.715C92.0875 400.733 92.1146 400.76 92.1417 400.769C92.1959 400.724 92.2682 400.661 92.3496 400.607L94.0399 398.932C96.4441 396.536 98.8574 394.149 101.271 391.762C102.446 390.591 103.557 389.474 104.533 388.519C105.347 387.727 106.206 387.213 107.091 386.952C107.191 386.925 107.281 386.88 107.381 386.862C107.525 386.826 107.67 386.808 107.805 386.79C107.851 386.781 107.896 386.781 107.941 386.772H107.977C108.058 386.763 108.14 386.754 108.23 386.754C108.303 386.745 108.366 386.772 108.42 386.772C108.456 386.772 108.483 386.763 108.51 386.763C108.528 386.763 108.537 386.763 108.556 386.763C108.736 386.763 108.917 386.808 109.107 386.835C109.206 386.853 109.315 386.853 109.414 386.871C110.535 387.087 111.647 387.718 112.758 388.79C114.738 390.708 116.681 392.654 118.633 394.59L120.513 396.464C121.083 397.022 121.643 397.59 122.204 398.157C122.891 398.851 123.587 399.553 124.283 400.238C124.572 400.526 124.771 400.67 124.897 400.751C125.042 400.643 125.241 400.481 125.521 400.202L131.793 393.987C133.655 392.113 135.49 390.267 136.918 388.853C137.271 388.501 137.678 388.114 138.175 387.763L138.202 387.736C138.401 387.61 138.608 387.475 138.825 387.358C139.576 386.97 140.389 386.781 141.202 386.772C141.212 386.772 141.221 386.772 141.23 386.772C141.239 386.772 141.248 386.772 141.257 386.772C142.215 386.763 143.173 387.015 144.022 387.529C144.565 387.853 145.035 388.267 145.414 388.736C145.433 388.763 145.46 388.781 145.478 388.799C147.457 390.717 149.4 392.663 151.353 394.599L153.233 396.473C153.802 397.031 154.363 397.599 154.923 398.166C155.61 398.86 156.306 399.562 157.002 400.247C157.318 400.562 157.526 400.706 157.652 400.787C157.671 400.769 157.707 400.742 157.734 400.724C157.888 400.607 158.114 400.409 158.439 400.094C161.53 397.013 166.528 391.924 169.628 388.853C169.981 388.501 170.388 388.114 170.885 387.763L170.912 387.736C171.111 387.61 171.319 387.475 171.536 387.358C173.19 386.511 175.133 386.565 176.724 387.52V387.511C178.314 388.465 179.273 390.132 179.291 391.978C179.273 393.374 178.694 394.743 177.492 395.941ZM177.492 355.409L176.217 356.679C175.91 357.085 175.594 357.409 175.341 357.661L171.942 361.048C169.529 363.444 167.116 365.839 164.702 368.226C163.537 369.397 162.416 370.505 161.449 371.46C160.635 372.253 159.777 372.766 158.891 373.027C158.791 373.054 158.701 373.09 158.602 373.117C158.457 373.153 158.312 373.171 158.177 373.189C158.132 373.198 158.086 373.198 158.05 373.207H158.014C157.933 373.216 157.851 373.225 157.761 373.225C156.234 373.27 154.724 372.613 153.305 371.226C150.819 368.776 148.343 366.299 145.866 363.831L142.278 360.246C142.061 360.021 141.835 359.796 141.6 359.589C141.429 359.426 141.293 359.327 141.202 359.264C141.175 359.246 141.148 359.219 141.121 359.21C141.067 359.255 140.995 359.318 140.913 359.372L139.223 361.048C136.81 363.444 134.397 365.839 131.983 368.226C130.808 369.397 129.696 370.505 128.729 371.46C127.916 372.253 127.057 372.766 126.172 373.027C126.072 373.054 125.982 373.09 125.882 373.117C125.738 373.153 125.593 373.171 125.457 373.189C125.412 373.198 125.367 373.198 125.331 373.207H125.295C125.213 373.216 125.123 373.225 125.042 373.225C124.978 373.234 124.915 373.207 124.852 373.207C124.825 373.207 124.789 373.216 124.762 373.216C124.743 373.216 124.734 373.216 124.716 373.216C124.536 373.216 124.355 373.171 124.165 373.144C124.066 373.126 123.957 373.126 123.858 373.108C122.737 372.892 121.625 372.262 120.513 371.19C118.534 369.271 116.591 367.326 114.638 365.389L112.758 363.516C112.189 362.957 111.629 362.39 111.068 361.822C110.381 361.129 109.685 360.426 108.989 359.742C108.7 359.453 108.501 359.309 108.375 359.228C108.23 359.336 108.031 359.498 107.751 359.778L101.479 366.002C99.6166 367.875 97.7908 369.722 96.3537 371.136C96.0011 371.487 95.5944 371.874 95.0973 372.226L95.0701 372.253C94.8713 372.379 94.6635 372.514 94.4465 372.631C93.6964 373.018 92.8919 373.207 92.0785 373.216C92.0694 373.216 92.0604 373.216 92.0513 373.216C92.0423 373.216 92.0332 373.216 92.0242 373.216C91.0751 373.225 90.1171 372.973 89.2675 372.46C88.7252 372.135 88.2552 371.712 87.8756 371.253C87.8484 371.226 87.8214 371.208 87.8033 371.19C85.8239 369.271 83.8806 367.326 81.9283 365.389L80.0482 363.516C79.4788 362.957 78.9184 362.39 78.358 361.822C77.6711 361.129 76.9752 360.426 76.2793 359.742C76.0352 359.507 75.8545 359.363 75.737 359.273L73.9563 361.039C71.543 363.435 69.1298 365.83 66.7165 368.217C65.5505 369.388 64.4298 370.496 63.4627 371.451C62.6492 372.244 61.7906 372.757 60.9048 373.018C60.8054 373.045 60.715 373.081 60.6155 373.108C60.4709 373.144 60.3263 373.162 60.1908 373.18C60.1456 373.189 60.1004 373.189 60.0642 373.198H60.0281C59.9468 373.207 59.8654 373.216 59.775 373.216C59.6304 373.216 59.4949 373.216 59.3502 373.207C58.3831 373.216 57.425 372.973 56.5573 372.451C55.789 371.991 55.1744 371.361 54.7405 370.631C52.4538 368.37 50.1671 366.092 47.8894 363.822L44.3012 360.237C44.0843 360.012 43.8583 359.787 43.6233 359.579C43.4516 359.417 43.3159 359.318 43.2255 359.255C43.1984 359.237 43.1713 359.21 43.1442 359.201C43.09 359.246 43.0177 359.309 42.9364 359.363L41.2462 361.039C38.8329 363.435 36.4196 365.83 34.0064 368.217C32.8314 369.388 31.7197 370.496 30.7525 371.451C29.9391 372.244 29.0803 372.757 28.1946 373.018C28.0952 373.045 28.0048 373.081 27.9054 373.108C27.7608 373.144 27.6162 373.162 27.4806 373.18C27.4354 373.189 27.3902 373.189 27.3541 373.198H27.3179C27.2365 373.207 27.1552 373.216 27.0648 373.216C27.0015 373.225 26.9383 373.198 26.875 373.198C26.8479 373.198 26.8118 373.207 26.7846 373.207C26.7666 373.207 26.7575 373.207 26.7394 373.207C26.5586 373.207 26.3779 373.162 26.1881 373.135C26.0886 373.117 25.9802 373.117 25.8808 373.099C24.76 372.883 23.6482 372.253 22.5365 371.181C20.5571 369.262 18.6138 367.317 16.6615 365.38L14.7815 363.507C14.2121 362.948 13.6517 362.381 13.0913 361.813C12.4044 361.12 11.7084 360.417 11.0125 359.733C10.7232 359.444 10.5244 359.3 10.3979 359.219C10.2533 359.327 10.0544 359.489 9.77419 359.769L3.50155 365.993C1.63963 367.866 -0.18618 369.713 -1.6233 371.127C-1.9758 371.478 -2.38254 371.865 -2.87965 372.217L-2.90668 372.244C-3.10553 372.37 -3.31348 372.505 -3.5304 372.622C-4.28059 373.009 -5.08501 373.198 -5.89847 373.207C-5.90751 373.207 -5.91657 373.207 -5.92561 373.207C-5.93465 373.207 -5.9436 373.207 -5.95264 373.207C-6.90168 373.216 -7.8598 372.964 -8.70942 372.451C-9.25173 372.126 -9.72176 371.703 -10.1014 371.244C-10.1285 371.217 -10.1556 371.199 -10.1736 371.181C-12.1531 369.262 -14.0963 367.317 -16.0486 365.38L-17.9286 363.507C-18.498 362.948 -19.0584 362.381 -19.6188 361.813C-20.3057 361.12 -21.0017 360.417 -21.6977 359.733C-22.014 359.417 -22.2219 359.273 -22.3484 359.192C-22.3665 359.21 -22.4027 359.237 -22.4299 359.255C-22.5835 359.372 -22.8094 359.57 -23.1257 359.886C-26.2169 362.966 -31.2151 368.055 -34.3153 371.127C-34.6678 371.478 -35.0746 371.865 -35.5717 372.217L-35.5988 372.244C-35.7977 372.37 -36.0056 372.505 -36.2226 372.622C-37.8766 373.469 -39.8199 373.414 -41.4106 372.46C-43.0014 371.505 -43.9594 369.839 -43.9775 367.992C-44.0408 366.596 -43.4713 365.227 -42.2602 364.029L-40.9857 362.759C-40.6784 362.354 -40.3621 362.029 -40.109 361.777L-36.7106 358.391C-34.3063 355.995 -31.8931 353.608 -29.4798 351.221C-28.3138 350.05 -27.1931 348.933 -26.2169 347.978C-25.4035 347.186 -24.5448 346.672 -23.6591 346.411C-23.5596 346.384 -23.4692 346.339 -23.3698 346.321C-23.2252 346.285 -23.0806 346.267 -22.945 346.249C-22.8998 346.24 -22.8546 346.24 -22.8184 346.231H-22.7823C-22.7009 346.222 -22.6196 346.213 -22.5293 346.213C-21.0018 346.168 -19.4923 346.825 -18.0733 348.212C-15.5877 350.662 -13.1112 353.139 -10.6346 355.607L-7.04637 359.192C-6.82945 359.417 -6.60349 359.643 -6.36849 359.85C-6.19675 360.012 -6.06111 360.111 -5.96169 360.174C-5.93458 360.192 -5.90749 360.219 -5.88038 360.228C-5.82615 360.183 -5.75385 360.12 -5.67251 360.066L-3.98232 358.391C-1.57809 355.995 0.835175 353.608 3.24845 351.221C4.42345 350.05 5.53516 348.933 6.51132 347.978C7.32478 347.186 8.1835 346.672 9.06927 346.411C9.16869 346.384 9.25903 346.339 9.35846 346.321C9.50307 346.285 9.64766 346.267 9.78324 346.249C9.82843 346.24 9.87364 346.24 9.91884 346.231H9.95502C10.0364 346.222 10.1177 346.213 10.2081 346.213C10.2804 346.204 10.3437 346.231 10.3979 346.231C10.425 346.231 10.4612 346.222 10.4883 346.222C10.5063 346.222 10.5154 346.222 10.5335 346.222C10.7143 346.222 10.895 346.267 11.0848 346.294C11.1843 346.312 11.2927 346.312 11.3921 346.33C12.5129 346.546 13.6246 347.177 14.7363 348.248C16.7157 350.167 18.659 352.113 20.6113 354.049L22.4914 355.923C23.0608 356.481 23.6212 357.048 24.1816 357.616C24.8685 358.309 25.5644 359.012 26.2603 359.697C26.5496 359.985 26.7485 360.129 26.875 360.21C27.0196 360.102 27.2184 359.94 27.4986 359.661L33.7713 353.446C35.6333 351.572 37.4681 349.726 38.8962 348.312C39.2487 347.96 39.6553 347.573 40.1524 347.222L40.1796 347.195C40.3784 347.069 40.5864 346.933 40.8033 346.816C41.5535 346.429 42.367 346.24 43.1804 346.231C43.1895 346.231 43.1984 346.231 43.2075 346.231C43.2165 346.231 43.2256 346.231 43.2346 346.231C44.1927 346.222 45.1508 346.474 46.0004 346.987C46.5427 347.312 47.0126 347.726 47.3923 348.194C47.4103 348.221 47.4375 348.239 47.4556 348.258C49.435 350.176 51.3783 352.122 53.3306 354.058L55.2106 355.932C55.78 356.49 56.3404 357.057 56.9007 357.625C57.5877 358.318 58.2837 359.021 58.9796 359.706C59.2237 359.949 59.4044 360.084 59.531 360.174L61.3115 358.4C63.7157 356.004 66.129 353.617 68.5423 351.23C69.7173 350.059 70.829 348.942 71.8052 347.987C72.6186 347.195 73.4773 346.681 74.3631 346.42C74.4625 346.393 74.5529 346.348 74.6523 346.33C74.7969 346.294 74.9415 346.276 75.0771 346.258C75.1223 346.249 75.1675 346.249 75.2036 346.24H75.2398C75.3212 346.231 75.4116 346.222 75.4929 346.222C75.6375 346.222 75.7731 346.222 75.9177 346.231C76.8848 346.222 77.8429 346.465 78.7106 346.987V346.978C79.4879 347.438 80.1025 348.077 80.5454 348.816C82.8321 351.077 85.1098 353.347 87.3875 355.616L90.9758 359.201C91.1927 359.426 91.4187 359.652 91.6537 359.859C91.8254 360.021 91.961 360.12 92.0604 360.183C92.0875 360.201 92.1146 360.228 92.1417 360.237C92.1959 360.192 92.2682 360.129 92.3496 360.075L94.0399 358.4C96.4441 356.004 98.8574 353.617 101.271 351.23C102.446 350.059 103.557 348.942 104.533 347.987C105.347 347.195 106.206 346.681 107.091 346.42C107.191 346.393 107.281 346.348 107.381 346.33C107.525 346.294 107.67 346.276 107.805 346.258C107.851 346.249 107.896 346.249 107.941 346.24H107.977C108.058 346.231 108.14 346.222 108.23 346.222C108.303 346.213 108.366 346.24 108.42 346.24C108.456 346.24 108.483 346.231 108.51 346.231C108.528 346.231 108.537 346.231 108.556 346.231C108.736 346.231 108.917 346.276 109.107 346.303C109.206 346.321 109.315 346.321 109.414 346.339C110.535 346.555 111.647 347.186 112.758 348.258C114.738 350.176 116.681 352.122 118.633 354.058L120.513 355.932C121.083 356.49 121.643 357.057 122.204 357.625C122.891 358.318 123.587 359.021 124.283 359.706C124.572 359.994 124.771 360.138 124.897 360.219C125.042 360.111 125.241 359.949 125.521 359.67L131.793 353.455C133.655 351.581 135.49 349.735 136.918 348.321C137.271 347.969 137.678 347.582 138.175 347.231L138.202 347.204C138.401 347.078 138.608 346.942 138.825 346.825C139.576 346.438 140.389 346.249 141.202 346.24C141.212 346.24 141.221 346.24 141.23 346.24C141.239 346.24 141.248 346.24 141.257 346.24C142.215 346.231 143.173 346.483 144.022 346.996C144.565 347.321 145.035 347.735 145.414 348.203C145.433 348.23 145.46 348.248 145.478 348.267C147.457 350.185 149.4 352.131 151.353 354.067L153.233 355.941C153.802 356.499 154.363 357.066 154.923 357.634C155.61 358.327 156.306 359.03 157.002 359.715C157.318 360.03 157.526 360.174 157.652 360.255C157.671 360.237 157.707 360.21 157.734 360.192C157.888 360.075 158.114 359.877 158.439 359.561C161.53 356.481 166.528 351.392 169.628 348.321C169.981 347.969 170.388 347.582 170.885 347.231L170.912 347.204C171.111 347.078 171.319 346.942 171.536 346.825C173.19 345.979 175.133 346.033 176.724 346.987V346.978C178.314 347.933 179.273 349.6 179.291 351.446C179.273 352.842 178.694 354.211 177.492 355.409Z" fill="#00DED2" fill-opacity="0.12"/>
<path d="M235.346 705H-21.3462C-28.3329 705 -34 710.648 -34 717.611V800.476C-34 807.439 -28.3329 813.086 -21.3462 813.086H-16.8269V829.299C-16.8269 829.38 -16.8269 829.461 -16.8179 829.542C-16.7727 833.235 -14.8566 836.586 -11.666 838.487V838.478C-8.48446 840.387 -4.5889 840.504 -1.28986 838.811C-0.837936 838.577 -0.431194 838.324 -0.0335007 838.063L0.0298309 838C1.0331 837.298 1.85552 836.523 2.55149 835.82C8.76091 829.678 18.7665 819.499 24.9488 813.33C25.0392 813.239 25.1206 813.158 25.2019 813.086H235.346C242.333 813.086 248 807.439 248 800.476V717.611C248 710.648 242.333 705 235.346 705ZM216.492 770.942L215.217 772.212C214.91 772.617 214.594 772.941 214.341 773.194L210.942 776.58C208.529 778.976 206.116 781.372 203.702 783.759C202.537 784.93 201.416 786.038 200.449 786.993C199.635 787.785 198.777 788.299 197.891 788.56C197.791 788.587 197.701 788.623 197.602 788.65C197.457 788.686 197.312 788.704 197.177 788.722C197.132 788.731 197.086 788.731 197.05 788.74H197.014C196.933 788.749 196.851 788.758 196.761 788.758C195.234 788.803 193.724 788.146 192.305 786.758C189.819 784.308 187.343 781.832 184.866 779.364L181.278 775.779C181.061 775.554 180.835 775.328 180.6 775.121C180.429 774.959 180.293 774.86 180.202 774.797C180.175 774.779 180.148 774.752 180.121 774.743C180.067 774.788 179.995 774.851 179.913 774.905L178.223 776.58C175.81 778.976 173.397 781.372 170.983 783.759C169.808 784.93 168.696 786.038 167.729 786.993C166.916 787.785 166.057 788.299 165.172 788.56C165.072 788.587 164.982 788.623 164.882 788.65C164.738 788.686 164.593 788.704 164.457 788.722C164.412 788.731 164.367 788.731 164.331 788.74H164.295C164.213 788.749 164.123 788.758 164.042 788.758C163.978 788.767 163.915 788.74 163.852 788.74C163.825 788.74 163.789 788.749 163.762 788.749C163.743 788.749 163.734 788.749 163.716 788.749C163.536 788.749 163.355 788.704 163.165 788.677C163.066 788.659 162.957 788.659 162.858 788.641C161.737 788.425 160.625 787.794 159.513 786.722C157.534 784.804 155.591 782.858 153.638 780.922L151.758 779.048C151.189 778.49 150.629 777.922 150.068 777.355C149.381 776.661 148.685 775.959 147.989 775.274C147.7 774.986 147.501 774.842 147.375 774.761C147.23 774.869 147.031 775.031 146.751 775.31L140.479 781.534C138.617 783.408 136.791 785.254 135.354 786.668C135.001 787.02 134.594 787.407 134.097 787.758L134.07 787.785C133.871 787.911 133.663 788.046 133.447 788.164C132.696 788.551 131.892 788.74 131.078 788.749C131.069 788.749 131.06 788.749 131.051 788.749C131.042 788.749 131.033 788.749 131.024 788.749C130.075 788.758 129.117 788.506 128.268 787.992C127.725 787.668 127.255 787.245 126.876 786.785C126.848 786.758 126.821 786.74 126.803 786.722C124.824 784.804 122.881 782.858 120.928 780.922L119.048 779.048C118.479 778.49 117.918 777.922 117.358 777.355C116.671 776.661 115.975 775.959 115.279 775.274C115.035 775.04 114.854 774.896 114.737 774.806L112.956 776.571C110.543 778.967 108.13 781.363 105.716 783.75C104.551 784.921 103.43 786.029 102.463 786.984C101.649 787.776 100.791 788.29 99.9048 788.551C99.8054 788.578 99.715 788.614 99.6155 788.641C99.4709 788.677 99.3263 788.695 99.1908 788.713C99.1456 788.722 99.1004 788.722 99.0642 788.731H99.0281C98.9468 788.74 98.8654 788.749 98.775 788.749C98.6304 788.749 98.4949 788.749 98.3502 788.74C97.3831 788.749 96.425 788.506 95.5573 787.983C94.789 787.524 94.1744 786.894 93.7405 786.164C91.4538 783.903 89.1671 781.624 86.8894 779.355L83.3012 775.77C83.0843 775.545 82.8583 775.319 82.6233 775.112C82.4516 774.95 82.3159 774.851 82.2255 774.788C82.1984 774.77 82.1713 774.743 82.1442 774.734C82.09 774.779 82.0177 774.842 81.9364 774.896L80.2462 776.571C77.8329 778.967 75.4196 781.363 73.0064 783.75C71.8314 784.921 70.7197 786.029 69.7525 786.984C68.9391 787.776 68.0803 788.29 67.1946 788.551C67.0952 788.578 67.0048 788.614 66.9054 788.641C66.7608 788.677 66.6162 788.695 66.4806 788.713C66.4354 788.722 66.3902 788.722 66.3541 788.731H66.3179C66.2365 788.74 66.1552 788.749 66.0648 788.749C66.0015 788.758 65.9383 788.731 65.875 788.731C65.8479 788.731 65.8118 788.74 65.7846 788.74C65.7666 788.74 65.7575 788.74 65.7394 788.74C65.5586 788.74 65.3779 788.695 65.1881 788.668C65.0886 788.65 64.9802 788.65 64.8808 788.632C63.76 788.416 62.6482 787.785 61.5365 786.713C59.5571 784.795 57.6138 782.849 55.6615 780.913L53.7815 779.039C53.2121 778.481 52.6517 777.913 52.0913 777.346C51.4044 776.652 50.7084 775.95 50.0125 775.265C49.7232 774.977 49.5244 774.833 49.3979 774.752C49.2533 774.86 49.0544 775.022 48.7742 775.301L42.5015 781.525C40.6396 783.399 38.8138 785.245 37.3767 786.659C37.0242 787.011 36.6175 787.398 36.1203 787.749L36.0933 787.776C35.8945 787.902 35.6865 788.037 35.4696 788.155C34.7194 788.542 33.915 788.731 33.1015 788.74C33.0925 788.74 33.0834 788.74 33.0744 788.74C33.0653 788.74 33.0564 788.74 33.0474 788.74C32.0983 788.749 31.1402 788.497 30.2906 787.983C29.7483 787.659 29.2782 787.236 28.8986 786.776C28.8715 786.749 28.8444 786.731 28.8264 786.713C26.8469 784.795 24.9037 782.849 22.9514 780.913L21.0714 779.039C20.502 778.481 19.9416 777.913 19.3812 777.346C18.6943 776.652 17.9983 775.95 17.3023 775.265C16.986 774.95 16.7781 774.806 16.6516 774.725C16.6335 774.743 16.5973 774.77 16.5701 774.788C16.4165 774.905 16.1906 775.103 15.8743 775.418C12.7831 778.499 7.78485 783.588 4.68466 786.659C4.33216 787.011 3.92542 787.398 3.4283 787.749L3.40116 787.776C3.20231 787.902 2.99437 788.037 2.77745 788.155C1.12341 789.001 -0.819851 788.947 -2.41062 787.992C-4.00139 787.038 -4.95944 785.371 -4.97751 783.525C-5.04078 782.129 -4.47134 780.76 -3.26018 779.562L-1.98573 778.292C-1.67842 777.886 -1.3621 777.562 -1.10902 777.31L2.28944 773.923C4.69368 771.527 7.10695 769.14 9.52021 766.754C10.6862 765.583 11.8069 764.466 12.7831 763.511C13.5965 762.718 14.4552 762.205 15.3409 761.944C15.4404 761.917 15.5308 761.872 15.6302 761.854C15.7748 761.818 15.9194 761.8 16.055 761.782C16.1002 761.773 16.1454 761.773 16.1816 761.764H16.2177C16.2991 761.755 16.3804 761.746 16.4707 761.746C17.9982 761.701 19.5077 762.358 20.9267 763.745C23.4123 766.195 25.8888 768.672 28.3654 771.14L31.9536 774.725C32.1705 774.95 32.3965 775.175 32.6315 775.382C32.8032 775.545 32.9389 775.644 33.0383 775.707C33.0654 775.725 33.0925 775.752 33.1196 775.761C33.1739 775.716 33.2461 775.653 33.3275 775.599L35.0177 773.923C37.4219 771.527 39.8352 769.14 42.2485 766.754C43.4234 765.583 44.5352 764.466 45.5113 763.511C46.3248 762.718 47.1835 762.205 48.0693 761.944C48.1687 761.917 48.259 761.872 48.3585 761.854C48.5031 761.818 48.6477 761.8 48.7832 761.782C48.8284 761.773 48.8736 761.773 48.9188 761.764H48.955C49.0364 761.755 49.1177 761.746 49.2081 761.746C49.2804 761.737 49.3437 761.764 49.3979 761.764C49.425 761.764 49.4612 761.755 49.4883 761.755C49.5063 761.755 49.5154 761.755 49.5335 761.755C49.7143 761.755 49.895 761.8 50.0848 761.827C50.1843 761.845 50.2927 761.845 50.3921 761.863C51.5129 762.079 52.6246 762.709 53.7363 763.781C55.7157 765.7 57.659 767.645 59.6113 769.582L61.4914 771.455C62.0608 772.014 62.6212 772.581 63.1816 773.149C63.8685 773.842 64.5644 774.545 65.2603 775.229C65.5496 775.518 65.7485 775.662 65.875 775.743C66.0196 775.635 66.2184 775.472 66.4986 775.193L72.7713 768.978C74.6333 767.105 76.4681 765.258 77.8962 763.844C78.2487 763.493 78.6553 763.106 79.1524 762.754L79.1796 762.727C79.3784 762.601 79.5864 762.466 79.8033 762.349C80.5535 761.962 81.367 761.773 82.1804 761.764C82.1895 761.764 82.1984 761.764 82.2075 761.764C82.2165 761.764 82.2256 761.764 82.2346 761.764C83.1927 761.755 84.1508 762.007 85.0004 762.52C85.5427 762.844 86.0126 763.259 86.3923 763.727C86.4103 763.754 86.4375 763.772 86.4556 763.79C88.435 765.709 90.3783 767.654 92.3306 769.591L94.2106 771.464C94.78 772.023 95.3404 772.59 95.9007 773.158C96.5877 773.851 97.2837 774.554 97.9796 775.238C98.2237 775.481 98.4044 775.617 98.531 775.707L100.312 773.932C102.716 771.536 105.129 769.149 107.542 766.763C108.717 765.592 109.829 764.475 110.805 763.52C111.619 762.727 112.477 762.214 113.363 761.953C113.463 761.926 113.553 761.881 113.652 761.863C113.797 761.827 113.941 761.809 114.077 761.791C114.122 761.782 114.167 761.782 114.204 761.773H114.24C114.321 761.764 114.412 761.755 114.493 761.755C114.638 761.755 114.773 761.755 114.918 761.764C115.885 761.755 116.843 761.998 117.711 762.52V762.511C118.488 762.971 119.103 763.61 119.545 764.349C121.832 766.609 124.11 768.879 126.387 771.149L129.976 774.734C130.193 774.959 130.419 775.184 130.654 775.391C130.825 775.554 130.961 775.653 131.06 775.716C131.087 775.734 131.115 775.761 131.142 775.77C131.196 775.725 131.268 775.662 131.35 775.608L133.04 773.932C135.444 771.536 137.857 769.149 140.271 766.763C141.446 765.592 142.557 764.475 143.533 763.52C144.347 762.727 145.206 762.214 146.091 761.953C146.191 761.926 146.281 761.881 146.381 761.863C146.525 761.827 146.67 761.809 146.805 761.791C146.851 761.782 146.896 761.782 146.941 761.773H146.977C147.058 761.764 147.14 761.755 147.23 761.755C147.303 761.746 147.366 761.773 147.42 761.773C147.456 761.773 147.483 761.764 147.51 761.764C147.528 761.764 147.537 761.764 147.556 761.764C147.736 761.764 147.917 761.809 148.107 761.836C148.206 761.854 148.315 761.854 148.414 761.872C149.535 762.088 150.647 762.718 151.758 763.79C153.738 765.709 155.681 767.654 157.633 769.591L159.513 771.464C160.083 772.023 160.643 772.59 161.204 773.158C161.891 773.851 162.587 774.554 163.283 775.238C163.572 775.527 163.771 775.671 163.897 775.752C164.042 775.644 164.241 775.481 164.521 775.202L170.793 768.987C172.655 767.114 174.49 765.267 175.918 763.853C176.271 763.502 176.678 763.115 177.175 762.763L177.202 762.736C177.401 762.61 177.608 762.475 177.825 762.358C178.576 761.971 179.389 761.782 180.202 761.773C180.212 761.773 180.221 761.773 180.23 761.773C180.239 761.773 180.248 761.773 180.257 761.773C181.215 761.764 182.173 762.016 183.022 762.529C183.565 762.853 184.035 763.268 184.414 763.736C184.433 763.763 184.46 763.781 184.478 763.799C186.457 765.718 188.4 767.663 190.353 769.6L192.233 771.473C192.802 772.032 193.363 772.599 193.923 773.167C194.61 773.86 195.306 774.563 196.002 775.247C196.318 775.563 196.526 775.707 196.652 775.788C196.671 775.77 196.707 775.743 196.734 775.725C196.888 775.608 197.114 775.409 197.439 775.094C200.53 772.014 205.528 766.925 208.628 763.853C208.981 763.502 209.388 763.115 209.885 762.763L209.912 762.736C210.111 762.61 210.319 762.475 210.536 762.358C212.19 761.511 214.133 761.565 215.724 762.52V762.511C217.314 763.466 218.273 765.132 218.291 766.979C218.273 768.375 217.694 769.744 216.492 770.942ZM216.492 730.41L215.217 731.68C214.91 732.085 214.594 732.409 214.341 732.661L210.942 736.048C208.529 738.444 206.116 740.84 203.702 743.227C202.537 744.398 201.416 745.506 200.449 746.46C199.635 747.253 198.777 747.766 197.891 748.028C197.791 748.055 197.701 748.091 197.602 748.118C197.457 748.154 197.312 748.172 197.177 748.19C197.132 748.199 197.086 748.199 197.05 748.208H197.014C196.933 748.217 196.851 748.226 196.761 748.226C195.234 748.271 193.724 747.613 192.305 746.226C189.819 743.776 187.343 741.299 184.866 738.831L181.278 735.247C181.061 735.021 180.835 734.796 180.6 734.589C180.429 734.427 180.293 734.328 180.202 734.265C180.175 734.247 180.148 734.22 180.121 734.211C180.067 734.256 179.995 734.319 179.913 734.373L178.223 736.048C175.81 738.444 173.397 740.84 170.983 743.227C169.808 744.398 168.696 745.506 167.729 746.46C166.916 747.253 166.057 747.766 165.172 748.028C165.072 748.055 164.982 748.091 164.882 748.118C164.738 748.154 164.593 748.172 164.457 748.19C164.412 748.199 164.367 748.199 164.331 748.208H164.295C164.213 748.217 164.123 748.226 164.042 748.226C163.978 748.235 163.915 748.208 163.852 748.208C163.825 748.208 163.789 748.217 163.762 748.217C163.743 748.217 163.734 748.217 163.716 748.217C163.536 748.217 163.355 748.172 163.165 748.145C163.066 748.127 162.957 748.127 162.858 748.109C161.737 747.893 160.625 747.262 159.513 746.19C157.534 744.272 155.591 742.326 153.638 740.39L151.758 738.516C151.189 737.958 150.629 737.39 150.068 736.823C149.381 736.129 148.685 735.427 147.989 734.742C147.7 734.454 147.501 734.31 147.375 734.229C147.23 734.337 147.031 734.499 146.751 734.778L140.479 741.002C138.617 742.876 136.791 744.722 135.354 746.136C135.001 746.487 134.594 746.875 134.097 747.226L134.07 747.253C133.871 747.379 133.663 747.514 133.447 747.631C132.696 748.019 131.892 748.208 131.078 748.217C131.069 748.217 131.06 748.217 131.051 748.217C131.042 748.217 131.033 748.217 131.024 748.217C130.075 748.226 129.117 747.974 128.268 747.46C127.725 747.136 127.255 746.713 126.876 746.253C126.848 746.226 126.821 746.208 126.803 746.19C124.824 744.272 122.881 742.326 120.928 740.39L119.048 738.516C118.479 737.958 117.918 737.39 117.358 736.823C116.671 736.129 115.975 735.427 115.279 734.742C115.035 734.508 114.854 734.364 114.737 734.274L112.956 736.039C110.543 738.435 108.13 740.831 105.716 743.218C104.551 744.389 103.43 745.497 102.463 746.451C101.649 747.244 100.791 747.757 99.9048 748.019C99.8054 748.046 99.715 748.082 99.6155 748.109C99.4709 748.145 99.3263 748.163 99.1908 748.181C99.1456 748.19 99.1004 748.19 99.0642 748.199H99.0281C98.9468 748.208 98.8654 748.217 98.775 748.217C98.6304 748.217 98.4949 748.217 98.3502 748.208C97.3831 748.217 96.425 747.974 95.5573 747.451C94.789 746.992 94.1744 746.361 93.7405 745.632C91.4538 743.371 89.1671 741.092 86.8894 738.822L83.3012 735.238C83.0843 735.012 82.8583 734.787 82.6233 734.58C82.4516 734.418 82.3159 734.319 82.2255 734.256C82.1984 734.238 82.1713 734.211 82.1442 734.202C82.09 734.247 82.0177 734.31 81.9364 734.364L80.2462 736.039C77.8329 738.435 75.4196 740.831 73.0064 743.218C71.8314 744.389 70.7197 745.497 69.7525 746.451C68.9391 747.244 68.0803 747.757 67.1946 748.019C67.0952 748.046 67.0048 748.082 66.9054 748.109C66.7608 748.145 66.6162 748.163 66.4806 748.181C66.4354 748.19 66.3902 748.19 66.3541 748.199H66.3179C66.2365 748.208 66.1552 748.217 66.0648 748.217C66.0015 748.226 65.9383 748.199 65.875 748.199C65.8479 748.199 65.8118 748.208 65.7846 748.208C65.7666 748.208 65.7575 748.208 65.7394 748.208C65.5586 748.208 65.3779 748.163 65.1881 748.136C65.0886 748.118 64.9802 748.118 64.8808 748.1C63.76 747.884 62.6482 747.253 61.5365 746.181C59.5571 744.263 57.6138 742.317 55.6615 740.381L53.7815 738.507C53.2121 737.949 52.6517 737.381 52.0913 736.814C51.4044 736.12 50.7084 735.418 50.0125 734.733C49.7232 734.445 49.5244 734.301 49.3979 734.22C49.2533 734.328 49.0544 734.49 48.7742 734.769L42.5015 740.993C40.6396 742.867 38.8138 744.713 37.3767 746.127C37.0242 746.478 36.6175 746.866 36.1203 747.217L36.0933 747.244C35.8945 747.37 35.6865 747.505 35.4696 747.622C34.7194 748.01 33.915 748.199 33.1015 748.208C33.0925 748.208 33.0834 748.208 33.0744 748.208C33.0653 748.208 33.0564 748.208 33.0474 748.208C32.0983 748.217 31.1402 747.965 30.2906 747.451C29.7483 747.127 29.2782 746.704 28.8986 746.244C28.8715 746.217 28.8444 746.199 28.8264 746.181C26.8469 744.263 24.9037 742.317 22.9514 740.381L21.0714 738.507C20.502 737.949 19.9416 737.381 19.3812 736.814C18.6943 736.12 17.9983 735.418 17.3023 734.733C16.986 734.418 16.7781 734.274 16.6516 734.193C16.6335 734.211 16.5973 734.238 16.5701 734.256C16.4165 734.373 16.1906 734.571 15.8743 734.886C12.7831 737.967 7.78485 743.056 4.68466 746.127C4.33216 746.478 3.92542 746.866 3.4283 747.217L3.40116 747.244C3.20231 747.37 2.99437 747.505 2.77745 747.622C1.12341 748.469 -0.819851 748.415 -2.41062 747.46C-4.00139 746.505 -4.95944 744.839 -4.97751 742.993C-5.04078 741.597 -4.47134 740.227 -3.26018 739.03L-1.98573 737.76C-1.67842 737.354 -1.3621 737.03 -1.10902 736.778L2.28944 733.391C4.69368 730.995 7.10695 728.608 9.52021 726.221C10.6862 725.05 11.8069 723.934 12.7831 722.979C13.5965 722.186 14.4552 721.673 15.3409 721.412C15.4404 721.385 15.5308 721.339 15.6302 721.321C15.7748 721.285 15.9194 721.267 16.055 721.249C16.1002 721.24 16.1454 721.24 16.1816 721.231H16.2177C16.2991 721.222 16.3804 721.213 16.4707 721.213C17.9982 721.168 19.5077 721.826 20.9267 723.213C23.4123 725.663 25.8888 728.14 28.3654 730.608L31.9536 734.193C32.1705 734.418 32.3965 734.643 32.6315 734.85C32.8032 735.012 32.9389 735.111 33.0383 735.174C33.0654 735.192 33.0925 735.219 33.1196 735.228C33.1739 735.183 33.2461 735.12 33.3275 735.066L35.0177 733.391C37.4219 730.995 39.8352 728.608 42.2485 726.221C43.4234 725.05 44.5352 723.934 45.5113 722.979C46.3248 722.186 47.1835 721.673 48.0693 721.412C48.1687 721.385 48.259 721.339 48.3585 721.321C48.5031 721.285 48.6477 721.267 48.7832 721.249C48.8284 721.24 48.8736 721.24 48.9188 721.231H48.955C49.0364 721.222 49.1177 721.213 49.2081 721.213C49.2804 721.204 49.3437 721.231 49.3979 721.231C49.425 721.231 49.4612 721.222 49.4883 721.222C49.5063 721.222 49.5154 721.222 49.5335 721.222C49.7143 721.222 49.895 721.267 50.0848 721.294C50.1843 721.312 50.2927 721.312 50.3921 721.33C51.5129 721.547 52.6246 722.177 53.7363 723.249C55.7157 725.168 57.659 727.113 59.6113 729.05L61.4914 730.923C62.0608 731.482 62.6212 732.049 63.1816 732.616C63.8685 733.31 64.5644 734.013 65.2603 734.697C65.5496 734.985 65.7485 735.129 65.875 735.21C66.0196 735.102 66.2184 734.94 66.4986 734.661L72.7713 728.446C74.6333 726.573 76.4681 724.726 77.8962 723.312C78.2487 722.961 78.6553 722.573 79.1524 722.222L79.1796 722.195C79.3784 722.069 79.5864 721.934 79.8033 721.817C80.5535 721.43 81.367 721.24 82.1804 721.231C82.1895 721.231 82.1984 721.231 82.2075 721.231C82.2165 721.231 82.2256 721.231 82.2346 721.231C83.1927 721.222 84.1508 721.475 85.0004 721.988C85.5427 722.312 86.0126 722.727 86.3923 723.195C86.4103 723.222 86.4375 723.24 86.4556 723.258C88.435 725.177 90.3783 727.122 92.3306 729.059L94.2106 730.932C94.78 731.491 95.3404 732.058 95.9007 732.625C96.5877 733.319 97.2837 734.022 97.9796 734.706C98.2237 734.949 98.4044 735.084 98.531 735.174L100.312 733.4C102.716 731.004 105.129 728.617 107.542 726.23C108.717 725.059 109.829 723.943 110.805 722.988C111.619 722.195 112.477 721.682 113.363 721.421C113.463 721.394 113.553 721.348 113.652 721.33C113.797 721.294 113.941 721.276 114.077 721.258C114.122 721.249 114.167 721.249 114.204 721.24H114.24C114.321 721.231 114.412 721.222 114.493 721.222C114.638 721.222 114.773 721.222 114.918 721.231C115.885 721.222 116.843 721.466 117.711 721.988V721.979C118.488 722.438 119.103 723.078 119.545 723.816C121.832 726.077 124.11 728.347 126.387 730.617L129.976 734.202C130.193 734.427 130.419 734.652 130.654 734.859C130.825 735.021 130.961 735.12 131.06 735.183C131.087 735.201 131.115 735.229 131.142 735.238C131.196 735.192 131.268 735.129 131.35 735.075L133.04 733.4C135.444 731.004 137.857 728.617 140.271 726.23C141.446 725.059 142.557 723.943 143.533 722.988C144.347 722.195 145.206 721.682 146.091 721.421C146.191 721.394 146.281 721.348 146.381 721.33C146.525 721.294 146.67 721.276 146.805 721.258C146.851 721.249 146.896 721.249 146.941 721.24H146.977C147.058 721.231 147.14 721.222 147.23 721.222C147.303 721.213 147.366 721.24 147.42 721.24C147.456 721.24 147.483 721.231 147.51 721.231C147.528 721.231 147.537 721.231 147.556 721.231C147.736 721.231 147.917 721.276 148.107 721.303C148.206 721.321 148.315 721.321 148.414 721.339C149.535 721.556 150.647 722.186 151.758 723.258C153.738 725.177 155.681 727.122 157.633 729.059L159.513 730.932C160.083 731.491 160.643 732.058 161.204 732.625C161.891 733.319 162.587 734.022 163.283 734.706C163.572 734.994 163.771 735.138 163.897 735.219C164.042 735.111 164.241 734.949 164.521 734.67L170.793 728.455C172.655 726.582 174.49 724.735 175.918 723.321C176.271 722.97 176.678 722.582 177.175 722.231L177.202 722.204C177.401 722.078 177.608 721.943 177.825 721.826C178.576 721.439 179.389 721.249 180.202 721.24C180.212 721.24 180.221 721.24 180.23 721.24C180.239 721.24 180.248 721.24 180.257 721.24C181.215 721.231 182.173 721.484 183.022 721.997C183.565 722.321 184.035 722.736 184.414 723.204C184.433 723.231 184.46 723.249 184.478 723.267C186.457 725.186 188.4 727.131 190.353 729.068L192.233 730.941C192.802 731.5 193.363 732.067 193.923 732.634C194.61 733.328 195.306 734.031 196.002 734.715C196.318 735.03 196.526 735.174 196.652 735.256C196.671 735.238 196.707 735.21 196.734 735.192C196.888 735.075 197.114 734.877 197.439 734.562C200.53 731.482 205.528 726.392 208.628 723.321C208.981 722.97 209.388 722.582 209.885 722.231L209.912 722.204C210.111 722.078 210.319 721.943 210.536 721.826C212.19 720.979 214.133 721.033 215.724 721.988V721.979C217.314 722.934 218.273 724.6 218.291 726.447C218.273 727.843 217.694 729.212 216.492 730.41Z" fill="#00DED2" fill-opacity="0.12"/>
<path d="M345.109 141H103.891C97.3255 141 92 146.355 92 152.956V231.525C92 238.127 97.3255 243.481 103.891 243.481H108.138V258.854C108.138 258.93 108.138 259.007 108.146 259.084C108.189 262.586 109.989 265.763 112.988 267.565V267.556C115.977 269.366 119.638 269.478 122.738 267.872C123.163 267.65 123.545 267.411 123.919 267.163L123.978 267.103C124.921 266.437 125.694 265.703 126.348 265.037C132.183 259.212 141.586 249.562 147.395 243.712C147.48 243.627 147.557 243.55 147.633 243.481H345.109C351.675 243.481 357 238.127 357 231.525V152.956C357 146.355 351.675 141 345.109 141ZM131.725 202.173C126.17 202.173 121.668 197.655 121.668 192.087C121.668 186.519 126.17 182.001 131.725 182.001C137.279 182.001 141.781 186.519 141.781 192.087C141.781 197.655 137.279 202.173 131.725 202.173ZM193.524 202.173C187.969 202.173 183.467 197.655 183.467 192.087C183.467 186.519 187.969 182.001 193.524 182.001C199.079 182.001 203.572 186.519 203.572 192.087C203.572 197.655 199.079 202.173 193.524 202.173ZM255.238 202.173C249.683 202.173 245.19 197.655 245.19 192.087C245.19 186.519 249.692 182.001 255.238 182.001C260.793 182.001 265.295 186.519 265.295 192.087C265.295 197.655 260.785 202.173 255.238 202.173ZM316.936 202.173C311.381 202.173 306.879 197.655 306.879 192.078C306.879 186.502 311.381 181.984 316.936 181.984C322.491 181.984 326.984 186.502 326.984 192.078C326.984 197.655 322.491 202.173 316.936 202.173Z" fill="#00DED2" fill-opacity="0.12"/>
<path d="M415.109 507H173.891C167.325 507 162 512.355 162 518.956V597.525C162 604.127 167.325 609.481 173.891 609.481H178.138V624.854C178.138 624.93 178.138 625.007 178.146 625.084C178.189 628.586 179.989 631.763 182.988 633.565V633.556C185.977 635.366 189.638 635.478 192.738 633.872C193.163 633.65 193.545 633.411 193.919 633.163L193.978 633.103C194.921 632.437 195.694 631.703 196.348 631.037C202.183 625.212 211.586 615.562 217.395 609.712C217.48 609.627 217.557 609.55 217.633 609.481H415.109C421.675 609.481 427 604.127 427 597.525V518.956C427 512.355 421.675 507 415.109 507ZM201.725 568.173C196.17 568.173 191.668 563.655 191.668 558.087C191.668 552.519 196.17 548.001 201.725 548.001C207.279 548.001 211.781 552.519 211.781 558.087C211.781 563.655 207.279 568.173 201.725 568.173ZM263.524 568.173C257.969 568.173 253.467 563.655 253.467 558.087C253.467 552.519 257.969 548.001 263.524 548.001C269.079 548.001 273.572 552.519 273.572 558.087C273.572 563.655 269.079 568.173 263.524 568.173ZM325.238 568.173C319.683 568.173 315.19 563.655 315.19 558.087C315.19 552.519 319.692 548.001 325.238 548.001C330.793 548.001 335.295 552.519 335.295 558.087C335.295 563.655 330.785 568.173 325.238 568.173ZM386.936 568.173C381.381 568.173 376.879 563.655 376.879 558.078C376.879 552.502 381.381 547.984 386.936 547.984C392.491 547.984 396.984 552.502 396.984 558.078C396.984 563.655 392.491 568.173 386.936 568.173Z" fill="#00DED2" fill-opacity="0.12"/>
</g>
<defs>
<clipPath id="clip0_224_1389">
<rect width="330" height="790" fill="white"/>
</clipPath>
</defs>
</svg>
