<svg width="92" height="22" viewBox="0 0 92 22" fill="none" xmlns="http://www.w3.org/2000/svg">
<path d="M78.8657 0.0626831C74.1252 0.0626831 70.2675 3.92245 70.2675 8.66514C70.2675 13.41 74.1252 17.2681 78.8657 17.2681C83.6085 17.2681 87.4662 13.41 87.4662 8.66514C87.4662 3.92245 83.6085 0.0626831 78.8657 0.0626831ZM85.5752 3.86503C85.1321 4.16271 84.6697 4.43063 84.1911 4.66701C83.9072 4.09577 83.563 3.55658 83.1642 3.05868C83.5162 2.84602 83.8511 2.60632 84.166 2.34174C84.6979 2.78827 85.1713 3.30007 85.5752 3.86503ZM81.9578 1.01122C82.6472 1.29085 83.2954 1.66284 83.8846 2.11698C83.5856 2.36325 83.2688 2.58708 82.9367 2.78662C82.5136 2.30033 82.0388 1.86144 81.5209 1.4777C81.6777 1.33307 81.8238 1.17716 81.9578 1.01122ZM82.6242 2.9638C82.1621 3.21228 81.6768 3.41504 81.1753 3.56918C80.9652 3.08748 80.7258 2.61904 80.4587 2.16647C80.7366 2.04397 80.9994 1.88984 81.242 1.70711C81.7465 2.07526 82.2098 2.49657 82.6242 2.9638ZM81.6073 0.880518C81.4903 1.0186 81.3623 1.14821 81.2264 1.26743C80.7714 0.957974 80.289 0.690898 79.7852 0.469552C80.4117 0.53709 81.0217 0.67435 81.6073 0.880518ZM80.9333 1.49574C80.7266 1.64175 80.5057 1.76562 80.2728 1.86351C80.0172 1.46405 79.7406 1.07851 79.444 0.70853C79.9649 0.921726 80.4638 1.18539 80.9333 1.49574ZM79.044 0.769779C79.3641 1.15677 79.6606 1.56264 79.9321 1.98519C79.6439 2.07498 79.3455 2.12736 79.044 2.14104V0.769779ZM79.044 2.4976C79.4119 2.48025 79.7757 2.41292 80.1254 2.29745C80.3898 2.73782 80.6254 3.19486 80.8308 3.6657C80.2454 3.81609 79.6453 3.90031 79.044 3.91261V2.4976ZM78.6853 0.783722V2.14104C78.3879 2.12643 78.0936 2.07406 77.8095 1.98519C78.0781 1.56823 78.3705 1.16708 78.6853 0.783722ZM77.4713 1.8646C77.2387 1.76588 77.0176 1.6422 76.8118 1.49574C77.2788 1.18576 77.7756 0.923144 78.2948 0.711809C77.9989 1.08034 77.724 1.46521 77.4713 1.8646ZM77.9681 0.466544C77.4605 0.68817 76.9743 0.955885 76.5157 1.26633C76.38 1.14546 76.2527 1.01546 76.1348 0.877239C76.7279 0.669648 77.3431 0.531821 77.9681 0.466544ZM83.8589 15.2313C82.716 14.6049 82.6936 13.7332 82.7529 13.4138C82.815 13.0882 83.0387 13.2298 83.18 13.2298C83.9319 13.2298 84.7238 13.0075 85.6974 12.0119C86.7966 10.8906 87.1419 8.39663 85.4527 6.77299C83.6328 5.02028 81.6975 5.3268 80.4494 6.90232C80.1926 7.2247 79.5692 7.46149 79.029 7.44235C78.2289 7.412 78.7326 8.04253 78.7326 8.17323C78.7326 8.30612 78.612 8.3969 78.5409 8.37694C78.2691 8.29983 78.3779 8.70205 78.3779 8.82345C78.3779 8.94568 78.2669 9.0072 78.206 9.0072C77.8697 9.0072 77.9623 9.31126 77.9722 9.39192C77.9823 9.47313 77.953 9.61477 77.8404 9.67656C77.7335 9.73727 77.6066 10.0019 77.6066 10.2057C77.6066 10.5701 77.9416 10.8247 78.5015 11.2406C79.0579 11.6581 79.1301 12.0524 79.1397 12.3371C79.1509 12.6217 79.1766 13.08 79.3037 13.3838C79.4539 13.7496 79.4342 14.4198 78.6623 14.4493C77.7198 14.4873 76.0451 15.2417 75.9024 15.2923C75.3711 15.4821 74.6676 15.5496 74.1178 15.4121C73.8213 15.2034 73.5392 14.9751 73.2734 14.7285C73.1635 14.3501 73.3547 13.9418 73.5474 13.667C73.8618 13.9818 74.3302 13.9618 74.5919 13.9708C74.8557 13.9818 76.1444 13.7789 76.3281 13.7182C76.5113 13.6564 76.5925 13.6782 76.703 13.7182C77.1959 13.8973 77.8707 13.9509 78.1442 13.0072C78.4187 12.0634 77.7693 12.3275 77.6881 12.3669C77.6063 12.4081 77.4948 12.3986 77.5364 12.3174C77.6561 12.0767 77.4754 12.1016 77.3734 12.0929C77.1095 12.0664 76.7637 12.3472 76.6529 12.4494C76.5403 12.5512 76.4282 12.5399 76.388 12.52C76.0388 12.345 74.9957 12.5976 74.6736 12.0319C74.7034 11.8804 74.4081 9.58579 74.2561 9.18931C74.2312 9.12843 74.222 9.06231 74.2291 8.99694C74.2363 8.93157 74.2597 8.86902 74.2971 8.81498C74.5621 8.41577 75.2927 8.84342 75.6883 8.83385C76.1624 8.82209 76.2384 8.62385 76.368 8.46335C76.4935 8.30831 76.5854 8.39471 76.6527 8.35151C76.7391 8.29628 76.6576 8.18444 76.6874 8.12374C76.7188 8.06249 76.7546 8.09257 76.8348 8.02257C76.9165 7.94956 76.8241 7.7989 76.8646 7.73711C76.9816 7.5602 77.3015 7.70293 77.1093 7.24056C77.0051 6.98791 77.1508 6.7131 77.2925 6.52963C77.5227 6.23268 78.4102 4.98419 76.8454 3.68594C75.3517 2.44866 73.84 2.54982 72.8652 3.60363C71.8913 4.6599 72.3783 6.20397 72.4803 6.60975C72.5822 7.01689 72.2897 7.38547 71.9531 7.54488C71.6854 7.67094 71.0773 8.07616 70.6174 8.47756C70.6915 5.16247 72.7017 2.24905 75.7851 1.00794C75.9155 1.17309 76.0618 1.32785 76.2198 1.47496C75.8764 1.72488 75.1272 2.39561 75.1272 2.39561C75.1272 2.39561 75.2298 2.41065 75.3249 2.43362C75.3911 2.45057 75.5305 2.49186 75.5305 2.49186C75.5305 2.49186 76.1906 1.92913 76.5009 1.70656C76.7423 1.89003 77.0062 2.04288 77.2859 2.16592C77.1347 2.42186 76.7587 3.12731 76.7587 3.12731C76.7587 3.12731 76.8457 3.18008 76.9253 3.23176C77.0015 3.28344 77.0502 3.32883 77.0502 3.32883C77.0502 3.32883 77.4609 2.55584 77.6167 2.29772C77.9618 2.41256 78.3205 2.47901 78.6842 2.49596V3.91316C78.4829 3.90632 77.9632 3.885 77.7529 3.86449L77.6211 3.85082L77.6944 3.96019C77.751 4.04194 77.7926 4.12342 77.8322 4.19807L77.8467 4.22678L77.8814 4.2317C78.0343 4.24346 78.5078 4.26014 78.6847 4.26452V6.84298H79.0435V6.2521C79.5668 6.22722 80.0037 6.19167 80.5306 6.14546L80.5541 6.14327L81.017 5.73285L80.7638 5.755C80.269 5.81902 79.7718 5.86317 79.2734 5.88734L79.0432 5.89937V4.26452C79.6945 4.24968 80.3419 4.15874 80.9722 3.99355C81.1441 4.41956 81.4709 5.45149 81.4709 5.45149L81.8083 5.34704C81.8083 5.34704 81.4821 4.32139 81.3107 3.89457C81.8466 3.72919 82.3642 3.50948 82.8555 3.23887C83.2517 3.72619 83.5929 4.25576 83.8729 4.81795C83.6186 4.93771 83.1562 5.10122 83.1579 5.10122C83.5281 5.14114 83.8094 5.22973 83.8094 5.22973C83.8094 5.22973 83.9404 5.17341 84.0246 5.13595C84.0583 5.20977 84.1217 5.36043 84.1217 5.36043L84.5832 5.56496L84.5305 5.43727C84.5305 5.43727 84.3771 5.07142 84.3404 4.9861C84.8364 4.74109 85.3158 4.46369 85.7753 4.15569C86.6528 5.49587 87.1194 7.06327 87.1178 8.66514C87.1187 11.3418 85.8385 13.7231 83.8589 15.2313ZM69.4888 2.34885L69.3548 2.46861C68.8495 2.91458 67.6992 4.09253 67.8739 5.38668C67.8756 5.39215 67.8931 5.47856 67.8931 5.47856L67.9502 5.73476L68.111 5.58711C68.8175 4.9429 69.3463 3.84726 69.5626 2.58428L69.6236 2.22881L69.4888 2.34885ZM67.1483 4.58471L67.0906 4.74029C67.0099 4.95603 66.8653 5.40992 66.7868 6.01312C66.678 6.86677 66.7029 8.0748 67.4452 8.97822C67.4436 8.97712 67.527 9.0854 67.527 9.0854L67.6128 9.19396L67.7222 8.6449C67.8449 7.67613 67.6836 5.64508 67.3271 4.7381L67.2054 4.42858L67.1483 4.58471ZM66.2938 8.07808L66.2837 8.23831C66.2211 9.10755 66.2657 11.2529 68.0022 12.3912L68.2089 12.5241L68.1999 12.2794C68.17 11.4648 67.2199 9.03591 66.5077 8.1653L66.3064 7.91867L66.2938 8.07808ZM66.5927 11.9179L66.6225 12.0644C66.8757 13.2963 68.044 15.2942 69.8502 15.8723L70.0968 15.9535L70.0072 15.7096C69.6717 14.7876 67.9313 12.6395 66.8136 11.9316L66.5615 11.7708L66.5927 11.9179ZM70.2182 4.20682L70.0758 4.29213C68.7327 5.1138 68.1031 6.10772 68.1506 7.33325L68.1629 7.61406L68.3579 7.45164C69.0857 6.849 69.9946 5.31176 70.2628 4.43897L70.361 4.12069L70.2182 4.20682ZM69.4272 6.8922L69.3263 6.98872C68.9824 7.3152 67.8701 8.50053 67.9655 9.96558C67.98 10.1906 68.0322 10.4337 68.1184 10.6853L68.1968 10.9188L68.3398 10.7186C68.8716 9.97023 69.5771 7.99386 69.5393 7.07486L69.5287 6.79623L69.4272 6.8922ZM69.4855 9.43485L69.4097 9.54832C68.8484 10.3815 68.5627 11.2373 68.5799 12.0256C68.5955 12.6089 68.7811 13.1672 69.133 13.6859L69.2501 13.8601L69.3493 13.675C69.5913 13.22 69.7846 11.7407 69.7551 10.5699C69.7449 10.1567 69.7042 9.81519 69.6353 9.58168L69.5601 9.32438L69.4855 9.43485ZM70.1376 12.1552L70.1018 12.2733C69.9325 12.8139 69.8535 13.3433 69.8674 13.8453C69.9 14.9831 70.4031 15.8712 71.3655 16.4886L71.5279 16.5919L71.5638 16.3726C71.5638 16.3672 71.5766 16.1974 71.5766 16.1974C71.5504 15.2718 70.8611 12.9465 70.3232 12.2343L70.1742 12.0374L70.1376 12.1552ZM68.2428 15.7626L68.3117 15.8786C69.0357 17.091 70.2636 18.6574 72.5609 18.2555L72.7531 18.2235L72.6443 18.0616C72.2145 17.4234 69.4261 15.8501 68.4416 15.6885L68.1736 15.6445L68.2428 15.7626ZM71.6398 18.8434L71.2799 18.9415L71.6261 19.0818C73.0856 19.6801 74.9167 19.8564 75.9773 19.4999C76.3773 19.3648 76.6188 19.1455 76.9151 18.8565C78.7842 19.0498 80.5336 20.6046 81.5532 21.873L81.6084 21.9373L81.6874 21.9118C81.8017 21.8722 81.9784 21.7363 82.0527 21.6554L82.1238 21.5788L82.0593 21.4938C80.9959 20.1012 79.3305 19.2379 79.2556 19.2043C77.7576 18.4712 75.1106 17.9022 71.6398 18.8434Z" fill="#758199"/>
<path d="M71.7171 14.9587L71.7373 15.0815C71.9564 16.4577 72.5155 18.2634 74.8385 18.0641L74.988 18.0507L74.9506 17.9063C74.7925 17.2804 72.6645 15.4619 71.9216 14.9508L71.6985 14.8346L71.7171 14.9587ZM88.1434 2.22881L88.2055 2.58428C88.4223 3.84726 88.9511 4.9429 89.6576 5.58711L89.8189 5.73477L89.8745 5.47856C89.8745 5.47856 89.8919 5.39215 89.8925 5.38668C90.0702 4.0928 88.918 2.91458 88.4149 2.46861L88.2793 2.34885L88.1434 2.22881ZM90.5635 4.42885L90.4407 4.73838C90.0839 5.64535 89.9226 7.67641 90.0451 8.64518L90.1561 9.19423L90.2414 9.08568L90.3237 8.97849C91.0649 8.07507 91.0901 6.86705 90.9793 6.01339C90.9031 5.4102 90.7576 4.9563 90.6775 4.74057L90.6198 4.58498L90.5635 4.42885ZM91.4627 7.91894L91.261 8.16558C90.549 9.03619 89.598 11.4648 89.5696 12.2796L89.56 12.5244L89.7645 12.3915C91.5008 11.2532 91.5467 9.10755 91.4846 8.23859L91.4729 8.07836L91.4627 7.91894ZM91.206 11.7708L90.9539 11.9316C89.8367 12.6398 88.0958 14.7876 87.7598 15.7096L87.6707 15.9535L87.9173 15.8723C89.7213 15.2942 90.8918 13.2963 91.1445 12.0645L91.1754 11.9179L91.206 11.7708ZM87.4757 4.07858L87.5687 4.39795C87.818 5.27704 88.6965 6.83205 89.4115 7.44782L89.6054 7.61379L89.6215 7.33407C89.6943 6.10937 89.0843 5.10259 87.7579 4.25659L87.6157 4.1669L87.4757 4.07858ZM88.2394 6.79623L88.2282 7.07486C88.1913 7.99387 88.8951 9.97023 89.4271 10.7186L89.5718 10.9188L89.6508 10.6853C89.7361 10.4337 89.7875 10.1906 89.8025 9.96558C89.8993 8.50081 88.7851 7.31548 88.4417 6.98873L88.3403 6.89221L88.2394 6.79623ZM88.2074 9.32411L88.1328 9.58141C88.0639 9.81492 88.0234 10.1567 88.013 10.5696C87.9832 11.7404 88.1765 13.2197 88.4177 13.6747L88.5164 13.8598L88.635 13.6856C88.9869 13.1669 89.1712 12.6086 89.1868 12.0254C89.2059 11.237 88.9197 10.3812 88.3586 9.54805L88.2829 9.43458L88.2074 9.32411ZM87.5933 12.0377L87.4454 12.2345C86.9059 12.9468 86.2177 15.2721 86.1915 16.1977C86.1915 16.1977 86.2049 16.3675 86.206 16.3729L86.2407 16.5922C86.2407 16.5922 86.4036 16.4889 86.4042 16.4889C87.3655 15.8715 87.8684 14.9833 87.9012 13.8456C87.9151 13.3436 87.8372 12.8142 87.6668 12.2736L87.6294 12.1555L87.5933 12.0377ZM89.5947 15.6445L89.3262 15.6885C88.3406 15.8501 85.5533 17.4235 85.1235 18.0616L85.0152 18.2235L85.2074 18.2555C87.5058 18.6575 88.7326 17.0907 89.4567 15.8791L89.5256 15.7626L89.5947 15.6445ZM78.5122 19.2043C78.4383 19.238 76.7713 20.1012 75.7096 21.4938L75.644 21.5788L75.7167 21.6554C75.7908 21.7366 75.9672 21.8725 76.0831 21.9118L76.1605 21.9373L76.2154 21.8736C77.2334 20.6048 78.9838 19.0504 80.8524 18.8571C81.1488 19.1461 81.3902 19.3646 81.7908 19.5004C82.8525 19.857 84.6819 19.6806 86.1431 19.0824L86.4887 18.9421L86.1283 18.8439C82.6578 17.9022 80.0105 18.4712 78.5122 19.2043ZM86.0703 14.8349L85.8486 14.9511C85.1024 15.4619 82.9744 17.2807 82.8169 17.9066L82.7805 18.051L82.929 18.0644C85.2525 18.2637 85.8122 16.458 86.0307 15.0818L86.0509 14.959L86.0703 14.8349ZM27.3606 0.908957H30.2646V3.55715H27.3606V0.908957ZM27.5914 6.56573H30.0341V19.4709H27.5914V6.56573ZM9.16143 6.57803H11.6025V19.4821H9.21174V17.5807H9.16143C8.18422 19.201 6.53987 19.8674 4.74021 19.8674C2.04291 19.8674 0.5 17.8115 0.5 15.2155V6.57776H2.94274V14.2125C2.94274 16.4478 3.45595 18.0939 5.79397 18.0939C6.79688 18.0939 8.15907 17.5804 8.67173 16.2436C9.13408 15.035 9.16143 13.5194 9.16143 13.2088V6.57803ZM16.4771 8.48003H16.5285C17.3504 6.85939 19.1511 6.19249 20.4348 6.19249C21.3347 6.19249 25.3173 6.423 25.3173 10.5622V19.4821H22.8768V11.359C22.8768 9.22486 21.9775 8.07015 19.9208 8.07015C19.9208 8.07015 18.583 7.99277 17.5568 9.0206C17.197 9.37935 16.5282 9.94508 16.5282 12.4645V19.4824H14.0866V6.5783H16.4768V8.48003H16.4771ZM40.2562 10.7164C40.128 9.10755 39.3643 7.98539 37.6262 7.98539C35.3059 7.98539 34.4107 9.99976 34.4107 13.0163C34.4107 16.0295 35.3057 18.0477 37.6262 18.0477C39.2331 18.0477 40.2294 17.0032 40.356 15.1613H42.7843C42.5776 18.0477 40.4356 19.8089 37.5999 19.8089C33.4901 19.8089 31.857 16.8996 31.857 13.1169C31.857 9.35884 33.7447 6.22011 37.8072 6.22011C40.5146 6.22011 42.5546 7.93234 42.6784 10.7159H40.2562V10.7164ZM46.4306 13.4745C46.2507 15.7227 47.1708 18.048 49.646 18.048C51.5359 18.048 52.4795 17.3094 52.7589 15.44H55.316C54.9299 18.3567 52.6832 19.8092 49.6222 19.8092C45.5108 19.8092 43.8736 16.8998 43.8736 13.1172C43.8736 9.35911 45.7667 6.22038 49.8259 6.22038C53.6544 6.29995 55.4663 8.72283 55.4663 12.2764V13.4743H46.4306V13.4745ZM52.9159 11.7907C52.9662 9.64512 51.9936 7.98511 49.646 7.98511C47.6268 7.98511 46.4306 9.69051 46.4306 11.7907H52.9159ZM58.2134 19.4255V8.29054H56.0091V6.59991H58.2134V3.84589C58.293 1.03528 60.4103 0.294556 62.2234 0.294556C62.8093 0.294556 63.3737 0.446582 63.9632 0.549392V2.56513C63.5498 2.54408 63.144 2.48885 62.7328 2.48885C61.3572 2.48885 60.5629 2.84923 60.6389 4.25249V6.60018H63.6028V8.29081H60.6389V19.4258H58.2134V19.4255Z" fill="#758199"/>
</svg>
