<svg width="74" height="28" viewBox="0 0 74 28" fill="none" xmlns="http://www.w3.org/2000/svg">
<path fill-rule="evenodd" clip-rule="evenodd" d="M64.9637 12.6382L59.5856 7.26616C59.3878 7.06752 59.2767 6.79857 59.2767 6.5182C59.2767 6.23783 59.3878 5.96888 59.5856 5.77024L64.9637 0.398229C65.007 0.35483 65.0585 0.320398 65.1151 0.296906C65.1717 0.273414 65.2325 0.261321 65.2938 0.261321C65.3551 0.261321 65.4158 0.273414 65.4725 0.296906C65.5291 0.320398 65.5805 0.35483 65.6239 0.398229C65.7086 0.48664 65.7581 0.602932 65.7632 0.725274V12.3111C65.7616 12.4354 65.7111 12.554 65.6227 12.6413C65.5342 12.7285 65.415 12.7775 65.2908 12.7775C65.2296 12.7778 65.1691 12.7656 65.1128 12.7416C65.0566 12.7177 65.0058 12.6825 64.9637 12.6382ZM67.3863 0.252876C68.9711 0.363176 70.4551 1.07056 71.5387 2.23226C72.6224 3.39396 73.225 4.92348 73.225 6.51215C73.225 8.10081 72.6224 9.63033 71.5387 10.792C70.4551 11.9537 68.9711 12.6611 67.3863 12.7714C67.3258 12.7764 67.2649 12.7693 67.2072 12.7507C67.1494 12.732 67.0959 12.7022 67.0498 12.6627C67.0036 12.6233 66.9657 12.5752 66.9382 12.5211C66.9107 12.467 66.8942 12.408 66.8896 12.3475V9.79773C66.8883 9.68726 66.9266 9.57998 66.9978 9.49548C67.069 9.41097 67.1682 9.35488 67.2772 9.33745C67.9591 9.24252 68.5836 8.90422 69.0355 8.38497C69.4875 7.86572 69.7364 7.20054 69.7364 6.51215C69.7364 5.82375 69.4875 5.15857 69.0355 4.63932C68.5836 4.12007 67.9591 3.78178 67.2772 3.68684C67.1676 3.67062 67.0677 3.61487 66.9963 3.53009C66.9249 3.44531 66.887 3.33736 66.8896 3.22656V0.719218C66.8896 0.597606 66.9371 0.48079 67.0219 0.393674C67.1068 0.306558 67.2223 0.256035 67.3439 0.252876L67.3863 0.252876ZM0.541996 24.5814C0.539593 24.4111 0.570743 24.2421 0.633666 24.084C0.696589 23.9258 0.790053 23.7816 0.90872 23.6595C1.02739 23.5375 1.16893 23.44 1.32527 23.3727C1.48161 23.3054 1.64969 23.2695 1.81989 23.2671C2.06411 23.2704 2.30358 23.335 2.51638 23.4549C3.7122 24.3031 5.13283 24.7773 6.59838 24.8176C7.97923 24.8176 8.78473 24.2119 8.78473 23.3035V23.2671C8.78473 22.183 7.29486 21.8075 5.64147 21.3049C3.56413 20.6992 1.25059 19.8755 1.25059 17.1926V17.1381C1.25059 14.4854 3.45512 12.8986 6.25316 12.8986C7.79489 12.9185 9.30919 13.309 10.6683 14.0372C10.8967 14.1479 11.0901 14.3196 11.2269 14.5334C11.3637 14.7472 11.4387 14.9947 11.4435 15.2485C11.4435 15.5917 11.308 15.9211 11.0664 16.165C10.8248 16.4088 10.4967 16.5474 10.1535 16.5506H10.1111C9.88682 16.5568 9.66504 16.5024 9.4691 16.3931C8.45643 15.8096 7.32272 15.4676 6.15626 15.3938C4.90865 15.3938 4.17582 15.9995 4.17582 16.7807V16.8352C4.17582 17.8709 5.69598 18.2948 7.34331 18.8217C9.39642 19.4637 11.71 20.3903 11.71 22.9098V22.9643C11.71 25.9138 9.42065 27.3673 6.49542 27.3673C4.58609 27.3496 2.72494 26.7658 1.14763 25.6897C0.953556 25.578 0.794214 25.4148 0.687303 25.2181C0.580391 25.0214 0.530094 24.7989 0.541996 24.5753V24.5814ZM20.528 20.1178C20.5296 19.1539 20.7211 18.1997 21.0914 17.3097C21.4618 16.4197 22.0038 15.6114 22.6865 14.931C23.3693 14.2505 24.1794 13.7111 25.0705 13.3437C25.9617 12.9763 26.9165 12.788 27.8805 12.7896H28.038C29.9647 12.7342 31.8345 13.4464 33.236 14.7696C34.6376 16.0928 35.4561 17.9186 35.5115 19.8453C35.5115 19.9179 35.5115 19.9906 35.5115 20.0633V20.1117C35.5019 22.0564 34.721 23.9178 33.3402 25.2872C31.9594 26.6567 30.0917 27.4222 28.147 27.4157H27.9835C26.0609 27.4663 24.1967 26.7527 22.7992 25.4313C21.4018 24.1099 20.5851 22.2885 20.528 20.3661V20.1178ZM32.2895 20.1178C32.3131 19.549 32.2242 18.9812 32.0281 18.4468C31.832 17.9124 31.5324 17.4219 31.1465 17.0034C30.7606 16.5849 30.296 16.2465 29.7792 16.0078C29.2625 15.769 28.7037 15.6345 28.1349 15.6119H27.9774C25.3913 15.6119 23.7379 17.6286 23.7379 20.0694V20.1239C23.6954 21.2699 24.1098 22.3859 24.8901 23.2264C25.6704 24.0669 26.7526 24.563 27.8987 24.6056H28.0198C30.6361 24.6056 32.2593 22.5888 32.2593 20.1723L32.2895 20.1178ZM40.0054 25.6231C40.0054 26.0503 39.8356 26.4601 39.5335 26.7622C39.2314 27.0643 38.8216 27.2341 38.3944 27.2341C37.9671 27.2341 37.5573 27.0643 37.2552 26.7622C36.9531 26.4601 36.7834 26.0503 36.7834 25.6231V19.1124C36.8342 17.4734 37.521 15.9184 38.6984 14.777C39.8758 13.6355 41.4512 12.9972 43.0911 12.9972C44.731 12.9972 46.3064 13.6355 47.4838 14.777C48.6612 15.9184 49.348 17.4734 49.3988 19.1124V25.6291C49.3737 26.0385 49.1933 26.4229 48.8945 26.7039C48.5957 26.9849 48.201 27.1414 47.7908 27.1414C47.3807 27.1414 46.9859 26.9849 46.6872 26.7039C46.3884 26.4229 46.208 26.0385 46.1829 25.6291V18.7915C46.1829 18.3869 46.1031 17.9863 45.9481 17.6127C45.7931 17.239 45.5659 16.8996 45.2796 16.6138C44.9933 16.328 44.6534 16.1015 44.2794 15.9473C43.9054 15.793 43.5047 15.714 43.1002 15.7148C42.9811 15.7088 42.8619 15.7088 42.7429 15.7148C41.9819 15.8125 41.2831 16.1857 40.7787 16.7638C40.2742 17.3419 39.9991 18.0848 40.0054 18.852V25.6231ZM19.123 15.9995H16.652V22.4011C16.6519 22.936 16.8632 23.4493 17.2398 23.8293C17.6163 24.2093 18.1277 24.4252 18.6627 24.4299H19.0987C19.3022 24.4138 19.5069 24.4395 19.7001 24.5054C19.8933 24.5712 20.0709 24.676 20.2221 24.8131C20.3733 24.9503 20.4949 25.1169 20.5792 25.3028C20.6636 25.4886 20.7091 25.6898 20.7128 25.8939C20.7165 26.098 20.6784 26.3007 20.6009 26.4895C20.5234 26.6783 20.408 26.8493 20.2619 26.9918C20.1158 27.1344 19.9421 27.2455 19.7514 27.3184C19.5608 27.3913 19.3572 27.4245 19.1533 27.4157H18.4689C18.3943 27.422 18.3194 27.422 18.2448 27.4157C16.9821 27.3588 15.7871 26.8288 14.8973 25.9311C14.0074 25.0334 13.488 23.8338 13.4421 22.5706V10.7062C13.4672 10.2968 13.6476 9.91239 13.9464 9.63138C14.2452 9.35038 14.6399 9.19392 15.0501 9.19392C15.4602 9.19392 15.855 9.35038 16.1537 9.63138C16.4525 9.91239 16.6329 10.2968 16.658 10.7062V13.0803H19.1351C19.5067 13.1042 19.8553 13.2687 20.1101 13.5404C20.3648 13.812 20.5066 14.1705 20.5066 14.5429C20.5066 14.9153 20.3648 15.2738 20.1101 15.5454C19.8553 15.8171 19.5067 15.9816 19.1351 16.0055L19.123 15.9995ZM56.0669 19.8513C56.0669 19.4861 56.2115 19.1358 56.4692 18.877C56.7268 18.6183 57.0765 18.4721 57.4417 18.4705H60.9241C60.4638 16.7989 59.2889 15.5997 57.6113 15.5997C55.0736 15.5997 53.6867 17.6165 53.6867 20.0633V20.1117C53.6867 22.5343 55.437 24.5935 57.9262 24.5935C58.9333 24.6141 59.9118 24.2577 60.6697 23.5942C60.9645 23.3452 61.3461 23.2235 61.7305 23.2559C62.115 23.2883 62.4709 23.472 62.7198 23.7668C62.9688 24.0615 63.0905 24.4431 63.0581 24.8276C63.0257 25.212 62.842 25.5679 62.5472 25.8169C61.2159 26.8654 59.5662 27.4274 57.8717 27.4097C56.9268 27.4273 55.9877 27.2587 55.108 26.9133C54.2283 26.568 53.4252 26.0527 52.7447 25.3969C52.0642 24.7411 51.5195 23.9577 51.1418 23.0914C50.7641 22.2251 50.5608 21.2929 50.5435 20.3479V20.1178C50.5435 16.1085 53.4505 12.7896 57.69 12.7896C61.4207 12.7896 64.1037 15.8481 64.1037 19.8574C64.1037 20.0387 64.068 20.2183 63.9986 20.3858C63.9292 20.5533 63.8275 20.7056 63.6993 20.8338C63.571 20.962 63.4188 21.0637 63.2513 21.1331C63.0837 21.2025 62.9042 21.2382 62.7228 21.2382H57.472C57.1057 21.2382 56.7545 21.0928 56.4956 20.8338C56.2366 20.5748 56.0911 20.2236 56.0911 19.8574L56.0669 19.8513Z" fill="#758199"/>
</svg>
