<svg width="105" height="23" viewBox="0 0 105 23" fill="none" xmlns="http://www.w3.org/2000/svg">
<path d="M32.0055 7.48167C31.7593 7.73607 31.4478 7.86284 31.0712 7.86284C30.7094 7.86284 30.405 7.73607 30.1587 7.48167C29.9123 7.22795 29.79 6.90433 29.79 6.51257C29.79 6.14942 29.9123 5.83384 30.1587 5.56489C30.405 5.29639 30.7094 5.16203 31.0712 5.16203C31.4338 5.16203 31.7414 5.29639 31.9946 5.56489C32.2477 5.83384 32.3752 6.14942 32.3752 6.51257C32.3752 6.90433 32.2518 7.22795 32.0055 7.48167ZM34.0479 19.8214C33.7438 20.0683 33.4176 20.2676 33.0697 20.4202C32.7222 20.5726 32.3817 20.649 32.049 20.649C31.4407 20.649 31.006 20.4747 30.7456 20.1261C30.4847 19.7777 30.3546 19.2624 30.3546 18.5798V18.4923L30.376 12.3934C30.376 11.9871 30.2529 11.7834 30.0071 11.7834C29.7749 11.7834 29.5506 11.8783 29.3339 12.0669C29.3045 12.096 29.2607 12.1103 29.203 12.1103C29.1306 12.1103 29.0732 12.0743 29.0291 12.0016L28.5947 11.261V11.2172C28.5799 11.2033 28.5732 11.1812 28.5732 11.1516C28.5732 11.0795 28.6024 11.0214 28.6602 10.9777C28.9778 10.7312 29.3153 10.5349 29.6703 10.3898C30.0254 10.2447 30.3546 10.1718 30.6581 10.1718C31.2238 10.1718 31.6472 10.3461 31.9295 10.6947C32.2122 11.0429 32.3531 11.4785 32.3531 12.0016V12.0669L32.3315 18.4272C32.3315 18.6594 32.3601 18.8157 32.4185 18.8952C32.4757 18.9755 32.5631 19.0155 32.6791 19.0155C32.7798 19.0155 32.8928 18.9824 33.016 18.9173C33.1385 18.852 33.2511 18.783 33.3526 18.7104C33.3959 18.6814 33.4392 18.6666 33.4827 18.6666C33.5548 18.6666 33.6133 18.7033 33.6568 18.7756L34.0912 19.5383L34.0479 19.8214Z" fill="#3B414D"/>
<path d="M40.3471 19.8214C40.0431 20.0684 39.7172 20.2677 39.3699 20.4202C39.022 20.5726 38.6818 20.649 38.3488 20.649C37.726 20.649 37.2876 20.4676 37.0339 20.1047C36.7811 19.7415 36.6542 19.1972 36.6542 18.4711V6.01139C36.6542 5.60506 36.5378 5.40148 36.3066 5.40148C36.0895 5.40148 35.8578 5.49631 35.6111 5.68476C35.5825 5.714 35.5465 5.72838 35.5032 5.72838C35.4158 5.72838 35.351 5.69212 35.3073 5.61962L34.8945 4.87903C34.8945 4.86447 34.8878 4.84997 34.8733 4.83541V4.76987C34.8733 4.69736 34.9027 4.63896 34.9599 4.59579C35.264 4.34877 35.5933 4.15299 35.9483 4.00758C36.3031 3.86212 36.6326 3.78966 36.9367 3.78966C37.516 3.78966 37.9434 3.96782 38.2185 4.32356C38.4934 4.67935 38.6309 5.1332 38.6309 5.68476V18.4054C38.6309 18.6525 38.6601 18.8158 38.7179 18.8952C38.7757 18.9755 38.8627 19.0155 38.9788 19.0155C39.0655 19.0155 39.1669 18.9901 39.2829 18.9389C39.3985 18.8883 39.5219 18.8192 39.652 18.732L39.6739 18.7105C39.7024 18.6815 39.7388 18.6667 39.7825 18.6667C39.8695 18.6667 39.9349 18.7033 39.978 18.7757L40.4125 19.5384L40.3471 19.8214Z" fill="#3B414D"/>
<path d="M53.6636 19.8214C53.3456 20.0684 53.0049 20.2677 52.6431 20.4202C52.281 20.5726 51.9262 20.649 51.5787 20.649C50.9408 20.649 50.4848 20.4713 50.2099 20.1153C49.9348 19.7597 49.7971 19.2406 49.7971 18.5579V18.4711L49.8187 14.0925V13.9401C49.8187 13.2432 49.6633 12.6914 49.3516 12.2849C49.0407 11.8784 48.5593 11.6747 47.9068 11.6747C46.9798 11.6747 46.2887 12.0342 45.8323 12.7531C45.3762 13.4717 45.1482 14.3757 45.1482 15.4651V20.3005C45.1482 20.4457 45.0753 20.5184 44.9307 20.5184H43.3234C43.1783 20.5184 43.1058 20.4457 43.1058 20.3005V6.01139C43.1058 5.60506 42.9826 5.40148 42.7367 5.40148C42.5046 5.40148 42.2656 5.49631 42.0193 5.68476C41.9907 5.714 41.9472 5.72838 41.8896 5.72838C41.8169 5.72838 41.7595 5.69212 41.7158 5.61962L41.2599 4.87903C41.2599 4.86447 41.2514 4.84997 41.2375 4.83541V4.76987C41.2375 4.69736 41.2666 4.63896 41.325 4.59579C41.643 4.34877 41.9907 4.15299 42.3672 4.00758C42.7438 3.86212 43.0913 3.78966 43.4101 3.78966C44.0182 3.78966 44.4601 3.96782 44.7354 4.32356C45.0097 4.67935 45.1482 5.1332 45.1482 5.68476V11.1953C45.4959 10.8035 45.9154 10.4914 46.4082 10.2591C46.8998 10.0266 47.4438 9.91056 48.0369 9.91056C49.341 9.91056 50.3076 10.2409 50.9377 10.9014C51.5679 11.5625 51.8824 12.4807 51.8824 13.6571V18.5143C51.8824 18.7181 51.9115 18.8521 51.9697 18.9174C52.0271 18.9825 52.1141 19.0155 52.2297 19.0155C52.3316 19.0155 52.4439 18.9864 52.5671 18.928C52.6899 18.8703 52.8165 18.7974 52.9469 18.7105C52.9899 18.6815 53.0343 18.6667 53.0774 18.6667C53.1491 18.6667 53.2077 18.7033 53.2514 18.7757L53.7074 19.5384L53.6636 19.8214Z" fill="#3B414D"/>
<path d="M61.4194 15.6389C60.9707 15.2617 60.3403 15.0728 59.5294 15.0728C58.8345 15.0728 58.3054 15.2617 57.9437 15.6389C57.5809 16.0168 57.4006 16.5103 57.4006 17.1205C57.4006 17.7447 57.5885 18.242 57.9653 18.6121C58.3416 18.9824 58.8849 19.1677 59.5941 19.1677C60.3033 19.1677 60.8981 18.9754 61.3759 18.5908C61.8535 18.2058 62.0931 17.7011 62.0931 17.0769C62.0931 16.4963 61.8677 16.0168 61.4194 15.6389ZM65.8515 19.7121C65.5474 19.9596 65.2133 20.1553 64.8516 20.3004C64.4894 20.4455 64.1342 20.5182 63.787 20.5182C62.9325 20.5182 62.4041 20.1913 62.2009 19.5383C61.911 19.8864 61.5064 20.1805 60.9852 20.4201C60.4632 20.6598 59.8621 20.7796 59.1815 20.7796C57.9653 20.7796 57.0203 20.4566 56.3468 19.81C55.6736 19.1643 55.3369 18.2676 55.3369 17.1205C55.3369 16.0457 55.6952 15.1705 56.4119 14.4955C57.1289 13.8205 58.0955 13.4827 59.312 13.4827C59.8621 13.4827 60.3799 13.5697 60.8659 13.7438C61.3505 13.9183 61.7526 14.1361 62.071 14.3974V13.7438C62.071 12.3933 61.2815 11.7183 59.7032 11.7183C58.8912 11.7183 58.1171 11.8998 57.3785 12.2629C57.3638 12.2629 57.3497 12.2703 57.3354 12.2848H57.2921C57.1902 12.2848 57.125 12.2483 57.0964 12.1758L56.6622 11.1083V11.0647C56.6472 11.0502 56.6401 11.0357 56.6401 11.0213C56.6401 10.9198 56.6767 10.8546 56.7488 10.8256C57.6746 10.3172 58.7475 10.0628 59.9636 10.0628C61.3681 10.0628 62.4113 10.4001 63.0926 11.0758C63.7725 11.7506 64.1132 12.7202 64.1132 13.9834V18.318C64.1132 18.5507 64.1383 18.7065 64.189 18.7864C64.2396 18.8667 64.3227 18.9064 64.439 18.9064C64.5696 18.9064 64.7715 18.8339 65.0467 18.6883L65.1557 18.623C65.199 18.594 65.2432 18.5798 65.2861 18.5798C65.3581 18.5798 65.4161 18.6088 65.4599 18.6666L65.9164 19.4291L65.8515 19.7121Z" fill="#3B414D"/>
<path d="M75.1487 18.9715C74.9316 19.3929 74.6378 19.738 74.2687 20.0062C73.8996 20.2752 73.4905 20.4712 73.0411 20.5942C72.5921 20.7175 72.1219 20.7796 71.629 20.7796C70.8328 20.7796 70.1591 20.6924 69.609 20.5183C69.0588 20.3438 68.5299 20.1334 68.0229 19.8864C67.9359 19.8576 67.8928 19.7992 67.8928 19.7121V18.2312C67.8928 18.1003 67.958 18.0347 68.0883 18.0347C68.132 18.0347 68.1751 18.0495 68.2188 18.0784C68.6966 18.3833 69.1995 18.6306 69.7284 18.8192C70.2574 19.008 70.8399 19.1022 71.4772 19.1022C72.0273 19.1022 72.4982 18.9824 72.8893 18.743C73.2796 18.5033 73.4757 18.1511 73.4757 17.6868C73.4757 17.2657 73.3238 16.9532 73.0201 16.7498C72.7155 16.5469 72.201 16.3509 71.4772 16.1618C70.869 16.0023 70.3801 15.8536 70.0111 15.7153C69.6419 15.5773 69.2971 15.3995 68.9791 15.1814C68.66 14.9637 68.4141 14.6915 68.24 14.3646C68.0667 14.0379 67.9801 13.6351 67.9801 13.1559C67.9801 12.1832 68.3487 11.4244 69.0878 10.8794C69.8262 10.335 70.7456 10.0629 71.8461 10.0629C72.3388 10.0629 72.8605 10.1282 73.4108 10.259C73.9609 10.3897 74.504 10.6003 75.04 10.8902C75.0978 10.9198 75.1262 10.9777 75.1262 11.0648V11.1084L75.105 11.1516L74.6491 12.1973C74.6054 12.2703 74.5404 12.3061 74.4533 12.3061C74.3954 12.3061 74.3449 12.292 74.3012 12.2629L74.2795 12.241C74.265 12.241 74.2434 12.2338 74.2142 12.219C73.881 12.0743 73.523 11.9469 73.1391 11.8379C72.7555 11.7294 72.3243 11.6747 71.8461 11.6747C71.2092 11.6747 70.731 11.7873 70.4129 12.0124C70.094 12.2375 69.9349 12.5533 69.9349 12.9596C69.9349 13.2939 70.1264 13.5698 70.5103 13.7875C70.8945 14.0056 71.4623 14.2014 72.2159 14.3757C73.3164 14.637 74.1349 14.9932 74.6703 15.4431C75.2063 15.8933 75.4744 16.5755 75.4744 17.4904C75.4744 18.0567 75.3661 18.5507 75.1487 18.9715Z" fill="#3B414D"/>
<path d="M84.816 12.7639C84.323 12.0524 83.6138 11.6967 82.6873 11.6967C81.7599 11.6967 81.0503 12.0524 80.5583 12.7639C80.0654 13.4759 79.8192 14.3614 79.8192 15.4215C79.8192 16.4668 80.0654 17.3454 80.5583 18.0567C81.0503 18.7689 81.7599 19.1242 82.6873 19.1242C83.6138 19.1242 84.323 18.7689 84.816 18.0567C85.308 17.3454 85.5543 16.4668 85.5543 15.4215C85.5543 14.3614 85.308 13.4759 84.816 12.7639ZM86.3471 19.3093C85.4563 20.2893 84.2364 20.7797 82.6873 20.7797C81.1372 20.7797 79.9171 20.2893 79.0263 19.3093C78.1359 18.3289 77.6897 17.0333 77.6897 15.4215C77.6897 13.7951 78.1359 12.4956 79.0263 11.5221C79.9171 10.5496 81.1372 10.0629 82.6873 10.0629C84.2364 10.0629 85.4563 10.5496 86.3471 11.5221C87.2383 12.4956 87.6836 13.7951 87.6836 15.4215C87.6836 17.0333 87.2383 18.3289 86.3471 19.3093Z" fill="#3B414D"/>
<path d="M96.5902 5.79389C96.5606 5.86639 96.5032 5.90242 96.4164 5.90242H96.351C96.3361 5.88831 96.322 5.88072 96.3077 5.88072C96.1339 5.79389 95.9274 5.71402 95.6886 5.64111C95.4494 5.56856 95.2286 5.53258 95.0257 5.53258C94.4755 5.53258 94.1025 5.74658 93.907 6.17478C93.7117 6.6033 93.6136 7.20211 93.6136 7.97199V10.1497H95.7432C95.8874 10.1497 95.9599 10.223 95.9599 10.3678V11.544C95.9599 11.6747 95.8874 11.7398 95.7432 11.7398H93.6136V20.3004C93.6136 20.4456 93.5488 20.5183 93.418 20.5183H91.8108C91.6801 20.5183 91.6147 20.4456 91.6147 20.3004V11.7398H89.9858C89.8557 11.7398 89.7903 11.6747 89.7903 11.544V10.3678C89.7903 10.223 89.8557 10.1497 89.9858 10.1497H91.6147V7.38382C91.6147 6.93383 91.6728 6.49822 91.789 6.0769C91.9048 5.65562 92.0929 5.27077 92.3538 4.92222C92.6142 4.57407 92.9547 4.2982 93.3747 4.09457C93.7947 3.89166 94.294 3.78964 94.8734 3.78964C95.2649 3.78964 95.6156 3.83717 95.9274 3.93137C96.2383 4.0262 96.5748 4.18185 96.9368 4.39973C96.9953 4.42884 97.0243 4.52304 97.0243 4.6826L96.5902 5.79389Z" fill="#3B414D"/>
<path d="M104.258 20.1047C104.012 20.2348 103.683 20.3625 103.27 20.4855C102.857 20.6089 102.462 20.6707 102.086 20.6707C101.144 20.6707 100.449 20.4419 100 19.9848C99.5516 19.5271 99.3263 18.7901 99.3263 17.7735V11.8054H97.7194C97.5889 11.8054 97.5239 11.7329 97.5239 11.5875V10.4332C97.5239 10.3028 97.5889 10.237 97.7194 10.237H99.3263V7.62324C99.3263 7.4926 99.3988 7.42747 99.5439 7.42747H101.13C101.261 7.42747 101.326 7.4926 101.326 7.62324V10.237H103.737C103.882 10.237 103.954 10.3028 103.954 10.4332V11.5875C103.954 11.7329 103.882 11.8054 103.737 11.8054H101.326V17.5343C101.326 18.086 101.394 18.4672 101.532 18.6775C101.669 18.8882 101.956 18.9933 102.39 18.9933C102.665 18.9933 102.966 18.9465 103.292 18.852C103.618 18.7576 103.867 18.6525 104.041 18.5362C104.085 18.5071 104.128 18.4923 104.172 18.4923C104.302 18.4923 104.367 18.5653 104.367 18.7105V19.9084L104.258 20.1047Z" fill="#3B414D"/>
<path d="M13.2975 0.587883L0.703613 22.4627L20.7291 19.3146H13.2953H6.007L13.2975 0.587883Z" fill="#3B414D"/>
<path d="M13.2934 0.587883L25.8875 22.4627L13.2958 20.4684L6.00708 19.3146H20.5839L13.2934 0.587883Z" fill="#3B414D"/>
<path d="M6.00708 19.3145L13.2976 0.58787L20.5839 19.3145L13.2976 6.76216L6.00708 19.3145Z" fill="#3B414D"/>
</svg>
