<svg width="104" height="80" viewBox="0 0 104 80" fill="none" xmlns="http://www.w3.org/2000/svg">
<path fill-rule="evenodd" clip-rule="evenodd" d="M79.9637 38.6382L74.5856 33.2662C74.3878 33.0675 74.2767 32.7986 74.2767 32.5182C74.2767 32.2378 74.3878 31.9689 74.5856 31.7702L79.9637 26.3982C80.007 26.3548 80.0585 26.3204 80.1151 26.2969C80.1717 26.2734 80.2325 26.2613 80.2938 26.2613C80.3551 26.2613 80.4158 26.2734 80.4725 26.2969C80.5291 26.3204 80.5805 26.3548 80.6239 26.3982C80.7086 26.4866 80.7581 26.6029 80.7632 26.7253V38.3111C80.7616 38.4354 80.7111 38.554 80.6227 38.6412C80.5342 38.7285 80.415 38.7775 80.2908 38.7775C80.2296 38.7778 80.1691 38.7656 80.1128 38.7416C80.0566 38.7177 80.0058 38.6825 79.9637 38.6382ZM82.3863 26.2529C83.9711 26.3632 85.4551 27.0705 86.5387 28.2322C87.6224 29.3939 88.225 30.9235 88.225 32.5121C88.225 34.1008 87.6224 35.6303 86.5387 36.792C85.4551 37.9537 83.9711 38.6611 82.3863 38.7714C82.3258 38.7764 82.2649 38.7693 82.2072 38.7507C82.1494 38.732 82.0959 38.7021 82.0498 38.6627C82.0036 38.6233 81.9657 38.5752 81.9382 38.5211C81.9107 38.467 81.8942 38.408 81.8896 38.3475V35.7977C81.8883 35.6873 81.9266 35.58 81.9978 35.4955C82.069 35.411 82.1682 35.3549 82.2772 35.3374C82.9591 35.2425 83.5836 34.9042 84.0355 34.385C84.4875 33.8657 84.7364 33.2005 84.7364 32.5121C84.7364 31.8237 84.4875 31.1586 84.0355 30.6393C83.5836 30.1201 82.9591 29.7818 82.2772 29.6868C82.1676 29.6706 82.0677 29.6149 81.9963 29.5301C81.9249 29.4453 81.887 29.3374 81.8896 29.2266V26.7192C81.8896 26.5976 81.9371 26.4808 82.0219 26.3937C82.1068 26.3066 82.2223 26.256 82.3439 26.2529H82.3863ZM15.542 50.5813C15.5396 50.4111 15.5707 50.2421 15.6337 50.084C15.6966 49.9258 15.7901 49.7816 15.9087 49.6595C16.0274 49.5375 16.1689 49.44 16.3253 49.3727C16.4816 49.3054 16.6497 49.2695 16.8199 49.2671C17.0641 49.2704 17.3036 49.335 17.5164 49.4549C18.7122 50.3031 20.1328 50.7773 21.5984 50.8175C22.9792 50.8175 23.7847 50.2119 23.7847 49.3035V49.2671C23.7847 48.183 22.2949 47.8075 20.6415 47.3048C18.5641 46.6992 16.2506 45.8755 16.2506 43.1926V43.1381C16.2506 40.4854 18.4551 38.8986 21.2532 38.8986C22.7949 38.9185 24.3092 39.309 25.6683 40.0372C25.8967 40.1478 26.0901 40.3196 26.2269 40.5334C26.3637 40.7472 26.4387 40.9947 26.4435 41.2485C26.4435 41.5917 26.308 41.9211 26.0664 42.1649C25.8248 42.4088 25.4967 42.5474 25.1535 42.5506H25.1111C24.8868 42.5568 24.665 42.5024 24.4691 42.3931C23.4564 41.8095 22.3227 41.4676 21.1563 41.3938C19.9086 41.3938 19.1758 41.9995 19.1758 42.7807V42.8352C19.1758 43.8709 20.696 44.2948 22.3433 44.8217C24.3964 45.4637 26.71 46.3903 26.71 48.9098V48.9643C26.71 51.9138 24.4206 53.3673 21.4954 53.3673C19.5861 53.3496 17.7249 52.7657 16.1476 51.6897C15.9536 51.578 15.7942 51.4148 15.6873 51.2181C15.5804 51.0214 15.5301 50.7989 15.542 50.5753V50.5813ZM35.528 46.1178C35.5296 45.1538 35.7211 44.1997 36.0914 43.3097C36.4618 42.4197 37.0038 41.6114 37.6865 40.9309C38.3693 40.2505 39.1794 39.7111 40.0705 39.3437C40.9617 38.9763 41.9165 38.788 42.8805 38.7896H43.038C44.9647 38.7342 46.8345 39.4464 48.236 40.7696C49.6376 42.0928 50.4561 43.9186 50.5115 45.8453C50.5115 45.9179 50.5115 45.9906 50.5115 46.0633V46.1117C50.5019 48.0564 49.721 49.9178 48.3402 51.2872C46.9594 52.6566 45.0917 53.4222 43.147 53.4157H42.9835C41.0609 53.4663 39.1967 52.7527 37.7992 51.4313C36.4018 50.1099 35.5851 48.2885 35.528 46.3661V46.1178ZM47.2895 46.1178C47.3131 45.549 47.2242 44.9812 47.0281 44.4468C46.832 43.9124 46.5324 43.4219 46.1465 43.0034C45.7606 42.5848 45.296 42.2465 44.7792 42.0078C44.2625 41.769 43.7037 41.6345 43.1349 41.6118H42.9774C40.3913 41.6118 38.7379 43.6286 38.7379 46.0693V46.1239C38.6954 47.2699 39.1098 48.3859 39.8901 49.2264C40.6704 50.0669 41.7526 50.563 42.8987 50.6056H43.0198C45.6361 50.6056 47.2593 48.5888 47.2593 46.1723L47.2895 46.1178ZM55.0054 51.623C55.0054 52.0503 54.8356 52.4601 54.5335 52.7622C54.2314 53.0643 53.8216 53.234 53.3944 53.234C52.9671 53.234 52.5573 53.0643 52.2552 52.7622C51.9531 52.4601 51.7834 52.0503 51.7834 51.623V45.1124C51.8342 43.4734 52.521 41.9184 53.6984 40.777C54.8758 39.6355 56.4512 38.9972 58.0911 38.9972C59.731 38.9972 61.3064 39.6355 62.4838 40.777C63.6612 41.9184 64.348 43.4734 64.3988 45.1124V51.6291C64.3737 52.0385 64.1933 52.4229 63.8945 52.7039C63.5957 52.9849 63.201 53.1414 62.7908 53.1414C62.3807 53.1414 61.9859 52.9849 61.6872 52.7039C61.3884 52.4229 61.208 52.0385 61.1829 51.6291V44.7914C61.1829 44.3869 61.1031 43.9863 60.9481 43.6127C60.7931 43.239 60.5659 42.8996 60.2796 42.6138C59.9933 42.328 59.6534 42.1015 59.2794 41.9473C58.9054 41.793 58.5047 41.714 58.1002 41.7148C57.9811 41.7088 57.8619 41.7088 57.7429 41.7148C56.9819 41.8125 56.2831 42.1857 55.7787 42.7638C55.2742 43.3419 54.9991 44.0848 55.0054 44.852V51.623ZM34.123 41.9995H31.652V48.4011C31.6519 48.936 31.8632 49.4493 32.2398 49.8293C32.6163 50.2093 33.1277 50.4251 33.6627 50.4299H34.0987C34.3022 50.4138 34.5069 50.4394 34.7001 50.5053C34.8933 50.5712 35.0709 50.676 35.2221 50.8131C35.3733 50.9503 35.4949 51.1169 35.5792 51.3027C35.6636 51.4886 35.7091 51.6898 35.7128 51.8939C35.7165 52.098 35.6784 52.3007 35.6009 52.4895C35.5234 52.6783 35.408 52.8492 35.2619 52.9918C35.1158 53.1344 34.9421 53.2455 34.7514 53.3184C34.5608 53.3913 34.3572 53.4244 34.1533 53.4157H33.4689C33.3943 53.422 33.3194 53.422 33.2448 53.4157C31.9821 53.3588 30.7871 52.8288 29.8973 51.9311C29.0074 51.0334 28.488 49.8338 28.4421 48.5706V36.7062C28.4672 36.2968 28.6476 35.9124 28.9464 35.6314C29.2452 35.3504 29.6399 35.1939 30.0501 35.1939C30.4602 35.1939 30.855 35.3504 31.1537 35.6314C31.4525 35.9124 31.6329 36.2968 31.658 36.7062V39.0803H34.1351C34.5067 39.1042 34.8553 39.2687 35.1101 39.5404C35.3648 39.812 35.5066 40.1705 35.5066 40.5429C35.5066 40.9153 35.3648 41.2738 35.1101 41.5454C34.8553 41.8171 34.5067 41.9816 34.1351 42.0055L34.123 41.9995ZM71.0669 45.8513C71.0669 45.4861 71.2115 45.1358 71.4692 44.877C71.7268 44.6183 72.0765 44.4721 72.4417 44.4705H75.9241C75.4638 42.7989 74.2889 41.5997 72.6113 41.5997C70.0736 41.5997 68.6867 43.6165 68.6867 46.0633V46.1117C68.6867 48.5343 70.437 50.5935 72.9262 50.5935C73.9333 50.6141 74.9118 50.2577 75.6697 49.5942C75.9645 49.3452 76.3461 49.2235 76.7305 49.2559C77.115 49.2882 77.4709 49.472 77.7198 49.7668C77.9688 50.0615 78.0905 50.4431 78.0581 50.8276C78.0257 51.212 77.842 51.5679 77.5472 51.8168C76.2159 52.8654 74.5662 53.4274 72.8717 53.4097C71.9268 53.4273 70.9877 53.2587 70.108 52.9133C69.2283 52.568 68.4252 52.0527 67.7447 51.3969C67.0642 50.7411 66.5195 49.9577 66.1418 49.0914C65.7641 48.2251 65.5608 47.2928 65.5435 46.3479V46.1178C65.5435 42.1085 68.4505 38.7896 72.69 38.7896C76.4207 38.7896 79.1037 41.848 79.1037 45.8574C79.1037 46.0387 79.068 46.2183 78.9986 46.3858C78.9292 46.5533 78.8275 46.7056 78.6993 46.8338C78.571 46.962 78.4188 47.0637 78.2513 47.1331C78.0837 47.2025 77.9042 47.2382 77.7228 47.2382H72.472C72.1057 47.2382 71.7545 47.0927 71.4956 46.8338C71.2366 46.5748 71.0911 46.2236 71.0911 45.8574L71.0669 45.8513Z" fill="#67738B"/>
</svg>
