<svg width="104" height="80" viewBox="0 0 104 80" fill="none" xmlns="http://www.w3.org/2000/svg">
<path d="M38.3748 33.5423C39.3587 32.9649 40.1251 32.0797 40.5559 31.0234C40.9867 29.967 41.0579 28.7983 40.7585 27.6975C40.459 26.5967 39.8056 25.625 38.8991 24.9325C37.9926 24.2399 36.8833 23.865 35.7425 23.8655C35.5879 23.8655 35.4367 23.8655 35.2855 23.8895C35.1343 23.9136 34.9419 23.8689 34.7254 23.8655H25.1035V44.0233H36.7322C38.0105 44.0224 39.2464 43.5651 40.2174 42.7337C41.1884 41.9024 41.8306 40.7516 42.0283 39.4887C42.226 38.2258 41.9662 36.9339 41.2957 35.8455C40.6253 34.7572 39.5882 33.9441 38.3714 33.5526L38.3748 33.5423ZM31.2374 27.8963H32.7426C33.3541 27.8642 33.9587 28.0372 34.4608 28.3877C34.6843 28.5643 34.863 28.791 34.9824 29.0495C35.1018 29.3081 35.1585 29.5911 35.148 29.8757C35.1585 30.1608 35.1018 30.4443 34.9824 30.7034C34.863 30.9625 34.6843 31.1899 34.4608 31.3671C33.9597 31.7194 33.354 31.8914 32.7426 31.8551H31.2374V27.8963ZM35.0759 39.2364C34.4617 39.6269 33.7408 39.8156 33.0141 39.7759H31.2374V35.4151H33.0072C33.7339 35.3754 34.4549 35.5641 35.069 35.9546C35.3272 36.1437 35.535 36.3933 35.674 36.6816C35.813 36.9698 35.879 37.2878 35.8662 37.6075C35.8781 37.925 35.8123 38.2405 35.6746 38.5268C35.5369 38.813 35.3313 39.0613 35.0759 39.2501V39.2364Z" fill="#67738B"/>
<path d="M66.3778 38.5594H58.4088V23.8655H51.7938V44.0233H59.3298L64.9242 44.0267H66.3778V38.5594ZM49.6839 23.8655H43.0688V44.0267L49.6839 44.0233V23.8655Z" fill="#67738B"/>
<path d="M68.4912 23.8621H60.5188V36.4461H66.3606V29.8963C66.9255 29.7493 67.5139 29.7159 68.0917 29.798C68.6696 29.8801 69.2254 30.0762 69.7269 30.3748C70.2284 30.6734 70.6656 31.0686 71.0132 31.5375C71.3608 32.0063 71.6118 32.5396 71.7517 33.1062C71.8916 33.6729 71.9176 34.2617 71.8282 34.8384C71.7388 35.4152 71.5357 35.9685 71.2308 36.4662C70.9259 36.9639 70.5252 37.3961 70.052 37.7377C69.5787 38.0793 69.0424 38.3236 68.474 38.4563V44.0302C71.1162 43.9814 73.6337 42.8975 75.4851 41.0117C77.3364 39.1259 78.3736 36.5888 78.3736 33.9461C78.3736 31.3034 77.3364 28.7663 75.4851 26.8805C73.6337 24.9947 71.1162 23.9108 68.474 23.8621H68.4912Z" fill="#67738B"/>
<path d="M31.7356 48.9201H33.0277C33.3364 48.9144 33.6419 48.984 33.9177 49.1229C34.1672 49.2504 34.3757 49.4457 34.5191 49.6864C34.6574 49.9393 34.7299 50.2229 34.7299 50.5112C34.7299 50.7994 34.6574 51.083 34.5191 51.3359C34.3747 51.5758 34.1665 51.7709 33.9177 51.8995C33.6416 52.0373 33.3361 52.1057 33.0277 52.0988H31.7356V48.9201ZM33.0105 51.8101C33.264 51.8168 33.5153 51.7614 33.7424 51.6486C33.9435 51.5429 34.1112 51.3835 34.227 51.1881C34.3398 50.9816 34.3989 50.75 34.3989 50.5146C34.3989 50.2792 34.3398 50.0477 34.227 49.8411C34.1122 49.6449 33.9442 49.4852 33.7424 49.3806C33.5156 49.2666 33.2643 49.21 33.0105 49.2157H32.0689V51.8136L33.0105 51.8101ZM37.5877 51.006H35.5912C35.5962 51.1202 35.624 51.2323 35.673 51.3356C35.7219 51.4388 35.7911 51.5313 35.8764 51.6074C36.0575 51.7634 36.2905 51.8455 36.5293 51.8376C36.6695 51.8386 36.8085 51.8117 36.9383 51.7586C37.0616 51.7034 37.1717 51.6226 37.2613 51.5215L37.4434 51.7311C37.3362 51.8593 37.1994 51.9596 37.0448 52.0232C36.8778 52.0905 36.6991 52.1244 36.519 52.1228C36.2925 52.1277 36.0686 52.0732 35.8696 51.9648C35.684 51.865 35.5304 51.7149 35.4263 51.5318C35.3187 51.3411 35.2641 51.1252 35.2682 50.9064C35.2629 50.686 35.315 50.4682 35.4194 50.2741C35.5165 50.0947 35.6616 49.9459 35.8386 49.8445C36.0204 49.7431 36.225 49.6899 36.4331 49.6899C36.6412 49.6899 36.8459 49.7431 37.0276 49.8445C37.2044 49.9451 37.3487 50.0941 37.4434 50.2741C37.5453 50.4677 37.5961 50.6842 37.5912 50.9029L37.5877 51.006ZM35.8696 50.1916C35.7102 50.3413 35.6153 50.5471 35.605 50.7655H37.2957C37.2853 50.5471 37.1904 50.3413 37.031 50.1916C36.953 50.1182 36.8612 50.0609 36.761 50.0232C36.6607 49.9854 36.5539 49.9679 36.4469 49.9717C36.3386 49.9664 36.2304 49.9832 36.1288 50.021C36.0272 50.0588 35.9343 50.1168 35.8558 50.1916H35.8696ZM38.4262 52.0369C38.2748 51.9962 38.1332 51.9249 38.0104 51.8273L38.1547 51.573C38.2681 51.6594 38.3962 51.7246 38.5327 51.7654C38.6844 51.8164 38.8435 51.8419 39.0035 51.841C39.1715 51.8532 39.3396 51.8175 39.4881 51.738C39.5365 51.7069 39.5763 51.6642 39.6039 51.6138C39.6315 51.5634 39.646 51.5068 39.6461 51.4493C39.6473 51.4108 39.6402 51.3725 39.6254 51.337C39.6106 51.3014 39.5883 51.2694 39.5602 51.2431C39.4951 51.1912 39.4204 51.1527 39.3403 51.1297C39.2272 51.0983 39.1125 51.0731 38.9967 51.0541C38.8368 51.0332 38.6784 51.0022 38.5224 50.9613C38.4071 50.9235 38.3031 50.8573 38.22 50.7689C38.1325 50.6631 38.0883 50.528 38.0963 50.3909C38.0947 50.2947 38.1168 50.1996 38.1605 50.1139C38.2042 50.0282 38.2683 49.9546 38.3472 49.8995C38.5496 49.7634 38.7909 49.697 39.0345 49.7105C39.1911 49.7108 39.3471 49.7316 39.4984 49.7724C39.6337 49.8042 39.7627 49.8588 39.8798 49.9339L39.7389 50.1916C39.5308 50.0526 39.2846 49.9817 39.0345 49.9888C38.8716 49.9777 38.7091 50.0148 38.5671 50.0954C38.5198 50.1265 38.481 50.1688 38.454 50.2186C38.427 50.2683 38.4128 50.324 38.4125 50.3806C38.41 50.4216 38.4167 50.4626 38.4322 50.5007C38.4476 50.5388 38.4714 50.5729 38.5018 50.6005C38.5647 50.6572 38.6401 50.6984 38.7217 50.7208C38.8077 50.7448 38.9314 50.7723 39.0654 50.7998C39.2208 50.8278 39.3746 50.8645 39.5259 50.9098C39.6393 50.9438 39.7414 51.008 39.8214 51.0954C39.9081 51.1963 39.9524 51.3268 39.9451 51.4596C39.9468 51.5574 39.9237 51.654 39.878 51.7406C39.8324 51.8271 39.7656 51.9006 39.6839 51.9544C39.4672 52.0897 39.2139 52.1545 38.9589 52.14C38.777 52.1336 38.5973 52.0988 38.4262 52.0369ZM42.732 51.006H40.7355C40.7404 51.1202 40.7682 51.2323 40.8172 51.3356C40.8662 51.4388 40.9354 51.5313 41.0207 51.6074C41.202 51.7628 41.4349 51.8449 41.6736 51.8376C41.8139 51.8394 41.953 51.8125 42.0825 51.7586C42.2063 51.7043 42.3167 51.6233 42.4055 51.5215L42.5877 51.7311C42.4812 51.8602 42.3442 51.9606 42.189 52.0232C42.0231 52.0901 41.8457 52.1239 41.6667 52.1228C41.439 52.1281 41.2139 52.0736 41.0138 51.9648C40.8283 51.865 40.6746 51.7149 40.5705 51.5318C40.463 51.3411 40.4084 51.1252 40.4124 50.9064C40.4089 50.6862 40.4609 50.4688 40.5636 50.2741C40.6617 50.0954 40.8067 49.9469 40.9829 49.8445C41.1652 49.7431 41.3704 49.6899 41.5791 49.6899C41.7877 49.6899 41.9929 49.7431 42.1753 49.8445C42.3541 49.9446 42.5007 50.0936 42.598 50.2741C42.701 50.4674 42.7531 50.6839 42.7492 50.9029L42.732 51.006ZM41.0138 50.1916C40.8559 50.3423 40.7613 50.5475 40.7492 50.7655H42.4433C42.4317 50.5467 42.3356 50.3409 42.1753 50.1916C42.0151 50.0498 41.8085 49.9715 41.5946 49.9715C41.3806 49.9715 41.174 50.0498 41.0138 50.1916ZM45.4192 49.9545C45.5142 50.0556 45.5873 50.1753 45.634 50.3059C45.6808 50.4366 45.7 50.5755 45.6907 50.7139V52.0885H45.3471V50.7483C45.3618 50.5412 45.2953 50.3366 45.1615 50.1778C45.0951 50.1137 45.0164 50.0636 44.9302 50.0306C44.844 49.9975 44.7521 49.9821 44.6598 49.9854C44.5478 49.9796 44.4358 49.9968 44.3306 50.0358C44.2254 50.0748 44.1293 50.1348 44.0481 50.2122C43.9697 50.2976 43.9092 50.3979 43.8702 50.5071C43.8313 50.6163 43.8146 50.7322 43.8213 50.8479V52.0988H43.5017V49.6933H43.811V50.1332C43.8967 49.9859 44.0232 49.8665 44.1753 49.7895C44.3441 49.7068 44.5302 49.6656 44.7182 49.6693C44.8482 49.6675 44.9772 49.6919 45.0976 49.7409C45.218 49.7899 45.3274 49.8625 45.4192 49.9545ZM48.6151 49.7105L47.5498 52.116H47.2062L46.1478 49.7105H46.4914L47.4089 51.7448L48.3127 49.7105H48.6151ZM49.4467 51.9648C49.2638 51.8638 49.1127 51.7139 49.0103 51.5318C48.9017 51.3414 48.8459 51.1255 48.8487 50.9064C48.8452 50.685 48.901 50.4666 49.0103 50.2741C49.1139 50.0938 49.2648 49.9453 49.4467 49.8445C49.6383 49.7431 49.8518 49.6901 50.0687 49.6901C50.2855 49.6901 50.499 49.7431 50.6906 49.8445C50.8709 49.9463 51.0204 50.0947 51.1236 50.2741C51.2286 50.4668 51.2819 50.6835 51.2783 50.9029C51.2817 51.1213 51.2284 51.3368 51.1236 51.5283C51.0216 51.7095 50.8718 51.8593 50.6906 51.9613C50.4998 52.0651 50.2859 52.1194 50.0687 52.1194C49.8514 52.1194 49.6376 52.0651 49.4467 51.9613V51.9648ZM50.5223 51.7208C50.6605 51.6415 50.771 51.5215 50.8384 51.3771C50.916 51.2276 50.955 51.061 50.9518 50.8926C50.9546 50.7283 50.9181 50.5657 50.8453 50.4184C50.7773 50.2744 50.667 50.1545 50.5291 50.0748C50.3896 49.998 50.233 49.9578 50.0738 49.9578C49.9146 49.9578 49.758 49.998 49.6185 50.0748C49.4813 50.1564 49.3704 50.2756 49.2989 50.4184C49.2216 50.5692 49.1826 50.7368 49.1855 50.9064C49.1823 51.0748 49.2213 51.2414 49.2989 51.3909C49.3697 51.5341 49.4808 51.6535 49.6185 51.7345C49.758 51.8112 49.9146 51.8514 50.0738 51.8514C50.233 51.8514 50.3896 51.8112 50.5291 51.7345L50.5223 51.7208ZM52.0274 48.7311H52.3504V52.0988H52.0274V48.7311ZM55.3504 49.7105L54.2851 52.116H53.9415L52.883 49.7105H53.2267L54.1201 51.7448L55.0239 49.7105H55.3504ZM55.8899 49.1194C55.8681 49.0986 55.8508 49.0735 55.839 49.0457C55.8272 49.018 55.8211 48.9881 55.8212 48.9579C55.823 48.8966 55.8488 48.8384 55.8932 48.7959C55.9376 48.7535 55.9969 48.7302 56.0583 48.7311C56.1208 48.7298 56.1813 48.7533 56.2266 48.7964C56.2479 48.8168 56.2646 48.8414 56.2758 48.8686C56.2871 48.8958 56.2926 48.9251 56.2919 48.9545C56.2929 48.985 56.2876 49.0154 56.2764 49.0437C56.2651 49.0721 56.2482 49.0979 56.2266 49.1194C56.2048 49.1419 56.1786 49.1596 56.1496 49.1714C56.1207 49.1832 56.0896 49.1889 56.0583 49.1882C56.0269 49.1896 55.9956 49.1842 55.9665 49.1723C55.9374 49.1605 55.9113 49.1424 55.8899 49.1194ZM55.8899 49.7105H56.2129V52.116H55.8899V49.7105ZM60.8932 49.951C60.9838 50.0552 61.0528 50.1762 61.0965 50.3071C61.1401 50.438 61.1575 50.5763 61.1475 50.7139V52.0885H60.8108V50.7483C60.826 50.5423 60.7621 50.3383 60.6321 50.1778C60.5666 50.1114 60.4876 50.0598 60.4005 50.0266C60.3133 49.9934 60.22 49.9793 60.1269 49.9854C60.0186 49.9799 59.9102 49.9972 59.809 50.0363C59.7077 50.0753 59.6159 50.1353 59.5393 50.2122C59.3894 50.389 59.3131 50.6165 59.3263 50.8479V52.0988H59.0032V50.7483C59.0185 50.5423 58.9546 50.3383 58.8245 50.1778C58.7586 50.1111 58.679 50.0594 58.5912 50.0262C58.5035 49.993 58.4096 49.9791 58.316 49.9854C58.2081 49.9799 58.1003 49.9973 57.9996 50.0364C57.8989 50.0754 57.8077 50.1354 57.7318 50.2122C57.5794 50.3877 57.5017 50.6159 57.5153 50.8479V52.0988H57.1923V49.6933H57.5015V50.1297C57.5815 49.9852 57.7006 49.8661 57.8452 49.7861C58.0207 49.7073 58.2137 49.6753 58.4053 49.6933C58.5866 49.6879 58.766 49.7318 58.9242 49.8205C59.0781 49.9041 59.1992 50.0373 59.2678 50.1985C59.3559 50.04 59.4885 49.911 59.6493 49.8273C59.8227 49.7356 60.0167 49.6895 60.2128 49.6933C60.4647 49.6865 60.7091 49.7791 60.8932 49.951ZM64.2059 51.006H62.2059C62.2109 51.1202 62.2387 51.2323 62.2877 51.3356C62.3367 51.4388 62.4059 51.5313 62.4912 51.6074C62.6737 51.763 62.9077 51.8451 63.1475 51.8376C63.2877 51.8383 63.4266 51.8115 63.5564 51.7586C63.6793 51.7043 63.7884 51.6233 63.876 51.5215L64.0581 51.7311C63.9519 51.8589 63.8163 51.9591 63.663 52.0232C63.4959 52.0905 63.3173 52.1244 63.1372 52.1228C62.9095 52.1277 62.6845 52.0732 62.4843 51.9648C62.2987 51.865 62.1451 51.7149 62.041 51.5318C61.9384 51.3387 61.8847 51.1233 61.8847 50.9046C61.8847 50.686 61.9384 50.4706 62.041 50.2775C62.1377 50.099 62.2815 49.9504 62.4568 49.848C62.6388 49.744 62.8452 49.6906 63.0547 49.6933C63.2632 49.6902 63.4686 49.7437 63.6492 49.848C63.8242 49.9496 63.9671 50.0985 64.0616 50.2775C64.1646 50.4709 64.2167 50.6873 64.2128 50.9064L64.2059 51.006ZM62.4877 50.1916C62.3298 50.3423 62.2352 50.5475 62.2231 50.7655H63.9035C63.8914 50.5475 63.7968 50.3423 63.6389 50.1916C63.4781 50.0495 63.271 49.9711 63.0564 49.9711C62.8419 49.9711 62.6348 50.0495 62.474 50.1916H62.4877ZM66.8897 49.9545C66.9831 50.0566 67.0549 50.1765 67.101 50.3069C67.147 50.4374 67.1663 50.5758 67.1578 50.7139V52.0885H66.8347V50.7483C66.8495 50.5412 66.7829 50.3366 66.6492 50.1778C66.5792 50.1098 66.4954 50.0574 66.4036 50.0242C66.3117 49.991 66.2139 49.9778 66.1165 49.9854C66.0045 49.9796 65.8925 49.9968 65.7873 50.0358C65.6821 50.0748 65.586 50.1348 65.5049 50.2122C65.4277 50.2983 65.3682 50.3988 65.3299 50.5078C65.2916 50.6169 65.2751 50.7325 65.2815 50.8479V52.0988H64.9585V49.6933H65.2677V50.1332C65.3535 49.9859 65.48 49.8665 65.632 49.7895C65.801 49.7072 65.987 49.666 66.1749 49.6693C66.3073 49.6655 66.4389 49.6888 66.5619 49.7379C66.6848 49.7869 66.7964 49.8606 66.8897 49.9545ZM69.3811 51.9544C69.3166 52.0116 69.2403 52.0538 69.1577 52.0782C69.067 52.1088 68.9717 52.1239 68.8759 52.1228C68.7836 52.1313 68.6905 52.1193 68.6033 52.0878C68.516 52.0562 68.4368 52.0059 68.3712 51.9403C68.3056 51.8747 68.2553 51.7955 68.2237 51.7082C68.1922 51.621 68.1802 51.5279 68.1887 51.4356V49.9923H67.7522V49.7174H68.1784V49.1882H68.5014V49.7105H69.2265V49.9854H68.5014V51.4081C68.4945 51.4696 68.5005 51.5319 68.5188 51.591C68.5371 51.6501 68.5675 51.7048 68.6079 51.7517C68.6483 51.7905 68.6964 51.8203 68.7491 51.8393C68.8018 51.8582 68.8579 51.8658 68.9137 51.8617C68.9791 51.8618 69.0441 51.8513 69.1062 51.8307C69.1652 51.8114 69.22 51.7811 69.2677 51.7414L69.3811 51.9544ZM70.3261 51.9648C70.1432 51.8638 69.9921 51.7139 69.8897 51.5318C69.7821 51.3411 69.7276 51.1252 69.7316 50.9064C69.7276 50.6864 69.7822 50.4694 69.8897 50.2775C69.9933 50.0972 70.1442 49.9487 70.3261 49.848C70.5177 49.7465 70.7313 49.6935 70.9481 49.6935C71.1649 49.6935 71.3784 49.7465 71.5701 49.848C71.7513 49.9468 71.9013 50.0944 72.003 50.2741C72.1106 50.466 72.1651 50.683 72.1611 50.9029C72.1652 51.1218 72.1106 51.3377 72.003 51.5283C71.9029 51.711 71.7527 51.8612 71.5701 51.9613C71.3792 52.0651 71.1653 52.1194 70.9481 52.1194C70.7308 52.1194 70.517 52.0651 70.3261 51.9613V51.9648ZM71.4051 51.7208C71.5426 51.6405 71.6527 51.5208 71.7213 51.3771C71.7989 51.2276 71.8378 51.061 71.8347 50.8926C71.8376 50.7231 71.7986 50.5555 71.7213 50.4046C71.6522 50.2613 71.5422 50.1418 71.4051 50.061C71.265 49.9843 71.1078 49.9441 70.9481 49.9441C70.7883 49.9441 70.6312 49.9843 70.491 50.061C70.354 50.1418 70.244 50.2613 70.1749 50.4046C70.095 50.5547 70.0547 50.7227 70.0581 50.8926C70.0542 51.0615 70.0945 51.2285 70.1749 51.3771C70.2434 51.5208 70.3536 51.6405 70.491 51.7208C70.6312 51.7975 70.7883 51.8377 70.9481 51.8377C71.1078 51.8377 71.265 51.7975 71.4051 51.7208ZM39.6942 53.8582H40.0379V57.0368H39.6942V53.8582ZM44.7732 54.8891C44.8652 54.9925 44.9354 55.1133 44.9796 55.2443C45.0239 55.3754 45.0414 55.514 45.0309 55.652V57.0265H44.7079V55.6829C44.7226 55.4781 44.6587 55.2753 44.5292 55.1159C44.4639 55.049 44.3851 54.9969 44.2979 54.9631C44.2108 54.9293 44.1174 54.9146 44.0241 54.92C43.9153 54.914 43.8066 54.9315 43.7052 54.9712C43.6038 55.011 43.5122 55.072 43.4365 55.1503C43.2893 55.3232 43.2131 55.5454 43.2234 55.7723V57.0265H42.9004V55.6829C42.9151 55.4781 42.8512 55.2753 42.7217 55.1159C42.6555 55.0483 42.5755 54.9958 42.4871 54.962C42.3987 54.9282 42.3041 54.9138 42.2097 54.92C42.102 54.9144 41.9944 54.932 41.8941 54.9717C41.7939 55.0115 41.7035 55.0724 41.6289 55.1503C41.4793 55.3219 41.4017 55.5448 41.4124 55.7723V57.0265H41.0894V54.6211H41.3987V55.085C41.4768 54.939 41.5964 54.8195 41.7423 54.7413C41.904 54.6593 42.0833 54.618 42.2646 54.6211C42.4458 54.6171 42.6248 54.661 42.7835 54.7482C42.9368 54.8327 43.0576 54.9657 43.1272 55.1262C43.2148 54.9686 43.346 54.8398 43.5052 54.7551C43.6799 54.6634 43.8749 54.6173 44.0722 54.6211C44.2011 54.6155 44.3299 54.6364 44.4504 54.6825C44.571 54.7286 44.6809 54.7989 44.7732 54.8891ZM46.378 56.9028C46.1882 56.8006 46.031 56.647 45.9244 56.4595C45.8169 56.2676 45.7623 56.0506 45.7663 55.8307C45.7623 55.6118 45.8168 55.3959 45.9244 55.2053C46.033 55.0246 46.1901 54.8782 46.378 54.7826C46.5696 54.6812 46.7832 54.6282 47 54.6282C47.2168 54.6282 47.4303 54.6812 47.622 54.7826C47.8046 54.8827 47.9548 55.0329 48.0549 55.2156C48.1625 55.4062 48.2171 55.6221 48.213 55.841C48.21 56.059 48.1495 56.2723 48.0378 56.4595C47.9366 56.6414 47.7866 56.7913 47.6048 56.8925C47.4139 56.9963 47.2001 57.0506 46.9828 57.0506C46.7655 57.0506 46.5517 56.9963 46.3608 56.8925L46.378 56.9028ZM47.457 56.6588C47.5929 56.5767 47.7026 56.4575 47.7732 56.3152C47.8505 56.1644 47.8895 55.9967 47.8866 55.8272C47.8812 55.6617 47.8351 55.5 47.7525 55.3565C47.682 55.2142 47.5723 55.095 47.4364 55.0128C47.2969 54.9346 47.1393 54.8943 46.9794 54.896C46.8195 54.8951 46.6621 54.9353 46.5223 55.0128C46.3864 55.095 46.2767 55.2142 46.2062 55.3565C46.1258 55.5051 46.0855 55.6721 46.0893 55.841C46.086 56.0109 46.1262 56.1789 46.2062 56.329C46.2767 56.4712 46.3864 56.5904 46.5223 56.6726C46.6624 56.7491 46.8198 56.7881 46.9794 56.786C47.1414 56.7853 47.3004 56.7414 47.4398 56.6588H47.457ZM50.7834 54.7826C50.9649 54.8815 51.114 55.0307 51.213 55.2121C51.3182 55.4048 51.3715 55.6215 51.3676 55.841C51.3691 56.0569 51.3159 56.2697 51.213 56.4595C51.1132 56.6413 50.9643 56.7913 50.7834 56.8925C50.5975 56.9958 50.3879 57.0491 50.1752 57.0472C49.9888 57.0491 49.8048 57.0054 49.6391 56.92C49.4787 56.8347 49.3453 56.7061 49.2542 56.5489V57.0231H48.945V53.6658H49.268V55.1022C49.364 54.9559 49.4967 54.8374 49.6529 54.7585C49.8149 54.6773 49.994 54.636 50.1752 54.6383C50.3871 54.6316 50.5971 54.6814 50.7834 54.7826ZM50.6082 56.6588C50.7458 56.5778 50.8569 56.4584 50.9278 56.3152C51.0077 56.1652 51.0479 55.9972 51.0446 55.8272C51.0484 55.6583 51.0081 55.4913 50.9278 55.3427C50.8569 55.1995 50.7458 55.0801 50.6082 54.9991C50.468 54.9321 50.3132 54.9013 50.158 54.9097C49.9981 54.908 49.8405 54.9483 49.701 55.0266C49.5648 55.1095 49.4543 55.2284 49.3814 55.3702C49.3038 55.5197 49.2648 55.6863 49.268 55.8547C49.2651 56.0242 49.304 56.1918 49.3814 56.3427C49.4543 56.4845 49.5648 56.6034 49.701 56.6863C49.8407 56.7636 49.9984 56.8027 50.158 56.7997C50.3177 56.7925 50.4728 56.7439 50.6082 56.6588ZM52.1099 54.0541C52.0878 54.0327 52.0704 54.007 52.0586 53.9787C52.0468 53.9503 52.0408 53.9198 52.0411 53.8891C52.0416 53.8595 52.0478 53.8303 52.0596 53.8032C52.0714 53.7761 52.0885 53.7515 52.1099 53.7311C52.1319 53.7089 52.1582 53.6914 52.1871 53.6796C52.216 53.6678 52.247 53.6619 52.2782 53.6623C52.3407 53.6614 52.4011 53.6848 52.4466 53.7276C52.4683 53.7479 52.4856 53.7723 52.4974 53.7995C52.5092 53.8267 52.5153 53.856 52.5154 53.8857C52.5157 53.9169 52.5099 53.9479 52.498 53.9768C52.4862 54.0058 52.4688 54.032 52.4466 54.0541C52.4248 54.0765 52.3986 54.0942 52.3696 54.1061C52.3407 54.1179 52.3095 54.1236 52.2782 54.1228C52.247 54.1232 52.216 54.1173 52.1871 54.1055C52.1582 54.0937 52.1319 54.0762 52.1099 54.0541ZM52.1099 54.6451H52.4294V57.0506H52.1167L52.1099 54.6451ZM53.4294 53.6658H53.749V57.0368H53.4294V53.6658ZM54.7353 54.0541C54.7132 54.0327 54.6958 54.007 54.684 53.9787C54.6721 53.9503 54.6662 53.9198 54.6665 53.8891C54.6669 53.8595 54.6732 53.8303 54.685 53.8032C54.6968 53.7761 54.7139 53.7515 54.7353 53.7311C54.7573 53.7089 54.7836 53.6914 54.8125 53.6796C54.8414 53.6678 54.8724 53.6619 54.9036 53.6623C54.966 53.6618 55.0263 53.6851 55.072 53.7276C55.0937 53.7479 55.111 53.7723 55.1228 53.7995C55.1346 53.8267 55.1407 53.856 55.1407 53.8857C55.141 53.9328 55.1273 53.9789 55.1013 54.0182C55.0752 54.0574 55.0381 54.0881 54.9946 54.1061C54.9511 54.1242 54.9032 54.1289 54.857 54.1196C54.8108 54.1103 54.7684 54.0875 54.7353 54.0541ZM54.7353 54.6451H55.0583V57.0506H54.7353V54.6451ZM57.6046 54.8651C57.6928 54.9553 57.7607 55.0632 57.8039 55.1817C57.8472 55.3002 57.8648 55.4265 57.8555 55.5523V57.0334H57.5462V56.6623C57.4724 56.7903 57.3608 56.8924 57.2266 56.9544C57.0697 57.0276 56.8981 57.0641 56.7249 57.0609C56.4971 57.0725 56.2723 57.0044 56.0892 56.8685C56.0163 56.8084 55.9573 56.7333 55.9163 56.6482C55.8753 56.5632 55.8532 56.4703 55.8516 56.3759C55.8499 56.2815 55.8688 56.1878 55.9069 56.1014C55.9449 56.015 56.0013 55.9379 56.072 55.8754C56.2773 55.7314 56.5267 55.6645 56.7765 55.6864H57.5325V55.542C57.538 55.4591 57.5268 55.376 57.4997 55.2975C57.4725 55.219 57.4299 55.1468 57.3744 55.085C57.2328 54.9687 57.0521 54.9109 56.8692 54.9235C56.7206 54.9243 56.5731 54.9498 56.4328 54.9991C56.3073 55.0476 56.1911 55.1174 56.0892 55.2053L55.9449 54.9647C56.0605 54.8564 56.1958 54.7713 56.3435 54.7139C56.5165 54.657 56.6974 54.628 56.8796 54.6279C57.0101 54.6179 57.1413 54.6337 57.2657 54.6744C57.3901 54.7151 57.5053 54.7799 57.6046 54.8651ZM57.261 56.6795C57.3911 56.5983 57.4922 56.478 57.5496 56.3358V55.9269H56.7833C56.3744 55.9269 56.1717 56.0712 56.1717 56.3564C56.1662 56.4225 56.1779 56.4888 56.2056 56.549C56.2333 56.6092 56.276 56.6613 56.3297 56.7001C56.4611 56.7888 56.6183 56.8312 56.7765 56.8204C56.9426 56.8194 57.1048 56.7704 57.2438 56.6795H57.261ZM57.2232 53.7104H57.6562L56.9208 54.274H56.6012L57.2232 53.7104ZM59.4706 54.7413C59.6425 54.6532 59.8342 54.6106 60.0273 54.6176V54.9338H59.9482C59.8388 54.9284 59.7294 54.9465 59.6275 54.9868C59.5255 55.0271 59.4334 55.0887 59.3572 55.1675C59.2064 55.3491 59.1303 55.5813 59.1441 55.8169V57.0334H58.8245V54.6279H59.1304V55.0953C59.2027 54.9438 59.322 54.8196 59.4706 54.7413ZM60.6939 54.0541C60.6719 54.0327 60.6545 54.007 60.6426 53.9787C60.6308 53.9503 60.6249 53.9198 60.6252 53.8891C60.6256 53.8595 60.6319 53.8303 60.6437 53.8032C60.6555 53.7761 60.6726 53.7515 60.6939 53.7311C60.716 53.7089 60.7422 53.6914 60.7712 53.6796C60.8001 53.6678 60.8311 53.6619 60.8623 53.6623C60.9247 53.6618 60.985 53.6851 61.0307 53.7276C61.0524 53.7479 61.0696 53.7723 61.0815 53.7995C61.0933 53.8267 61.0994 53.856 61.0994 53.8857C61.0997 53.9328 61.086 53.9789 61.0599 54.0182C61.0339 54.0574 60.9968 54.0881 60.9532 54.1061C60.9097 54.1242 60.8618 54.1289 60.8157 54.1196C60.7695 54.1103 60.7271 54.0875 60.6939 54.0541ZM60.6939 54.6451H61.0169V57.0506H60.6939V54.6451ZM62.364 56.9028C62.1813 56.7971 62.0305 56.6439 61.9276 56.4595C61.8216 56.267 61.7671 56.0504 61.7695 55.8307C61.7671 55.612 61.8216 55.3965 61.9276 55.2053C62.031 55.0239 62.1819 54.8742 62.364 54.7723C62.5556 54.6709 62.7692 54.6179 62.986 54.6179C63.2028 54.6179 63.4163 54.6709 63.608 54.7723C63.7909 54.8732 63.942 55.0232 64.0444 55.2053C64.1492 55.3968 64.2025 55.6123 64.199 55.8307C64.2026 56.0501 64.1494 56.2668 64.0444 56.4595C63.941 56.6409 63.7901 56.7906 63.608 56.8925C63.4171 56.9963 63.2033 57.0506 62.986 57.0506C62.7687 57.0506 62.5549 56.9963 62.364 56.8925V56.9028ZM63.443 56.6588C63.5789 56.5767 63.6886 56.4575 63.7592 56.3152C63.8365 56.1644 63.8755 55.9967 63.8726 55.8272C63.8758 55.6588 63.8368 55.4922 63.7592 55.3427C63.6886 55.2004 63.5789 55.0812 63.443 54.9991C63.3035 54.9224 63.1469 54.8822 62.9877 54.8822C62.8285 54.8822 62.6719 54.9224 62.5324 54.9991C62.3954 55.081 62.2846 55.2002 62.2128 55.3427C62.134 55.4919 62.0938 55.6585 62.096 55.8272C62.0941 55.997 62.1343 56.1647 62.2128 56.3152C62.2846 56.4577 62.3954 56.5769 62.5324 56.6588C62.6727 56.7332 62.829 56.772 62.9877 56.772C63.1464 56.772 63.3028 56.7332 63.443 56.6588Z" fill="#67738B"/>
</svg>
