<svg width="54" height="35" viewBox="0 0 54 35" fill="none" xmlns="http://www.w3.org/2000/svg">
<path d="M13.3748 10.5423C14.3587 9.96489 15.1251 9.07971 15.5559 8.02338C15.9867 6.96705 16.0579 5.7983 15.7585 4.69751C15.459 3.59671 14.8056 2.62506 13.8991 1.9325C12.9926 1.23995 11.8833 0.864991 10.7425 0.865498C10.5879 0.865498 10.4367 0.865498 10.2855 0.889553C10.1343 0.913607 9.94186 0.868934 9.72537 0.865498H0.103516V21.0233H11.7322C13.0105 21.0224 14.2464 20.5651 15.2174 19.7338C16.1884 18.9024 16.8306 17.7516 17.0283 16.4887C17.226 15.2259 16.9662 13.9339 16.2957 12.8456C15.6253 11.7572 14.5882 10.9441 13.3714 10.5526L13.3748 10.5423ZM6.23745 4.89637H7.74258C8.35405 4.86425 8.95875 5.03719 9.46077 5.38777C9.68425 5.56428 9.86296 5.79101 9.98237 6.04954C10.1018 6.30808 10.1585 6.59113 10.148 6.87572C10.1585 7.1608 10.1018 7.44435 9.9824 7.70344C9.86301 7.96253 9.68431 8.18988 9.46077 8.3671C8.95971 8.7194 8.35401 8.89142 7.74258 8.85507H6.23745V4.89637ZM10.0759 16.2364C9.46173 16.627 8.74079 16.8156 8.01405 16.7759H6.23745V12.4152H8.00718C8.73391 12.3755 9.45485 12.5641 10.069 12.9547C10.3272 13.1437 10.535 13.3933 10.674 13.6816C10.813 13.9698 10.879 14.2878 10.8662 14.6076C10.8781 14.925 10.8123 15.2405 10.6746 15.5268C10.5369 15.813 10.3313 16.0613 10.0759 16.2501V16.2364Z" fill="#758199"/>
<path d="M41.3778 15.5594H33.4088V0.865498H26.7938V21.0233H34.3298L39.9242 21.0267H41.3778V15.5594ZM24.6839 0.865498H18.0688V21.0267L24.6839 21.0233V0.865498Z" fill="#758199"/>
<path d="M43.4912 0.862068H35.5188V13.4461H41.3606V6.89634C41.9255 6.7493 42.5139 6.71587 43.0917 6.798C43.6696 6.88013 44.2254 7.07618 44.7269 7.37478C45.2284 7.67337 45.6656 8.06858 46.0132 8.53746C46.3608 9.00635 46.6118 9.53958 46.7517 10.1062C46.8916 10.6729 46.9176 11.2617 46.8282 11.8385C46.7388 12.4152 46.5357 12.9685 46.2308 13.4662C45.9259 13.9639 45.5252 14.3961 45.052 14.7377C44.5787 15.0794 44.0424 15.3236 43.474 15.4564V21.0302C46.1162 20.9814 48.6337 19.8975 50.4851 18.0117C52.3364 16.1259 53.3736 13.5888 53.3736 10.9461C53.3736 8.30344 52.3364 5.76634 50.4851 3.88053C48.6337 1.99471 46.1162 0.910846 43.474 0.862068H43.4912Z" fill="#758199"/>
<path d="M6.7356 25.9201H8.02767C8.33641 25.9144 8.6419 25.984 8.91769 26.1229C9.16721 26.2503 9.37567 26.4457 9.51906 26.6864C9.65742 26.9393 9.72994 27.2229 9.72994 27.5112C9.72994 27.7994 9.65742 28.083 9.51906 28.3359C9.37466 28.5758 9.16647 28.7709 8.91769 28.8994C8.64165 29.0373 8.33614 29.1057 8.02767 29.0988H6.7356V25.9201ZM8.01049 28.8101C8.264 28.8168 8.5153 28.7614 8.74244 28.6486C8.94346 28.5429 9.11119 28.3835 9.22697 28.1881C9.33976 27.9815 9.39886 27.7499 9.39886 27.5146C9.39886 27.2792 9.33976 27.0476 9.22697 26.8411C9.11221 26.6449 8.94421 26.4852 8.74244 26.3806C8.5156 26.2666 8.26429 26.21 8.01049 26.2156H7.06892V28.8135L8.01049 28.8101ZM12.5877 28.006H10.5912C10.5962 28.1202 10.624 28.2323 10.673 28.3355C10.7219 28.4388 10.7911 28.5313 10.8764 28.6074C11.0575 28.7633 11.2905 28.8455 11.5293 28.8376C11.6695 28.8386 11.8085 28.8117 11.9383 28.7586C12.0616 28.7034 12.1717 28.6226 12.2613 28.5214L12.4434 28.7311C12.3362 28.8593 12.1994 28.9596 12.0448 29.0232C11.8778 29.0905 11.6991 29.1244 11.519 29.1228C11.2925 29.1277 11.0686 29.0732 10.8696 28.9647C10.684 28.865 10.5304 28.7149 10.4263 28.5318C10.3187 28.3411 10.2641 28.1252 10.2682 27.9063C10.2629 27.686 10.315 27.4681 10.4194 27.274C10.5165 27.0946 10.6616 26.9459 10.8386 26.8445C11.0204 26.7431 11.225 26.6898 11.4331 26.6898C11.6412 26.6898 11.8459 26.7431 12.0276 26.8445C12.2044 26.9451 12.3487 27.0941 12.4434 27.274C12.5453 27.4677 12.5961 27.6841 12.5912 27.9029L12.5877 28.006ZM10.8696 27.1916C10.7102 27.3412 10.6153 27.5471 10.605 27.7654H12.2957C12.2853 27.5471 12.1904 27.3412 12.031 27.1916C11.953 27.1181 11.8612 27.0609 11.761 27.0231C11.6607 26.9854 11.5539 26.9679 11.4469 26.9716C11.3386 26.9664 11.2304 26.9832 11.1288 27.021C11.0272 27.0588 10.9343 27.1168 10.8558 27.1916H10.8696ZM13.4262 29.0369C13.2748 28.9962 13.1332 28.9248 13.0104 28.8273L13.1547 28.573C13.2681 28.6594 13.3962 28.7246 13.5327 28.7654C13.6844 28.8164 13.8435 28.8419 14.0035 28.841C14.1715 28.8532 14.3396 28.8175 14.4881 28.7379C14.5365 28.7069 14.5763 28.6642 14.6039 28.6138C14.6315 28.5633 14.646 28.5068 14.6461 28.4493C14.6473 28.4108 14.6402 28.3725 14.6254 28.3369C14.6106 28.3014 14.5883 28.2694 14.5602 28.2431C14.4951 28.1912 14.4204 28.1526 14.3403 28.1297C14.2272 28.0983 14.1125 28.073 13.9967 28.0541C13.8368 28.0332 13.6784 28.0022 13.5224 27.9613C13.4071 27.9235 13.3031 27.8573 13.22 27.7689C13.1325 27.6631 13.0883 27.528 13.0963 27.3909C13.0947 27.2947 13.1168 27.1996 13.1605 27.1139C13.2042 27.0282 13.2683 26.9546 13.3472 26.8995C13.5496 26.7633 13.7909 26.697 14.0345 26.7105C14.1911 26.7107 14.3471 26.7315 14.4984 26.7723C14.6337 26.8042 14.7627 26.8588 14.8798 26.9338L14.7389 27.1916C14.5308 27.0525 14.2846 26.9817 14.0345 26.9888C13.8716 26.9777 13.7091 27.0147 13.5671 27.0954C13.5198 27.1265 13.481 27.1688 13.454 27.2186C13.427 27.2683 13.4128 27.324 13.4125 27.3806C13.41 27.4216 13.4167 27.4626 13.4322 27.5007C13.4476 27.5387 13.4714 27.5728 13.5018 27.6005C13.5647 27.6572 13.6401 27.6984 13.7217 27.7208C13.8077 27.7448 13.9314 27.7723 14.0654 27.7998C14.2208 27.8278 14.3746 27.8645 14.5259 27.9098C14.6393 27.9438 14.7414 28.0079 14.8214 28.0953C14.9081 28.1962 14.9524 28.3268 14.9451 28.4596C14.9468 28.5574 14.9237 28.654 14.878 28.7405C14.8324 28.827 14.7656 28.9006 14.6839 28.9544C14.4672 29.0897 14.2139 29.1545 13.9589 29.14C13.777 29.1335 13.5973 29.0988 13.4262 29.0369ZM17.732 28.006H15.7355C15.7404 28.1202 15.7682 28.2323 15.8172 28.3355C15.8662 28.4388 15.9354 28.5313 16.0207 28.6074C16.202 28.7627 16.4349 28.8448 16.6736 28.8376C16.8139 28.8393 16.953 28.8124 17.0825 28.7586C17.2063 28.7043 17.3167 28.6233 17.4055 28.5214L17.5877 28.7311C17.4812 28.8601 17.3442 28.9605 17.189 29.0232C17.0231 29.0901 16.8457 29.1239 16.6667 29.1228C16.439 29.1281 16.2139 29.0736 16.0138 28.9647C15.8283 28.865 15.6746 28.7149 15.5705 28.5318C15.463 28.3411 15.4084 28.1252 15.4124 27.9063C15.4089 27.6862 15.4609 27.4687 15.5636 27.274C15.6617 27.0954 15.8067 26.9469 15.9829 26.8445C16.1652 26.7431 16.3704 26.6899 16.5791 26.6899C16.7877 26.6899 16.9929 26.7431 17.1753 26.8445C17.3541 26.9446 17.5007 27.0936 17.598 27.274C17.701 27.4674 17.7531 27.6838 17.7492 27.9029L17.732 28.006ZM16.0138 27.1916C15.8559 27.3423 15.7613 27.5475 15.7492 27.7654H17.4433C17.4317 27.5466 17.3356 27.3409 17.1753 27.1916C17.0151 27.0498 16.8085 26.9715 16.5946 26.9715C16.3806 26.9715 16.174 27.0498 16.0138 27.1916ZM20.4192 26.9545C20.5142 27.0556 20.5873 27.1753 20.634 27.3059C20.6808 27.4366 20.7 27.5755 20.6907 27.7139V29.0884H20.3471V27.7483C20.3618 27.5412 20.2953 27.3366 20.1615 27.1778C20.0951 27.1137 20.0164 27.0636 19.9302 27.0305C19.844 26.9975 19.7521 26.9821 19.6598 26.9854C19.5478 26.9796 19.4358 26.9967 19.3306 27.0357C19.2254 27.0747 19.1293 27.1348 19.0481 27.2122C18.9697 27.2976 18.9092 27.3978 18.8702 27.507C18.8313 27.6162 18.8146 27.7322 18.8213 27.8479V29.0988H18.5017V26.6933H18.811V27.1331C18.8967 26.9859 19.0232 26.8665 19.1753 26.7895C19.3441 26.7068 19.5302 26.6656 19.7182 26.6692C19.8482 26.6675 19.9772 26.6919 20.0976 26.7409C20.218 26.7898 20.3274 26.8625 20.4192 26.9545ZM23.6151 26.7105L22.5498 29.1159H22.2062L21.1478 26.7105H21.4914L22.4089 28.7448L23.3127 26.7105H23.6151ZM24.4467 28.9647C24.2638 28.8638 24.1127 28.7138 24.0103 28.5318C23.9017 28.3414 23.8459 28.1255 23.8487 27.9063C23.8452 27.6849 23.901 27.4666 24.0103 27.274C24.1139 27.0938 24.2648 26.9452 24.4467 26.8445C24.6383 26.7431 24.8518 26.6901 25.0687 26.6901C25.2855 26.6901 25.499 26.7431 25.6906 26.8445C25.8709 26.9463 26.0204 27.0946 26.1236 27.274C26.2286 27.4668 26.2819 27.6834 26.2783 27.9029C26.2817 28.1212 26.2284 28.3368 26.1236 28.5283C26.0216 28.7095 25.8718 28.8593 25.6906 28.9613C25.4998 29.0651 25.2859 29.1194 25.0687 29.1194C24.8514 29.1194 24.6376 29.0651 24.4467 28.9613V28.9647ZM25.5223 28.7208C25.6605 28.6415 25.771 28.5215 25.8384 28.3771C25.916 28.2276 25.955 28.061 25.9518 27.8926C25.9546 27.7283 25.9181 27.5657 25.8453 27.4184C25.7773 27.2744 25.667 27.1545 25.5291 27.0747C25.3896 26.998 25.233 26.9578 25.0738 26.9578C24.9146 26.9578 24.758 26.998 24.6185 27.0747C24.4813 27.1564 24.3704 27.2756 24.2989 27.4184C24.2216 27.5692 24.1826 27.7368 24.1855 27.9063C24.1823 28.0748 24.2213 28.2413 24.2989 28.3909C24.3697 28.5341 24.4808 28.6535 24.6185 28.7345C24.758 28.8112 24.9146 28.8514 25.0738 28.8514C25.233 28.8514 25.3896 28.8112 25.5291 28.7345L25.5223 28.7208ZM27.0274 25.7311H27.3504V29.0988H27.0274V25.7311ZM30.3504 26.7105L29.2851 29.1159H28.9415L27.883 26.7105H28.2267L29.1201 28.7448L30.0239 26.7105H30.3504ZM30.8899 26.1194C30.8681 26.0985 30.8508 26.0735 30.839 26.0457C30.8272 26.0179 30.8211 25.9881 30.8212 25.9579C30.823 25.8965 30.8488 25.8383 30.8932 25.7959C30.9376 25.7535 30.9969 25.7302 31.0583 25.7311C31.1208 25.7298 31.1813 25.7533 31.2266 25.7964C31.2479 25.8168 31.2646 25.8414 31.2758 25.8686C31.2871 25.8958 31.2926 25.925 31.2919 25.9545C31.2929 25.985 31.2876 26.0153 31.2764 26.0437C31.2651 26.0721 31.2482 26.0978 31.2266 26.1194C31.2048 26.1419 31.1786 26.1596 31.1496 26.1714C31.1207 26.1832 31.0896 26.1889 31.0583 26.1881C31.0269 26.1896 30.9956 26.1842 30.9665 26.1723C30.9374 26.1605 30.9113 26.1424 30.8899 26.1194ZM30.8899 26.7105H31.2129V29.1159H30.8899V26.7105ZM35.8932 26.951C35.9838 27.0552 36.0528 27.1762 36.0965 27.3071C36.1401 27.438 36.1575 27.5763 36.1475 27.7139V29.0884H35.8108V27.7483C35.826 27.5423 35.7621 27.3383 35.6321 27.1778C35.5666 27.1114 35.4876 27.0598 35.4005 27.0266C35.3133 26.9933 35.22 26.9793 35.1269 26.9854C35.0186 26.9798 34.9102 26.9972 34.809 27.0362C34.7077 27.0753 34.6159 27.1353 34.5393 27.2122C34.3894 27.3889 34.3131 27.6165 34.3263 27.8479V29.0988H34.0032V27.7483C34.0185 27.5423 33.9546 27.3383 33.8245 27.1778C33.7586 27.1111 33.679 27.0593 33.5912 27.0261C33.5035 26.9929 33.4096 26.979 33.316 26.9854C33.2081 26.9799 33.1003 26.9973 32.9996 27.0363C32.8989 27.0754 32.8077 27.1354 32.7318 27.2122C32.5794 27.3877 32.5017 27.6159 32.5153 27.8479V29.0988H32.1923V26.6933H32.5015V27.1297C32.5815 26.9852 32.7006 26.8661 32.8452 26.7861C33.0207 26.7073 33.2137 26.6753 33.4053 26.6933C33.5866 26.6878 33.766 26.7318 33.9242 26.8204C34.0781 26.9041 34.1992 27.0373 34.2678 27.1984C34.3559 27.04 34.4885 26.911 34.6493 26.8273C34.8227 26.7356 35.0167 26.6895 35.2128 26.6933C35.4647 26.6865 35.7091 26.779 35.8932 26.951ZM39.2059 28.006H37.2059C37.2109 28.1202 37.2387 28.2323 37.2877 28.3355C37.3367 28.4388 37.4059 28.5313 37.4912 28.6074C37.6737 28.763 37.9077 28.845 38.1475 28.8376C38.2877 28.8383 38.4266 28.8115 38.5564 28.7586C38.6793 28.7042 38.7884 28.6232 38.876 28.5214L39.0581 28.7311C38.9519 28.8589 38.8163 28.9591 38.663 29.0232C38.4959 29.0905 38.3173 29.1244 38.1372 29.1228C37.9095 29.1276 37.6845 29.0732 37.4843 28.9647C37.2987 28.865 37.1451 28.7149 37.041 28.5318C36.9384 28.3386 36.8847 28.1233 36.8847 27.9046C36.8847 27.6859 36.9384 27.4706 37.041 27.2775C37.1377 27.099 37.2815 26.9504 37.4568 26.8479C37.6388 26.744 37.8452 26.6906 38.0547 26.6933C38.2632 26.6902 38.4686 26.7437 38.6492 26.8479C38.8242 26.9496 38.9671 27.0985 39.0616 27.2775C39.1646 27.4708 39.2167 27.6873 39.2128 27.9063L39.2059 28.006ZM37.4877 27.1916C37.3298 27.3423 37.2352 27.5475 37.2231 27.7654H38.9035C38.8914 27.5475 38.7968 27.3423 38.6389 27.1916C38.4781 27.0495 38.271 26.9711 38.0564 26.9711C37.8419 26.9711 37.6348 27.0495 37.474 27.1916H37.4877ZM41.8897 26.9545C41.9831 27.0566 42.0549 27.1764 42.101 27.3069C42.147 27.4374 42.1663 27.5758 42.1578 27.7139V29.0884H41.8347V27.7483C41.8495 27.5412 41.7829 27.3366 41.6492 27.1778C41.5792 27.1097 41.4954 27.0574 41.4036 27.0242C41.3117 26.991 41.2139 26.9778 41.1165 26.9854C41.0045 26.9796 40.8925 26.9967 40.7873 27.0357C40.6821 27.0747 40.586 27.1348 40.5049 27.2122C40.4277 27.2983 40.3682 27.3987 40.3299 27.5078C40.2916 27.6169 40.2751 27.7325 40.2815 27.8479V29.0988H39.9585V26.6933H40.2677V27.1331C40.3535 26.9859 40.48 26.8665 40.632 26.7895C40.801 26.7072 40.987 26.666 41.1749 26.6692C41.3073 26.6654 41.4389 26.6888 41.5619 26.7379C41.6848 26.7869 41.7964 26.8606 41.8897 26.9545ZM44.3811 28.9544C44.3166 29.0115 44.2403 29.0538 44.1577 29.0781C44.067 29.1088 43.9717 29.1239 43.8759 29.1228C43.7836 29.1313 43.6905 29.1193 43.6033 29.0877C43.516 29.0562 43.4368 29.0058 43.3712 28.9402C43.3056 28.8747 43.2553 28.7954 43.2237 28.7082C43.1922 28.621 43.1802 28.5279 43.1887 28.4355V26.9923H42.7522V26.7173H43.1784V26.1881H43.5014V26.7105H44.2265V26.9854H43.5014V28.408C43.4945 28.4696 43.5005 28.5318 43.5188 28.591C43.5371 28.6501 43.5675 28.7048 43.6079 28.7517C43.6483 28.7905 43.6964 28.8203 43.7491 28.8393C43.8018 28.8582 43.8579 28.8658 43.9137 28.8616C43.9791 28.8618 44.0441 28.8513 44.1062 28.8307C44.1652 28.8114 44.22 28.7811 44.2677 28.7414L44.3811 28.9544ZM45.3261 28.9647C45.1432 28.8638 44.9921 28.7138 44.8897 28.5318C44.7821 28.3411 44.7276 28.1252 44.7316 27.9063C44.7276 27.6864 44.7822 27.4694 44.8897 27.2775C44.9933 27.0972 45.1442 26.9487 45.3261 26.8479C45.5177 26.7465 45.7313 26.6935 45.9481 26.6935C46.1649 26.6935 46.3784 26.7465 46.5701 26.8479C46.7513 26.9468 46.9013 27.0944 47.003 27.274C47.1106 27.4659 47.1651 27.683 47.1611 27.9029C47.1652 28.1217 47.1106 28.3377 47.003 28.5283C46.9029 28.711 46.7527 28.8612 46.5701 28.9613C46.3792 29.0651 46.1653 29.1194 45.9481 29.1194C45.7308 29.1194 45.517 29.0651 45.3261 28.9613V28.9647ZM46.4051 28.7208C46.5426 28.6405 46.6527 28.5208 46.7213 28.3771C46.7989 28.2276 46.8378 28.061 46.8347 27.8926C46.8376 27.7231 46.7986 27.5555 46.7213 27.4046C46.6522 27.2613 46.5422 27.1417 46.4051 27.061C46.265 26.9843 46.1078 26.9441 45.9481 26.9441C45.7883 26.9441 45.6312 26.9843 45.491 27.061C45.354 27.1417 45.244 27.2613 45.1749 27.4046C45.095 27.5547 45.0547 27.7226 45.0581 27.8926C45.0542 28.0615 45.0945 28.2285 45.1749 28.3771C45.2434 28.5208 45.3536 28.6405 45.491 28.7208C45.6312 28.7975 45.7883 28.8377 45.9481 28.8377C46.1078 28.8377 46.265 28.7975 46.4051 28.7208ZM14.6942 30.8582H15.0379V34.0368H14.6942V30.8582ZM19.7732 31.8891C19.8652 31.9925 19.9354 32.1133 19.9796 32.2443C20.0239 32.3754 20.0414 32.514 20.0309 32.652V34.0265H19.7079V32.6829C19.7226 32.478 19.6587 32.2753 19.5292 32.1159C19.4639 32.049 19.3851 31.9969 19.2979 31.9631C19.2108 31.9293 19.1174 31.9146 19.0241 31.92C18.9153 31.914 18.8066 31.9315 18.7052 31.9712C18.6038 32.0109 18.5122 32.072 18.4365 32.1503C18.2893 32.3231 18.2131 32.5454 18.2234 32.7722V34.0265H17.9004V32.6829C17.9151 32.478 17.8512 32.2753 17.7217 32.1159C17.6555 32.0483 17.5755 31.9957 17.4871 31.9619C17.3987 31.9281 17.3041 31.9138 17.2097 31.92C17.102 31.9143 16.9944 31.932 16.8941 31.9717C16.7939 32.0114 16.7035 32.0724 16.6289 32.1503C16.4793 32.3219 16.4017 32.5448 16.4124 32.7722V34.0265H16.0894V31.6211H16.3987V32.085C16.4768 31.939 16.5964 31.8194 16.7423 31.7413C16.904 31.6593 17.0833 31.618 17.2646 31.6211C17.4458 31.6171 17.6248 31.661 17.7835 31.7482C17.9368 31.8327 18.0576 31.9656 18.1272 32.1262C18.2148 31.9686 18.346 31.8397 18.5052 31.7551C18.6799 31.6634 18.8749 31.6173 19.0722 31.6211C19.2011 31.6155 19.3299 31.6364 19.4504 31.6825C19.571 31.7286 19.6809 31.7989 19.7732 31.8891ZM21.378 33.9028C21.1882 33.8006 21.031 33.647 20.9244 33.4595C20.8169 33.2676 20.7623 33.0506 20.7663 32.8307C20.7623 32.6118 20.8168 32.3959 20.9244 32.2052C21.033 32.0246 21.1901 31.8781 21.378 31.7826C21.5696 31.6812 21.7832 31.6282 22 31.6282C22.2168 31.6282 22.4303 31.6812 22.622 31.7826C22.8046 31.8827 22.9548 32.0329 23.0549 32.2155C23.1625 32.4062 23.2171 32.6221 23.213 32.841C23.21 33.059 23.1495 33.2723 23.0378 33.4595C22.9366 33.6414 22.7866 33.7913 22.6048 33.8925C22.4139 33.9963 22.2001 34.0506 21.9828 34.0506C21.7655 34.0506 21.5517 33.9963 21.3608 33.8925L21.378 33.9028ZM22.457 33.6588C22.5929 33.5767 22.7026 33.4575 22.7732 33.3152C22.8505 33.1643 22.8895 32.9967 22.8866 32.8272C22.8812 32.6617 22.8351 32.5 22.7525 32.3564C22.682 32.2142 22.5723 32.095 22.4364 32.0128C22.2969 31.9345 22.1393 31.8943 21.9794 31.896C21.8195 31.895 21.6621 31.9353 21.5223 32.0128C21.3864 32.095 21.2767 32.2142 21.2062 32.3564C21.1258 32.5051 21.0855 32.6721 21.0893 32.841C21.086 33.0109 21.1262 33.1789 21.2062 33.3289C21.2767 33.4712 21.3864 33.5904 21.5223 33.6726C21.6624 33.749 21.8198 33.7881 21.9794 33.786C22.1414 33.7853 22.3004 33.7414 22.4398 33.6588H22.457ZM25.7834 31.7826C25.9649 31.8815 26.114 32.0306 26.213 32.2121C26.3182 32.4048 26.3715 32.6215 26.3676 32.841C26.3691 33.0569 26.3159 33.2697 26.213 33.4595C26.1132 33.6412 25.9643 33.7913 25.7834 33.8925C25.5975 33.9958 25.3879 34.049 25.1752 34.0471C24.9888 34.049 24.8048 34.0054 24.6391 33.92C24.4787 33.8347 24.3453 33.7061 24.2542 33.5489V34.0231H23.945V30.6657H24.268V32.1021C24.364 31.9559 24.4967 31.8374 24.6529 31.7585C24.8149 31.6773 24.994 31.636 25.1752 31.6382C25.3871 31.6316 25.5971 31.6814 25.7834 31.7826ZM25.6082 33.6588C25.7458 33.5778 25.8569 33.4584 25.9278 33.3152C26.0077 33.1652 26.0479 32.9972 26.0446 32.8272C26.0484 32.6583 26.0081 32.4913 25.9278 32.3427C25.8569 32.1995 25.7458 32.0801 25.6082 31.9991C25.468 31.932 25.3132 31.9013 25.158 31.9097C24.9981 31.908 24.8405 31.9483 24.701 32.0265C24.5648 32.1095 24.4543 32.2284 24.3814 32.3702C24.3038 32.5197 24.2648 32.6863 24.268 32.8547C24.2651 33.0242 24.304 33.1918 24.3814 33.3427C24.4543 33.4845 24.5648 33.6034 24.701 33.6863C24.8407 33.7635 24.9984 33.8026 25.158 33.7997C25.3177 33.7925 25.4728 33.7439 25.6082 33.6588ZM27.1099 31.0541C27.0878 31.0326 27.0704 31.007 27.0586 30.9786C27.0468 30.9503 27.0408 30.9198 27.0411 30.8891C27.0416 30.8595 27.0478 30.8303 27.0596 30.8032C27.0714 30.776 27.0885 30.7515 27.1099 30.731C27.1319 30.7089 27.1582 30.6914 27.1871 30.6796C27.216 30.6678 27.247 30.6619 27.2782 30.6623C27.3407 30.6614 27.4011 30.6848 27.4466 30.7276C27.4683 30.7478 27.4856 30.7723 27.4974 30.7995C27.5092 30.8267 27.5153 30.856 27.5154 30.8857C27.5157 30.9169 27.5099 30.9479 27.498 30.9768C27.4862 31.0057 27.4688 31.032 27.4466 31.0541C27.4248 31.0765 27.3986 31.0942 27.3696 31.106C27.3407 31.1179 27.3095 31.1236 27.2782 31.1228C27.247 31.1232 27.216 31.1173 27.1871 31.1055C27.1582 31.0937 27.1319 31.0762 27.1099 31.0541ZM27.1099 31.6451H27.4294V34.0506H27.1167L27.1099 31.6451ZM28.4294 30.6657H28.749V34.0368H28.4294V30.6657ZM29.7353 31.0541C29.7132 31.0326 29.6958 31.007 29.684 30.9786C29.6721 30.9503 29.6662 30.9198 29.6665 30.8891C29.6669 30.8595 29.6732 30.8303 29.685 30.8032C29.6968 30.776 29.7139 30.7515 29.7353 30.731C29.7573 30.7089 29.7836 30.6914 29.8125 30.6796C29.8414 30.6678 29.8724 30.6619 29.9036 30.6623C29.966 30.6617 30.0263 30.6851 30.072 30.7276C30.0937 30.7478 30.111 30.7723 30.1228 30.7995C30.1346 30.8267 30.1407 30.856 30.1407 30.8857C30.141 30.9328 30.1273 30.9789 30.1013 31.0182C30.0752 31.0574 30.0381 31.088 29.9946 31.1061C29.9511 31.1242 29.9032 31.1289 29.857 31.1196C29.8108 31.1103 29.7684 31.0875 29.7353 31.0541ZM29.7353 31.6451H30.0583V34.0506H29.7353V31.6451ZM32.6046 31.865C32.6928 31.9553 32.7607 32.0632 32.8039 32.1817C32.8472 32.3002 32.8648 32.4265 32.8555 32.5523V34.0334H32.5462V33.6623C32.4724 33.7903 32.3608 33.8924 32.2266 33.9544C32.0697 34.0276 31.8981 34.064 31.7249 34.0609C31.4971 34.0725 31.2723 34.0044 31.0892 33.8684C31.0163 33.8084 30.9573 33.7333 30.9163 33.6482C30.8753 33.5632 30.8532 33.4703 30.8516 33.3759C30.8499 33.2814 30.8688 33.1878 30.9069 33.1014C30.9449 33.015 31.0013 32.9379 31.072 32.8753C31.2773 32.7314 31.5267 32.6645 31.7765 32.6863H32.5325V32.542C32.538 32.4591 32.5268 32.376 32.4997 32.2975C32.4725 32.219 32.4299 32.1467 32.3744 32.085C32.2328 31.9687 32.0521 31.9109 31.8692 31.9235C31.7206 31.9243 31.5731 31.9498 31.4328 31.9991C31.3073 32.0476 31.1911 32.1173 31.0892 32.2052L30.9449 31.9647C31.0605 31.8564 31.1958 31.7712 31.3435 31.7138C31.5165 31.657 31.6974 31.628 31.8796 31.6279C32.0101 31.6179 32.1413 31.6337 32.2657 31.6744C32.3901 31.715 32.5053 31.7798 32.6046 31.865ZM32.261 33.6794C32.3911 33.5983 32.4922 33.478 32.5496 33.3358V32.9269H31.7833C31.3744 32.9269 31.1717 33.0712 31.1717 33.3564C31.1662 33.4225 31.1779 33.4888 31.2056 33.549C31.2333 33.6092 31.276 33.6612 31.3297 33.7001C31.4611 33.7888 31.6183 33.8311 31.7765 33.8203C31.9426 33.8194 32.1048 33.7704 32.2438 33.6794H32.261ZM32.2232 30.7104H32.6562L31.9208 31.274H31.6012L32.2232 30.7104ZM34.4706 31.7413C34.6425 31.6532 34.8342 31.6106 35.0273 31.6176V31.9338H34.9482C34.8388 31.9284 34.7294 31.9465 34.6275 31.9868C34.5255 32.027 34.4334 32.0887 34.3572 32.1674C34.2064 32.3491 34.1303 32.5812 34.1441 32.8169V34.0334H33.8245V31.6279H34.1304V32.0953C34.2027 31.9438 34.322 31.8196 34.4706 31.7413ZM35.6939 31.0541C35.6719 31.0326 35.6545 31.007 35.6426 30.9786C35.6308 30.9503 35.6249 30.9198 35.6252 30.8891C35.6256 30.8595 35.6319 30.8303 35.6437 30.8032C35.6555 30.776 35.6726 30.7515 35.6939 30.731C35.716 30.7089 35.7422 30.6914 35.7712 30.6796C35.8001 30.6678 35.8311 30.6619 35.8623 30.6623C35.9247 30.6617 35.985 30.6851 36.0307 30.7276C36.0524 30.7478 36.0696 30.7723 36.0815 30.7995C36.0933 30.8267 36.0994 30.856 36.0994 30.8857C36.0997 30.9328 36.086 30.9789 36.0599 31.0182C36.0339 31.0574 35.9968 31.088 35.9532 31.1061C35.9097 31.1242 35.8618 31.1289 35.8157 31.1196C35.7695 31.1103 35.7271 31.0875 35.6939 31.0541ZM35.6939 31.6451H36.0169V34.0506H35.6939V31.6451ZM37.364 33.9028C37.1813 33.7971 37.0305 33.6439 36.9276 33.4595C36.8216 33.267 36.7671 33.0504 36.7695 32.8307C36.7671 32.612 36.8216 32.3965 36.9276 32.2052C37.031 32.0239 37.1819 31.8742 37.364 31.7723C37.5556 31.6709 37.7692 31.6178 37.986 31.6178C38.2028 31.6178 38.4163 31.6709 38.608 31.7723C38.7909 31.8732 38.942 32.0231 39.0444 32.2052C39.1492 32.3968 39.2025 32.6123 39.199 32.8307C39.2026 33.0501 39.1494 33.2668 39.0444 33.4595C38.941 33.6408 38.7901 33.7905 38.608 33.8925C38.4171 33.9963 38.2033 34.0506 37.986 34.0506C37.7687 34.0506 37.5549 33.9963 37.364 33.8925V33.9028ZM38.443 33.6588C38.5789 33.5767 38.6886 33.4575 38.7592 33.3152C38.8365 33.1643 38.8755 32.9967 38.8726 32.8272C38.8758 32.6588 38.8368 32.4922 38.7592 32.3427C38.6886 32.2004 38.5789 32.0812 38.443 31.9991C38.3035 31.9224 38.1469 31.8821 37.9877 31.8821C37.8285 31.8821 37.6719 31.9224 37.5324 31.9991C37.3954 32.081 37.2846 32.2002 37.2128 32.3427C37.134 32.4919 37.0938 32.6585 37.096 32.8272C37.0941 32.997 37.1343 33.1646 37.2128 33.3152C37.2846 33.4577 37.3954 33.5769 37.5324 33.6588C37.6727 33.7331 37.829 33.772 37.9877 33.772C38.1464 33.772 38.3028 33.7331 38.443 33.6588Z" fill="#758199"/>
</svg>
