<svg width="112" height="32" viewBox="0 0 112 32" fill="none" xmlns="http://www.w3.org/2000/svg">
<path d="M35.2532 7.24876C35.0554 7.12869 34.8301 7.06169 34.599 7.05423C34.3679 7.04677 34.1387 7.09909 33.9337 7.20615C33.8788 7.23479 33.8259 7.26727 33.7755 7.30335L33.7676 7.31134C33.6526 7.39468 33.545 7.48779 33.446 7.58962C32.6567 8.37654 31.385 9.67875 30.5997 10.4683C30.5439 10.5258 30.4844 10.5796 30.4216 10.6294L30.4004 10.6454C30.3418 10.6064 30.2871 10.5618 30.2369 10.5123C30.0589 10.3352 29.8835 10.1568 29.7054 9.97967C29.5619 9.83453 29.4197 9.6894 29.2749 9.5456L28.7965 9.06626C28.3009 8.56961 27.8052 8.07162 27.3043 7.5803L27.2857 7.56565C27.1599 7.40654 26.9997 7.2781 26.8171 7.18999C26.6346 7.10189 26.4345 7.05643 26.2319 7.05702H26.2173C26.0074 7.06028 25.801 7.11176 25.614 7.20748C25.5591 7.23612 25.5063 7.2686 25.4559 7.30468L25.4466 7.31267C25.3324 7.39592 25.2253 7.48856 25.1264 7.58962C24.7623 7.95179 24.2959 8.42447 23.8228 8.90514L22.2282 10.5029C22.1787 10.5534 22.1258 10.6005 22.0701 10.6441C22.0144 10.605 21.9628 10.5604 21.916 10.5109C21.7379 10.3338 21.5625 10.1554 21.3845 9.97834L20.9539 9.54427L20.4755 9.06492C19.9799 8.56827 19.4843 8.07029 18.982 7.57897C18.7531 7.33469 18.4572 7.16373 18.1315 7.08764C18.1063 7.08764 18.0797 7.08764 18.0545 7.07832C18.0079 7.07001 17.9608 7.06423 17.9136 7.06101C17.9097 7.06034 17.9056 7.06034 17.9017 7.06101H17.8777C17.8618 7.06101 17.8458 7.06101 17.8286 7.06101C17.8073 7.05965 17.786 7.05965 17.7648 7.06101H17.7555H17.7223C17.6856 7.06473 17.6493 7.07051 17.6133 7.07832C17.5881 7.07832 17.5641 7.0943 17.5389 7.10096C17.2927 7.17822 17.0694 7.31546 16.8891 7.50041C16.6419 7.74407 16.3576 8.03301 16.0586 8.32994C15.4518 8.94598 14.8383 9.56024 14.2182 10.1727L13.789 10.6015C13.7726 10.6167 13.7553 10.6309 13.7372 10.6441L13.7173 10.6294C13.6809 10.6043 13.6467 10.5762 13.6149 10.5456C13.5565 10.4923 13.4993 10.4337 13.4435 10.3765L12.5306 9.45905C11.9017 8.82525 11.2714 8.19368 10.6397 7.56432C10.2796 7.20748 9.89694 7.04104 9.5076 7.05302C9.48592 7.05166 9.46417 7.05166 9.44249 7.05302H9.43452H9.4013C9.36468 7.05674 9.3283 7.06252 9.29234 7.07033C9.26709 7.07033 9.24317 7.08631 9.21792 7.09297C8.97143 7.17048 8.74779 7.30768 8.56681 7.49242C8.32098 7.73609 8.03529 8.02502 7.73764 8.32195C7.1255 8.93444 6.51292 9.54693 5.8999 10.1594L5.03485 11.0262C4.95475 11.104 4.88058 11.1877 4.81294 11.2765L4.48871 11.6028C4.23691 11.8363 4.08298 12.1569 4.05803 12.4998C4.03308 12.8427 4.13896 13.1823 4.35429 13.45C4.56961 13.7176 4.87831 13.8934 5.21801 13.9418C5.5577 13.9902 5.90305 13.9075 6.18426 13.7105L6.19224 13.7025C6.3072 13.6192 6.41478 13.5261 6.51381 13.4243C7.30843 12.6493 8.57744 11.3485 9.36409 10.5589C9.42038 10.5014 9.47982 10.4472 9.54215 10.3964L9.5674 10.3858C9.62631 10.4244 9.68108 10.469 9.73084 10.5189C9.9089 10.6947 10.0843 10.8731 10.2624 11.0515C10.4059 11.1967 10.5481 11.3418 10.6929 11.4869L11.1713 11.9663C11.6669 12.4629 12.1626 12.9596 12.6635 13.4509L12.6821 13.4669C12.8086 13.6252 12.9692 13.7527 13.152 13.8399C13.3347 13.9271 13.5348 13.9716 13.7372 13.9702H13.7518C13.9604 13.9674 14.1655 13.9164 14.3511 13.8211C14.406 13.7924 14.4589 13.7599 14.5092 13.7238L14.5172 13.7159C14.6322 13.6325 14.7397 13.5394 14.8388 13.4376C15.2015 13.0754 15.6679 12.6027 16.141 12.1234L17.7356 10.5256C17.7852 10.4756 17.838 10.4289 17.8937 10.3858C17.9491 10.4253 18.0007 10.4698 18.0478 10.5189C18.2259 10.6947 18.4013 10.8731 18.5793 11.0515C18.7229 11.1967 18.865 11.3418 19.0099 11.4869L19.4882 11.9663C19.9839 12.4629 20.4795 12.9596 20.9805 13.4509C21.21 13.6953 21.5062 13.8667 21.8323 13.9435C21.8575 13.9435 21.8841 13.9435 21.9093 13.9529C21.9559 13.9609 22.003 13.9662 22.0502 13.9688H22.0582H22.0834C22.0993 13.9688 22.1153 13.9688 22.1312 13.9688H22.1964H22.2057H22.2389C22.2755 13.9649 22.3118 13.9591 22.3478 13.9515C22.3731 13.9515 22.397 13.9356 22.4222 13.9289C22.6681 13.8508 22.8912 13.7137 23.072 13.5295C23.3179 13.2858 23.6036 12.9969 23.8999 12.7013C24.5138 12.0888 25.1272 11.4758 25.7403 10.8625L26.1695 10.4324C26.1881 10.4164 26.2067 10.4004 26.22 10.3911C26.2273 10.3951 26.2344 10.3995 26.2412 10.4044C26.2773 10.4294 26.3115 10.457 26.3435 10.487C26.402 10.5416 26.4592 10.5988 26.515 10.6561L27.4279 11.5748C28.0568 12.2077 28.6871 12.8388 29.3187 13.4682C29.6775 13.825 30.0615 13.9928 30.4509 13.9808H30.5147H30.524H30.5572C30.5938 13.9771 30.6302 13.9713 30.6661 13.9635C30.6914 13.9635 30.7153 13.9475 30.7406 13.9409C30.9866 13.8631 31.2097 13.7259 31.3903 13.5414C31.6375 13.2978 31.9219 13.0088 32.2182 12.7132C32.8321 12.1007 33.4456 11.4878 34.0586 10.8744L34.925 9.98632C35.0047 9.90771 35.0788 9.82362 35.1469 9.73467L35.4711 9.40978C35.6255 9.26669 35.7445 9.08964 35.819 8.89257C35.8934 8.69551 35.9211 8.48382 35.9 8.27418C35.8789 8.06454 35.8095 7.86268 35.6972 7.6845C35.585 7.50633 35.433 7.3567 35.2532 7.24742V7.24876Z" fill="#00DED2"/>
<path d="M35.2531 25.4064C35.0553 25.5264 34.83 25.5934 34.5989 25.6009C34.3678 25.6084 34.1387 25.556 33.9336 25.449C33.8787 25.4203 33.8258 25.3878 33.7755 25.3518L33.7675 25.3438C33.6525 25.2604 33.5449 25.1673 33.4459 25.0655C32.6566 24.2786 31.3849 22.9764 30.5996 22.1868C30.5433 22.1294 30.4839 22.0751 30.4216 22.0244L30.4003 22.0084C30.3414 22.047 30.2866 22.0916 30.2369 22.1415C30.0588 22.3186 29.8834 22.497 29.7053 22.6741C29.5618 22.8193 29.4196 22.9657 29.2748 23.1095L28.7964 23.5889C28.3008 24.0855 27.8051 24.5835 27.3042 25.0748L27.2856 25.0895C27.1591 25.2478 26.9984 25.3753 26.8157 25.4625C26.633 25.5497 26.4329 25.5942 26.2305 25.5928H26.2159C26.006 25.5895 25.7996 25.538 25.6126 25.4423C25.5577 25.4137 25.5049 25.3812 25.4545 25.3451L25.4452 25.3371C25.3309 25.2534 25.2238 25.1604 25.125 25.0588C24.7609 24.6967 24.2944 24.224 23.8214 23.7433L22.2268 22.1455C22.1773 22.0951 22.1244 22.0479 22.0687 22.0044C22.013 22.0435 21.9614 22.0881 21.9146 22.1375C21.7365 22.3146 21.5611 22.493 21.383 22.6701L20.9525 23.1055L20.4741 23.5849C19.9785 24.0815 19.4829 24.5795 18.9806 25.0708C18.7513 25.3147 18.4556 25.4855 18.1301 25.5622C18.1049 25.5622 18.0783 25.5622 18.0531 25.5715C18.0052 25.5715 17.9587 25.5874 17.9122 25.5888H17.9002H17.8763C17.8604 25.5888 17.8444 25.5888 17.8272 25.5888H17.7634H17.7541H17.7209C17.6842 25.5851 17.6479 25.5793 17.6119 25.5715C17.5866 25.5715 17.5627 25.5555 17.5375 25.5488C17.2915 25.4711 17.0683 25.3339 16.8877 25.1494C16.6405 24.9057 16.3562 24.6168 16.0572 24.3199L14.2181 22.4824L13.7889 22.0523L13.7371 22.011L13.7172 22.0244C13.6811 22.0494 13.6469 22.077 13.6149 22.1069C13.5564 22.1615 13.4992 22.2201 13.4434 22.2773L12.5306 23.1947C11.902 23.8272 11.2735 24.461 10.6397 25.0881C10.2796 25.4463 9.89686 25.6127 9.50752 25.6008C9.48493 25.6008 9.46367 25.6008 9.44241 25.6008H9.43444H9.40122C9.3646 25.5971 9.32822 25.5913 9.29226 25.5835C9.26701 25.5835 9.24309 25.5675 9.21784 25.5608C8.97157 25.4828 8.74805 25.3457 8.56673 25.1614C8.3209 24.9177 8.03521 24.6288 7.73756 24.3318L5.89982 22.4944L5.03477 21.6276C4.95468 21.5493 4.88051 21.4652 4.81286 21.3759L4.49262 21.0377C4.24082 20.8042 4.08689 20.4836 4.06194 20.1407C4.03698 19.7978 4.14287 19.4582 4.35819 19.1905C4.57352 18.9228 4.88222 18.747 5.22191 18.6987C5.56161 18.6503 5.90696 18.733 6.18817 18.9299L6.19614 18.9379C6.3111 19.0213 6.41869 19.1144 6.51771 19.2162C7.30835 20.0045 8.57736 21.304 9.36401 22.1029C9.4203 22.1603 9.47974 22.2146 9.54207 22.2654L9.56333 22.2813C9.62224 22.2427 9.67702 22.1981 9.72677 22.1482C9.90483 21.9711 10.0802 21.7927 10.2583 21.6156C10.4018 21.4718 10.544 21.3253 10.6888 21.1815L11.1672 20.7022C11.6628 20.2055 12.1585 19.7075 12.6594 19.2162L12.678 19.2016C12.8045 19.0433 12.9652 18.9157 13.1479 18.8285C13.3307 18.7414 13.5307 18.6968 13.7331 18.6983H13.7477C13.9577 18.7015 14.164 18.753 14.351 18.8487C14.4059 18.8774 14.4588 18.9098 14.5091 18.9459L14.5171 18.9539C14.6321 19.0373 14.7397 19.1304 14.8387 19.2322C15.2014 19.5944 15.6679 20.0657 16.1409 20.5464L17.7355 22.1442C17.7851 22.1946 17.8379 22.2418 17.8936 22.2853C17.949 22.2458 18.0006 22.2013 18.0477 22.1522C18.2258 21.9751 18.4012 21.7967 18.5793 21.6196C18.7228 21.4758 18.865 21.3293 19.0098 21.1855L19.4882 20.7062C19.9838 20.2095 20.4795 19.7115 20.9804 19.2202C21.2103 18.9766 21.5065 18.8058 21.8322 18.7289C21.8574 18.7289 21.884 18.7289 21.9092 18.7196C21.9558 18.7111 22.0029 18.7053 22.0501 18.7023H22.0581H22.0833H22.1312C22.1537 18.7023 22.1763 18.7023 22.1963 18.7023H22.2056H22.2388C22.2754 18.7062 22.3117 18.712 22.3477 18.7196C22.373 18.7196 22.3969 18.7355 22.4222 18.7422C22.668 18.8203 22.8911 18.9574 23.0719 19.1416C23.3178 19.3853 23.6035 19.6742 23.8998 19.9698C24.5137 20.5823 25.1272 21.1953 25.7402 21.8086L26.1694 22.2387L26.2199 22.28L26.2411 22.2667C26.2772 22.2417 26.3114 22.2141 26.3435 22.1841C26.4019 22.1295 26.4591 22.071 26.5149 22.0137L27.4278 21.0963C28.0563 20.4638 28.6848 19.83 29.3187 19.2029C29.6774 18.8447 30.0615 18.6783 30.4508 18.6903H30.5146H30.5239H30.5571C30.5937 18.694 30.6301 18.6998 30.6661 18.7076C30.6913 18.7076 30.7152 18.7236 30.7405 18.7302C30.9865 18.808 31.2096 18.9452 31.3903 19.1297C31.6374 19.3733 31.9218 19.6623 32.2181 19.9579C32.832 20.5704 33.4455 21.1833 34.0585 21.7967L34.9235 22.6635C35.0033 22.7421 35.0774 22.8262 35.1455 22.9151L35.4697 23.24C35.624 23.3831 35.7431 23.5602 35.8176 23.7572C35.892 23.9543 35.9197 24.166 35.8986 24.3756C35.8775 24.5853 35.8081 24.7871 35.6958 24.9653C35.5836 25.1435 35.4316 25.2931 35.2518 25.4024L35.2531 25.4064Z" fill="#00DED2"/>
<path d="M9.54223 17.689C10.293 17.689 10.9016 17.0791 10.9016 16.3268C10.9016 15.5746 10.293 14.9647 9.54223 14.9647C8.79147 14.9647 8.18286 15.5746 8.18286 16.3268C8.18286 17.0791 8.79147 17.689 9.54223 17.689Z" fill="#00DED2"/>
<path d="M17.8977 17.689C18.6485 17.689 19.2571 17.0791 19.2571 16.3268C19.2571 15.5746 18.6485 14.9647 17.8977 14.9647C17.1469 14.9647 16.5383 15.5746 16.5383 16.3268C16.5383 17.0791 17.1469 17.689 17.8977 17.689Z" fill="#00DED2"/>
<path d="M26.2424 17.689C26.9932 17.689 27.6018 17.0791 27.6018 16.3268C27.6018 15.5746 26.9932 14.9647 26.2424 14.9647C25.4917 14.9647 24.8831 15.5746 24.8831 16.3268C24.8831 17.0791 25.4917 17.689 26.2424 17.689Z" fill="#00DED2"/>
<path d="M34.5874 17.689C35.3382 17.689 35.9468 17.0791 35.9468 16.3268C35.9468 15.5746 35.3382 14.9647 34.5874 14.9647C33.8366 14.9647 33.228 15.5746 33.228 16.3268C33.228 17.0791 33.8366 17.689 34.5874 17.689Z" fill="#00DED2"/>
<path d="M71.1415 17.6132C71.9853 17.2617 73.1347 17.0806 74.5406 17.0806C75.3243 17.0774 76.1073 17.0307 76.8859 16.9408C78.9695 16.7051 80.3581 16.0087 81.1381 14.8197C81.5684 14.1336 81.8086 13.3451 81.8341 12.5352C81.8595 11.7253 81.6693 10.9232 81.2829 10.2113C80.9144 9.53333 80.4013 8.94505 79.78 8.48838C79.121 8.01259 78.3839 7.65613 77.6021 7.43516C75.3883 6.78139 73.0111 6.98112 71.091 7.98507C69.0725 9.03563 67.5351 11.0715 66.8733 13.5681C66.0894 16.5293 66.6926 20.0272 68.4121 22.4771C69.7994 24.4531 72.1474 25.5875 74.8568 25.5875C76.1245 25.6051 77.3788 25.3266 78.5203 24.774C79.3737 24.3528 80.151 23.7921 80.8205 23.1149C80.9272 23.0058 81.0132 22.8781 81.0743 22.7381C81.1928 22.5178 81.2523 22.2705 81.2467 22.0203C81.2411 21.7701 81.1708 21.5256 81.0426 21.3108C80.9144 21.096 80.7327 20.9183 80.5154 20.7951C80.298 20.6718 80.0524 20.6073 79.8026 20.6077C79.512 20.6071 79.2281 20.6959 78.9894 20.862C78.9562 20.8855 78.9246 20.9113 78.8951 20.9393L78.8379 20.9872C78.8138 21.0063 78.7907 21.0267 78.7688 21.0484L78.7409 21.0724C78.4315 21.4036 78.085 21.6981 77.7084 21.9499C77.2976 22.2246 76.8561 22.4503 76.3929 22.6223C75.3337 22.9936 74.1763 22.9695 73.1334 22.5544C72.5649 22.3371 72.0343 22.0311 71.5614 21.6476C71.1179 21.2915 70.7401 20.8602 70.4452 20.3734C70.1895 19.9575 70.0516 19.4797 70.0465 18.9913C70.0452 18.3748 70.404 17.9221 71.1415 17.6132ZM75.0269 14.2272C74.5565 14.2272 74.0117 14.2485 73.4058 14.2924C72.7989 14.3359 72.1961 14.4249 71.6026 14.5587C71.0174 14.6897 70.4481 14.8834 69.9044 15.1366C69.7533 15.2069 69.6061 15.2851 69.4632 15.3709C69.5084 15.1938 69.5522 14.9329 69.6067 14.572C69.6346 14.3789 69.6599 14.2125 69.6798 14.1393C69.8109 13.6542 70.0005 13.1869 70.2445 12.7479C70.7144 11.8828 71.398 11.1529 72.2298 10.6281C73.0164 10.1421 74.1446 9.8292 75.2634 9.8292C76.5736 9.8292 77.8705 10.2606 78.5854 11.3524C78.9389 11.893 79.0705 12.7772 78.6147 13.3497C78.127 13.9622 77.1636 14.11 76.4806 14.1686C75.9969 14.2059 75.5079 14.2272 75.0269 14.2272Z" fill="#00DED2"/>
<path d="M64.3141 7.13816C63.9673 7.01642 63.5864 7.03767 63.2553 7.19722C62.9241 7.35677 62.6697 7.64156 62.5481 7.98899L58.357 19.8647L54.5447 8.06754C54.52 7.99818 54.4907 7.93056 54.457 7.86516L54.4464 7.84385C54.4317 7.81589 54.4158 7.78926 54.3972 7.75997C54.2359 7.47218 53.9764 7.25235 53.6664 7.14082C53.4944 7.07964 53.3121 7.05306 53.1299 7.0626C52.9476 7.07213 52.7691 7.1176 52.6044 7.19638C52.4398 7.27517 52.2922 7.38573 52.1703 7.52174C52.0483 7.65775 51.9544 7.81653 51.8937 7.98899L47.704 19.862L43.8651 8.02227C43.7509 7.67179 43.5025 7.3811 43.1744 7.21418C42.8463 7.04725 42.4655 7.01775 42.1157 7.13216C41.766 7.24658 41.4759 7.49554 41.3093 7.82428C41.1427 8.15301 41.1132 8.5346 41.2274 8.88509L46.326 24.6328C46.4142 24.9094 46.5868 25.1514 46.8194 25.3246C47.0521 25.4978 47.3332 25.5935 47.623 25.5981H47.6455C47.9327 25.597 48.2124 25.5068 48.4463 25.3399C48.6802 25.173 48.8568 24.9376 48.9518 24.666L53.1521 12.7744L56.9844 24.6248C57.0724 24.9012 57.2448 25.1431 57.4772 25.3162C57.7096 25.4894 57.9904 25.5852 58.28 25.5901H58.3026C58.5898 25.5889 58.8697 25.4986 59.1038 25.3318C59.3379 25.1649 59.5147 24.9296 59.6101 24.6581L65.1618 8.92104C65.2849 8.57194 65.2648 8.18818 65.1059 7.85394C64.9469 7.51971 64.6622 7.26229 64.3141 7.13816Z" fill="#00DED2"/>
<path d="M104.565 7.05701C104.187 7.05912 103.825 7.21136 103.558 7.48039C103.292 7.74942 103.142 8.11331 103.143 8.49237V24.1588C103.143 24.5367 103.293 24.8991 103.56 25.1662C103.826 25.4334 104.188 25.5835 104.565 25.5835C104.942 25.5835 105.304 25.4334 105.57 25.1662C105.837 24.8991 105.987 24.5367 105.987 24.1588V8.49237C105.987 8.11331 105.838 7.74942 105.572 7.48039C105.305 7.21136 104.943 7.05912 104.565 7.05701Z" fill="#00DED2"/>
<path d="M92.1313 7.05699C88.0917 7.19015 84.8056 10.7146 84.8056 14.9129V24.1348C84.7997 24.3292 84.8329 24.5228 84.903 24.7041C84.9732 24.8854 85.079 25.0508 85.2141 25.1903C85.3493 25.3299 85.511 25.4409 85.6897 25.5167C85.8685 25.5924 86.0606 25.6315 86.2546 25.6315C86.4487 25.6315 86.6408 25.5924 86.8196 25.5167C86.9983 25.4409 87.16 25.3299 87.2952 25.1903C87.4303 25.0508 87.5361 24.8854 87.6063 24.7041C87.6765 24.5228 87.7096 24.3292 87.7037 24.1348V14.8143C87.7037 12.2339 89.7115 10.0449 92.1791 9.9357C92.8137 9.90475 93.4478 10.0048 94.0421 10.2298C94.6365 10.4547 95.1783 10.7997 95.634 11.2432C96.0944 11.6851 96.4602 12.2163 96.7092 12.8043C96.9582 13.3924 97.0852 14.0251 97.0824 14.6639V24.1348C97.0824 24.5198 97.235 24.8889 97.5066 25.1611C97.7782 25.4333 98.1466 25.5862 98.5308 25.5862C98.9149 25.5862 99.2833 25.4333 99.5549 25.1611C99.8266 24.8889 99.9792 24.5198 99.9792 24.1348V14.7131C99.9835 13.6869 99.7809 12.6704 99.3836 11.7245C98.9863 10.7787 98.4024 9.92297 97.6671 9.2087C96.9393 8.49103 96.0729 7.92997 95.1209 7.55996C94.169 7.18995 93.1516 7.01879 92.1313 7.05699Z" fill="#00DED2"/>
</svg>
