<svg width="15" height="15" viewBox="0 0 15 15" fill="none" xmlns="http://www.w3.org/2000/svg">
<path d="M3.80032 4.62471C3.86262 4.6734 3.94109 4.69661 4.01985 4.68966C4.09861 4.68272 4.1718 4.64612 4.22461 4.58727C4.62813 4.13572 5.12114 3.77301 5.67233 3.52218C6.22353 3.27136 6.82086 3.13789 7.42639 3.13026C8.03192 3.12264 8.63242 3.24101 9.18976 3.47788C9.74709 3.71474 10.2491 4.06491 10.6638 4.50616C10.6929 4.5354 10.7274 4.55861 10.7654 4.57445C10.8034 4.59029 10.8442 4.59844 10.8854 4.59844C10.9265 4.59844 10.9673 4.59029 11.0053 4.57445C11.0433 4.55861 11.0779 4.5354 11.1069 4.50616L12.9288 2.79651C12.9581 2.76751 12.9813 2.73301 12.9971 2.69499C13.0129 2.65697 13.0211 2.6162 13.0211 2.57501C13.0211 2.53383 13.0129 2.49305 12.9971 2.45503C12.9813 2.41701 12.9581 2.38251 12.9288 2.35351C12.2094 1.58978 11.3375 0.985772 10.3697 0.580654C9.40181 0.175537 8.35963 -0.0216485 7.31068 0.00188363C6.26173 0.0254158 5.22944 0.26914 4.28074 0.717254C3.33204 1.16537 2.4881 1.80787 1.80366 2.60309C1.77502 2.63649 1.75376 2.67558 1.7413 2.71778C1.72883 2.75998 1.72543 2.80434 1.73133 2.84794C1.73722 2.89155 1.75227 2.93342 1.77549 2.97079C1.79871 3.00817 1.82957 3.04021 1.86605 3.06482L3.80032 4.62471Z" fill="#EB4335"/>
<path d="M3.26372 9.23578C3.3089 9.19515 3.34124 9.14222 3.35676 9.08347C3.37228 9.02472 3.3703 8.96272 3.35108 8.90508C3.04254 8.00312 3.04254 7.0242 3.35108 6.12224C3.3716 6.0617 3.37303 5.99631 3.35517 5.93494C3.33732 5.87356 3.30104 5.81914 3.25124 5.77906L1.2109 4.15053C1.17444 4.12149 1.13194 4.10099 1.08652 4.09053C1.04109 4.08007 0.993905 4.07992 0.948417 4.0901C0.90293 4.10027 0.8603 4.12051 0.823661 4.14932C0.787022 4.17814 0.757306 4.2148 0.736696 4.2566C0.23644 5.29578 -0.015504 6.43699 0.000738325 7.5902C0.0169807 8.74341 0.300965 9.87707 0.830289 10.9017C0.852282 10.9442 0.883722 10.981 0.922186 11.0093C0.960649 11.0376 1.00511 11.0568 1.05213 11.0652C1.09916 11.0736 1.14749 11.0712 1.19341 11.058C1.23933 11.0448 1.28161 11.0212 1.31698 10.9891L3.26372 9.23578Z" fill="#FBBC05"/>
<path d="M14.9692 6.55896C14.9692 6.47622 14.9363 6.39687 14.8778 6.33836C14.8193 6.27986 14.7399 6.24699 14.6572 6.24699H8.41763C8.33489 6.24699 8.25554 6.27986 8.19703 6.33836C8.13852 6.39687 8.10565 6.47622 8.10565 6.55896V9.05479C8.10565 9.13753 8.13852 9.21689 8.19703 9.2754C8.25554 9.3339 8.33489 9.36677 8.41763 9.36677H11.4376C11.2538 9.74766 11.0141 10.0989 10.7263 10.4088C10.6745 10.4661 10.6459 10.5406 10.6459 10.6178C10.6459 10.695 10.6745 10.7695 10.7263 10.8268L12.3922 12.6987C12.4214 12.7299 12.4567 12.7547 12.4959 12.7717C12.535 12.7887 12.5773 12.7975 12.62 12.7975C12.6627 12.7975 12.7049 12.7887 12.7441 12.7717C12.7833 12.7547 12.8185 12.7299 12.8477 12.6987C14.1173 11.3995 14.8713 9.68312 14.9692 7.86927V6.55896Z" fill="#4285F4"/>
<path d="M9.67802 11.5257C9.63354 11.4763 9.57445 11.4423 9.50935 11.4289C9.44425 11.4154 9.37655 11.4231 9.31612 11.4508C8.47614 11.8463 7.53115 11.961 6.62095 11.7778C5.71075 11.5947 4.88367 11.1234 4.26207 10.4337C4.20375 10.3766 4.12534 10.3446 4.04368 10.3446C3.96202 10.3446 3.88362 10.3766 3.8253 10.4337L1.95343 12.1059C1.92419 12.1349 1.90098 12.1694 1.88514 12.2075C1.8693 12.2455 1.86115 12.2863 1.86115 12.3274C1.86115 12.3686 1.8693 12.4094 1.88514 12.4474C1.90098 12.4854 1.92419 12.5199 1.95343 12.549C3.11328 13.8249 4.67795 14.6614 6.38317 14.9171C8.08839 15.1729 9.82963 14.8323 11.3128 13.9529C11.3522 13.9294 11.3859 13.8976 11.4116 13.8597C11.4374 13.8217 11.4544 13.7786 11.4615 13.7333C11.4687 13.6881 11.4658 13.6418 11.453 13.5977C11.4402 13.5537 11.4179 13.5131 11.3877 13.4786L9.67802 11.5257Z" fill="#34A853"/>
</svg>
