<svg width="15" height="15" viewBox="0 0 15 15" fill="none" xmlns="http://www.w3.org/2000/svg">
<path d="M7.51274 3.31778e-07C5.72474 -0.000530876 3.99521 0.636839 2.63514 1.7975C1.27506 2.95817 0.373686 4.56597 0.0930827 6.33181C-0.187521 8.09765 0.171061 9.90567 1.10435 11.4308C2.03764 12.9559 3.4844 14.098 5.18449 14.6517H5.36599C5.45454 14.6572 5.54325 14.6438 5.62623 14.6124C5.70921 14.581 5.78457 14.5323 5.8473 14.4696C5.91004 14.4069 5.95872 14.3315 5.99012 14.2485C6.02151 14.1655 6.03491 14.0768 6.02942 13.9883V13.8569V13.1746C6.02327 13.1336 6.00904 13.0943 5.98756 13.0588C5.96607 13.0234 5.93775 12.9925 5.90424 12.9681C5.86789 12.9387 5.8254 12.9178 5.77991 12.907C5.73442 12.8962 5.68708 12.8957 5.64137 12.9055C3.96403 13.2685 3.60728 12.2171 3.58225 12.1482C3.37221 11.5919 2.99645 11.1134 2.50574 10.7776C2.47634 10.7521 2.44495 10.7291 2.41186 10.7087C2.48459 10.6696 2.56779 10.6542 2.6497 10.6649C2.807 10.6868 2.95597 10.749 3.0821 10.8455C3.20822 10.942 3.30722 11.0695 3.36945 11.2157C3.61157 11.6372 4.00777 11.9485 4.47469 12.0839C4.94161 12.2193 5.44285 12.1683 5.87295 11.9417C5.9191 11.9215 5.9597 11.8905 5.9913 11.8513C6.0229 11.812 6.04456 11.7658 6.05445 11.7164C6.07841 11.4269 6.20232 11.1547 6.40494 10.9465C6.44992 10.9066 6.48244 10.8545 6.49859 10.7966C6.51474 10.7386 6.51385 10.6772 6.49602 10.6198C6.47819 10.5623 6.44418 10.5112 6.39805 10.4726C6.35193 10.434 6.29565 10.4095 6.23595 10.402C4.75263 10.233 3.23802 9.71357 3.23802 7.15374C3.22551 6.51089 3.46082 5.88788 3.89518 5.41381C3.93519 5.36963 3.96174 5.31493 3.97172 5.25617C3.9817 5.1974 3.97469 5.13701 3.95151 5.0821C3.77757 4.59613 3.77979 4.06451 3.95777 3.58C4.53597 3.68249 5.07867 3.93015 5.53498 4.29976C5.57267 4.32636 5.61589 4.34412 5.6614 4.35171C5.70691 4.35929 5.75355 4.35651 5.79784 4.34357C6.35693 4.19191 6.93345 4.11405 7.51274 4.11199C8.09419 4.11248 8.67299 4.19036 9.23389 4.34357C9.27726 4.35553 9.32273 4.35781 9.36707 4.35024C9.41142 4.34267 9.45356 4.32543 9.4905 4.29976C9.94752 3.93132 10.4899 3.6838 11.0677 3.58C11.2381 4.06191 11.2381 4.58767 11.0677 5.06958C11.0445 5.1245 11.0375 5.18489 11.0475 5.24365C11.0575 5.30242 11.084 5.35711 11.124 5.40129C11.5539 5.87062 11.7889 6.48605 11.7812 7.12245C11.7812 9.68227 10.2603 10.1955 8.77074 10.3645C8.70965 10.3708 8.65178 10.395 8.60434 10.4341C8.55691 10.4731 8.522 10.5252 8.50399 10.5839C8.48597 10.6427 8.48563 10.7054 8.50302 10.7643C8.5204 10.8232 8.55474 10.8757 8.60176 10.9152C8.7404 11.0583 8.84633 11.2298 8.91224 11.4178C8.97816 11.6058 9.00248 11.8059 8.98354 12.0043V13.9945C8.98044 14.0924 8.99904 14.1897 9.03799 14.2795C9.07695 14.3693 9.1353 14.4494 9.20886 14.514C9.30253 14.5842 9.4113 14.6314 9.52648 14.6521C9.64167 14.6727 9.76008 14.6662 9.87228 14.6329C11.561 14.068 12.994 12.9215 13.9156 11.3979C14.8373 9.87429 15.1877 8.0728 14.9042 6.31484C14.6207 4.55688 13.7219 2.95682 12.368 1.80017C11.0142 0.643514 9.2934 0.00551105 7.51274 3.31778e-07Z" fill="#3B414D"/>
</svg>
