<svg width="19" height="18" viewBox="0 0 19 18" fill="none" xmlns="http://www.w3.org/2000/svg">
<path d="M5.07894 5.54965C5.1537 5.60808 5.24786 5.63594 5.34237 5.6276C5.43689 5.61926 5.52471 5.57534 5.58809 5.50473C6.07231 4.96286 6.66392 4.52761 7.32535 4.22662C7.98678 3.92563 8.70358 3.76547 9.43022 3.75632C10.1569 3.74716 10.8775 3.88922 11.5463 4.17345C12.2151 4.45769 12.8175 4.87789 13.3152 5.40739C13.35 5.44248 13.3914 5.47033 13.437 5.48934C13.4826 5.50834 13.5316 5.51813 13.581 5.51813C13.6304 5.51813 13.6793 5.50834 13.725 5.48934C13.7706 5.47033 13.812 5.44248 13.8468 5.40739L16.0331 3.35582C16.0682 3.32101 16.0961 3.27961 16.1151 3.23399C16.1341 3.18837 16.1439 3.13943 16.1439 3.09001C16.1439 3.04059 16.1341 2.99166 16.1151 2.94604C16.0961 2.90042 16.0682 2.85901 16.0331 2.82421C15.1698 1.90773 14.1236 1.18293 12.9621 0.696785C11.8007 0.210644 10.5501 -0.0259783 9.29137 0.00226036C8.03263 0.030499 6.79388 0.322968 5.65544 0.860704C4.517 1.39844 3.50428 2.16944 2.68295 3.12371C2.64857 3.16379 2.62307 3.21069 2.60811 3.26133C2.59315 3.31197 2.58907 3.3652 2.59615 3.41753C2.60322 3.46986 2.62128 3.5201 2.64914 3.56495C2.67701 3.6098 2.71404 3.64826 2.75782 3.67778L5.07894 5.54965Z" fill="#EB4335"/>
<path d="M4.43502 11.0829C4.48924 11.0341 4.52804 10.9706 4.54666 10.9001C4.56529 10.8296 4.56292 10.7552 4.53985 10.6861C4.16961 9.60371 4.16961 8.429 4.53985 7.34664C4.56447 7.274 4.56619 7.19554 4.54476 7.12188C4.52333 7.04823 4.4798 6.98293 4.42005 6.93483L1.97164 4.9806C1.92789 4.94575 1.87688 4.92114 1.82238 4.90859C1.76787 4.89604 1.71124 4.89587 1.65666 4.90808C1.60207 4.92029 1.55091 4.94457 1.50695 4.97915C1.46298 5.01373 1.42732 5.05772 1.40259 5.10789C0.802283 6.3549 0.49995 7.72435 0.519441 9.1082C0.538932 10.492 0.879713 11.8524 1.5149 13.0821C1.54129 13.133 1.57902 13.1771 1.62518 13.2111C1.67133 13.2451 1.72468 13.2681 1.78111 13.2782C1.83754 13.2883 1.89555 13.2854 1.95065 13.2695C2.00575 13.2537 2.05648 13.2254 2.09893 13.1869L4.43502 11.0829Z" fill="#FBBC05"/>
<path d="M18.4816 7.87071C18.4816 7.77142 18.4422 7.6762 18.3719 7.60599C18.3017 7.53578 18.2065 7.49634 18.1072 7.49634H10.6197C10.5204 7.49634 10.4252 7.53578 10.355 7.60599C10.2848 7.6762 10.2454 7.77142 10.2454 7.87071V10.8657C10.2454 10.965 10.2848 11.0602 10.355 11.1304C10.4252 11.2006 10.5204 11.2401 10.6197 11.2401H14.2437C14.0232 11.6971 13.7354 12.1186 13.3901 12.4905C13.328 12.5593 13.2937 12.6487 13.2937 12.7413C13.2937 12.834 13.328 12.9234 13.3901 12.9922L15.3893 15.2384C15.4243 15.2758 15.4666 15.3056 15.5136 15.326C15.5606 15.3464 15.6113 15.3569 15.6626 15.3569C15.7138 15.3569 15.7645 15.3464 15.8115 15.326C15.8585 15.3056 15.9008 15.2758 15.9359 15.2384C17.4593 13.6794 18.3641 11.6197 18.4816 9.44308V7.87071Z" fill="#4285F4"/>
<path d="M12.1322 13.8308C12.0788 13.7715 12.0079 13.7308 11.9298 13.7146C11.8517 13.6985 11.7704 13.7077 11.6979 13.7409C10.6899 14.2156 9.55596 14.3532 8.46372 14.1334C7.37147 13.9136 6.37898 13.3481 5.63306 12.5205C5.56308 12.4519 5.46899 12.4135 5.371 12.4135C5.27301 12.4135 5.17892 12.4519 5.10894 12.5205L2.86269 14.5271C2.8276 14.5619 2.79975 14.6033 2.78075 14.6489C2.76174 14.6946 2.75195 14.7435 2.75195 14.7929C2.75195 14.8423 2.76174 14.8913 2.78075 14.9369C2.79975 14.9825 2.8276 15.0239 2.86269 15.0587C4.25451 16.5898 6.13212 17.5936 8.17838 17.9005C10.2246 18.2075 12.3141 17.7988 14.0939 16.7434C14.1412 16.7153 14.1817 16.6771 14.2126 16.6316C14.2434 16.5861 14.2639 16.5343 14.2724 16.48C14.281 16.4257 14.2775 16.3701 14.2622 16.3173C14.2469 16.2645 14.2201 16.2157 14.1838 16.1744L12.1322 13.8308Z" fill="#34A853"/>
</svg>
