<svg width="396" height="396" viewBox="0 0 396 396" fill="none" xmlns="http://www.w3.org/2000/svg">
<g style="mix-blend-mode:multiply" opacity="0.2">
<path d="M9.66395 86.1339C12.1048 84.6522 14.8866 83.8253 17.7405 83.733C20.5944 83.6408 23.4238 84.2864 25.9553 85.6073C26.6342 85.9602 27.2891 86.3573 27.9159 86.7961L28.0201 86.8998C29.4357 87.9286 30.7609 89.0763 31.9813 90.3304C41.7306 100.024 57.4241 116.07 67.1294 125.803C67.8216 126.512 68.5567 127.178 69.3304 127.796L69.3409 127.789C69.4197 127.844 69.5363 127.939 69.5997 127.979C70.3345 127.484 71.0139 126.912 71.6261 126.272C73.8201 124.102 75.9862 121.904 78.1562 119.706C79.9194 117.919 81.6865 116.128 83.4657 114.353L89.3695 108.445C95.4927 102.318 101.612 96.1943 107.807 90.1389C107.881 90.0669 107.955 90.021 108.028 89.9502C109.593 88.0007 111.578 86.4304 113.835 85.357C116.092 84.2836 118.563 83.7349 121.063 83.7519C121.089 83.7475 121.116 83.7452 121.142 83.7452C121.174 83.7455 121.207 83.7569 121.239 83.7574C123.83 83.7885 126.378 84.4218 128.682 85.6073C129.361 85.9602 130.016 86.3573 130.642 86.7961L130.746 86.8998C132.162 87.9286 133.487 89.0763 134.707 90.3304C139.198 94.7951 144.956 100.615 150.803 106.538L170.494 126.162C171.103 126.784 171.753 127.363 172.44 127.896C173.13 127.42 173.771 126.876 174.353 126.272C176.546 124.102 178.713 121.904 180.883 119.706C182.646 117.919 184.413 116.128 186.192 114.353L192.096 108.445C198.219 102.318 204.338 96.1943 210.533 90.1389C214.005 86.746 217.512 84.7734 221.039 84.0838C221.357 84.0162 221.678 84.0149 221.997 83.9673C222.569 83.862 223.146 83.7918 223.726 83.7572C223.774 83.7577 223.821 83.7439 223.869 83.7452C223.969 83.7459 224.07 83.7801 224.17 83.7836C224.372 83.7821 224.572 83.726 224.774 83.7325C225.05 83.7404 225.321 83.7604 225.572 83.7883L225.683 83.7998C225.82 83.8145 225.957 83.827 226.093 83.8459C226.544 83.9008 226.988 83.9681 227.439 84.0675C227.748 84.1304 228.049 84.257 228.355 84.3388C231.398 85.3088 234.155 87.0115 236.385 89.2972C239.43 92.2997 242.941 95.8101 246.631 99.5214C254.2 107.062 261.764 114.608 269.323 122.157L274.62 127.452C274.854 127.65 275.085 127.842 275.257 127.97C275.329 127.924 275.426 127.852 275.508 127.796C275.512 127.799 275.519 127.805 275.523 127.808C275.97 127.496 276.394 127.152 276.792 126.778C277.518 126.108 278.212 125.398 278.906 124.692L290.175 113.375C297.942 105.581 305.723 97.8032 313.519 90.0432C317.963 85.6432 322.694 83.5809 327.501 83.7325C327.776 83.7404 328.047 83.7604 328.299 83.7883L328.409 83.7998C328.546 83.8145 328.682 83.8269 328.819 83.8459C329.27 83.9007 329.714 83.9681 330.165 84.0675C330.475 84.1304 330.775 84.257 331.082 84.3388C334.124 85.3087 336.881 87.0114 339.111 89.2972C342.157 92.2997 345.667 95.8101 349.357 99.5214C356.926 107.063 364.49 114.608 372.05 122.157L382.732 132.836C383.716 133.803 384.63 134.838 385.468 135.933L389.474 139.948C393.271 143.746 395.082 148.062 394.863 152.474C394.831 155.323 394.071 158.117 392.654 160.589C391.237 163.061 389.21 165.129 386.768 166.596C384.325 168.064 381.548 168.881 378.7 168.971C375.852 169.061 373.028 168.42 370.498 167.11C369.819 166.757 369.164 166.36 368.537 165.921L368.433 165.817C367.017 164.789 365.692 163.641 364.471 162.387C354.722 152.693 339.029 136.647 329.324 126.914C328.631 126.206 327.896 125.54 327.123 124.921L327.112 124.929C327.033 124.873 326.916 124.779 326.853 124.738C326.119 125.233 325.439 125.805 324.827 126.446C322.633 128.616 320.467 130.814 318.297 133.012C316.534 134.799 314.767 136.59 312.987 138.365L307.084 144.273C300.96 150.4 294.841 156.523 288.646 162.579C288.572 162.651 288.498 162.697 288.424 162.768C286.86 164.717 284.875 166.287 282.618 167.36C280.362 168.433 277.891 168.982 275.393 168.965C275.366 168.97 275.338 168.972 275.311 168.972C275.277 168.972 275.244 168.96 275.211 168.96C272.621 168.928 270.074 168.295 267.771 167.11C267.093 166.757 266.438 166.36 265.811 165.921L265.707 165.817C264.291 164.789 262.966 163.641 261.745 162.387C257.257 157.925 251.504 152.109 245.661 146.19L225.959 126.555C225.35 125.934 224.7 125.355 224.013 124.822C223.323 125.297 222.682 125.841 222.101 126.446C219.907 128.616 217.741 130.814 215.571 133.012C213.807 134.799 212.04 136.59 210.261 138.365L204.357 144.273C198.234 150.4 192.115 156.523 185.92 162.579C182.448 165.972 178.94 167.944 175.415 168.634C175.096 168.701 174.775 168.703 174.456 168.75C173.884 168.856 173.307 168.926 172.726 168.96C172.679 168.96 172.632 168.974 172.584 168.972C172.484 168.972 172.383 168.937 172.282 168.934C172.081 168.935 171.881 168.992 171.679 168.985C171.404 168.977 171.132 168.957 170.881 168.929L170.77 168.918C170.633 168.903 170.496 168.891 170.359 168.872C169.909 168.817 169.465 168.749 169.014 168.65C168.705 168.587 168.404 168.46 168.098 168.379C165.055 167.409 162.298 165.706 160.068 163.42C157.03 160.425 153.53 156.924 149.849 153.222C142.27 145.672 134.698 138.118 127.13 130.56L121.834 125.267C121.599 125.069 121.368 124.876 121.196 124.748C121.124 124.794 121.026 124.866 120.944 124.921C120.94 124.919 120.933 124.913 120.93 124.91C120.483 125.222 120.059 125.566 119.661 125.939C118.935 126.609 118.241 127.319 117.547 128.025L106.278 139.342C98.5114 147.137 90.7301 154.914 82.9341 162.674C78.4903 167.074 73.7592 169.137 68.9524 168.985C68.6772 168.977 68.4059 168.957 68.1546 168.929L68.0439 168.918C67.9068 168.903 67.7702 168.891 67.6335 168.872C67.1828 168.817 66.739 168.749 66.2878 168.65C65.9786 168.587 65.6779 168.46 65.3713 168.379C62.3289 167.409 59.5716 165.706 57.3418 163.42C54.3036 160.425 50.8032 156.924 47.1223 153.222C39.5446 145.672 31.9716 138.118 24.4035 130.56L13.7208 119.881C12.7368 118.915 11.8223 117.879 10.9843 116.784L6.97932 112.769C3.18174 108.971 1.37069 104.655 1.59009 100.243C1.60925 97.3957 2.36234 94.6013 3.77664 92.1297C5.19094 89.6582 7.21866 87.5931 9.66395 86.1339V86.1339Z" fill="#028380"/>
<path d="M9.66395 309.866C12.1048 311.348 14.8866 312.175 17.7405 312.267C20.5944 312.359 23.4238 311.714 25.9553 310.393C26.6342 310.04 27.2891 309.643 27.9159 309.204L28.0201 309.1C29.4357 308.071 30.7609 306.924 31.9813 305.67C41.7306 295.976 57.4241 279.93 67.1294 270.197C67.8216 269.488 68.5567 268.822 69.3304 268.204L69.3409 268.211C69.4197 268.156 69.5363 268.061 69.5997 268.021C70.3345 268.516 71.0139 269.088 71.6261 269.728C73.8201 271.898 75.9862 274.096 78.1562 276.294C79.9194 278.081 81.6865 279.872 83.4657 281.647L89.3695 287.555C95.4927 293.682 101.612 299.806 107.807 305.861C107.881 305.933 107.955 305.979 108.028 306.05C109.593 307.999 111.578 309.57 113.835 310.643C116.092 311.716 118.563 312.265 121.063 312.248C121.089 312.252 121.116 312.255 121.142 312.255C121.174 312.255 121.207 312.243 121.239 312.243C123.83 312.211 126.378 311.578 128.682 310.393C129.361 310.04 130.016 309.643 130.642 309.204L130.746 309.1C132.162 308.071 133.487 306.924 134.707 305.67C139.198 301.205 144.956 295.385 150.803 289.462L170.494 269.838C171.103 269.216 171.753 268.637 172.44 268.104C173.13 268.58 173.771 269.124 174.353 269.728C176.546 271.898 178.713 274.096 180.883 276.294C182.646 278.081 184.413 279.872 186.192 281.647L192.096 287.555C198.219 293.682 204.338 299.806 210.533 305.861C214.005 309.254 217.512 311.227 221.039 311.916C221.357 311.984 221.678 311.985 221.997 312.033C222.569 312.138 223.146 312.208 223.726 312.243C223.774 312.242 223.821 312.256 223.869 312.255C223.969 312.254 224.07 312.22 224.17 312.216C224.372 312.218 224.572 312.274 224.774 312.268C225.05 312.26 225.321 312.24 225.572 312.212L225.683 312.2C225.82 312.186 225.957 312.173 226.093 312.154C226.544 312.099 226.988 312.032 227.439 311.932C227.748 311.87 228.049 311.743 228.355 311.661C231.398 310.691 234.155 308.988 236.385 306.703C239.43 303.7 242.941 300.19 246.631 296.479C254.2 288.937 261.764 281.392 269.323 273.843L274.62 268.548C274.854 268.35 275.085 268.158 275.257 268.03C275.329 268.076 275.426 268.148 275.508 268.204C275.512 268.201 275.519 268.195 275.523 268.192C275.97 268.504 276.394 268.848 276.792 269.222C277.518 269.892 278.212 270.602 278.906 271.308L290.175 282.625C297.942 290.419 305.723 298.197 313.519 305.957C317.963 310.357 322.694 312.419 327.501 312.268C327.776 312.26 328.047 312.24 328.299 312.212L328.409 312.2C328.546 312.186 328.682 312.173 328.819 312.154C329.27 312.099 329.714 312.032 330.165 311.932C330.475 311.87 330.775 311.743 331.082 311.661C334.124 310.691 336.881 308.989 339.111 306.703C342.157 303.7 345.667 300.19 349.357 296.479C356.926 288.937 364.49 281.392 372.05 273.843L382.732 263.164C383.716 262.197 384.63 261.162 385.468 260.067L389.474 256.052C393.271 252.254 395.082 247.938 394.863 243.526C394.831 240.677 394.071 237.883 392.654 235.411C391.237 232.939 389.21 230.871 386.768 229.404C384.325 227.936 381.548 227.119 378.7 227.029C375.852 226.939 373.028 227.58 370.498 228.89C369.819 229.243 369.164 229.64 368.537 230.079L368.433 230.183C367.017 231.211 365.692 232.359 364.471 233.613C354.722 243.307 339.029 259.353 329.324 269.086C328.631 269.794 327.896 270.46 327.123 271.079L327.112 271.071C327.033 271.127 326.916 271.221 326.853 271.262C326.119 270.767 325.439 270.195 324.827 269.554C322.633 267.384 320.467 265.186 318.297 262.988C316.534 261.201 314.767 259.41 312.987 257.635L307.084 251.727C300.96 245.6 294.841 239.477 288.646 233.421C288.572 233.349 288.498 233.303 288.424 233.232C286.86 231.283 284.875 229.713 282.618 228.64C280.362 227.567 277.891 227.018 275.393 227.035C275.366 227.03 275.338 227.028 275.311 227.028C275.277 227.028 275.244 227.04 275.211 227.04C272.621 227.072 270.074 227.705 267.771 228.89C267.093 229.243 266.438 229.64 265.811 230.079L265.707 230.183C264.291 231.211 262.966 232.359 261.745 233.613C257.257 238.075 251.504 243.891 245.661 249.81L225.959 269.445C225.35 270.066 224.7 270.645 224.013 271.178C223.323 270.703 222.682 270.159 222.101 269.554C219.907 267.384 217.741 265.186 215.571 262.988C213.807 261.201 212.04 259.41 210.261 257.635L204.357 251.727C198.234 245.6 192.115 239.477 185.92 233.421C182.448 230.028 178.94 228.056 175.415 227.366C175.096 227.299 174.775 227.297 174.456 227.25C173.884 227.144 173.307 227.074 172.726 227.04C172.679 227.04 172.632 227.026 172.584 227.028C172.484 227.028 172.383 227.063 172.282 227.066C172.081 227.065 171.881 227.008 171.679 227.015C171.404 227.023 171.132 227.043 170.881 227.071L170.77 227.082C170.633 227.097 170.496 227.109 170.359 227.128C169.909 227.183 169.465 227.251 169.014 227.35C168.705 227.413 168.404 227.539 168.098 227.621C165.055 228.591 162.298 230.294 160.068 232.58C157.03 235.575 153.53 239.076 149.849 242.778C142.27 250.328 134.698 257.882 127.13 265.44L121.834 270.733C121.599 270.931 121.368 271.124 121.196 271.252C121.124 271.206 121.026 271.134 120.944 271.079C120.94 271.081 120.933 271.087 120.93 271.09C120.483 270.778 120.059 270.434 119.661 270.061C118.935 269.391 118.241 268.681 117.547 267.975L106.278 256.658C98.5114 248.863 90.7301 241.086 82.9341 233.326C78.4903 228.926 73.7593 226.863 68.9524 227.015C68.6772 227.023 68.4059 227.043 68.1546 227.071L68.0439 227.082C67.9068 227.097 67.7702 227.109 67.6336 227.128C67.1828 227.183 66.739 227.251 66.2878 227.35C65.9786 227.413 65.6779 227.54 65.3713 227.621C62.329 228.591 59.5716 230.294 57.3418 232.58C54.3036 235.575 50.8032 239.076 47.1223 242.778C39.5446 250.328 31.9716 257.882 24.4035 265.44L13.7208 276.119C12.7368 277.085 11.8223 278.121 10.9843 279.216L6.97929 283.231C3.18172 287.029 1.37069 291.345 1.59009 295.757C1.60926 298.604 2.36236 301.399 3.77666 303.87C5.19096 306.342 7.21867 308.407 9.66395 309.866V309.866Z" fill="#028380"/>
<path d="M327.132 214.778C317.866 214.778 310.354 207.266 310.354 198C310.354 188.734 317.866 181.222 327.132 181.222C336.398 181.222 343.91 188.734 343.91 198C343.91 207.266 336.398 214.778 327.132 214.778Z" fill="#028380"/>
<path d="M223.953 214.778C214.687 214.778 207.175 207.266 207.175 198C207.175 188.734 214.687 181.222 223.953 181.222C233.219 181.222 240.731 188.734 240.731 198C240.731 207.266 233.219 214.778 223.953 214.778Z" fill="#028380"/>
<path d="M120.925 214.778C111.659 214.778 104.147 207.266 104.147 198C104.147 188.734 111.659 181.222 120.925 181.222C130.191 181.222 137.703 188.734 137.703 198C137.703 207.266 130.191 214.778 120.925 214.778Z" fill="#028380"/>
<path d="M17.8971 214.778C8.63095 214.778 1.11923 207.266 1.11923 198C1.11923 188.734 8.63095 181.222 17.8971 181.222C27.1633 181.222 34.675 188.734 34.675 198C34.675 207.266 27.1633 214.778 17.8971 214.778Z" fill="#028380"/>
</g>
</svg>
