<svg width="19" height="18" viewBox="0 0 19 18" fill="none" xmlns="http://www.w3.org/2000/svg">
<path d="M9.51529 0.201661C7.36969 0.201023 5.29425 0.965868 3.66216 2.35866C2.03008 3.75146 0.948423 5.68083 0.611699 7.79984C0.274975 9.91884 0.705273 12.0885 1.82522 13.9186C2.94516 15.7487 4.68128 17.1192 6.72138 17.7837H6.93919C7.04545 17.7903 7.1519 17.7742 7.25147 17.7366C7.35105 17.6989 7.44148 17.6405 7.51676 17.5652C7.59205 17.4899 7.65046 17.3995 7.68814 17.2999C7.72582 17.2003 7.74189 17.0939 7.7353 16.9876V16.8299V16.0112C7.72793 15.962 7.71085 15.9148 7.68507 15.8722C7.65928 15.8297 7.6253 15.7927 7.58509 15.7634C7.54146 15.7281 7.49048 15.703 7.43589 15.69C7.38131 15.677 7.3245 15.6764 7.26965 15.6883C5.25684 16.1239 4.82874 14.8621 4.7987 14.7795C4.54665 14.1119 4.09574 13.5378 3.50689 13.1347C3.47161 13.1042 3.43394 13.0766 3.39424 13.0521C3.48151 13.0051 3.58134 12.9867 3.67963 12.9995C3.8684 13.0258 4.04716 13.1004 4.19851 13.2163C4.34987 13.3321 4.46866 13.4851 4.54334 13.6605C4.83388 14.1663 5.30932 14.5398 5.86963 14.7023C6.42993 14.8648 7.03142 14.8036 7.54754 14.5317C7.60292 14.5075 7.65164 14.4702 7.68956 14.4232C7.72748 14.3761 7.75348 14.3206 7.76534 14.2613C7.7941 13.9139 7.94279 13.5873 8.18593 13.3375C8.23991 13.2896 8.27892 13.2271 8.29831 13.1576C8.31769 13.088 8.31662 13.0144 8.29522 12.9454C8.27383 12.8765 8.23301 12.8151 8.17766 12.7688C8.12231 12.7225 8.05478 12.693 7.98315 12.6841C6.20316 12.4813 4.38562 11.8579 4.38562 8.78615C4.37062 8.01473 4.65299 7.26712 5.17422 6.69823C5.22223 6.64521 5.25409 6.57958 5.26607 6.50906C5.27804 6.43855 5.26963 6.36607 5.24182 6.30018C5.03308 5.71701 5.03574 5.07907 5.24933 4.49766C5.94317 4.62065 6.5944 4.91784 7.14197 5.36137C7.18721 5.39329 7.23907 5.4146 7.29368 5.42371C7.3483 5.43281 7.40426 5.42947 7.45741 5.41394C8.12831 5.23195 8.82014 5.13852 9.51529 5.13605C10.213 5.13664 10.9076 5.23009 11.5807 5.41394C11.6327 5.4283 11.6873 5.43103 11.7405 5.42195C11.7937 5.41286 11.8443 5.39218 11.8886 5.36137C12.437 4.91924 13.0879 4.62222 13.7812 4.49766C13.9857 5.07595 13.9857 5.70686 13.7812 6.28516C13.7534 6.35105 13.745 6.42352 13.757 6.49404C13.769 6.56456 13.8008 6.63019 13.8488 6.68321C14.3647 7.24641 14.6467 7.98492 14.6374 8.7486C14.6374 11.8204 12.8124 12.4362 11.0249 12.639C10.9516 12.6467 10.8821 12.6757 10.8252 12.7225C10.7683 12.7694 10.7264 12.8319 10.7048 12.9024C10.6832 12.9729 10.6828 13.0481 10.7036 13.1188C10.7245 13.1895 10.7657 13.2525 10.8221 13.3C10.9885 13.4717 11.1156 13.6774 11.1947 13.9031C11.2738 14.1287 11.303 14.3688 11.2803 14.6068V16.9951C11.2765 17.1125 11.2988 17.2293 11.3456 17.3371C11.3923 17.4449 11.4624 17.541 11.5506 17.6185C11.663 17.7026 11.7936 17.7594 11.9318 17.7842C12.07 17.8089 12.2121 17.8011 12.3467 17.7612C14.3731 17.0833 16.0928 15.7074 17.1988 13.8791C18.3048 12.0508 18.7252 9.88902 18.385 7.77947C18.0449 5.66992 16.9663 3.74985 15.3416 2.36186C13.717 0.973877 11.6521 0.208273 9.51529 0.201661Z" fill="white"/>
</svg>
