<svg width="16" height="16" viewBox="0 0 16 16" fill="none" xmlns="http://www.w3.org/2000/svg">
<path d="M8.01274 0.668091C6.22474 0.66756 4.49521 1.30493 3.13514 2.46559C1.77506 3.62626 0.873686 5.23406 0.593083 6.9999C0.312479 8.76574 0.671061 10.5738 1.60435 12.0989C2.53764 13.624 3.9844 14.7661 5.68449 15.3198H5.86599C5.95454 15.3253 6.04325 15.3119 6.12623 15.2805C6.20921 15.2491 6.28457 15.2004 6.3473 15.1377C6.41004 15.075 6.45872 14.9996 6.49012 14.9166C6.52151 14.8336 6.53491 14.7449 6.52942 14.6564V14.5249V13.8427C6.52327 13.8017 6.50904 13.7624 6.48756 13.7269C6.46607 13.6915 6.43775 13.6606 6.40424 13.6362C6.36789 13.6068 6.3254 13.5859 6.27991 13.5751C6.23442 13.5642 6.18708 13.5637 6.14137 13.5736C4.46403 13.9366 4.10728 12.8852 4.08225 12.8163C3.87221 12.26 3.49645 11.7815 3.00574 11.4456C2.97634 11.4202 2.94495 11.3972 2.91186 11.3768C2.98459 11.3376 3.06779 11.3223 3.1497 11.333C3.307 11.3549 3.45597 11.4171 3.5821 11.5136C3.70822 11.6101 3.80722 11.7376 3.86945 11.8838C4.11157 12.3053 4.50777 12.6166 4.97469 12.752C5.44161 12.8874 5.94285 12.8364 6.37295 12.6098C6.4191 12.5896 6.4597 12.5586 6.4913 12.5193C6.5229 12.4801 6.54456 12.4338 6.55445 12.3845C6.57841 12.0949 6.70232 11.8228 6.90494 11.6146C6.94992 11.5747 6.98244 11.5226 6.99859 11.4647C7.01474 11.4067 7.01385 11.3453 6.99602 11.2879C6.97819 11.2304 6.94418 11.1793 6.89805 11.1407C6.85193 11.1021 6.79565 11.0776 6.73595 11.0701C5.25263 10.9011 3.73802 10.3817 3.73802 7.82183C3.72551 7.17898 3.96082 6.55597 4.39518 6.0819C4.43519 6.03772 4.46174 5.98302 4.47172 5.92426C4.4817 5.86549 4.47469 5.8051 4.45151 5.75019C4.27757 5.26422 4.27979 4.7326 4.45777 4.24809C5.03597 4.35058 5.57867 4.59824 6.03498 4.96785C6.07267 4.99445 6.11589 5.01221 6.1614 5.0198C6.20691 5.02738 6.25355 5.0246 6.29784 5.01166C6.85693 4.86 7.43345 4.78214 8.01274 4.78008C8.59419 4.78057 9.17299 4.85845 9.73389 5.01166C9.77726 5.02362 9.82273 5.0259 9.86707 5.01833C9.91142 5.01076 9.95356 4.99352 9.9905 4.96785C10.4475 4.59941 10.9899 4.35189 11.5677 4.24809C11.7381 4.73 11.7381 5.25576 11.5677 5.73767C11.5445 5.79259 11.5375 5.85298 11.5475 5.91174C11.5575 5.97051 11.584 6.0252 11.624 6.06938C12.0539 6.53871 12.2889 7.15414 12.2812 7.79054C12.2812 10.3504 10.7603 10.8636 9.27074 11.0326C9.20965 11.0389 9.15178 11.0631 9.10434 11.1022C9.05691 11.1412 9.022 11.1933 9.00399 11.252C8.98597 11.3108 8.98563 11.3735 9.00302 11.4324C9.0204 11.4913 9.05474 11.5438 9.10176 11.5833C9.2404 11.7264 9.34633 11.8979 9.41224 12.0859C9.47816 12.2739 9.50248 12.474 9.48354 12.6724V14.6626C9.48044 14.7605 9.49904 14.8578 9.53799 14.9476C9.57695 15.0374 9.6353 15.1175 9.70886 15.1821C9.80253 15.2522 9.9113 15.2995 10.0265 15.3202C10.1417 15.3408 10.2601 15.3343 10.3723 15.301C12.061 14.7361 13.494 13.5895 14.4156 12.066C15.3373 10.5424 15.6877 8.74089 15.4042 6.98293C15.1207 5.22497 14.2219 3.62491 12.868 2.46826C11.5142 1.3116 9.7934 0.673602 8.01274 0.668091Z" fill="#4E5666"/>
</svg>
