<svg width="120" height="44" viewBox="0 0 120 44" fill="none" xmlns="http://www.w3.org/2000/svg">
<path d="M36.9227 0.226252C36.6918 0.0883366 36.4288 0.0113838 36.159 0.00281161C35.8892 -0.00576059 35.6217 0.0543369 35.3823 0.177311C35.3181 0.210211 35.2565 0.247519 35.1977 0.288958L35.1883 0.298135C35.0541 0.393868 34.9285 0.500812 34.8129 0.617782C33.8915 1.52167 32.4069 3.01743 31.49 3.92437C31.4248 3.99039 31.3554 4.0522 31.2822 4.10943L31.2573 4.12779C31.1889 4.08292 31.1251 4.0317 31.0665 3.97484C30.8587 3.77143 30.6539 3.56649 30.446 3.36308C30.2785 3.19637 30.1125 3.02967 29.9434 2.86449L29.3849 2.3139C28.8063 1.74343 28.2277 1.17143 27.6428 0.607076L27.6211 0.590253C27.4742 0.407489 27.2872 0.259955 27.0741 0.158758C26.861 0.0575604 26.6274 0.00533663 26.3909 0.00601695H26.3739C26.1288 0.00976422 25.8878 0.0688885 25.6696 0.178841C25.6054 0.211741 25.5438 0.249048 25.485 0.290488L25.4741 0.299664C25.3407 0.395295 25.2157 0.501702 25.1002 0.617782C24.6752 1.03378 24.1307 1.57672 23.5784 2.12884L21.7168 3.96414C21.659 4.02209 21.5973 4.07625 21.5322 4.12626C21.4672 4.08132 21.407 4.03008 21.3523 3.97332C21.1444 3.7699 20.9396 3.56496 20.7318 3.36155L20.2291 2.86296L19.6707 2.31237C19.092 1.7419 18.5134 1.1699 17.927 0.605547C17.6598 0.324955 17.3144 0.128593 16.9342 0.0411934C16.9047 0.0411934 16.8737 0.0411934 16.8442 0.0304875C16.7898 0.0209422 16.7349 0.0143049 16.6798 0.010605C16.6752 0.00983491 16.6704 0.00983491 16.6658 0.010605H16.6379C16.6193 0.010605 16.6007 0.010605 16.5805 0.010605C16.5557 0.00903728 16.5308 0.00903728 16.506 0.010605H16.4564C16.4136 0.0148707 16.3712 0.0215088 16.3292 0.0304875C16.2997 0.0304875 16.2718 0.0488408 16.2423 0.0564879C15.9549 0.145228 15.6942 0.302876 15.4837 0.515312C15.1952 0.795195 14.8632 1.12708 14.5142 1.46814C13.8057 2.17575 13.0895 2.88131 12.3656 3.58484L11.8645 4.07732C11.8454 4.09478 11.8252 4.11112 11.804 4.12626L11.7808 4.10943C11.7384 4.08055 11.6984 4.04833 11.6613 4.01308C11.5931 3.9519 11.5264 3.88461 11.4612 3.81884L10.3955 2.76508C9.66117 2.03708 8.92534 1.31163 8.18795 0.588724C7.76755 0.178841 7.32078 -0.0123358 6.86625 0.0014289C6.84093 -0.000137913 6.81554 -0.000137913 6.79023 0.0014289H6.74214C6.69939 0.00569458 6.65692 0.0123321 6.61493 0.0213108C6.58546 0.0213108 6.55754 0.0396641 6.52806 0.0473112C6.24029 0.136346 5.97921 0.293935 5.76792 0.506135C5.48093 0.786018 5.1474 1.1179 4.79991 1.45896C4.08528 2.16249 3.37013 2.86602 2.65446 3.56955L1.64457 4.5652C1.55106 4.65454 1.46446 4.75065 1.3855 4.85273L1.00698 5.22743C0.713023 5.49569 0.53332 5.86396 0.504189 6.25782C0.475058 6.65168 0.598672 7.04175 0.850049 7.34921C1.10143 7.65667 1.46182 7.85857 1.85839 7.91413C2.25496 7.96969 2.65814 7.87475 2.98644 7.6485L2.99575 7.63932C3.12996 7.54359 3.25556 7.43664 3.37116 7.31967C4.29884 6.42955 5.78033 4.93532 6.6987 4.02837C6.76442 3.96241 6.83381 3.90011 6.90658 3.84179L6.93605 3.82955C7.00483 3.87391 7.06877 3.92517 7.12686 3.98249C7.33474 4.18437 7.53951 4.38932 7.74738 4.59426C7.91492 4.76096 8.08091 4.92767 8.25001 5.09438L8.80847 5.64496C9.38711 6.21544 9.96574 6.78591 10.5506 7.35026L10.5723 7.36861C10.72 7.55046 10.9075 7.69695 11.1209 7.79708C11.3342 7.89721 11.5678 7.94837 11.804 7.94673H11.8211C12.0646 7.94358 12.304 7.88495 12.5207 7.77544C12.5849 7.74254 12.6465 7.70523 12.7053 7.66379L12.7146 7.65461C12.8489 7.55888 12.9745 7.45194 13.0901 7.33497C13.5136 6.91897 14.0581 6.37602 14.6103 5.82544L16.4719 3.99014C16.5298 3.93271 16.5915 3.87907 16.6565 3.82955C16.7212 3.8749 16.7814 3.9261 16.8365 3.98249C17.0443 4.18437 17.2491 4.38932 17.457 4.59426C17.6245 4.76096 17.7905 4.92767 17.9596 5.09438L18.5181 5.64496C19.0967 6.21544 19.6753 6.78591 20.2602 7.35026C20.5281 7.63102 20.8739 7.82783 21.2546 7.91614C21.284 7.91614 21.3151 7.91614 21.3445 7.92685C21.3989 7.93607 21.4538 7.9422 21.509 7.9452H21.5478C21.5664 7.9452 21.585 7.9452 21.6036 7.9452H21.7293C21.772 7.9407 21.8144 7.93406 21.8565 7.92532C21.8859 7.92532 21.9139 7.90697 21.9433 7.89932C22.2304 7.80966 22.4908 7.65214 22.7019 7.4405C22.9889 7.16061 23.3224 6.82873 23.6684 6.4892C24.3851 5.78567 25.1013 5.08163 25.8169 4.37708L26.318 3.88308C26.3397 3.86473 26.3614 3.84637 26.377 3.83567C26.3856 3.84021 26.3939 3.84532 26.4018 3.85096C26.4439 3.8797 26.4838 3.91139 26.5212 3.94579C26.5895 4.00849 26.6562 4.07426 26.7213 4.14002L27.7871 5.19532C28.5214 5.9223 29.2572 6.64724 29.9946 7.37014C30.4134 7.78003 30.8618 7.97273 31.3163 7.95897H31.4404C31.4832 7.9547 31.5256 7.94806 31.5676 7.93908C31.5971 7.93908 31.625 7.92073 31.6545 7.91308C31.9417 7.82376 32.2022 7.6662 32.4131 7.45426C32.7016 7.17438 33.0336 6.8425 33.3795 6.50297C34.0962 5.79944 34.8124 5.09539 35.5281 4.39084L36.5395 3.37073C36.6326 3.28042 36.7192 3.18384 36.7986 3.08167L37.1771 2.70849C37.3573 2.54413 37.4963 2.34076 37.5832 2.1144C37.6701 1.88805 37.7025 1.64489 37.6778 1.40409C37.6532 1.16329 37.5721 0.931423 37.4411 0.726765C37.3101 0.522106 37.1326 0.350245 36.9227 0.224723V0.226252Z" fill="#00A49F"/>
<path d="M36.9227 21.0829C36.6918 21.2208 36.4288 21.2977 36.159 21.3063C35.8892 21.3149 35.6217 21.2548 35.3823 21.1318C35.3181 21.0989 35.2565 21.0616 35.1977 21.0202L35.1883 21.011C35.0541 20.9153 34.9285 20.8083 34.8129 20.6913C33.8915 19.7875 32.4069 18.2917 31.49 17.3847C31.4243 17.3188 31.3549 17.2565 31.2822 17.1982L31.2573 17.1798C31.1886 17.2242 31.1246 17.2754 31.0665 17.3327C30.8587 17.5362 30.6539 17.7411 30.446 17.9445C30.2785 18.1112 30.1125 18.2795 29.9434 18.4446L29.3849 18.9952C28.8063 19.5657 28.2277 20.1377 27.6428 20.702L27.6211 20.7189C27.4734 20.9007 27.2859 21.0472 27.0725 21.1473C26.8592 21.2475 26.6256 21.2986 26.3894 21.297H26.3723C26.1272 21.2932 25.8863 21.2341 25.668 21.1242C25.6039 21.0913 25.5422 21.054 25.4834 21.0125L25.4725 21.0033C25.3391 20.9072 25.2141 20.8003 25.0987 20.6837C24.6736 20.2677 24.1291 19.7248 23.5769 19.1726L21.7153 17.3373C21.6574 17.2794 21.5957 17.2252 21.5307 17.1752C21.4657 17.2202 21.4054 17.2714 21.3507 17.3282C21.1429 17.5316 20.9381 17.7365 20.7302 17.9399L20.2276 18.44L19.6691 18.9906C19.0905 19.5611 18.5119 20.1331 17.9255 20.6975C17.6579 20.9775 17.3126 21.1738 16.9326 21.2618C16.9032 21.2618 16.8721 21.2618 16.8427 21.2725C16.7868 21.2725 16.7325 21.2909 16.6782 21.2924H16.6363C16.6177 21.2924 16.5991 21.2924 16.5789 21.2924H16.4548C16.4121 21.2881 16.3696 21.2815 16.3276 21.2725C16.2982 21.2725 16.2702 21.2542 16.2408 21.2465C15.9536 21.1572 15.6931 20.9996 15.4822 20.7877C15.1936 20.5078 14.8616 20.1759 14.5126 19.8349L12.3656 17.7243L11.8645 17.2303L11.804 17.1829L11.7808 17.1982C11.7387 17.2269 11.6988 17.2586 11.6613 17.293C11.5931 17.3557 11.5264 17.423 11.4612 17.4887L10.3955 18.5425C9.66169 19.269 8.92792 19.997 8.18795 20.7173C7.76755 21.1288 7.32078 21.3199 6.86624 21.3062C6.83987 21.3062 6.81505 21.3062 6.79023 21.3062H6.74214C6.69939 21.3019 6.65692 21.2953 6.61493 21.2863C6.58546 21.2863 6.55754 21.2679 6.52806 21.2603C6.24055 21.1707 5.97961 21.0132 5.76792 20.8015C5.48093 20.5216 5.1474 20.1897 4.79991 19.8486L2.65446 17.738L1.64457 16.7424C1.55107 16.6525 1.46448 16.5559 1.3855 16.4533L1.01163 16.0649C0.717677 15.7966 0.537973 15.4283 0.508842 15.0345C0.479711 14.6406 0.603325 14.2505 0.854702 13.9431C1.10608 13.6356 1.46647 13.4337 1.86304 13.3782C2.25962 13.3226 2.66279 13.4176 2.99109 13.6438L3.0004 13.653C3.13461 13.7487 3.26021 13.8557 3.37582 13.9726C4.29884 14.878 5.78033 16.3707 6.6987 17.2884C6.76441 17.3544 6.83381 17.4167 6.90658 17.475L6.9314 17.4933C7.00018 17.449 7.06412 17.3977 7.12221 17.3404C7.33008 17.137 7.53485 16.932 7.74273 16.7286C7.91027 16.5635 8.07626 16.3952 8.24535 16.23L8.80382 15.6795C9.38245 15.109 9.96109 14.537 10.5459 13.9726L10.5676 13.9558C10.7153 13.774 10.9029 13.6275 11.1162 13.5273C11.3295 13.4272 11.5631 13.376 11.7994 13.3777H11.8164C12.0615 13.3814 12.3025 13.4406 12.5207 13.5505C12.5849 13.5834 12.6465 13.6207 12.7053 13.6622L12.7146 13.6713C12.8489 13.7671 12.9745 13.874 13.0901 13.991C13.5136 14.407 14.0581 14.9484 14.6103 15.5005L16.4719 17.3358C16.5298 17.3938 16.5914 17.4479 16.6565 17.4979C16.7212 17.4526 16.7814 17.4014 16.8365 17.345C17.0443 17.1416 17.2491 16.9366 17.457 16.7332C17.6245 16.568 17.7905 16.3998 17.9596 16.2346L18.5181 15.684C19.0967 15.1136 19.6753 14.5416 20.2602 13.9772C20.5286 13.6974 20.8743 13.5012 21.2546 13.4129C21.284 13.4129 21.3151 13.4129 21.3445 13.4022C21.3989 13.3924 21.4538 13.3858 21.509 13.3823H21.6036C21.63 13.3823 21.6563 13.3823 21.6796 13.3823H21.7293C21.772 13.3868 21.8144 13.3934 21.8565 13.4022C21.8859 13.4022 21.9139 13.4205 21.9433 13.4282C22.2304 13.5178 22.4908 13.6753 22.7019 13.887C22.9889 14.1669 23.3224 14.4987 23.6684 14.8383C24.3851 15.5418 25.1013 16.2458 25.8169 16.9504L26.318 17.4444L26.377 17.4918L26.4018 17.4765C26.4439 17.4478 26.4838 17.4161 26.5212 17.3817C26.5895 17.319 26.6562 17.2517 26.7213 17.1859L27.7871 16.1322C28.5209 15.4057 29.2546 14.6777 29.9946 13.9573C30.4134 13.5459 30.8618 13.3547 31.3163 13.3685H31.4404C31.4831 13.3728 31.5256 13.3794 31.5676 13.3884C31.5971 13.3884 31.625 13.4067 31.6545 13.4144C31.9417 13.5037 32.2022 13.6613 32.4131 13.8732C32.7016 14.1531 33.0336 14.485 33.3795 14.8245C34.0962 15.528 34.8124 16.2321 35.5281 16.9366L36.538 17.9323C36.631 18.0226 36.7176 18.1192 36.797 18.2213L37.1756 18.5945C37.3558 18.7589 37.4948 18.9622 37.5817 19.1886C37.6686 19.415 37.701 19.6581 37.6763 19.8989C37.6516 20.1397 37.5706 20.3716 37.4395 20.5762C37.3085 20.7809 37.131 20.9528 36.9212 21.0783L36.9227 21.0829Z" fill="#00A49F"/>
<path d="M6.90658 12.2184C7.78304 12.2184 8.49356 11.5179 8.49356 10.6538C8.49356 9.7897 7.78304 9.08921 6.90658 9.08921C6.03011 9.08921 5.3196 9.7897 5.3196 10.6538C5.3196 11.5179 6.03011 12.2184 6.90658 12.2184Z" fill="#00A49F"/>
<path d="M16.6612 12.2184C17.5376 12.2184 18.2481 11.5179 18.2481 10.6538C18.2481 9.7897 17.5376 9.08921 16.6612 9.08921C15.7847 9.08921 15.0742 9.7897 15.0742 10.6538C15.0742 11.5179 15.7847 12.2184 16.6612 12.2184Z" fill="#00A49F"/>
<path d="M26.4033 12.2184C27.2798 12.2184 27.9903 11.5179 27.9903 10.6538C27.9903 9.7897 27.2798 9.08921 26.4033 9.08921C25.5269 9.08921 24.8163 9.7897 24.8163 10.6538C24.8163 11.5179 25.5269 12.2184 26.4033 12.2184Z" fill="#00A49F"/>
<path d="M36.1455 12.2184C37.022 12.2184 37.7325 11.5179 37.7325 10.6538C37.7325 9.7897 37.022 9.08921 36.1455 9.08921C35.269 9.08921 34.5585 9.7897 34.5585 10.6538C34.5585 11.5179 35.269 12.2184 36.1455 12.2184Z" fill="#00A49F"/>
<path d="M78.8202 12.1312C79.8053 11.7274 81.1472 11.5194 82.7885 11.5194C83.7035 11.5158 84.6175 11.4622 85.5265 11.3589C87.9589 11.0882 89.5801 10.2883 90.4907 8.9225C90.993 8.13446 91.2735 7.22875 91.3032 6.29845C91.3329 5.36816 91.1108 4.44684 90.6598 3.6292C90.2296 2.85041 89.6305 2.17469 88.9052 1.65014C88.1359 1.10362 87.2753 0.69418 86.3627 0.44037C83.7782 -0.310573 81.0029 -0.0811604 78.7613 1.07202C76.4049 2.27873 74.61 4.6172 73.8375 7.48485C72.9222 10.8863 73.6265 14.904 75.6339 17.7182C77.2534 19.9878 79.9946 21.2909 83.1577 21.2909C84.6376 21.311 86.1019 20.9911 87.4346 20.3564C88.4308 19.8726 89.3383 19.2286 90.1199 18.4508C90.2444 18.3253 90.3448 18.1787 90.4162 18.0179C90.5546 17.7649 90.624 17.4808 90.6175 17.1934C90.611 16.906 90.5289 16.6252 90.3792 16.3785C90.2296 16.1318 90.0174 15.9276 89.7637 15.7861C89.5099 15.6445 89.2232 15.5703 88.9316 15.5709C88.5923 15.5702 88.2609 15.6721 87.9822 15.863C87.9434 15.8899 87.9066 15.9196 87.8721 15.9517L87.8054 16.0067C87.7772 16.0287 87.7502 16.0522 87.7247 16.0771L87.6921 16.1046C87.3309 16.4851 86.9264 16.8233 86.4868 17.1125C86.0071 17.4281 85.4917 17.6873 84.951 17.8849C83.7144 18.3114 82.3632 18.2837 81.1456 17.8069C80.482 17.5573 79.8626 17.2058 79.3104 16.7653C78.7927 16.3562 78.3517 15.8609 78.0074 15.3017C77.7088 14.824 77.5479 14.2752 77.542 13.7142C77.5404 13.006 77.9593 12.486 78.8202 12.1312ZM83.3562 8.24191C82.8071 8.24191 82.171 8.26638 81.4636 8.31685C80.7552 8.36685 80.0515 8.46909 79.3585 8.62274C78.6754 8.7732 78.0107 8.99574 77.376 9.2865C77.1997 9.36731 77.0277 9.45716 76.8609 9.55568C76.9137 9.35227 76.9649 9.0525 77.0285 8.63803C77.0611 8.41626 77.0905 8.22509 77.1138 8.14097C77.2669 7.58378 77.4883 7.04707 77.7731 6.54273C78.3217 5.54904 79.1197 4.71071 80.0908 4.1079C81.0091 3.54967 82.3262 3.19026 83.6324 3.19026C85.162 3.19026 86.676 3.68579 87.5106 4.93991C87.9233 5.56085 88.0768 6.57638 87.5447 7.23403C86.9754 7.93756 85.8507 8.10732 85.0534 8.17462C84.4887 8.21744 83.9178 8.24191 83.3562 8.24191Z" fill="#00A49F"/>
<path d="M70.8496 0.099311C70.4448 -0.0405145 70.0002 -0.0161132 69.6136 0.167151C69.227 0.350414 68.93 0.677539 68.788 1.07661L63.8952 14.7174L59.4445 1.16684C59.4157 1.08717 59.3815 1.0095 59.3421 0.934371L59.3297 0.9099C59.3126 0.877783 59.294 0.847194 59.2723 0.813547C59.084 0.482986 58.781 0.230479 58.4191 0.10237C58.2183 0.032103 58.0055 0.00157117 57.7928 0.012523C57.58 0.0234749 57.3716 0.075695 57.1793 0.166193C56.9871 0.256691 56.8149 0.383689 56.6725 0.539912C56.5301 0.696136 56.4204 0.878516 56.3496 1.07661L51.4584 14.7144L46.9767 1.11484C46.8434 0.712258 46.5533 0.378371 46.1703 0.186631C45.7873 -0.00510856 45.3427 -0.0389944 44.9344 0.0924284C44.526 0.223851 44.1874 0.509817 43.9929 0.887417C43.7984 1.26502 43.764 1.70332 43.8974 2.1059L49.8497 20.1943C49.9526 20.5121 50.154 20.79 50.4257 20.989C50.6973 21.1879 51.0254 21.2978 51.3638 21.3031H51.3901C51.7253 21.3018 52.0519 21.1982 52.325 21.0065C52.598 20.8148 52.8042 20.5444 52.9151 20.2325L57.8187 6.57332L62.2927 20.1851C62.3955 20.5027 62.5967 20.7804 62.868 20.9793C63.1394 21.1783 63.4671 21.2883 63.8052 21.2939H63.8316C64.1669 21.2925 64.4936 21.1888 64.7669 20.9972C65.0402 20.8055 65.2467 20.5352 65.358 20.2233L71.8394 2.1472C71.9831 1.74621 71.9596 1.30541 71.774 0.921492C71.5885 0.537573 71.256 0.241891 70.8496 0.099311Z" fill="#00A49F"/>
<path d="M117.84 0.00601661C117.398 0.00844371 116.976 0.183315 116.665 0.492332C116.354 0.80135 116.179 1.21933 116.18 1.65472V19.6498C116.18 20.0838 116.355 20.5001 116.666 20.807C116.978 21.1139 117.4 21.2863 117.84 21.2863C118.28 21.2863 118.703 21.1139 119.014 20.807C119.325 20.5001 119.5 20.0838 119.5 19.6498V1.65472C119.501 1.21933 119.327 0.80135 119.015 0.492332C118.704 0.183315 118.282 0.00844371 117.84 0.00601661Z" fill="#00A49F"/>
<path d="M103.325 0.00601542C98.6086 0.158957 94.7723 4.20732 94.7723 9.02956V19.6223C94.7654 19.8455 94.8041 20.0679 94.886 20.2762C94.9679 20.4844 95.0914 20.6743 95.2492 20.8347C95.407 20.995 95.5958 21.1224 95.8045 21.2095C96.0131 21.2965 96.2374 21.3414 96.4639 21.3414C96.6905 21.3414 96.9148 21.2965 97.1235 21.2095C97.3321 21.1224 97.5209 20.995 97.6787 20.8347C97.8365 20.6743 97.96 20.4844 98.0419 20.2762C98.1238 20.0679 98.1625 19.8455 98.1556 19.6223V8.91638C98.1556 5.95238 100.5 3.43802 103.38 3.31261C104.121 3.27705 104.862 3.39202 105.555 3.65039C106.249 3.90875 106.882 4.30499 107.414 4.81449C107.951 5.32205 108.378 5.93214 108.669 6.60761C108.96 7.28308 109.108 8.00981 109.105 8.74356V19.6223C109.105 20.0644 109.283 20.4884 109.6 20.8011C109.917 21.1137 110.347 21.2893 110.796 21.2893C111.244 21.2893 111.674 21.1137 111.991 20.8011C112.308 20.4884 112.487 20.0644 112.487 19.6223V8.80014C112.492 7.62139 112.255 6.45378 111.791 5.36733C111.327 4.28089 110.646 3.29798 109.787 2.47755C108.938 1.65321 107.926 1.00875 106.815 0.583739C105.704 0.158728 104.516 -0.0378691 103.325 0.00601542Z" fill="#00A49F"/>
<path d="M94.5372 29.3917H81.6748C80.6775 29.3917 80.0387 30.4434 80.5054 31.3178L81.7917 33.7346H79.4595C78.9858 33.7346 78.602 34.1158 78.602 34.5856C78.602 34.7236 78.6358 34.8596 78.7007 34.9818L82.8388 42.7513C83.0607 43.1663 83.5797 43.3247 83.9982 43.1051C84.1501 43.0253 84.2744 42.902 84.3548 42.7513L85.4788 40.6524L86.8888 43.3005C87.3849 44.232 88.7292 44.2335 89.2273 43.3032L95.6744 31.2689C96.1305 30.418 95.5089 29.3917 94.5372 29.3917ZM88.7595 34.5336L85.9796 39.7236C85.832 40 85.4862 40.1052 85.2076 39.9587C85.1066 39.9055 85.0243 39.8238 84.9706 39.7236L82.2176 34.5555C82.0699 34.2792 82.1764 33.9366 82.455 33.7901C82.5369 33.747 82.6279 33.7246 82.7203 33.7242H88.2688C88.5757 33.7242 88.8244 33.9709 88.8244 34.2753C88.8244 34.3651 88.8022 34.4538 88.7595 34.5336ZM108.218 34.9744H106.811V39.7576C106.811 39.8481 106.737 39.9217 106.645 39.9221H105.56C105.469 39.9217 105.394 39.8485 105.394 39.7576V34.9744H103.979C103.891 34.9779 103.817 34.9101 103.813 34.823C103.813 34.8214 103.813 34.8199 103.813 34.818V33.972C103.814 33.8849 103.886 33.8148 103.974 33.8156C103.976 33.8156 103.978 33.8156 103.979 33.8156H108.217C108.309 33.8113 108.387 33.8811 108.391 33.9717V34.818C108.387 34.9093 108.309 34.9787 108.218 34.9744ZM112.734 39.8878C112.445 39.9287 111.957 39.9946 111.062 39.9946C109.994 39.9946 109.05 39.7233 109.05 38.2283V35.4994C109.05 34.004 110.002 33.7412 111.07 33.7412C111.964 33.7412 112.444 33.8071 112.734 33.8479C112.85 33.8641 112.9 33.9058 112.9 34.0125V34.7775C112.9 34.8681 112.826 34.9417 112.734 34.9421H110.988C110.599 34.9421 110.458 35.0735 110.458 35.5009V36.2486H112.668C112.76 36.2486 112.834 36.3222 112.834 36.4131V37.1932C112.834 37.2837 112.76 37.3573 112.668 37.3577H110.458V38.2287C110.458 38.6557 110.599 38.7875 110.988 38.7875H112.734C112.826 38.7879 112.9 38.8611 112.9 38.9521V39.7163C112.9 39.8219 112.851 39.8712 112.734 39.8878ZM118.984 39.9206H117.667C117.559 39.9206 117.51 39.8863 117.452 39.7976L116.31 37.9994L115.275 39.7579C115.217 39.8566 115.16 39.9225 115.069 39.9225H113.843C113.76 39.9225 113.719 39.8732 113.719 39.8158C113.72 39.7957 113.726 39.7761 113.735 39.7579L115.529 36.79L113.717 33.972C113.707 33.957 113.702 33.9401 113.7 33.9227C113.706 33.8599 113.761 33.8133 113.824 33.816H115.158C115.249 33.816 115.315 33.8981 115.364 33.972L116.423 35.6315L117.449 33.972C117.49 33.8981 117.565 33.816 117.655 33.816H118.881C118.945 33.8133 118.999 33.8599 119.006 33.9227C119.004 33.9401 118.998 33.957 118.989 33.972L117.185 36.8078L119.066 39.7583C119.081 39.7834 119.089 39.8115 119.091 39.8404C119.092 39.8878 119.05 39.9206 118.984 39.9206ZM103.005 33.8314C103.015 33.8314 103.024 33.8325 103.033 33.8345C103.102 33.8503 103.145 33.9181 103.129 33.9863C103.129 33.9863 101.693 39.0322 101.67 39.1005C101.473 39.6882 100.97 39.9903 100.394 39.9903C99.7885 39.9903 99.3129 39.7021 99.1167 39.0989C99.1004 39.0492 97.6322 33.9871 97.6322 33.9871C97.6298 33.9778 97.6291 33.9682 97.6291 33.9586C97.6291 33.8884 97.6862 33.8318 97.7569 33.8314H98.9403C99.0013 33.8314 99.0538 33.8745 99.0654 33.9339L100.269 38.3489C100.286 38.438 100.31 38.4719 100.385 38.4719C100.459 38.4719 100.484 38.4391 100.501 38.3489L101.703 33.935C101.715 33.8757 101.767 33.8329 101.828 33.8325L103.005 33.8314Z" fill="#F71963"/>
<path d="M66.0467 37.6839C66.168 37.8456 66.3005 37.9596 66.4442 38.0257C66.5903 38.0919 66.75 38.125 66.9233 38.125C67.2775 38.125 67.5486 38.0012 67.7368 37.7537C67.925 37.5063 68.0191 37.1375 68.0191 36.6474C68.0191 36.1916 67.9349 35.8571 67.7666 35.6439C67.6006 35.4283 67.3629 35.3205 67.0534 35.3205C66.8379 35.3205 66.6497 35.3695 66.4887 35.4675C66.3302 35.5655 66.1829 35.704 66.0467 35.8828V37.6839ZM66.0467 35.394C66.2052 35.2127 66.3835 35.0681 66.5816 34.9603C66.7822 34.8524 67.0125 34.7985 67.2725 34.7985C67.4929 34.7985 67.691 34.8402 67.8668 34.9235C68.0451 35.0068 68.1962 35.1281 68.32 35.2874C68.4438 35.4442 68.5379 35.6354 68.6023 35.8608C68.6692 36.0862 68.7026 36.3399 68.7026 36.6216C68.7026 36.923 68.6655 37.1975 68.5912 37.445C68.5169 37.6925 68.4092 37.9044 68.268 38.0809C68.1293 38.2549 67.9597 38.3909 67.7591 38.4889C67.5585 38.5844 67.3332 38.6322 67.0831 38.6322C66.8354 38.6322 66.6262 38.5869 66.4553 38.4962C66.2869 38.4031 66.1396 38.272 66.0133 38.1029L65.9798 38.4411C65.96 38.5342 65.9031 38.5808 65.809 38.5808H65.3818V33.1665H66.0467V35.394Z" fill="#F71963"/>
<path d="M72.6912 34.8573L70.5924 39.6798C70.5701 39.7288 70.5417 39.768 70.507 39.7974C70.4748 39.8268 70.424 39.8415 70.3547 39.8415H69.8644L70.5516 38.3639L68.9989 34.8573H69.5709C69.6279 34.8573 69.6724 34.872 69.7046 34.9015C69.7393 34.9284 69.7628 34.959 69.7752 34.9933L70.7819 37.3384C70.8215 37.4413 70.8549 37.5491 70.8822 37.6619C70.9168 37.5467 70.954 37.4376 70.9936 37.3347L71.9705 34.9933C71.9854 34.9541 72.0102 34.9223 72.0448 34.8978C72.082 34.8708 72.1228 34.8573 72.1674 34.8573H72.6912Z" fill="#F71963"/>
</svg>
