<svg width="89" height="25" viewBox="0 0 89 25" fill="none" xmlns="http://www.w3.org/2000/svg">
<g clip-path="url(#clip0_5255_693)">
<path d="M28.0138 5.66305C27.8566 5.56925 27.6776 5.51691 27.4939 5.51108C27.3103 5.50525 27.1282 5.54612 26.9652 5.62976C26.9216 5.65214 26.8796 5.67752 26.8396 5.7057L26.8332 5.71194C26.7419 5.77706 26.6564 5.84979 26.5777 5.92935C25.9505 6.54413 24.94 7.56148 24.3159 8.17834C24.2715 8.22324 24.2243 8.26529 24.1744 8.30421V8.30421L24.1575 8.31669C24.111 8.28618 24.0675 8.25134 24.0277 8.21267C23.8862 8.07432 23.7468 7.93493 23.6053 7.79658C23.4912 7.68319 23.3783 7.5698 23.2632 7.45746L22.883 7.08297C22.4892 6.69497 22.0953 6.30592 21.6972 5.92207L21.6824 5.91063C21.5825 5.78632 21.4552 5.68597 21.3101 5.61715C21.1651 5.54832 21.0061 5.5128 20.8451 5.51326H20.8335C20.6667 5.51581 20.5027 5.55602 20.3541 5.6308C20.3105 5.65318 20.2685 5.67856 20.2284 5.70674L20.221 5.71298C20.1303 5.77803 20.0452 5.8504 19.9666 5.92935C19.6772 6.2123 19.3066 6.58158 18.9307 6.95711L17.6636 8.20539C17.6242 8.24481 17.5822 8.28164 17.5379 8.31565C17.4937 8.28509 17.4527 8.25024 17.4155 8.21163C17.274 8.07328 17.1346 7.93389 16.9931 7.79554L16.651 7.45642L16.2708 7.08193C15.877 6.69393 15.4831 6.30488 15.084 5.92103C14.9021 5.73019 14.667 5.59663 14.4082 5.53718C14.3881 5.53718 14.367 5.53718 14.3469 5.5299C14.3099 5.52341 14.2725 5.5189 14.235 5.51638C14.2319 5.51586 14.2287 5.51586 14.2255 5.51638H14.2065C14.1938 5.51638 14.1812 5.51638 14.1674 5.51638C14.1506 5.51531 14.1336 5.51531 14.1168 5.51638H14.1094H14.083C14.0539 5.51928 14.025 5.5238 13.9964 5.5299C13.9763 5.5299 13.9573 5.54239 13.9372 5.54759C13.7416 5.60794 13.5642 5.71517 13.4209 5.85966C13.2245 6.05002 12.9985 6.27575 12.7609 6.50772C12.2787 6.98901 11.7913 7.4689 11.2985 7.94741L10.9574 8.28237C10.9444 8.29425 10.9306 8.30536 10.9162 8.31565L10.9004 8.30421C10.8716 8.28457 10.8444 8.26265 10.8191 8.23868C10.7726 8.19707 10.7272 8.1513 10.6829 8.10657L9.95746 7.38984C9.45766 6.89469 8.9568 6.40127 8.45488 5.90959C8.16873 5.63081 7.86462 5.50078 7.55524 5.51014C7.53801 5.50907 7.52073 5.50907 7.5035 5.51014H7.49716H7.47076C7.44167 5.51304 7.41276 5.51755 7.38418 5.52366C7.36411 5.52366 7.34511 5.53614 7.32505 5.54134C7.12917 5.6019 6.95146 5.70909 6.80764 5.85342C6.6123 6.04378 6.38527 6.26951 6.14875 6.50148C5.66232 6.97999 5.17554 7.4585 4.6884 7.93701L4.001 8.6142C3.93735 8.67497 3.8784 8.74034 3.82466 8.80977L3.56701 9.06462C3.36692 9.24708 3.2446 9.49756 3.22477 9.76544C3.20495 10.0333 3.28909 10.2986 3.46019 10.5078C3.6313 10.7169 3.87661 10.8542 4.14654 10.892C4.41648 10.9298 4.69091 10.8652 4.91437 10.7113L4.92071 10.7051C5.01206 10.64 5.09755 10.5672 5.17624 10.4877C5.80768 9.88225 6.81609 8.86594 7.4412 8.24908C7.48592 8.20421 7.53316 8.16184 7.58269 8.12217L7.60275 8.11385C7.64957 8.14402 7.69309 8.17888 7.73263 8.21787C7.87413 8.35518 8.01351 8.49457 8.155 8.63397C8.26904 8.74735 8.38203 8.86074 8.49712 8.97412L8.87725 9.34861C9.27111 9.73662 9.66497 10.1246 10.0631 10.5085L10.0778 10.521C10.1784 10.6446 10.306 10.7443 10.4512 10.8124C10.5964 10.8805 10.7554 10.9153 10.9162 10.9142H10.9279C11.0936 10.912 11.2566 10.8721 11.4041 10.7977C11.4477 10.7753 11.4897 10.7499 11.5297 10.7217L11.5361 10.7155C11.6274 10.6504 11.7129 10.5776 11.7916 10.4981C12.0799 10.2151 12.4505 9.84584 12.8264 9.47136L14.0935 8.22307C14.1329 8.18401 14.1749 8.14753 14.2192 8.11385C14.2632 8.14469 14.3042 8.17952 14.3417 8.21787C14.4832 8.35518 14.6225 8.49457 14.764 8.63397C14.8781 8.74735 14.9911 8.86074 15.1062 8.97412L15.4863 9.34861C15.8801 9.73662 16.274 10.1246 16.6721 10.5085C16.8545 10.6994 17.0899 10.8333 17.3489 10.8934C17.369 10.8934 17.3901 10.8934 17.4102 10.9006C17.4472 10.9069 17.4846 10.9111 17.5221 10.9131H17.5284H17.5485C17.5612 10.9131 17.5738 10.9131 17.5865 10.9131H17.6383H17.6456H17.672C17.7011 10.9101 17.73 10.9055 17.7586 10.8996C17.7787 10.8996 17.7977 10.8871 17.8178 10.8819C18.0131 10.8209 18.1904 10.7138 18.3341 10.5698C18.5295 10.3795 18.7565 10.1538 18.992 9.92282C19.4798 9.44431 19.9673 8.96545 20.4544 8.48625L20.7955 8.15026C20.8103 8.13777 20.825 8.12529 20.8356 8.11801C20.8415 8.1211 20.8471 8.12457 20.8525 8.12841V8.12841C20.8811 8.14796 20.9083 8.16951 20.9338 8.19291C20.9803 8.23556 21.0257 8.28029 21.07 8.32502L21.7954 9.04278C22.2952 9.53724 22.7961 10.0303 23.298 10.522C23.5831 10.8008 23.8883 10.9318 24.1977 10.9225H24.2483H24.2557H24.2821C24.3112 10.9196 24.3401 10.9151 24.3687 10.909C24.3888 10.909 24.4078 10.8965 24.4279 10.8913C24.6233 10.8305 24.8007 10.7234 24.9442 10.5792C25.1406 10.3888 25.3666 10.1631 25.602 9.93218C26.0899 9.45367 26.5774 8.97482 27.0645 8.49561L27.753 7.80178C27.8163 7.74036 27.8752 7.67466 27.9293 7.60517L28.1869 7.35135C28.3096 7.23956 28.4042 7.10124 28.4634 6.94729C28.5225 6.79333 28.5446 6.62794 28.5278 6.46416C28.511 6.30038 28.4558 6.14268 28.3666 6.00348C28.2774 5.86428 28.1566 5.74739 28.0138 5.66201V5.66305Z" fill="#EEFFFC"/>
<path d="M28.0138 19.8487C27.8566 19.9425 27.6776 19.9949 27.4939 20.0007C27.3103 20.0065 27.1282 19.9657 26.9652 19.882C26.9216 19.8596 26.8796 19.8343 26.8396 19.8061L26.8333 19.7998C26.7419 19.7347 26.6564 19.662 26.5777 19.5824C25.9505 18.9677 24.94 17.9503 24.3159 17.3334C24.2712 17.2886 24.224 17.2462 24.1744 17.2065L24.1575 17.1941C24.1107 17.2242 24.0672 17.2591 24.0277 17.2981C23.8862 17.4364 23.7468 17.5758 23.6053 17.7142C23.4913 17.8276 23.3783 17.942 23.2632 18.0543L22.883 18.4288C22.4892 18.8168 22.0953 19.2059 21.6972 19.5897L21.6825 19.6012C21.5819 19.7248 21.4543 19.8245 21.3091 19.8926C21.1639 19.9607 21.0049 19.9955 20.844 19.9944H20.8324C20.6656 19.9918 20.5016 19.9516 20.353 19.8768C20.3094 19.8544 20.2674 19.8291 20.2274 19.8009L20.22 19.7946C20.1292 19.7293 20.0441 19.6565 19.9655 19.5772C19.6762 19.2943 19.3056 18.925 18.9297 18.5495L17.6626 17.3012C17.6232 17.2618 17.5812 17.2249 17.5369 17.1909C17.4926 17.2215 17.4516 17.2563 17.4144 17.295C17.2729 17.4333 17.1335 17.5727 16.992 17.7111L16.6499 18.0512L16.2698 18.4257C15.8759 18.8137 15.4821 19.2027 15.0829 19.5866C14.9008 19.7771 14.6658 19.9106 14.4071 19.9704C14.3871 19.9704 14.366 19.9704 14.3459 19.9777C14.3079 19.9777 14.2709 19.9902 14.234 19.9912H14.2245H14.2055C14.1928 19.9912 14.1801 19.9912 14.1664 19.9912H14.1157H14.1083H14.0819C14.0528 19.9883 14.0239 19.9838 13.9953 19.9777C13.9753 19.9777 13.9563 19.9652 13.9362 19.96C13.7407 19.8993 13.5634 19.7921 13.4198 19.648C13.2234 19.4576 12.9975 19.2319 12.7599 18.9999L11.2985 17.5644L10.9574 17.2284L10.9163 17.1961L10.9004 17.2065C10.8718 17.2261 10.8446 17.2476 10.8191 17.271C10.7726 17.3137 10.7272 17.3595 10.6829 17.4042L9.95747 18.1209C9.45802 18.615 8.95857 19.1102 8.45489 19.6001C8.16874 19.8799 7.86463 20.01 7.55524 20.0006C7.53729 20.0006 7.5204 20.0006 7.5035 20.0006H7.49717H7.47077C7.44167 19.9977 7.41276 19.9932 7.38418 19.9871C7.36412 19.9871 7.34511 19.9746 7.32505 19.9694C7.12935 19.9085 6.95174 19.8013 6.80765 19.6573C6.6123 19.467 6.38528 19.2412 6.14875 19.0093L4.68841 17.5737L4.001 16.8965C3.93736 16.8354 3.87842 16.7697 3.82466 16.6999L3.57019 16.4357C3.3701 16.2533 3.24778 16.0028 3.22795 15.7349C3.20812 15.467 3.29226 15.2017 3.46337 14.9926C3.63447 14.7835 3.87978 14.6461 4.14971 14.6084C4.41965 14.5706 4.69408 14.6351 4.91754 14.789L4.92388 14.7953C5.01523 14.8604 5.10072 14.9331 5.17941 15.0127C5.80769 15.6285 6.8161 16.6438 7.4412 17.2679C7.48593 17.3128 7.53317 17.3551 7.5827 17.3948V17.3948L7.59959 17.4073C7.64641 17.3771 7.68993 17.3423 7.72947 17.3033C7.87096 17.1649 8.01035 17.0255 8.15184 16.8872C8.26588 16.7748 8.37886 16.6604 8.49396 16.5481L8.87409 16.1736C9.26795 15.7856 9.66181 15.3965 10.0599 15.0127L10.0747 15.0012C10.1752 14.8776 10.3028 14.7779 10.4481 14.7098C10.5933 14.6417 10.7523 14.6069 10.9131 14.608H10.9247C11.0915 14.6106 11.2555 14.6508 11.4041 14.7256C11.4477 14.7479 11.4897 14.7733 11.5297 14.8015L11.5361 14.8078C11.6274 14.8729 11.7129 14.9456 11.7916 15.0252C12.0799 15.3081 12.4505 15.6763 12.8264 16.0519L14.0935 17.3002C14.1329 17.3396 14.1749 17.3764 14.2192 17.4104C14.2632 17.3796 14.3042 17.3448 14.3417 17.3064C14.4832 17.168 14.6225 17.0287 14.764 16.8903C14.8781 16.778 14.9911 16.6635 15.1062 16.5512L15.4863 16.1767C15.8802 15.7887 16.274 15.3996 16.6721 15.0158C16.8548 14.8255 17.0901 14.692 17.3489 14.632C17.369 14.632 17.3901 14.632 17.4102 14.6247C17.4472 14.6181 17.4846 14.6135 17.5221 14.6111H17.5284H17.5485H17.5865C17.6045 14.6111 17.6224 14.6111 17.6383 14.6111H17.6457H17.6721C17.7011 14.6142 17.73 14.6187 17.7586 14.6247C17.7787 14.6247 17.7977 14.6372 17.8178 14.6424C18.0131 14.7033 18.1904 14.8105 18.3341 14.9544C18.5295 15.1448 18.7565 15.3705 18.992 15.6015C19.4798 16.08 19.9673 16.5588 20.4544 17.038L20.7955 17.374L20.8356 17.4063L20.8525 17.3959C20.8811 17.3763 20.9083 17.3548 20.9338 17.3314C20.9803 17.2887 21.0257 17.2429 21.07 17.1982L21.7954 16.4815C22.2949 15.9874 22.7943 15.4922 23.298 15.0023C23.5831 14.7225 23.8883 14.5924 24.1977 14.6018H24.2483H24.2557H24.2821C24.3112 14.6047 24.3401 14.6092 24.3687 14.6153C24.3888 14.6153 24.4078 14.6278 24.4279 14.633C24.6233 14.6937 24.8007 14.8009 24.9442 14.9451C25.1406 15.1354 25.3666 15.3612 25.602 15.5921C26.0899 16.0706 26.5774 16.5495 27.0645 17.0287L27.7519 17.7059C27.8153 17.7673 27.8742 17.833 27.9282 17.9025L28.1859 18.1563C28.3085 18.2681 28.4032 18.4064 28.4623 18.5603C28.5215 18.7143 28.5435 18.8797 28.5267 19.0435C28.5099 19.2072 28.4548 19.365 28.3656 19.5041C28.2764 19.6433 28.1556 19.7602 28.0127 19.8456L28.0138 19.8487Z" fill="#EEFFFC"/>
<path d="M7.58265 13.8195C8.17924 13.8195 8.66286 13.3431 8.66286 12.7554C8.66286 12.1677 8.17924 11.6912 7.58265 11.6912C6.98607 11.6912 6.50244 12.1677 6.50244 12.7554C6.50244 13.3431 6.98607 13.8195 7.58265 13.8195Z" fill="#EEFFFC"/>
<path d="M14.2223 13.8195C14.8189 13.8195 15.3025 13.3431 15.3025 12.7554C15.3025 12.1677 14.8189 11.6912 14.2223 11.6912C13.6257 11.6912 13.1421 12.1677 13.1421 12.7554C13.1421 13.3431 13.6257 13.8195 14.2223 13.8195Z" fill="#EEFFFC"/>
<path d="M20.8534 13.8195C21.45 13.8195 21.9336 13.3431 21.9336 12.7554C21.9336 12.1677 21.45 11.6912 20.8534 11.6912C20.2568 11.6912 19.7732 12.1677 19.7732 12.7554C19.7732 13.3431 20.2568 13.8195 20.8534 13.8195Z" fill="#EEFFFC"/>
<path d="M27.4848 13.8195C28.0813 13.8195 28.565 13.3431 28.565 12.7554C28.565 12.1677 28.0813 11.6912 27.4848 11.6912C26.8882 11.6912 26.4045 12.1677 26.4045 12.7554C26.4045 13.3431 26.8882 13.8195 27.4848 13.8195Z" fill="#EEFFFC"/>
<path d="M56.5321 13.7603C57.2026 13.4856 58.116 13.3442 59.2332 13.3442C59.856 13.3417 60.4781 13.3052 61.0969 13.2349C62.7525 13.0508 63.856 12.5068 64.4758 11.5778C64.8178 11.0419 65.0087 10.4258 65.0289 9.79308C65.0491 9.16034 64.8979 8.5337 64.5909 7.97758C64.2981 7.44788 63.8903 6.98829 63.3967 6.63151C62.873 6.2598 62.2872 5.98132 61.666 5.80869C59.9068 5.29793 58.0178 5.45397 56.492 6.2383C54.888 7.05905 53.6663 8.64957 53.1405 10.6C52.5175 12.9135 52.9969 15.6462 54.3632 17.5602C55.4656 19.1039 57.3314 19.9902 59.4845 19.9902C60.4918 20.004 61.4885 19.7863 62.3956 19.3546C63.0737 19.0256 63.6915 18.5875 64.2234 18.0585C64.3082 17.9732 64.3765 17.8735 64.4251 17.7641C64.5193 17.592 64.5665 17.3988 64.5621 17.2033C64.5577 17.0078 64.5018 16.8168 64.4 16.649C64.2981 16.4813 64.1537 16.3424 63.981 16.2461C63.8082 16.1498 63.6131 16.0994 63.4146 16.0997C63.1836 16.0993 62.9581 16.1686 62.7684 16.2984C62.742 16.3168 62.7169 16.3369 62.6934 16.3588L62.648 16.3962C62.6288 16.4111 62.6105 16.4271 62.5931 16.4441L62.5709 16.4628C62.325 16.7215 62.0497 16.9516 61.7505 17.1483C61.424 17.3629 61.0732 17.5392 60.7051 17.6736C59.8634 17.9638 58.9437 17.9449 58.1149 17.6206C57.6632 17.4508 57.2416 17.2118 56.8658 16.9122C56.5133 16.6339 56.2132 16.297 55.9788 15.9167C55.7756 15.5918 55.6661 15.2185 55.662 14.8369C55.661 14.3553 55.9461 14.0016 56.5321 13.7603ZM59.6196 11.1149C59.2458 11.1149 58.8129 11.1316 58.3314 11.1659C57.8492 11.1999 57.3702 11.2695 56.8985 11.374C56.4335 11.4763 55.9811 11.6277 55.549 11.8254C55.429 11.8804 55.312 11.9415 55.1985 12.0085C55.2344 11.8701 55.2692 11.6663 55.3125 11.3844C55.3347 11.2335 55.3547 11.1035 55.3706 11.0463C55.4748 10.6673 55.6255 10.3023 55.8193 9.95923C56.1927 9.28336 56.7359 8.71317 57.3969 8.30317C58.022 7.92349 58.9185 7.67903 59.8076 7.67903C60.8487 7.67903 61.8793 8.01607 62.4474 8.86906C62.7283 9.2914 62.8328 9.98212 62.4706 10.4294C62.0831 10.9079 61.3175 11.0234 60.7748 11.0692C60.3904 11.0983 60.0019 11.1149 59.6196 11.1149Z" fill="#EEFFFC"/>
<path d="M51.1068 5.5767C50.8313 5.4816 50.5286 5.49819 50.2655 5.62284C50.0023 5.74749 49.8002 5.96998 49.7035 6.24141L46.3731 15.5193L43.3437 6.30278C43.3241 6.24859 43.3008 6.19577 43.274 6.14467L43.2655 6.12802C43.2539 6.10618 43.2413 6.08537 43.2265 6.06249C43.0983 5.83766 42.8921 5.66591 42.6457 5.57878C42.5091 5.53099 42.3642 5.51022 42.2194 5.51767C42.0746 5.52512 41.9327 5.56064 41.8019 5.62219C41.671 5.68374 41.5538 5.77012 41.4569 5.87638C41.36 5.98263 41.2853 6.10668 41.2371 6.24141L37.9078 15.5172L34.8572 6.26742C34.7665 5.9936 34.5691 5.7665 34.3084 5.63609C34.0477 5.50568 33.7451 5.48263 33.4671 5.57202C33.1892 5.66141 32.9586 5.85591 32.8263 6.11273C32.6939 6.36956 32.6705 6.66767 32.7612 6.94149L36.8128 19.2444C36.8828 19.4605 37.02 19.6496 37.2049 19.7849C37.3898 19.9202 37.6131 19.9949 37.8434 19.9985H37.8613C38.0895 19.9976 38.3118 19.9272 38.4977 19.7968C38.6835 19.6664 38.8238 19.4825 38.8993 19.2704L42.2371 9.98002L45.2824 19.2381C45.3523 19.4541 45.4893 19.643 45.674 19.7783C45.8587 19.9136 46.0818 19.9885 46.3119 19.9923H46.3298C46.5581 19.9913 46.7805 19.9208 46.9665 19.7905C47.1525 19.6601 47.2931 19.4763 47.3689 19.2641L51.7805 6.96958C51.8783 6.69685 51.8623 6.39703 51.736 6.13591C51.6097 5.87479 51.3835 5.67368 51.1068 5.5767V5.5767Z" fill="#EEFFFC"/>
<path d="M83.0918 5.51324C82.7912 5.5149 82.5035 5.63383 82.2917 5.84401C82.0799 6.05419 81.9614 6.33848 81.9619 6.63462V18.874C81.9619 19.1692 82.0809 19.4523 82.2928 19.6611C82.5047 19.8698 82.7921 19.9871 83.0918 19.9871C83.3914 19.9871 83.6788 19.8698 83.8907 19.6611C84.1026 19.4523 84.2216 19.1692 84.2216 18.874V6.63462C84.2222 6.33848 84.1036 6.05419 83.8918 5.84401C83.68 5.63383 83.3924 5.5149 83.0918 5.51324V5.51324Z" fill="#EEFFFC"/>
<path d="M73.2115 5.51325C70.0015 5.61727 67.3902 8.37078 67.3902 11.6506V18.8553C67.3855 19.0072 67.4118 19.1584 67.4676 19.3001C67.5234 19.4417 67.6074 19.5709 67.7148 19.6799C67.8222 19.789 67.9507 19.8757 68.0928 19.9349C68.2348 19.9941 68.3874 20.0246 68.5417 20.0246C68.6959 20.0246 68.8485 19.9941 68.9906 19.9349C69.1326 19.8757 69.2611 19.789 69.3685 19.6799C69.4759 19.5709 69.56 19.4417 69.6157 19.3001C69.6715 19.1584 69.6978 19.0072 69.6931 18.8553V11.5737C69.6931 9.55769 71.2886 7.84754 73.2495 7.76224C73.7537 7.73805 74.2577 7.81625 74.7299 7.99198C75.2022 8.1677 75.6328 8.43721 75.9949 8.78375C76.3607 9.12897 76.6514 9.54392 76.8493 10.0033C77.0472 10.4628 77.1481 10.9571 77.1459 11.4561V18.8553C77.1459 19.156 77.2671 19.4444 77.483 19.6571C77.6988 19.8697 77.9916 19.9892 78.2968 19.9892C78.6021 19.9892 78.8948 19.8697 79.1107 19.6571C79.3265 19.4444 79.4478 19.156 79.4478 18.8553V11.4946C79.4512 10.6929 79.2902 9.89872 78.9745 9.15977C78.6588 8.42081 78.1948 7.75229 77.6105 7.19427C77.0322 6.63359 76.3437 6.19526 75.5872 5.90619C74.8307 5.61711 74.0223 5.4834 73.2115 5.51325V5.51325Z" fill="#EEFFFC"/>
</g>
<defs>
<clipPath id="clip0_5255_693">
<rect width="89" height="25" fill="white"/>
</clipPath>
</defs>
</svg>
