<svg width="104" height="80" viewBox="0 0 104 80" fill="none" xmlns="http://www.w3.org/2000/svg">
<path d="M84.8657 29.0627C80.1252 29.0627 76.2675 32.9225 76.2675 37.6652C76.2675 42.41 80.1252 46.2682 84.8657 46.2682C89.6085 46.2682 93.4662 42.41 93.4662 37.6652C93.4662 32.9225 89.6085 29.0627 84.8657 29.0627ZM91.5752 32.865C91.1321 33.1627 90.6697 33.4306 90.1911 33.667C89.9072 33.0958 89.563 32.5566 89.1642 32.0587C89.5162 31.846 89.8511 31.6063 90.166 31.3418C90.6979 31.7883 91.1713 32.3001 91.5752 32.865ZM87.9578 30.0112C88.6472 30.2909 89.2954 30.6629 89.8846 31.117C89.5856 31.3633 89.2688 31.5871 88.9367 31.7866C88.5136 31.3003 88.0388 30.8615 87.5209 30.4777C87.6777 30.3331 87.8238 30.1772 87.9578 30.0112ZM88.6242 31.9638C88.1621 32.2123 87.6768 32.4151 87.1753 32.5692C86.9652 32.0875 86.7258 31.6191 86.4587 31.1665C86.7366 31.044 86.9994 30.8899 87.242 30.7071C87.7465 31.0753 88.2098 31.4966 88.6242 31.9638ZM87.6073 29.8805C87.4903 30.0186 87.3623 30.1482 87.2264 30.2674C86.7714 29.958 86.289 29.6909 85.7852 29.4696C86.4117 29.5371 87.0217 29.6744 87.6073 29.8805ZM86.9333 30.4958C86.7266 30.6418 86.5057 30.7656 86.2728 30.8635C86.0172 30.4641 85.7406 30.0785 85.444 29.7085C85.9649 29.9217 86.4638 30.1854 86.9333 30.4958ZM85.044 29.7698C85.3641 30.1568 85.6606 30.5627 85.9321 30.9852C85.6439 31.075 85.3455 31.1274 85.044 31.1411V29.7698ZM85.044 31.4976C85.4119 31.4803 85.7757 31.4129 86.1254 31.2975C86.3898 31.7378 86.6254 32.1949 86.8308 32.6657C86.2454 32.8161 85.6453 32.9003 85.044 32.9126V31.4976ZM84.6853 29.7837V31.1411C84.3879 31.1264 84.0936 31.0741 83.8095 30.9852C84.0781 30.5682 84.3705 30.1671 84.6853 29.7837ZM83.4713 30.8646C83.2387 30.7659 83.0176 30.6422 82.8118 30.4958C83.2788 30.1858 83.7756 29.9232 84.2948 29.7118C83.9989 30.0804 83.724 30.4652 83.4713 30.8646ZM83.9681 29.4666C83.4605 29.6882 82.9743 29.9559 82.5157 30.2663C82.38 30.1455 82.2527 30.0155 82.1348 29.8773C82.7279 29.6697 83.3431 29.5318 83.9681 29.4666ZM89.8589 44.2314C88.716 43.6049 88.6936 42.7332 88.7529 42.4139C88.815 42.0882 89.0387 42.2298 89.18 42.2298C89.9319 42.2298 90.7238 42.0075 91.6974 41.012C92.7966 39.8906 93.1419 37.3966 91.4527 35.773C89.6328 34.0203 87.6975 34.3268 86.4494 35.9023C86.1926 36.2247 85.5692 36.4615 85.029 36.4424C84.2289 36.412 84.7326 37.0425 84.7326 37.1732C84.7326 37.3061 84.612 37.3969 84.5409 37.377C84.2691 37.2998 84.3779 37.7021 84.3779 37.8235C84.3779 37.9457 84.2669 38.0072 84.206 38.0072C83.8697 38.0072 83.9623 38.3113 83.9722 38.3919C83.9823 38.4731 83.953 38.6148 83.8404 38.6766C83.7335 38.7373 83.6066 39.002 83.6066 39.2057C83.6066 39.5702 83.9416 39.8247 84.5015 40.2406C85.0579 40.6581 85.1301 41.0524 85.1397 41.3371C85.1509 41.6217 85.1766 42.08 85.3037 42.3838C85.4539 42.7496 85.4342 43.4198 84.6623 43.4493C83.7198 43.4873 82.0451 44.2417 81.9024 44.2923C81.3711 44.4821 80.6676 44.5496 80.1178 44.4121C79.8213 44.2035 79.5392 43.9751 79.2734 43.7285C79.1635 43.3501 79.3547 42.9418 79.5474 42.667C79.8618 42.9818 80.3302 42.9618 80.5919 42.9708C80.8557 42.9818 82.1444 42.7789 82.3281 42.7182C82.5113 42.6564 82.5925 42.6783 82.703 42.7182C83.1959 42.8973 83.8707 42.9509 84.1442 42.0073C84.4187 41.0634 83.7693 41.3275 83.6881 41.3669C83.6063 41.4082 83.4948 41.3986 83.5364 41.3174C83.6561 41.0768 83.4754 41.1016 83.3734 41.0929C83.1095 41.0664 82.7637 41.3472 82.6529 41.4495C82.5403 41.5512 82.4282 41.54 82.388 41.52C82.0388 41.345 80.9957 41.5977 80.6736 41.0319C80.7034 40.8804 80.4081 38.5858 80.2561 38.1893C80.2312 38.1284 80.222 38.0623 80.2291 37.997C80.2363 37.9316 80.2597 37.869 80.2971 37.815C80.5621 37.4158 81.2927 37.8434 81.6883 37.8339C82.1624 37.8221 82.2384 37.6239 82.368 37.4634C82.4935 37.3083 82.5854 37.3947 82.6527 37.3515C82.7391 37.2963 82.6576 37.1845 82.6874 37.1238C82.7188 37.0625 82.7546 37.0926 82.8348 37.0226C82.9165 36.9496 82.8241 36.7989 82.8646 36.7371C82.9816 36.5602 83.3015 36.7029 83.1093 36.2406C83.0051 35.9879 83.1508 35.7131 83.2925 35.5296C83.5227 35.2327 84.4102 33.9842 82.8454 32.686C81.3517 31.4487 79.84 31.5498 78.8652 32.6036C77.8913 33.6599 78.3783 35.204 78.4803 35.6098C78.5822 36.0169 78.2897 36.3855 77.9531 36.5449C77.6854 36.671 77.0773 37.0762 76.6174 37.4776C76.6915 34.1625 78.7017 31.2491 81.7851 30.008C81.9155 30.1731 82.0618 30.3279 82.2198 30.475C81.8764 30.7249 81.1272 31.3956 81.1272 31.3956C81.1272 31.3956 81.2298 31.4107 81.3249 31.4336C81.3911 31.4506 81.5305 31.4919 81.5305 31.4919C81.5305 31.4919 82.1906 30.9291 82.5009 30.7066C82.7423 30.89 83.0062 31.0429 83.2859 31.1659C83.1347 31.4219 82.7587 32.1273 82.7587 32.1273C82.7587 32.1273 82.8457 32.1801 82.9253 32.2318C83.0015 32.2835 83.0502 32.3288 83.0502 32.3288C83.0502 32.3288 83.4609 31.5559 83.6167 31.2977C83.9618 31.4126 84.3205 31.479 84.6842 31.496V32.9132C84.4829 32.9063 83.9632 32.885 83.7529 32.8645L83.6211 32.8508L83.6944 32.9602C83.751 33.042 83.7926 33.1234 83.8322 33.1981L83.8467 33.2268L83.8814 33.2317C84.0343 33.2435 84.5078 33.2602 84.6847 33.2645V35.843H85.0435V35.2521C85.5668 35.2272 86.0037 35.1917 86.5306 35.1455L86.5541 35.1433L87.017 34.7329L86.7638 34.755C86.269 34.819 85.7718 34.8632 85.2734 34.8874L85.0432 34.8994V33.2645C85.6945 33.2497 86.3419 33.1588 86.9722 32.9936C87.1441 33.4196 87.4709 34.4515 87.4709 34.4515L87.8083 34.3471C87.8083 34.3471 87.4821 33.3214 87.3107 32.8946C87.8466 32.7292 88.3642 32.5095 88.8555 32.2389C89.2517 32.7262 89.5929 33.2558 89.8729 33.818C89.6186 33.9377 89.1562 34.1012 89.1579 34.1012C89.5281 34.1412 89.8094 34.2297 89.8094 34.2297C89.8094 34.2297 89.9404 34.1734 90.0246 34.136C90.0583 34.2098 90.1217 34.3604 90.1217 34.3604L90.5832 34.565L90.5305 34.4373C90.5305 34.4373 90.3771 34.0714 90.3404 33.9861C90.8364 33.7411 91.3158 33.4637 91.7753 33.1557C92.6528 34.4959 93.1194 36.0633 93.1178 37.6652C93.1187 40.3418 91.8385 42.7231 89.8589 44.2314ZM75.4888 31.3489L75.3548 31.4686C74.8495 31.9146 73.6992 33.0925 73.8739 34.3867C73.8756 34.3922 73.8931 34.4786 73.8931 34.4786L73.9502 34.7348L74.111 34.5871C74.8175 33.9429 75.3463 32.8473 75.5626 31.5843L75.6236 31.2288L75.4888 31.3489ZM73.1483 33.5847L73.0906 33.7403C73.0099 33.956 72.8653 34.4099 72.7868 35.0131C72.678 35.8668 72.7029 37.0748 73.4452 37.9782C73.4436 37.9771 73.527 38.0854 73.527 38.0854L73.6128 38.194L73.7222 37.6449C73.8449 36.6761 73.6836 34.6451 73.3271 33.7381L73.2054 33.4286L73.1483 33.5847ZM72.2938 37.0781L72.2837 37.2383C72.2211 38.1076 72.2657 40.2529 74.0022 41.3912L74.2089 41.5241L74.1999 41.2794C74.17 40.4648 73.2199 38.0359 72.5077 37.1653L72.3064 36.9187L72.2938 37.0781ZM72.5927 40.9179L72.6225 41.0645C72.8757 42.2963 74.044 44.2942 75.8502 44.8723L76.0968 44.9535L76.0072 44.7096C75.6717 43.7876 73.9313 41.6395 72.8136 40.9316L72.5615 40.7708L72.5927 40.9179ZM76.2182 33.2068L76.0758 33.2922C74.7327 34.1138 74.1031 35.1077 74.1506 36.3333L74.1629 36.6141L74.3579 36.4517C75.0857 35.849 75.9946 34.3118 76.2628 33.439L76.361 33.1207L76.2182 33.2068ZM75.4272 35.8922L75.3263 35.9887C74.9824 36.3152 73.8701 37.5005 73.9655 38.9656C73.98 39.1906 74.0322 39.4337 74.1184 39.6853L74.1968 39.9188L74.3398 39.7186C74.8716 38.9702 75.5771 36.9939 75.5393 36.0749L75.5287 35.7962L75.4272 35.8922ZM75.4855 38.4349L75.4097 38.5483C74.8484 39.3815 74.5627 40.2373 74.5799 41.0256C74.5955 41.6089 74.7811 42.1672 75.133 42.6859L75.2501 42.8601L75.3493 42.675C75.5913 42.22 75.7846 40.7407 75.7551 39.5699C75.7449 39.1567 75.7042 38.8152 75.6353 38.5817L75.5601 38.3244L75.4855 38.4349ZM76.1376 41.1552L76.1018 41.2734C75.9325 41.8139 75.8535 42.3433 75.8674 42.8453C75.9 43.9831 76.4031 44.8712 77.3655 45.4886L77.5279 45.592L77.5638 45.3727C77.5638 45.3672 77.5766 45.1974 77.5766 45.1974C77.5504 44.2718 76.8611 41.9466 76.3232 41.2343L76.1742 41.0374L76.1376 41.1552ZM74.2428 44.7626L74.3117 44.8786C75.0357 46.091 76.2636 47.6575 78.5609 47.2555L78.7531 47.2235L78.6443 47.0617C78.2145 46.4235 75.4261 44.8501 74.4416 44.6885L74.1736 44.6445L74.2428 44.7626ZM77.6398 47.8434L77.2799 47.9416L77.6261 48.0818C79.0856 48.6801 80.9167 48.8565 81.9773 48.4999C82.3773 48.3648 82.6188 48.1455 82.9151 47.8565C84.7842 48.0498 86.5336 49.6046 87.5532 50.873L87.6084 50.9373L87.6874 50.9119C87.8017 50.8722 87.9784 50.7363 88.0527 50.6554L88.1238 50.5788L88.0593 50.4938C86.9959 49.1012 85.3305 48.238 85.2556 48.2043C83.7576 47.4713 81.1106 46.9022 77.6398 47.8434Z" fill="#F9F9F9"/>
<path d="M77.7171 43.9587L77.7373 44.0815C77.9564 45.4577 78.5155 47.2635 80.8385 47.0641L80.988 47.0507L80.9506 46.9064C80.7925 46.2805 78.6645 44.4619 77.9216 43.9508L77.6985 43.8346L77.7171 43.9587ZM94.1434 31.2288L94.2055 31.5843C94.4223 32.8473 94.9511 33.9429 95.6576 34.5871L95.8189 34.7348L95.8745 34.4786C95.8745 34.4786 95.8919 34.3922 95.8925 34.3867C96.0702 33.0928 94.918 31.9146 94.4149 31.4686L94.2793 31.3489L94.1434 31.2288ZM96.5635 33.4289L96.4407 33.7384C96.0839 34.6454 95.9226 36.6764 96.0451 37.6452L96.1561 38.1942L96.2414 38.0857L96.3237 37.9785C97.0649 37.0751 97.0901 35.8671 96.9793 35.0134C96.9031 34.4102 96.7576 33.9563 96.6775 33.7406L96.6198 33.585L96.5635 33.4289ZM97.4627 36.919L97.261 37.1656C96.549 38.0362 95.598 40.4648 95.5696 41.2797L95.56 41.5244L95.7645 41.3915C97.5008 40.2532 97.5467 38.1076 97.4846 37.2386L97.4729 37.0784L97.4627 36.919ZM97.206 40.7708L96.9539 40.9316C95.8367 41.6398 94.0958 43.7876 93.7598 44.7096L93.6707 44.9535L93.9173 44.8723C95.7213 44.2943 96.8918 42.2963 97.1445 41.0645L97.1754 40.9179L97.206 40.7708ZM93.4757 33.0786L93.5687 33.398C93.818 34.2771 94.6965 35.8321 95.4115 36.4478L95.6054 36.6138L95.6215 36.3341C95.6943 35.1094 95.0843 34.1026 93.7579 33.2566L93.6157 33.1669L93.4757 33.0786ZM94.2394 35.7962L94.2282 36.0749C94.1913 36.9939 94.8951 38.9702 95.4271 39.7186L95.5718 39.9188L95.6508 39.6853C95.7361 39.4337 95.7875 39.1906 95.8025 38.9656C95.8993 37.5008 94.7851 36.3155 94.4417 35.9887L94.3403 35.8922L94.2394 35.7962ZM94.2074 38.3241L94.1328 38.5814C94.0639 38.8149 94.0234 39.1567 94.013 39.5696C93.9832 40.7404 94.1765 42.2197 94.4177 42.6747L94.5164 42.8598L94.635 42.6857C94.9869 42.1669 95.1712 41.6086 95.1868 41.0254C95.2059 40.2371 94.9197 39.3812 94.3586 38.5481L94.2829 38.4346L94.2074 38.3241ZM93.5933 41.0377L93.4454 41.2345C92.9059 41.9468 92.2177 44.2721 92.1915 45.1977C92.1915 45.1977 92.2049 45.3675 92.206 45.3729L92.2407 45.5922C92.2407 45.5922 92.4036 45.4889 92.4042 45.4889C93.3655 44.8715 93.8684 43.9834 93.9012 42.8456C93.9151 42.3436 93.8372 41.8142 93.6668 41.2736L93.6294 41.1555L93.5933 41.0377ZM95.5947 44.6445L95.3262 44.6885C94.3406 44.8501 91.5533 46.4235 91.1235 47.0617L91.0152 47.2235L91.2074 47.2555C93.5058 47.6575 94.7326 46.0907 95.4567 44.8791L95.5256 44.7626L95.5947 44.6445ZM84.5122 48.2043C84.4383 48.238 82.7713 49.1012 81.7096 50.4938L81.644 50.5788L81.7167 50.6554C81.7908 50.7366 81.9672 50.8725 82.0831 50.9119L82.1605 50.9373L82.2154 50.8736C83.2334 49.6049 84.9838 48.0504 86.8524 47.8571C87.1488 48.1461 87.3902 48.3646 87.7908 48.5005C88.8525 48.857 90.6819 48.6807 92.1431 48.0824L92.4887 47.9421L92.1283 47.844C88.6578 46.9023 86.0105 47.4713 84.5122 48.2043ZM92.0703 43.8349L91.8486 43.9511C91.1024 44.4619 88.9744 46.2807 88.8169 46.9066L88.7805 47.051L88.929 47.0644C91.2525 47.2637 91.8122 45.458 92.0307 44.0818L92.0509 43.959L92.0703 43.8349ZM33.3606 29.909H36.2646V32.5572H33.3606V29.909ZM33.5914 35.5657H36.0341V48.4709H33.5914V35.5657ZM15.1614 35.578H17.6025V48.4821H15.2117V46.5807H15.1614C14.1842 48.2011 12.5399 48.8674 10.7402 48.8674C8.04291 48.8674 6.5 46.8115 6.5 44.2155V35.5778H8.94274V43.2126C8.94274 45.4479 9.45595 47.0939 11.794 47.0939C12.7969 47.0939 14.1591 46.5804 14.6717 45.2436C15.1341 44.035 15.1614 42.5194 15.1614 42.2088V35.578ZM22.4771 37.48H22.5285C23.3504 35.8594 25.1511 35.1925 26.4348 35.1925C27.3347 35.1925 31.3173 35.423 31.3173 39.5622V48.4821H28.8768V40.359C28.8768 38.2249 27.9775 37.0702 25.9208 37.0702C25.9208 37.0702 24.583 36.9928 23.5568 38.0206C23.197 38.3794 22.5282 38.9451 22.5282 41.4645V48.4824H20.0866V35.5783H22.4768V37.48H22.4771ZM46.2562 39.7164C46.128 38.1076 45.3643 36.9854 43.6262 36.9854C41.3059 36.9854 40.4107 38.9998 40.4107 42.0163C40.4107 45.0295 41.3057 47.0477 43.6262 47.0477C45.2331 47.0477 46.2294 46.0032 46.356 44.1614H48.7843C48.5776 47.0477 46.4356 48.8089 43.5999 48.8089C39.4901 48.8089 37.857 45.8996 37.857 42.1169C37.857 38.3589 39.7447 35.2201 43.8072 35.2201C46.5146 35.2201 48.5546 36.9324 48.6784 39.7159H46.2562V39.7164ZM52.4306 42.4746C52.2507 44.7227 53.1708 47.048 55.646 47.048C57.5359 47.048 58.4795 46.3095 58.7589 44.44H61.316C60.9299 47.3567 58.6832 48.8092 55.6222 48.8092C51.5108 48.8092 49.8736 45.8998 49.8736 42.1172C49.8736 38.3591 51.7667 35.2204 55.8259 35.2204C59.6544 35.3 61.4663 37.7228 61.4663 41.2764V42.4743H52.4306V42.4746ZM58.9159 40.7908C58.9662 38.6451 57.9936 36.9851 55.646 36.9851C53.6268 36.9851 52.4306 38.6905 52.4306 40.7908H58.9159ZM64.2134 48.4255V37.2906H62.0091V35.5999H64.2134V32.8459C64.293 30.0353 66.4103 29.2946 68.2234 29.2946C68.8093 29.2946 69.3737 29.4466 69.9632 29.5494V31.5652C69.5498 31.5441 69.144 31.4889 68.7328 31.4889C67.3572 31.4889 66.5629 31.8492 66.6389 33.2525V35.6002H69.6028V37.2908H66.6389V48.4258H64.2134V48.4255Z" fill="#F9F9F9"/>
</svg>
