<svg width="139" height="38" viewBox="0 0 139 38" fill="none" xmlns="http://www.w3.org/2000/svg">
<g clip-path="url(#clip0_1_76)">
<g clip-path="url(#clip1_1_76)">
<path d="M88.2917 20.9156C89.3389 20.4981 90.7654 20.2831 92.5102 20.2831C93.4829 20.2794 94.4546 20.2239 95.4209 20.1171C98.0068 19.8372 99.7301 19.0103 100.698 17.5983C101.232 16.7836 101.53 15.8472 101.562 14.8855C101.594 13.9237 101.357 12.9712 100.878 12.1259C100.421 11.3208 99.7837 10.6222 99.0127 10.0799C98.1948 9.51488 97.28 9.09159 96.3098 8.82919C93.5623 8.05284 90.612 8.29002 88.229 9.48221C85.724 10.7297 83.8159 13.1473 82.9946 16.112C82.0216 19.6285 82.7704 23.7822 84.9043 26.6915C86.626 29.038 89.5401 30.3851 92.9027 30.3851C94.4759 30.406 96.0326 30.0752 97.4493 29.419C98.5084 28.9189 99.4732 28.2531 100.304 27.4489C100.436 27.3193 100.543 27.1677 100.619 27.0015C100.766 26.7399 100.84 26.4461 100.833 26.149C100.826 25.8519 100.739 25.5616 100.58 25.3065C100.421 25.0515 100.195 24.8404 99.9253 24.6941C99.6555 24.5477 99.3507 24.4711 99.0408 24.4716C98.68 24.4709 98.3278 24.5763 98.0315 24.7736C97.9902 24.8015 97.9511 24.8321 97.9144 24.8653L97.8435 24.9222C97.8135 24.9449 97.7849 24.9692 97.7577 24.995L97.7231 25.0234C97.3391 25.4167 96.9091 25.7664 96.4417 26.0654C95.9318 26.3917 95.3839 26.6596 94.8091 26.8639C93.4945 27.3049 92.0581 27.2763 90.7637 26.7833C90.0582 26.5253 89.3998 26.1619 88.8128 25.7065C88.2624 25.2836 87.7935 24.7714 87.4275 24.1933C87.1102 23.6995 86.9391 23.1321 86.9328 22.5521C86.9311 21.82 87.3764 21.2824 88.2917 20.9156ZM93.1138 16.8947C92.53 16.8947 91.8538 16.92 91.1018 16.9722C90.3487 17.0238 89.6006 17.1296 88.8639 17.2884C88.1377 17.444 87.4311 17.674 86.7563 17.9746C86.5689 18.0582 86.3861 18.1511 86.2088 18.2529C86.2649 18.0426 86.3193 17.7327 86.3869 17.3042C86.4216 17.0749 86.4529 16.8773 86.4776 16.7903C86.6403 16.2143 86.8757 15.6594 87.1785 15.138C87.7617 14.1107 88.61 13.244 89.6423 12.6208C90.6186 12.0437 92.0187 11.6721 93.4073 11.6721C95.0334 11.6721 96.6429 12.1844 97.5302 13.481C97.9688 14.1229 98.1321 15.1728 97.5664 15.8527C96.9612 16.58 95.7656 16.7555 94.9179 16.8251C94.3176 16.8694 93.7107 16.8947 93.1138 16.8947Z" fill="#00A49F"/>
<path d="M79.8184 8.47659C79.388 8.33204 78.9153 8.35727 78.5044 8.54673C78.0934 8.73619 77.7777 9.07439 77.6267 9.48696L72.4253 23.5893L67.6939 9.58024C67.6633 9.49787 67.6269 9.41758 67.5851 9.33991L67.5719 9.31461C67.5537 9.2814 67.5339 9.24978 67.5108 9.215C67.3106 8.87325 66.9886 8.6122 66.6038 8.47976C66.3904 8.40711 66.1641 8.37555 65.938 8.38687C65.7118 8.39819 65.4902 8.45218 65.2859 8.54574C65.0815 8.6393 64.8984 8.77059 64.7471 8.9321C64.5957 9.09361 64.4791 9.28216 64.4039 9.48696L59.2041 23.5862L54.4398 9.52648C54.2981 9.11028 53.9897 8.7651 53.5825 8.56687C53.1754 8.36864 52.7028 8.33361 52.2687 8.46948C51.8346 8.60535 51.4745 8.90099 51.2678 9.29136C51.0611 9.68174 51.0245 10.1349 51.1662 10.5511L57.494 29.2514C57.6034 29.58 57.8175 29.8674 58.1063 30.073C58.3951 30.2787 58.7439 30.3923 59.1035 30.3978H59.1316C59.4879 30.3964 59.8351 30.2893 60.1254 30.0911C60.4157 29.8929 60.6348 29.6134 60.7527 29.291L65.9656 15.1696L70.7217 29.242C70.831 29.5703 71.0449 29.8574 71.3334 30.0631C71.6218 30.2687 71.9702 30.3825 72.3296 30.3883H72.3577C72.7142 30.3868 73.0615 30.2797 73.352 30.0815C73.6425 29.8834 73.862 29.6039 73.9804 29.2815L80.8705 10.5938C81.0233 10.1792 80.9983 9.7235 80.801 9.32659C80.6038 8.92968 80.2504 8.624 79.8184 8.47659V8.47659Z" fill="#00A49F"/>
<path d="M129.772 8.38014C129.303 8.38265 128.854 8.56344 128.523 8.88291C128.192 9.20239 128.007 9.6345 128.008 10.0846V28.6885C128.008 29.1373 128.194 29.5676 128.525 29.8849C128.856 30.2021 129.304 30.3804 129.772 30.3804C130.24 30.3804 130.689 30.2021 131.02 29.8849C131.351 29.5676 131.537 29.1373 131.537 28.6885V10.0846C131.538 9.6345 131.353 9.20239 131.022 8.88291C130.691 8.56344 130.242 8.38265 129.772 8.38014V8.38014Z" fill="#00A49F"/>
<path d="M114.341 8.38014C109.328 8.53826 105.25 12.7236 105.25 17.709V28.6601C105.242 28.8909 105.284 29.1208 105.371 29.3361C105.458 29.5514 105.589 29.7478 105.757 29.9135C105.925 30.0792 106.125 30.211 106.347 30.301C106.569 30.391 106.807 30.4374 107.048 30.4374C107.289 30.4374 107.527 30.391 107.749 30.301C107.971 30.211 108.172 30.0792 108.34 29.9135C108.507 29.7478 108.639 29.5514 108.726 29.3361C108.813 29.1208 108.854 28.8909 108.847 28.6601V17.592C108.847 14.5277 111.338 11.9283 114.401 11.7986C115.188 11.7618 115.975 11.8807 116.713 12.1478C117.451 12.4149 118.123 12.8246 118.689 13.3513C119.26 13.876 119.714 14.5068 120.023 15.2051C120.332 15.9034 120.49 16.6547 120.486 17.4133V28.6601C120.486 29.1172 120.676 29.5556 121.013 29.8788C121.35 30.202 121.807 30.3836 122.284 30.3836C122.76 30.3836 123.218 30.202 123.555 29.8788C123.892 29.5556 124.081 29.1172 124.081 28.6601V17.4718C124.087 16.2532 123.835 15.0461 123.342 13.9229C122.849 12.7996 122.124 11.7835 121.212 10.9353C120.309 10.0831 119.233 9.4168 118.052 8.97741C116.87 8.53802 115.608 8.33477 114.341 8.38014V8.38014Z" fill="#00A49F"/>
</g>
<path d="M28.0505 13.2006C28.2759 13.3994 28.5652 13.5107 28.8657 13.5142C29.0432 13.5133 29.2184 13.4749 29.3799 13.4013C29.5888 13.308 29.7681 13.1593 29.8985 12.9714C30.029 12.7835 30.1055 12.5635 30.1199 12.3352C30.1565 12.0026 30.0595 11.669 29.8501 11.408C29.6408 11.1469 29.3363 10.9796 29.0037 10.9431C28.671 10.9065 28.3375 11.0035 28.0764 11.2128C27.8153 11.4222 27.6481 11.7267 27.6115 12.0593C27.5733 12.2715 27.5941 12.4901 27.6714 12.6913C27.7488 12.8925 27.8799 13.0687 28.0505 13.2006Z" fill="#00A49F"/>
<path d="M22.8706 13.2132C23.0962 13.4001 23.3802 13.5022 23.6733 13.5016C23.8096 13.5027 23.9451 13.4815 24.0746 13.4389C24.2677 13.3728 24.4418 13.2606 24.5816 13.1119C24.7215 12.9633 24.823 12.7828 24.8773 12.5861C24.9377 12.3638 24.9357 12.1291 24.8716 11.9079C24.8074 11.6867 24.6836 11.4874 24.5136 11.3319C24.3473 11.18 24.1432 11.0758 23.9228 11.03C23.7023 10.9843 23.4736 10.9987 23.2606 11.0718C23.0476 11.145 22.8583 11.2741 22.7124 11.4456C22.5665 11.6172 22.4696 11.8248 22.4316 12.0468C22.3968 12.2626 22.419 12.4837 22.496 12.6883C22.573 12.8929 22.7021 13.0739 22.8706 13.2132Z" fill="#00A49F"/>
<path d="M19.4591 21.7668C19.2208 22.4692 18.9825 23.159 18.7693 23.8614C18.714 24.0385 18.7123 24.228 18.7644 24.4061C18.8166 24.5842 18.9202 24.7429 19.0623 24.8622C19.2044 24.9815 19.3787 25.0561 19.5631 25.0767C19.7475 25.0972 19.9339 25.0627 20.0988 24.9776L22.118 23.899L22.9082 23.4726C23.9023 23.777 24.9301 23.9581 25.9685 24.0119C26.1042 24.0165 26.2393 23.9916 26.3645 23.9391C26.4897 23.8865 26.602 23.8075 26.6938 23.7074C26.7856 23.6073 26.8546 23.4885 26.8961 23.3592C26.9376 23.2299 26.9506 23.0931 26.9342 22.9583C26.9288 21.9359 27.1267 20.9226 27.5164 19.9774C27.9061 19.0322 28.4799 18.1739 29.2043 17.4524C29.9982 16.5582 30.9799 15.8506 32.0792 15.3801C33.1785 14.9096 34.3682 14.6879 35.5631 14.7307C35.7055 14.7407 35.8482 14.7162 35.9792 14.6595C36.1101 14.6027 36.2255 14.5153 36.3157 14.4046C36.4081 14.295 36.4742 14.1657 36.509 14.0265C36.5438 13.8874 36.5463 13.7422 36.5163 13.602C36.2263 12.3401 35.67 11.1547 34.8849 10.1251C34.0997 9.09554 33.1037 8.24553 31.9636 7.63193C30.4993 6.81787 28.8784 6.32523 27.2089 6.18682C25.5393 6.04841 23.8594 6.26741 22.2811 6.82924C20.1761 7.57456 18.3828 9.00573 17.189 10.8929C16.6358 11.7747 16.2653 12.7585 16.0994 13.7862C15.9335 14.8139 15.9756 15.8644 16.2233 16.8754C16.7093 18.8286 17.8517 20.5555 19.4591 21.7668V21.7668ZM18.7317 11.8837C19.7165 10.3464 21.1931 9.1881 22.9207 8.59767C24.0027 8.20732 25.1443 8.00787 26.2945 8.00819C27.9562 8.01307 29.5887 8.44496 31.0354 9.2624C32.506 10.0545 33.6677 11.3178 34.334 12.8494C31.8245 13.0866 29.4961 14.2598 27.8121 16.1355C26.293 17.7497 25.3266 19.8054 25.0529 22.0051C24.3928 21.9184 23.7421 21.7715 23.1089 21.5662C22.9896 21.5276 22.8637 21.5133 22.7388 21.5241C22.6139 21.5348 22.4924 21.5705 22.3814 21.6289L21.3028 22.2058L21.4784 21.7041C21.547 21.5076 21.5486 21.2939 21.4827 21.0965C21.4169 20.899 21.2875 20.729 21.1147 20.613C19.5907 19.6804 18.4753 18.2066 17.9917 16.4866C17.8007 15.7089 17.7678 14.9008 17.8949 14.1101C18.022 13.3194 18.3066 12.5623 18.7317 11.8837V11.8837Z" fill="#00A49F"/>
<path d="M41.7087 16.8127C40.3066 16.1049 38.758 15.7362 37.1873 15.7362C35.6167 15.7362 34.068 16.1049 32.6659 16.8127C31.6493 17.3086 30.7539 18.0216 30.0431 18.9015C29.3322 19.7814 28.8233 20.8066 28.5521 21.9048C28.1588 23.6224 28.4609 25.4259 29.3924 26.9216C30.0567 27.9542 30.93 28.8359 31.9562 29.5099C32.9824 30.184 34.1385 30.6353 35.3499 30.8347C36.9398 31.1251 38.5753 31.0435 40.1284 30.5964C40.5047 30.7595 40.881 30.9727 41.2698 31.1984C41.6586 31.4242 41.9972 31.6123 42.3735 31.7879C42.5353 31.8517 42.7117 31.8694 42.883 31.839C43.0544 31.8085 43.2139 31.7312 43.3438 31.6155C43.4738 31.4998 43.5691 31.3503 43.6193 31.1837C43.6694 31.0171 43.6723 30.8399 43.6277 30.6717C43.4605 30.1198 43.289 29.5722 43.1135 29.0287C43.9956 28.3549 44.7227 27.4994 45.2456 26.5203C45.7097 25.6301 45.9665 24.6466 45.9969 23.6431C46.0274 22.6397 45.8305 21.6424 45.4212 20.7258C44.6721 19.0323 43.3606 17.6498 41.7087 16.8127V16.8127ZM43.6151 25.5921C43.1144 26.5238 42.3904 27.3167 41.5081 27.8999C41.3424 28.0187 41.2197 28.1881 41.1586 28.3826C41.0976 28.5772 41.1014 28.7863 41.1694 28.9785V28.9785L40.5298 28.7026C40.3349 28.6347 40.1227 28.6347 39.9278 28.7026C38.5636 29.1423 37.1124 29.2414 35.7011 28.991C34.7424 28.8369 33.827 28.4825 33.0144 27.9509C32.2019 27.4193 31.5105 26.7224 30.9853 25.9057C30.3212 24.8403 30.1006 23.5572 30.3707 22.3312C30.5822 21.5066 30.9712 20.7381 31.5107 20.0795C32.0501 19.421 32.7269 18.8882 33.4937 18.5184C34.6303 17.948 35.8843 17.651 37.156 17.651C38.4276 17.651 39.6817 17.948 40.8183 18.5184C42.087 19.1321 43.1057 20.1641 43.7029 21.4407V21.4407C43.9943 22.0944 44.1376 22.8045 44.1224 23.52C44.1072 24.2355 43.934 24.9389 43.6151 25.5796V25.5921Z" fill="#00A49F"/>
<path d="M39.564 19.9608C39.2907 19.9834 39.0323 20.095 38.8284 20.2785C38.6245 20.462 38.4864 20.7072 38.4352 20.9767C38.4175 21.1558 38.4433 21.3365 38.5105 21.5035C38.5669 21.7274 38.6841 21.9314 38.8491 22.0929C39.0816 22.317 39.3916 22.4428 39.7145 22.4441H39.9403C40.1225 22.4165 40.2958 22.3465 40.4461 22.2397C40.5964 22.133 40.7195 21.9925 40.8057 21.8296C40.9226 21.6265 40.9803 21.3948 40.9722 21.1607C40.9642 20.9266 40.8907 20.6994 40.7601 20.5049C40.6296 20.3103 40.4472 20.1563 40.2336 20.0601C40.0199 19.9639 39.7837 19.9295 39.5515 19.9608H39.564Z" fill="#00A49F"/>
<path d="M34.7478 20.036C34.5512 20.1085 34.3758 20.2292 34.2378 20.3869C34.0997 20.5447 34.0034 20.7345 33.9577 20.9391C33.9104 21.1394 33.913 21.3483 33.9655 21.5474C34.018 21.7464 34.1187 21.9295 34.2587 22.0804C34.3753 22.2027 34.5154 22.3002 34.6705 22.367C34.8257 22.4338 34.9928 22.4686 35.1617 22.4692H35.4377C35.6311 22.4259 35.8115 22.3375 35.9641 22.211C36.1167 22.0846 36.2371 21.9238 36.3156 21.7418C36.4199 21.5169 36.4551 21.2661 36.417 21.0212C36.3788 20.7762 36.2689 20.5481 36.1011 20.3656C35.9334 20.183 35.7153 20.0543 35.4744 19.9957C35.2336 19.937 34.9807 19.9511 34.7478 20.036V20.036Z" fill="#00A49F"/>
</g>
<defs>
<clipPath id="clip0_1_76">
<rect width="139" height="38" fill="white"/>
</clipPath>
<clipPath id="clip1_1_76">
<rect width="139" height="38" fill="white"/>
</clipPath>
</defs>
</svg>
