<svg width="139" height="38" viewBox="0 0 139 38" fill="none" xmlns="http://www.w3.org/2000/svg">
<g id="Weni Logo">
<path id="Vector" d="M43.7516 8.60782C43.5061 8.46524 43.2265 8.38568 42.9397 8.37682C42.6529 8.36796 42.3685 8.43009 42.114 8.55722C42.0458 8.59124 41.9803 8.62981 41.9177 8.67265L41.9078 8.68214C41.7652 8.78111 41.6317 8.89167 41.5088 9.0126C40.5292 9.94706 38.9509 11.4934 37.9763 12.4311C37.907 12.4993 37.8332 12.5632 37.7553 12.6224L37.7289 12.6414C37.6562 12.595 37.5883 12.542 37.5261 12.4832C37.3051 12.2729 37.0874 12.0611 36.8664 11.8508C36.6883 11.6784 36.5119 11.5061 36.3321 11.3353L35.7384 10.7661C35.1233 10.1763 34.5082 9.58498 33.8864 9.00153L33.8633 8.98414C33.7072 8.79519 33.5084 8.64266 33.2819 8.53804C33.0553 8.43342 32.807 8.37943 32.5556 8.38013H32.5374C32.2769 8.38401 32.0208 8.44513 31.7887 8.55881C31.7206 8.59282 31.655 8.63139 31.5925 8.67423L31.5809 8.68372C31.4392 8.78258 31.3062 8.89259 31.1835 9.0126C30.7316 9.44267 30.1528 10.004 29.5657 10.5748L27.5867 12.4722C27.5252 12.5321 27.4596 12.5881 27.3905 12.6398C27.3214 12.5933 27.2573 12.5403 27.1992 12.4817C26.9782 12.2714 26.7605 12.0595 26.5395 11.8492L26.0052 11.3337L25.4115 10.7645C24.7964 10.1747 24.1812 9.5834 23.5579 8.99995C23.2738 8.70986 22.9066 8.50686 22.5024 8.4165C22.4711 8.4165 22.4381 8.4165 22.4068 8.40543C22.3489 8.39556 22.2906 8.3887 22.232 8.38488C22.227 8.38408 22.222 8.38408 22.2171 8.38488H22.1874C22.1676 8.38488 22.1479 8.38488 22.1264 8.38488C22.1001 8.38326 22.0736 8.38326 22.0473 8.38488H22.0357H21.9945C21.949 8.38929 21.9039 8.39615 21.8593 8.40543C21.8279 8.40543 21.7982 8.42441 21.7669 8.43231C21.4613 8.52406 21.1842 8.68704 20.9605 8.90666C20.6537 9.19601 20.3008 9.53912 19.9298 9.89172C19.1767 10.6233 18.4153 11.3527 17.6457 12.08L17.113 12.5892C17.0926 12.6072 17.0712 12.6241 17.0487 12.6398L17.024 12.6224C16.9789 12.5925 16.9364 12.5592 16.897 12.5228C16.8244 12.4595 16.7535 12.39 16.6842 12.322L15.5513 11.2325C14.7707 10.4799 13.9885 9.72992 13.2046 8.98256C12.7576 8.55881 12.2827 8.36116 11.7995 8.37539C11.7726 8.37377 11.7456 8.37377 11.7187 8.37539H11.7088H11.6676C11.6221 8.3798 11.577 8.38666 11.5323 8.39595C11.501 8.39595 11.4713 8.41492 11.44 8.42283C11.1341 8.51487 10.8565 8.67779 10.6319 8.89717C10.3268 9.18653 9.97225 9.52964 9.60284 9.88223C8.84314 10.6096 8.08289 11.3369 7.32208 12.0642L6.24849 13.0936C6.14909 13.1859 6.05703 13.2853 5.97309 13.3908L5.57069 13.7782C5.2582 14.0555 5.06716 14.4363 5.03619 14.8435C5.00522 15.2506 5.13663 15.6539 5.40387 15.9718C5.6711 16.2896 6.05422 16.4984 6.4758 16.5558C6.89739 16.6132 7.32599 16.5151 7.675 16.2812L7.68489 16.2717C7.82756 16.1727 7.96109 16.0622 8.08398 15.9412C9.07017 15.021 10.6451 13.4762 11.6214 12.5386C11.6912 12.4704 11.765 12.406 11.8424 12.3457L11.8737 12.333C11.9468 12.3789 12.0148 12.4319 12.0766 12.4911C12.2975 12.6999 12.5152 12.9117 12.7362 13.1236C12.9143 13.296 13.0908 13.4683 13.2705 13.6406L13.8642 14.2099C14.4793 14.7996 15.0945 15.3894 15.7162 15.9729L15.7393 15.9918C15.8963 16.1798 16.0956 16.3313 16.3224 16.4348C16.5492 16.5383 16.7975 16.5912 17.0487 16.5895H17.0668C17.3257 16.5862 17.5802 16.5256 17.8106 16.4124C17.8788 16.3784 17.9444 16.3398 18.0069 16.297L18.0168 16.2875C18.1594 16.1885 18.293 16.078 18.4158 15.957C18.8661 15.527 19.4449 14.9657 20.032 14.3964L22.011 12.4991C22.0726 12.4397 22.1381 12.3842 22.2072 12.333C22.276 12.3799 22.34 12.4328 22.3985 12.4911C22.6195 12.6999 22.8372 12.9117 23.0582 13.1236C23.2363 13.296 23.4127 13.4683 23.5925 13.6406L24.1862 14.2099C24.8013 14.7996 25.4164 15.3894 26.0382 15.9729C26.323 16.2631 26.6907 16.4666 27.0953 16.5579C27.1266 16.5579 27.1596 16.5579 27.1909 16.569C27.2488 16.5785 27.3071 16.5848 27.3657 16.5879H27.3756H27.407C27.4268 16.5879 27.4465 16.5879 27.4663 16.5879H27.5471H27.5587H27.5999C27.6453 16.5833 27.6905 16.5764 27.7351 16.5674C27.7665 16.5674 27.7962 16.5484 27.8275 16.5405C28.1326 16.4478 28.4095 16.285 28.6339 16.0661C28.939 15.7768 29.2936 15.4337 29.6613 15.0827C30.4232 14.3553 31.1846 13.6275 31.9454 12.8991L32.4781 12.3884C32.5012 12.3694 32.5242 12.3504 32.5407 12.3394C32.5499 12.3441 32.5587 12.3493 32.5671 12.3552C32.6119 12.3849 32.6543 12.4176 32.6941 12.4532C32.7667 12.518 32.8376 12.586 32.9068 12.654L34.0398 13.745C34.8204 14.4966 35.6026 15.2461 36.3865 15.9934C36.8318 16.4172 37.3084 16.6164 37.7916 16.6022H37.8708H37.8823H37.9235C37.969 16.5977 38.0141 16.5909 38.0588 16.5816C38.0901 16.5816 38.1198 16.5626 38.1511 16.5547C38.4564 16.4624 38.7333 16.2995 38.9575 16.0804C39.2643 15.791 39.6172 15.4479 39.985 15.0969C40.7469 14.3696 41.5082 13.6417 42.269 12.9133L43.3442 11.8587C43.4432 11.7653 43.5352 11.6655 43.6197 11.5598L44.022 11.174C44.2136 11.0041 44.3614 10.7939 44.4538 10.5599C44.5462 10.3258 44.5806 10.0745 44.5544 9.82551C44.5281 9.57656 44.442 9.33685 44.3027 9.12527C44.1634 8.91368 43.9747 8.73601 43.7516 8.60624V8.60782Z" fill="#00A49F"/>
<path id="Vector_2" d="M43.7515 30.1701C43.5061 30.3127 43.2265 30.3922 42.9396 30.4011C42.6528 30.41 42.3684 30.3478 42.1139 30.2207C42.0458 30.1867 41.9802 30.1481 41.9177 30.1053L41.9078 30.0958C41.7651 29.9968 41.6316 29.8862 41.5087 29.7653C40.5291 28.8309 38.9509 27.2845 37.9762 26.3469C37.9064 26.2787 37.8326 26.2143 37.7553 26.154L37.7289 26.135C37.6558 26.1808 37.5878 26.2338 37.526 26.2931C37.305 26.5034 37.0873 26.7153 36.8664 26.9256C36.6883 27.0979 36.5118 27.2718 36.332 27.4426L35.7384 28.0118C35.1232 28.6016 34.5081 29.1929 33.8864 29.7764L33.8633 29.7938C33.7063 29.9818 33.5069 30.1332 33.2801 30.2367C33.0533 30.3403 32.805 30.3932 32.5539 30.3915H32.5357C32.2752 30.3876 32.019 30.3265 31.787 30.2128C31.7189 30.1788 31.6533 30.1402 31.5908 30.0974L31.5792 30.0879C31.4374 29.9885 31.3044 29.878 31.1818 29.7574C30.7299 29.3273 30.1511 28.766 29.564 28.1952L27.585 26.2978C27.5235 26.2379 27.4579 26.1819 27.3888 26.1302C27.3197 26.1767 27.2556 26.2297 27.1975 26.2884C26.9765 26.4986 26.7588 26.7105 26.5378 26.9208L26.0035 27.4379L25.4098 28.0071C24.7947 28.5968 24.1795 29.1882 23.5562 29.7716C23.2717 30.0612 22.9046 30.2641 22.5007 30.3551C22.4694 30.3551 22.4364 30.3551 22.4051 30.3662C22.3457 30.3662 22.288 30.3851 22.2302 30.3867H22.2154H22.1857C22.1659 30.3867 22.1461 30.3867 22.1247 30.3867H22.0455H22.034H21.9928C21.9473 30.3823 21.9022 30.3754 21.8575 30.3662C21.8262 30.3662 21.7965 30.3472 21.7652 30.3393C21.4599 30.2469 21.1829 30.084 20.9588 29.8649C20.652 29.5756 20.2991 29.2325 19.928 28.8799L17.6456 26.6979L17.113 26.1872L17.0486 26.1381L17.0239 26.154C16.9792 26.1837 16.9367 26.2164 16.8969 26.252C16.8244 26.3168 16.7535 26.3864 16.6842 26.4544L15.5512 27.5438C14.7712 28.2948 13.9911 29.0475 13.2045 29.7922C12.7576 30.2175 12.2826 30.4152 11.7994 30.4009C11.7714 30.4009 11.745 30.4009 11.7186 30.4009H11.7087H11.6675C11.6221 30.3965 11.5769 30.3897 11.5323 30.3804C11.5009 30.3804 11.4713 30.3614 11.4399 30.3535C11.1343 30.2609 10.8569 30.098 10.6318 29.8792C10.3268 29.5898 9.97219 29.2467 9.60278 28.8941L7.32202 26.7121L6.24843 25.6828C6.14903 25.5898 6.05698 25.4899 5.97302 25.3839L5.57558 24.9823C5.26308 24.705 5.07204 24.3243 5.04107 23.9171C5.01011 23.5099 5.14152 23.1066 5.40875 22.7888C5.67598 22.4709 6.0591 22.2622 6.48069 22.2047C6.90227 22.1473 7.33088 22.2454 7.67988 22.4793L7.68978 22.4888C7.83245 22.5878 7.96597 22.6984 8.08887 22.8193C9.07011 23.7553 10.645 25.2985 11.6213 26.2472C11.6912 26.3154 11.765 26.3798 11.8423 26.4401L11.8687 26.4591C11.9418 26.4133 12.0098 26.3603 12.0715 26.301C12.2925 26.0907 12.5102 25.8788 12.7312 25.6685C12.9093 25.4978 13.0858 25.3238 13.2655 25.1531L13.8592 24.5839C14.4743 23.9941 15.0895 23.4027 15.7112 22.8193L15.7343 22.8019C15.8913 22.6139 16.0906 22.4625 16.3174 22.3589C16.5442 22.2554 16.7925 22.2025 17.0437 22.2042H17.0618C17.3224 22.2081 17.5785 22.2692 17.8105 22.3829C17.8787 22.4169 17.9443 22.4555 18.0068 22.4983L18.0167 22.5078C18.1594 22.6068 18.2929 22.7173 18.4158 22.8383C18.866 23.2683 19.4448 23.8281 20.0319 24.3989L22.0109 26.2963C22.0724 26.3562 22.138 26.4122 22.2072 26.4639C22.2759 26.417 22.34 26.364 22.3985 26.3057C22.6194 26.0955 22.8371 25.8836 23.0581 25.6733C23.2362 25.5025 23.4127 25.3286 23.5924 25.1578L24.1861 24.5886C24.8013 23.9988 25.4164 23.4075 26.0381 22.824C26.3235 22.5347 26.691 22.3319 27.0952 22.2406C27.1265 22.2406 27.1595 22.2406 27.1909 22.2295C27.2487 22.2195 27.307 22.2126 27.3657 22.209H27.3756H27.4069H27.4663C27.4943 22.209 27.5223 22.209 27.5471 22.209H27.5586H27.5998C27.6453 22.2136 27.6904 22.2205 27.7351 22.2295C27.7664 22.2295 27.7961 22.2485 27.8274 22.2564C28.1326 22.3491 28.4094 22.5119 28.6339 22.7307C28.9389 23.0201 29.2935 23.3632 29.6613 23.7142C30.4232 24.4416 31.1845 25.1694 31.9453 25.8978L32.478 26.4085L32.5407 26.4575L32.5671 26.4417C32.6118 26.412 32.6542 26.3793 32.694 26.3437C32.7666 26.2789 32.8375 26.2093 32.9068 26.1413L34.0397 25.0519C34.8198 24.3008 35.5998 23.5482 36.3865 22.8035C36.8317 22.3781 37.3083 22.1805 37.7915 22.1947H37.8707H37.8822H37.9235C37.9689 22.1991 38.0141 22.206 38.0587 22.2153C38.09 22.2153 38.1197 22.2343 38.151 22.2422C38.4563 22.3345 38.7333 22.4974 38.9575 22.7165C39.2642 23.0059 39.6171 23.349 39.9849 23.7C40.7468 24.4273 41.5081 25.1552 42.2689 25.8836L43.3425 26.9129C43.4415 27.0063 43.5335 27.1061 43.6179 27.2118L44.0203 27.5976C44.2119 27.7675 44.3597 27.9777 44.4521 28.2117C44.5444 28.4458 44.5789 28.6971 44.5527 28.9461C44.5264 29.195 44.4403 29.4347 44.301 29.6463C44.1617 29.8579 43.973 30.0356 43.7499 30.1654L43.7515 30.1701Z" fill="#00A49F"/>
<path id="Vector_3" d="M11.8423 21.0057C12.7741 21.0057 13.5294 20.2815 13.5294 19.3882C13.5294 18.4949 12.7741 17.7707 11.8423 17.7707C10.9106 17.7707 10.1553 18.4949 10.1553 19.3882C10.1553 20.2815 10.9106 21.0057 11.8423 21.0057Z" fill="#00A49F"/>
<path id="Vector_4" d="M22.2125 21.0057C23.1442 21.0057 23.8995 20.2815 23.8995 19.3882C23.8995 18.4949 23.1442 17.7707 22.2125 17.7707C21.2807 17.7707 20.5254 18.4949 20.5254 19.3882C20.5254 20.2815 21.2807 21.0057 22.2125 21.0057Z" fill="#00A49F"/>
<path id="Vector_5" d="M32.5689 21.0057C33.5006 21.0057 34.256 20.2815 34.256 19.3882C34.256 18.4949 33.5006 17.7707 32.5689 17.7707C31.6372 17.7707 30.8818 18.4949 30.8818 19.3882C30.8818 20.2815 31.6372 21.0057 32.5689 21.0057Z" fill="#00A49F"/>
<path id="Vector_6" d="M42.9254 21.0057C43.8571 21.0057 44.6124 20.2815 44.6124 19.3882C44.6124 18.4949 43.8571 17.7707 42.9254 17.7707C41.9936 17.7707 41.2383 18.4949 41.2383 19.3882C41.2383 20.2815 41.9936 21.0057 42.9254 21.0057Z" fill="#00A49F"/>
<path id="Vector_7" d="M88.2916 20.9156C89.3388 20.4982 90.7653 20.2831 92.5101 20.2831C93.4828 20.2794 94.4545 20.2239 95.4208 20.1171C98.0067 19.8372 99.73 19.0103 100.698 17.5983C101.232 16.7836 101.53 15.8473 101.562 14.8855C101.593 13.9237 101.357 12.9712 100.878 12.1259C100.42 11.3208 99.7836 10.6222 99.0126 10.0799C98.1947 9.51489 97.2799 9.0916 96.3097 8.8292C93.5622 8.05285 90.6119 8.29003 88.2289 9.48222C85.7239 10.7298 83.8158 13.1473 82.9945 16.112C82.0216 19.6285 82.7703 23.7822 84.9043 26.6916C86.626 29.038 89.54 30.3851 92.9026 30.3851C94.4758 30.406 96.0325 30.0752 97.4493 29.4191C98.5083 28.9189 99.4731 28.2531 100.304 27.4489C100.436 27.3193 100.543 27.1677 100.619 27.0015C100.766 26.7399 100.84 26.4461 100.833 26.149C100.826 25.8519 100.739 25.5616 100.58 25.3065C100.42 25.0515 100.195 24.8404 99.9252 24.6941C99.6554 24.5477 99.3506 24.4711 99.0407 24.4716C98.6799 24.4709 98.3277 24.5763 98.0314 24.7736C97.9901 24.8015 97.951 24.8321 97.9143 24.8653L97.8434 24.9222C97.8134 24.9449 97.7848 24.9692 97.7576 24.995L97.723 25.0234C97.339 25.4168 96.909 25.7664 96.4416 26.0654C95.9317 26.3917 95.3838 26.6596 94.809 26.8639C93.4944 27.3049 92.058 27.2763 90.7636 26.7833C90.0581 26.5253 89.3997 26.1619 88.8127 25.7065C88.2623 25.2836 87.7935 24.7714 87.4274 24.1933C87.1101 23.6995 86.939 23.1321 86.9327 22.5521C86.931 21.82 87.3763 21.2824 88.2916 20.9156ZM93.1137 16.8947C92.5299 16.8947 91.8537 16.92 91.1017 16.9722C90.3486 17.0239 89.6005 17.1296 88.8638 17.2884C88.1376 17.444 87.431 17.674 86.7562 17.9746C86.5688 18.0582 86.386 18.1511 86.2087 18.2529C86.2648 18.0426 86.3192 17.7327 86.3868 17.3042C86.4215 17.0749 86.4528 16.8773 86.4775 16.7903C86.6402 16.2143 86.8756 15.6594 87.1784 15.138C87.7616 14.1107 88.6099 13.244 89.6422 12.6208C90.6185 12.0437 92.0186 11.6721 93.4072 11.6721C95.0333 11.6721 96.6428 12.1844 97.5301 13.481C97.9687 14.1229 98.132 15.1728 97.5663 15.8527C96.9611 16.58 95.7655 16.7556 94.9178 16.8251C94.3175 16.8694 93.7107 16.8947 93.1137 16.8947Z" fill="#00A49F"/>
<path id="Vector_8" d="M79.8182 8.47659C79.3878 8.33203 78.9152 8.35726 78.5042 8.54673C78.0932 8.73619 77.7775 9.07438 77.6265 9.48695L72.4251 23.5893L67.6937 9.58024C67.6631 9.49787 67.6268 9.41757 67.5849 9.3399L67.5717 9.3146C67.5536 9.2814 67.5338 9.24978 67.5107 9.21499C67.3105 8.87325 66.9884 8.6122 66.6037 8.47975C66.3903 8.40711 66.164 8.37554 65.9378 8.38687C65.7117 8.39819 65.4901 8.45218 65.2857 8.54574C65.0814 8.6393 64.8983 8.77059 64.7469 8.9321C64.5956 9.09361 64.4789 9.28216 64.4037 9.48695L59.204 23.5861L54.4396 9.52648C54.2979 9.11028 53.9895 8.76509 53.5824 8.56687C53.1752 8.36864 52.7026 8.33361 52.2685 8.46948C51.8344 8.60534 51.4744 8.90099 51.2676 9.29136C51.0609 9.68174 51.0244 10.1349 51.1661 10.5511L57.4938 29.2514C57.6032 29.58 57.8174 29.8674 58.1061 30.073C58.3949 30.2787 58.7437 30.3923 59.1034 30.3978H59.1314C59.4878 30.3964 59.8349 30.2893 60.1252 30.0911C60.4155 29.8929 60.6346 29.6134 60.7525 29.291L65.9654 15.1696L70.7216 29.242C70.8309 29.5703 71.0448 29.8574 71.3332 30.0631C71.6217 30.2687 71.9701 30.3825 72.3295 30.3883H72.3575C72.714 30.3868 73.0614 30.2797 73.3519 30.0815C73.6424 29.8834 73.8619 29.6039 73.9803 29.2815L80.8704 10.5938C81.0231 10.1792 80.9981 9.7235 80.8009 9.32659C80.6036 8.92968 80.2502 8.62399 79.8182 8.47659Z" fill="#00A49F"/>
<path id="Vector_9" d="M129.772 8.38016C129.303 8.38267 128.854 8.56345 128.523 8.88293C128.192 9.2024 128.007 9.63452 128.008 10.0846V28.6886C128.008 29.1373 128.194 29.5676 128.525 29.8849C128.856 30.2022 129.304 30.3804 129.772 30.3804C130.24 30.3804 130.689 30.2022 131.02 29.8849C131.351 29.5676 131.537 29.1373 131.537 28.6886V10.0846C131.538 9.63452 131.353 9.2024 131.022 8.88293C130.691 8.56345 130.242 8.38267 129.772 8.38016Z" fill="#00A49F"/>
<path id="Vector_10" d="M114.342 8.38015C109.328 8.53827 105.25 12.7236 105.25 17.709V28.6601C105.243 28.8909 105.284 29.1208 105.371 29.3361C105.458 29.5514 105.589 29.7478 105.757 29.9135C105.925 30.0793 106.125 30.211 106.347 30.301C106.569 30.391 106.807 30.4374 107.048 30.4374C107.289 30.4374 107.528 30.391 107.749 30.301C107.971 30.211 108.172 30.0793 108.34 29.9135C108.507 29.7478 108.639 29.5514 108.726 29.3361C108.813 29.1208 108.854 28.8909 108.847 28.6601V17.592C108.847 14.5277 111.338 11.9283 114.401 11.7986C115.188 11.7619 115.975 11.8807 116.713 12.1478C117.451 12.4149 118.123 12.8246 118.689 13.3513C119.26 13.8761 119.714 14.5068 120.023 15.2051C120.332 15.9034 120.49 16.6547 120.486 17.4133V28.6601C120.486 29.1172 120.676 29.5556 121.013 29.8788C121.35 30.202 121.807 30.3836 122.284 30.3836C122.761 30.3836 123.218 30.202 123.555 29.8788C123.892 29.5556 124.081 29.1172 124.081 28.6601V17.4718C124.087 16.2532 123.835 15.0461 123.342 13.9229C122.849 12.7997 122.125 11.7835 121.212 10.9353C120.309 10.0831 119.233 9.41681 118.052 8.97742C116.871 8.53803 115.608 8.33478 114.342 8.38015Z" fill="#00A49F"/>
</g>
</svg>
