<svg xmlns="http://www.w3.org/2000/svg" width="119" height="44" viewBox="0 0 119 44" fill="none">
  <path d="M36.4227 0.226252C36.1918 0.0883366 35.9288 0.0113838 35.659 0.00281161C35.3892 -0.00576059 35.1217 0.0543369 34.8823 0.177311C34.8181 0.210211 34.7565 0.247519 34.6977 0.288958L34.6883 0.298135C34.5541 0.393868 34.4285 0.500812 34.3129 0.617782C33.3915 1.52167 31.9069 3.01743 30.99 3.92437C30.9248 3.99039 30.8554 4.0522 30.7822 4.10943L30.7573 4.12779C30.6889 4.08292 30.6251 4.0317 30.5665 3.97484C30.3587 3.77143 30.1539 3.56649 29.946 3.36308C29.7785 3.19637 29.6125 3.02967 29.4434 2.86449L28.8849 2.3139C28.3063 1.74343 27.7277 1.17143 27.1428 0.607076L27.1211 0.590253C26.9742 0.407489 26.7872 0.259955 26.5741 0.158758C26.361 0.0575604 26.1274 0.00533663 25.8909 0.00601695H25.8739C25.6288 0.00976422 25.3878 0.0688885 25.1696 0.178841C25.1054 0.211741 25.0438 0.249048 24.985 0.290488L24.9741 0.299664C24.8407 0.395295 24.7157 0.501702 24.6002 0.617782C24.1752 1.03378 23.6307 1.57672 23.0784 2.12884L21.2168 3.96414C21.159 4.02209 21.0973 4.07625 21.0322 4.12626C20.9672 4.08132 20.907 4.03008 20.8523 3.97332C20.6444 3.7699 20.4396 3.56496 20.2318 3.36155L19.7291 2.86296L19.1707 2.31237C18.592 1.7419 18.0134 1.1699 17.427 0.605547C17.1598 0.324955 16.8144 0.128593 16.4342 0.0411934C16.4047 0.0411934 16.3737 0.0411934 16.3442 0.0304875C16.2898 0.0209422 16.2349 0.0143049 16.1798 0.010605C16.1752 0.00983491 16.1704 0.00983491 16.1658 0.010605H16.1379C16.1193 0.010605 16.1007 0.010605 16.0805 0.010605C16.0557 0.00903728 16.0308 0.00903728 16.006 0.010605H15.9564C15.9136 0.0148707 15.8712 0.0215088 15.8292 0.0304875C15.7997 0.0304875 15.7718 0.0488408 15.7423 0.0564879C15.4549 0.145228 15.1942 0.302876 14.9837 0.515312C14.6952 0.795195 14.3632 1.12708 14.0142 1.46814C13.3057 2.17575 12.5895 2.88131 11.8656 3.58484L11.3645 4.07732C11.3454 4.09478 11.3252 4.11112 11.304 4.12626L11.2808 4.10943C11.2384 4.08055 11.1984 4.04833 11.1613 4.01308C11.0931 3.9519 11.0264 3.88461 10.9612 3.81884L9.89545 2.76508C9.16117 2.03708 8.42534 1.31163 7.68795 0.588724C7.26755 0.178841 6.82078 -0.0123358 6.36625 0.0014289C6.34093 -0.000137913 6.31554 -0.000137913 6.29023 0.0014289H6.24214C6.19939 0.00569458 6.15692 0.0123321 6.11493 0.0213108C6.08546 0.0213108 6.05754 0.0396641 6.02806 0.0473112C5.74029 0.136346 5.47921 0.293935 5.26792 0.506135C4.98093 0.786018 4.6474 1.1179 4.29991 1.45896C3.58528 2.16249 2.87013 2.86602 2.15446 3.56955L1.14457 4.5652C1.05106 4.65454 0.964461 4.75065 0.885499 4.85273L0.506981 5.22743C0.213023 5.49569 0.0333197 5.86396 0.00418871 6.25782C-0.0249422 6.65168 0.0986724 7.04175 0.350049 7.34921C0.601426 7.65667 0.961819 7.85857 1.35839 7.91413C1.75496 7.96969 2.15814 7.87475 2.48644 7.6485L2.49575 7.63932C2.62996 7.54359 2.75556 7.43664 2.87116 7.31967C3.79884 6.42955 5.28033 4.93532 6.1987 4.02837C6.26442 3.96241 6.33381 3.90011 6.40658 3.84179L6.43605 3.82955C6.50483 3.87391 6.56877 3.92517 6.62686 3.98249C6.83474 4.18437 7.03951 4.38932 7.24738 4.59426C7.41492 4.76096 7.58091 4.92767 7.75001 5.09438L8.30847 5.64496C8.88711 6.21544 9.46574 6.78591 10.0506 7.35026L10.0723 7.36861C10.22 7.55046 10.4075 7.69695 10.6209 7.79708C10.8342 7.89721 11.0678 7.94837 11.304 7.94673H11.3211C11.5646 7.94358 11.804 7.88495 12.0207 7.77544C12.0849 7.74254 12.1465 7.70523 12.2053 7.66379L12.2146 7.65461C12.3489 7.55888 12.4745 7.45194 12.5901 7.33497C13.0136 6.91897 13.5581 6.37602 14.1103 5.82544L15.9719 3.99014C16.0298 3.93271 16.0915 3.87907 16.1565 3.82955C16.2212 3.8749 16.2814 3.9261 16.3365 3.98249C16.5443 4.18437 16.7491 4.38932 16.957 4.59426C17.1245 4.76096 17.2905 4.92767 17.4596 5.09438L18.0181 5.64496C18.5967 6.21544 19.1753 6.78591 19.7602 7.35026C20.0281 7.63102 20.3739 7.82783 20.7546 7.91614C20.784 7.91614 20.8151 7.91614 20.8445 7.92685C20.8989 7.93607 20.9538 7.9422 21.009 7.9452H21.0478C21.0664 7.9452 21.085 7.9452 21.1036 7.9452H21.2293C21.272 7.9407 21.3144 7.93406 21.3565 7.92532C21.3859 7.92532 21.4139 7.90697 21.4433 7.89932C21.7304 7.80966 21.9908 7.65214 22.2019 7.4405C22.4889 7.16061 22.8224 6.82873 23.1684 6.4892C23.8851 5.78567 24.6013 5.08163 25.3169 4.37708L25.818 3.88308C25.8397 3.86473 25.8614 3.84637 25.877 3.83567C25.8856 3.84021 25.8939 3.84532 25.9018 3.85096C25.9439 3.8797 25.9838 3.91139 26.0212 3.94579C26.0895 4.00849 26.1562 4.07426 26.2213 4.14002L27.2871 5.19532C28.0214 5.9223 28.7572 6.64724 29.4946 7.37014C29.9134 7.78003 30.3618 7.97273 30.8163 7.95897H30.9404C30.9832 7.9547 31.0256 7.94806 31.0676 7.93908C31.0971 7.93908 31.125 7.92073 31.1545 7.91308C31.4417 7.82376 31.7022 7.6662 31.9131 7.45426C32.2016 7.17438 32.5336 6.8425 32.8795 6.50297C33.5962 5.79944 34.3124 5.09539 35.0281 4.39084L36.0395 3.37073C36.1326 3.28042 36.2192 3.18384 36.2986 3.08167L36.6771 2.70849C36.8573 2.54413 36.9963 2.34076 37.0832 2.1144C37.1701 1.88805 37.2025 1.64489 37.1778 1.40409C37.1532 1.16329 37.0721 0.931423 36.9411 0.726765C36.8101 0.522106 36.6326 0.350245 36.4227 0.224723V0.226252Z" fill="white"/>
  <path d="M36.4227 21.0829C36.1918 21.2208 35.9288 21.2977 35.659 21.3063C35.3892 21.3149 35.1217 21.2548 34.8823 21.1318C34.8181 21.0989 34.7565 21.0616 34.6977 21.0202L34.6883 21.011C34.5541 20.9153 34.4285 20.8083 34.3129 20.6913C33.3915 19.7875 31.9069 18.2917 30.99 17.3847C30.9243 17.3188 30.8549 17.2565 30.7822 17.1982L30.7573 17.1798C30.6886 17.2242 30.6246 17.2754 30.5665 17.3327C30.3587 17.5362 30.1539 17.7411 29.946 17.9445C29.7785 18.1112 29.6125 18.2795 29.4434 18.4446L28.8849 18.9952C28.3063 19.5657 27.7277 20.1377 27.1428 20.702L27.1211 20.7189C26.9734 20.9007 26.7859 21.0472 26.5725 21.1473C26.3592 21.2475 26.1256 21.2986 25.8894 21.297H25.8723C25.6272 21.2932 25.3863 21.2341 25.168 21.1242C25.1039 21.0913 25.0422 21.054 24.9834 21.0125L24.9725 21.0033C24.8391 20.9072 24.7141 20.8003 24.5987 20.6837C24.1736 20.2677 23.6291 19.7248 23.0769 19.1726L21.2153 17.3373C21.1574 17.2794 21.0957 17.2252 21.0307 17.1752C20.9657 17.2202 20.9054 17.2714 20.8507 17.3282C20.6429 17.5316 20.4381 17.7365 20.2302 17.9399L19.7276 18.44L19.1691 18.9906C18.5905 19.5611 18.0119 20.1331 17.4255 20.6975C17.1579 20.9775 16.8126 21.1738 16.4326 21.2618C16.4032 21.2618 16.3721 21.2618 16.3427 21.2725C16.2868 21.2725 16.2325 21.2909 16.1782 21.2924H16.1363C16.1177 21.2924 16.0991 21.2924 16.0789 21.2924H15.9548C15.9121 21.2881 15.8696 21.2815 15.8276 21.2725C15.7982 21.2725 15.7702 21.2542 15.7408 21.2465C15.4536 21.1572 15.1931 20.9996 14.9822 20.7877C14.6936 20.5078 14.3616 20.1759 14.0126 19.8349L11.8656 17.7243L11.3645 17.2303L11.304 17.1829L11.2808 17.1982C11.2387 17.2269 11.1988 17.2586 11.1613 17.293C11.0931 17.3557 11.0264 17.423 10.9612 17.4887L9.89545 18.5425C9.16169 19.269 8.42792 19.997 7.68795 20.7173C7.26755 21.1288 6.82078 21.3199 6.36624 21.3062C6.33987 21.3062 6.31505 21.3062 6.29023 21.3062H6.24214C6.19939 21.3019 6.15692 21.2953 6.11493 21.2863C6.08546 21.2863 6.05754 21.2679 6.02806 21.2603C5.74055 21.1707 5.47961 21.0132 5.26792 20.8015C4.98093 20.5216 4.6474 20.1897 4.29991 19.8486L2.15446 17.738L1.14457 16.7424C1.05107 16.6525 0.964475 16.5559 0.885498 16.4533L0.511635 16.0649C0.217677 15.7966 0.0379727 15.4283 0.0088418 15.0345C-0.0202891 14.6406 0.103325 14.2505 0.354702 13.9431C0.606079 13.6356 0.966472 13.4337 1.36304 13.3782C1.75962 13.3226 2.16279 13.4176 2.49109 13.6438L2.5004 13.653C2.63461 13.7487 2.76021 13.8557 2.87582 13.9726C3.79884 14.878 5.28033 16.3707 6.1987 17.2884C6.26441 17.3544 6.33381 17.4167 6.40658 17.475L6.4314 17.4933C6.50018 17.449 6.56412 17.3977 6.62221 17.3404C6.83008 17.137 7.03485 16.932 7.24273 16.7286C7.41027 16.5635 7.57626 16.3952 7.74535 16.23L8.30382 15.6795C8.88245 15.109 9.46109 14.537 10.0459 13.9726L10.0676 13.9558C10.2153 13.774 10.4029 13.6275 10.6162 13.5273C10.8295 13.4272 11.0631 13.376 11.2994 13.3777H11.3164C11.5615 13.3814 11.8025 13.4406 12.0207 13.5505C12.0849 13.5834 12.1465 13.6207 12.2053 13.6622L12.2146 13.6713C12.3489 13.7671 12.4745 13.874 12.5901 13.991C13.0136 14.407 13.5581 14.9484 14.1103 15.5005L15.9719 17.3358C16.0298 17.3938 16.0914 17.4479 16.1565 17.4979C16.2212 17.4526 16.2814 17.4014 16.3365 17.345C16.5443 17.1416 16.7491 16.9366 16.957 16.7332C17.1245 16.568 17.2905 16.3998 17.4596 16.2346L18.0181 15.684C18.5967 15.1136 19.1753 14.5416 19.7602 13.9772C20.0286 13.6974 20.3743 13.5012 20.7546 13.4129C20.784 13.4129 20.8151 13.4129 20.8445 13.4022C20.8989 13.3924 20.9538 13.3858 21.009 13.3823H21.1036C21.13 13.3823 21.1563 13.3823 21.1796 13.3823H21.2293C21.272 13.3868 21.3144 13.3934 21.3565 13.4022C21.3859 13.4022 21.4139 13.4205 21.4433 13.4282C21.7304 13.5178 21.9908 13.6753 22.2019 13.887C22.4889 14.1669 22.8224 14.4987 23.1684 14.8383C23.8851 15.5418 24.6013 16.2458 25.3169 16.9504L25.818 17.4444L25.877 17.4918L25.9018 17.4765C25.9439 17.4478 25.9838 17.4161 26.0212 17.3817C26.0895 17.319 26.1562 17.2517 26.2213 17.1859L27.2871 16.1322C28.0209 15.4057 28.7546 14.6777 29.4946 13.9573C29.9134 13.5459 30.3618 13.3547 30.8163 13.3685H30.9404C30.9831 13.3728 31.0256 13.3794 31.0676 13.3884C31.0971 13.3884 31.125 13.4067 31.1545 13.4144C31.4417 13.5037 31.7022 13.6613 31.9131 13.8732C32.2016 14.1531 32.5336 14.485 32.8795 14.8245C33.5962 15.528 34.3124 16.2321 35.0281 16.9366L36.038 17.9323C36.131 18.0226 36.2176 18.1192 36.297 18.2213L36.6756 18.5945C36.8558 18.7589 36.9948 18.9622 37.0817 19.1886C37.1686 19.415 37.201 19.6581 37.1763 19.8989C37.1516 20.1397 37.0706 20.3716 36.9395 20.5762C36.8085 20.7809 36.631 20.9528 36.4212 21.0783L36.4227 21.0829Z" fill="white"/>
  <path d="M6.40658 12.2184C7.28304 12.2184 7.99356 11.5179 7.99356 10.6538C7.99356 9.7897 7.28304 9.08921 6.40658 9.08921C5.53011 9.08921 4.8196 9.7897 4.8196 10.6538C4.8196 11.5179 5.53011 12.2184 6.40658 12.2184Z" fill="white"/>
  <path d="M16.1612 12.2184C17.0376 12.2184 17.7481 11.5179 17.7481 10.6538C17.7481 9.7897 17.0376 9.08921 16.1612 9.08921C15.2847 9.08921 14.5742 9.7897 14.5742 10.6538C14.5742 11.5179 15.2847 12.2184 16.1612 12.2184Z" fill="white"/>
  <path d="M25.9033 12.2184C26.7798 12.2184 27.4903 11.5179 27.4903 10.6538C27.4903 9.7897 26.7798 9.08921 25.9033 9.08921C25.0269 9.08921 24.3163 9.7897 24.3163 10.6538C24.3163 11.5179 25.0269 12.2184 25.9033 12.2184Z" fill="white"/>
  <path d="M35.6455 12.2184C36.522 12.2184 37.2325 11.5179 37.2325 10.6538C37.2325 9.7897 36.522 9.08921 35.6455 9.08921C34.769 9.08921 34.0585 9.7897 34.0585 10.6538C34.0585 11.5179 34.769 12.2184 35.6455 12.2184Z" fill="white"/>
  <path d="M78.3202 12.1312C79.3053 11.7274 80.6472 11.5194 82.2885 11.5194C83.2035 11.5158 84.1175 11.4622 85.0265 11.3589C87.4589 11.0882 89.0801 10.2883 89.9907 8.9225C90.493 8.13446 90.7735 7.22875 90.8032 6.29845C90.8329 5.36816 90.6108 4.44684 90.1598 3.6292C89.7296 2.85041 89.1305 2.17469 88.4052 1.65014C87.6359 1.10362 86.7753 0.69418 85.8627 0.44037C83.2782 -0.310573 80.5029 -0.0811604 78.2613 1.07202C75.9049 2.27873 74.11 4.6172 73.3375 7.48485C72.4222 10.8863 73.1265 14.904 75.1339 17.7182C76.7534 19.9878 79.4946 21.2909 82.6577 21.2909C84.1376 21.311 85.6019 20.9911 86.9346 20.3564C87.9308 19.8726 88.8383 19.2286 89.6199 18.4508C89.7444 18.3253 89.8448 18.1787 89.9162 18.0179C90.0546 17.7649 90.124 17.4808 90.1175 17.1934C90.111 16.906 90.0289 16.6252 89.8792 16.3785C89.7296 16.1318 89.5174 15.9276 89.2637 15.7861C89.0099 15.6445 88.7232 15.5703 88.4316 15.5709C88.0923 15.5702 87.7609 15.6721 87.4822 15.863C87.4434 15.8899 87.4066 15.9196 87.3721 15.9517L87.3054 16.0067C87.2772 16.0287 87.2502 16.0522 87.2247 16.0771L87.1921 16.1046C86.8309 16.4851 86.4264 16.8233 85.9868 17.1125C85.5071 17.4281 84.9917 17.6873 84.451 17.8849C83.2144 18.3114 81.8632 18.2837 80.6456 17.8069C79.982 17.5573 79.3626 17.2058 78.8104 16.7653C78.2927 16.3562 77.8517 15.8609 77.5074 15.3017C77.2088 14.824 77.0479 14.2752 77.042 13.7142C77.0404 13.006 77.4593 12.486 78.3202 12.1312ZM82.8562 8.24191C82.3071 8.24191 81.671 8.26638 80.9636 8.31685C80.2552 8.36685 79.5515 8.46909 78.8585 8.62274C78.1754 8.7732 77.5107 8.99574 76.876 9.2865C76.6997 9.36731 76.5277 9.45716 76.3609 9.55568C76.4137 9.35227 76.4649 9.0525 76.5285 8.63803C76.5611 8.41626 76.5905 8.22509 76.6138 8.14097C76.7669 7.58378 76.9883 7.04707 77.2731 6.54273C77.8217 5.54904 78.6197 4.71071 79.5908 4.1079C80.5091 3.54967 81.8262 3.19026 83.1324 3.19026C84.662 3.19026 86.176 3.68579 87.0106 4.93991C87.4233 5.56085 87.5768 6.57638 87.0447 7.23403C86.4754 7.93756 85.3507 8.10732 84.5534 8.17462C83.9887 8.21744 83.4178 8.24191 82.8562 8.24191Z" fill="white"/>
  <path d="M70.3496 0.099311C69.9448 -0.0405145 69.5002 -0.0161132 69.1136 0.167151C68.727 0.350414 68.43 0.677539 68.288 1.07661L63.3952 14.7174L58.9445 1.16684C58.9157 1.08717 58.8815 1.0095 58.8421 0.934371L58.8297 0.9099C58.8126 0.877783 58.794 0.847194 58.7723 0.813547C58.584 0.482986 58.281 0.230479 57.9191 0.10237C57.7183 0.032103 57.5055 0.00157117 57.2928 0.012523C57.08 0.0234749 56.8716 0.075695 56.6793 0.166193C56.4871 0.256691 56.3149 0.383689 56.1725 0.539912C56.0301 0.696136 55.9204 0.878516 55.8496 1.07661L50.9584 14.7144L46.4767 1.11484C46.3434 0.712258 46.0533 0.378371 45.6703 0.186631C45.2873 -0.00510856 44.8427 -0.0389944 44.4344 0.0924284C44.026 0.223851 43.6874 0.509817 43.4929 0.887417C43.2984 1.26502 43.264 1.70332 43.3974 2.1059L49.3497 20.1943C49.4526 20.5121 49.654 20.79 49.9257 20.989C50.1973 21.1879 50.5254 21.2978 50.8638 21.3031H50.8901C51.2253 21.3018 51.5519 21.1982 51.825 21.0065C52.098 20.8148 52.3042 20.5444 52.4151 20.2325L57.3187 6.57332L61.7927 20.1851C61.8955 20.5027 62.0967 20.7804 62.368 20.9793C62.6394 21.1783 62.9671 21.2883 63.3052 21.2939H63.3316C63.6669 21.2925 63.9936 21.1888 64.2669 20.9972C64.5402 20.8055 64.7467 20.5352 64.858 20.2233L71.3394 2.1472C71.4831 1.74621 71.4596 1.30541 71.274 0.921492C71.0885 0.537573 70.756 0.241891 70.3496 0.099311Z" fill="white"/>
  <path d="M117.34 0.00601661C116.898 0.00844371 116.476 0.183315 116.165 0.492332C115.854 0.80135 115.679 1.21933 115.68 1.65472V19.6498C115.68 20.0838 115.855 20.5001 116.166 20.807C116.478 21.1139 116.9 21.2863 117.34 21.2863C117.78 21.2863 118.203 21.1139 118.514 20.807C118.825 20.5001 119 20.0838 119 19.6498V1.65472C119.001 1.21933 118.827 0.80135 118.515 0.492332C118.204 0.183315 117.782 0.00844371 117.34 0.00601661Z" fill="white"/>
  <path d="M102.825 0.00601542C98.1086 0.158957 94.2723 4.20732 94.2723 9.02956V19.6223C94.2654 19.8455 94.3041 20.0679 94.386 20.2762C94.4679 20.4844 94.5914 20.6743 94.7492 20.8347C94.907 20.995 95.0958 21.1224 95.3045 21.2095C95.5131 21.2965 95.7374 21.3414 95.9639 21.3414C96.1905 21.3414 96.4148 21.2965 96.6235 21.2095C96.8321 21.1224 97.0209 20.995 97.1787 20.8347C97.3365 20.6743 97.46 20.4844 97.5419 20.2762C97.6238 20.0679 97.6625 19.8455 97.6556 19.6223V8.91638C97.6556 5.95238 99.9997 3.43802 102.88 3.31261C103.621 3.27705 104.362 3.39202 105.055 3.65039C105.749 3.90875 106.382 4.30499 106.914 4.81449C107.451 5.32205 107.878 5.93214 108.169 6.60761C108.46 7.28308 108.608 8.00981 108.605 8.74356V19.6223C108.605 20.0644 108.783 20.4884 109.1 20.8011C109.417 21.1137 109.847 21.2893 110.296 21.2893C110.744 21.2893 111.174 21.1137 111.491 20.8011C111.808 20.4884 111.987 20.0644 111.987 19.6223V8.80014C111.992 7.62139 111.755 6.45378 111.291 5.36733C110.827 4.28089 110.146 3.29798 109.287 2.47755C108.438 1.65321 107.426 1.00875 106.315 0.583739C105.204 0.158728 104.016 -0.0378691 102.825 0.00601542Z" fill="white"/>
  <path d="M94.0372 29.3917H81.1748C80.1775 29.3917 79.5387 30.4434 80.0054 31.3178L81.2917 33.7346H78.9595C78.4858 33.7346 78.102 34.1158 78.102 34.5856C78.102 34.7236 78.1358 34.8596 78.2007 34.9818L82.3388 42.7513C82.5607 43.1663 83.0797 43.3247 83.4982 43.1051C83.6501 43.0253 83.7744 42.902 83.8548 42.7513L84.9788 40.6524L86.3888 43.3005C86.8849 44.232 88.2292 44.2335 88.7273 43.3032L95.1744 31.2689C95.6305 30.418 95.0089 29.3917 94.0372 29.3917ZM88.2595 34.5336L85.4796 39.7236C85.332 40 84.9862 40.1052 84.7076 39.9587C84.6066 39.9055 84.5243 39.8238 84.4706 39.7236L81.7176 34.5555C81.5699 34.2792 81.6764 33.9366 81.955 33.7901C82.0369 33.747 82.1279 33.7246 82.2203 33.7242H87.7688C88.0757 33.7242 88.3244 33.9709 88.3244 34.2753C88.3244 34.3651 88.3022 34.4538 88.2595 34.5336ZM107.718 34.9744H106.311V39.7576C106.311 39.8481 106.237 39.9217 106.145 39.9221H105.06C104.969 39.9217 104.894 39.8485 104.894 39.7576V34.9744H103.479C103.391 34.9779 103.317 34.9101 103.313 34.823C103.313 34.8214 103.313 34.8199 103.313 34.818V33.972C103.314 33.8849 103.386 33.8148 103.474 33.8156C103.476 33.8156 103.478 33.8156 103.479 33.8156H107.717C107.809 33.8113 107.887 33.8811 107.891 33.9717V34.818C107.887 34.9093 107.809 34.9787 107.718 34.9744ZM112.234 39.8878C111.945 39.9287 111.457 39.9946 110.562 39.9946C109.494 39.9946 108.55 39.7233 108.55 38.2283V35.4994C108.55 34.004 109.502 33.7412 110.57 33.7412C111.464 33.7412 111.944 33.8071 112.234 33.8479C112.35 33.8641 112.4 33.9058 112.4 34.0125V34.7775C112.4 34.8681 112.326 34.9417 112.234 34.9421H110.488C110.099 34.9421 109.958 35.0735 109.958 35.5009V36.2486H112.168C112.26 36.2486 112.334 36.3222 112.334 36.4131V37.1932C112.334 37.2837 112.26 37.3573 112.168 37.3577H109.958V38.2287C109.958 38.6557 110.099 38.7875 110.488 38.7875H112.234C112.326 38.7879 112.4 38.8611 112.4 38.9521V39.7163C112.4 39.8219 112.351 39.8712 112.234 39.8878ZM118.484 39.9206H117.167C117.059 39.9206 117.01 39.8863 116.952 39.7976L115.81 37.9994L114.775 39.7579C114.717 39.8566 114.66 39.9225 114.569 39.9225H113.343C113.26 39.9225 113.219 39.8732 113.219 39.8158C113.22 39.7957 113.226 39.7761 113.235 39.7579L115.029 36.79L113.217 33.972C113.207 33.957 113.202 33.9401 113.2 33.9227C113.206 33.8599 113.261 33.8133 113.324 33.816H114.658C114.749 33.816 114.815 33.8981 114.864 33.972L115.923 35.6315L116.949 33.972C116.99 33.8981 117.065 33.816 117.155 33.816H118.381C118.445 33.8133 118.499 33.8599 118.506 33.9227C118.504 33.9401 118.498 33.957 118.489 33.972L116.685 36.8078L118.566 39.7583C118.581 39.7834 118.589 39.8115 118.591 39.8404C118.592 39.8878 118.55 39.9206 118.484 39.9206ZM102.505 33.8314C102.515 33.8314 102.524 33.8325 102.533 33.8345C102.602 33.8503 102.645 33.9181 102.629 33.9863C102.629 33.9863 101.193 39.0322 101.17 39.1005C100.973 39.6882 100.47 39.9903 99.8938 39.9903C99.2885 39.9903 98.8129 39.7021 98.6167 39.0989C98.6004 39.0492 97.1322 33.9871 97.1322 33.9871C97.1298 33.9778 97.1291 33.9682 97.1291 33.9586C97.1291 33.8884 97.1862 33.8318 97.2569 33.8314H98.4403C98.5013 33.8314 98.5538 33.8745 98.5654 33.9339L99.7691 38.3489C99.7858 38.438 99.8102 38.4719 99.8848 38.4719C99.9594 38.4719 99.9843 38.4391 100.001 38.3489L101.203 33.935C101.215 33.8757 101.267 33.8329 101.328 33.8325L102.505 33.8314Z" fill="white"/>
  <path d="M65.5467 37.6839C65.668 37.8456 65.8005 37.9596 65.9442 38.0257C66.0903 38.0919 66.25 38.125 66.4233 38.125C66.7775 38.125 67.0486 38.0012 67.2368 37.7537C67.425 37.5063 67.5191 37.1375 67.5191 36.6474C67.5191 36.1916 67.4349 35.8571 67.2666 35.6439C67.1006 35.4283 66.8629 35.3205 66.5534 35.3205C66.3379 35.3205 66.1497 35.3695 65.9887 35.4675C65.8302 35.5655 65.6829 35.704 65.5467 35.8828V37.6839ZM65.5467 35.394C65.7052 35.2127 65.8835 35.0681 66.0816 34.9603C66.2822 34.8524 66.5125 34.7985 66.7725 34.7985C66.9929 34.7985 67.191 34.8402 67.3668 34.9235C67.5451 35.0068 67.6962 35.1281 67.82 35.2874C67.9438 35.4442 68.0379 35.6354 68.1023 35.8608C68.1692 36.0862 68.2026 36.3399 68.2026 36.6216C68.2026 36.923 68.1655 37.1975 68.0912 37.445C68.0169 37.6925 67.9092 37.9044 67.768 38.0809C67.6293 38.2549 67.4597 38.3909 67.2591 38.4889C67.0585 38.5844 66.8332 38.6322 66.5831 38.6322C66.3354 38.6322 66.1262 38.5869 65.9553 38.4962C65.7869 38.4031 65.6396 38.272 65.5133 38.1029L65.4798 38.4411C65.46 38.5342 65.4031 38.5808 65.309 38.5808H64.8818V33.1665H65.5467V35.394Z" fill="white"/>
  <path d="M72.1912 34.8573L70.0924 39.6798C70.0701 39.7288 70.0417 39.768 70.007 39.7974C69.9748 39.8268 69.924 39.8415 69.8547 39.8415H69.3644L70.0516 38.3639L68.4989 34.8573H69.0709C69.1279 34.8573 69.1724 34.872 69.2046 34.9015C69.2393 34.9284 69.2628 34.959 69.2752 34.9933L70.2819 37.3384C70.3215 37.4413 70.3549 37.5491 70.3822 37.6619C70.4168 37.5467 70.454 37.4376 70.4936 37.3347L71.4705 34.9933C71.4854 34.9541 71.5102 34.9223 71.5448 34.8978C71.582 34.8708 71.6228 34.8573 71.6674 34.8573H72.1912Z" fill="white"/>
</svg>